<svg xmlns="http://www.w3.org/2000/svg" viewBox="0 0 698 726" width="698" height="726">
	<style>
		tspan { white-space:pre }
		.shp0 { fill: #eb1d27 } 
	</style>
	<g id="g10">
		<g id="g12">
			<path id="path14" class="shp0" d="M36.27 672.47L36.27 676.3C36.27 677.43 35.94 678.48 35.28 679.42L12.66 716.72L35.64 716.72L35.64 724.98L0.09 724.98L0.09 720.95C0.09 719.89 0.39 718.94 1 718.1L23.62 680.73L1.83 680.73L1.83 672.47L36.27 672.47" />
			<path id="path16" fill-rule="evenodd" class="shp0" d="M89.18 698.68C89.18 702.53 88.58 706.1 87.36 709.38C86.15 712.66 84.43 715.5 82.2 717.9C79.97 720.3 77.29 722.17 74.16 723.52C71.02 724.86 67.54 725.53 63.72 725.53C59.89 725.53 56.41 724.86 53.28 723.52C50.14 722.17 47.45 720.3 45.21 717.9C42.97 715.5 41.23 712.66 40.01 709.38C38.78 706.1 38.17 702.53 38.17 698.68C38.17 694.86 38.78 691.31 40.01 688.03C41.23 684.75 42.97 681.91 45.21 679.52C47.45 677.14 50.14 675.27 53.28 673.91C56.41 672.55 59.89 671.87 63.72 671.87C67.54 671.87 71.02 672.55 74.16 673.91C77.29 675.27 79.97 677.15 82.2 679.54C84.43 681.94 86.15 684.78 87.36 688.05C88.58 691.31 89.18 694.86 89.18 698.68ZM78.58 698.68C78.58 695.89 78.24 693.39 77.56 691.17C76.87 688.96 75.89 687.07 74.61 685.52C73.33 683.96 71.78 682.77 69.94 681.94C68.11 681.11 66.03 680.69 63.72 680.69C61.4 680.69 59.31 681.11 57.47 681.94C55.62 682.77 54.06 683.96 52.78 685.52C51.5 687.07 50.52 688.96 49.84 691.17C49.15 693.39 48.81 695.89 48.81 698.68C48.81 701.51 49.15 704.03 49.84 706.26C50.52 708.48 51.5 710.37 52.78 711.91C54.06 713.45 55.62 714.63 57.47 715.45C59.31 716.27 61.4 716.68 63.72 716.68C66.03 716.68 68.11 716.27 69.94 715.45C71.78 714.63 73.33 713.45 74.61 711.91C75.89 710.37 76.87 708.48 77.56 706.26C78.24 704.03 78.58 701.51 78.58 698.68Z" />
			<path id="path18" class="shp0" d="M123.51 682.35C123.24 682.88 122.93 683.25 122.58 683.48C122.22 683.7 121.78 683.81 121.25 683.81C120.75 683.81 120.21 683.63 119.63 683.26C119.05 682.89 118.37 682.49 117.59 682.05C116.82 681.62 115.91 681.22 114.89 680.85C113.86 680.48 112.67 680.3 111.33 680.3C108.95 680.3 107.17 680.87 105.97 682.03C104.77 683.19 104.17 684.71 104.17 686.58C104.17 687.77 104.49 688.75 105.14 689.53C105.78 690.31 106.64 690.98 107.71 691.55C108.78 692.11 109.99 692.62 111.35 693.07C112.7 693.52 114.09 694 115.52 694.51C116.94 695.03 118.33 695.63 119.69 696.33C121.05 697.03 122.26 697.91 123.33 698.96C124.4 700.02 125.25 701.31 125.9 702.84C126.55 704.36 126.87 706.22 126.87 708.41C126.87 710.78 126.48 713.01 125.7 715.09C124.92 717.18 123.78 718.99 122.28 720.53C120.78 722.07 118.94 723.29 116.76 724.19C114.59 725.09 112.11 725.53 109.31 725.53C107.73 725.53 106.15 725.37 104.58 725.04C103.02 724.71 101.51 724.24 100.06 723.64C98.61 723.03 97.24 722.31 95.94 721.46C94.65 720.62 93.52 719.67 92.54 718.61L95.63 713.67C95.87 713.28 96.19 712.96 96.6 712.72C97.01 712.48 97.45 712.37 97.92 712.37C98.55 712.37 99.21 712.61 99.88 713.1C100.55 713.59 101.33 714.13 102.23 714.72C103.13 715.31 104.17 715.85 105.36 716.34C106.54 716.83 107.95 717.07 109.59 717.07C111.96 717.07 113.81 716.47 115.12 715.25C116.44 714.04 117.1 712.25 117.1 709.87C117.1 708.53 116.78 707.44 116.13 706.59C115.49 705.75 114.64 705.04 113.58 704.48C112.53 703.91 111.32 703.42 109.96 703.01C108.61 702.61 107.22 702.16 105.81 701.69C104.4 701.21 103.02 700.64 101.66 699.97C100.3 699.3 99.09 698.41 98.04 697.3C96.99 696.19 96.14 694.82 95.49 693.19C94.84 691.55 94.52 689.52 94.52 687.1C94.52 685.17 94.89 683.29 95.63 681.46C96.37 679.63 97.45 678 98.87 676.58C100.29 675.15 102.04 674.01 104.11 673.16C106.18 672.3 108.55 671.87 111.21 671.87C114.21 671.87 117 672.36 119.57 673.34C122.14 674.31 124.34 675.68 126.16 677.45L123.51 682.35" />
			<path id="path20" class="shp0" d="M167.91 672.47L167.91 680.93L153.76 680.93L153.76 724.98L143.4 724.98L143.4 680.93L129.24 680.93L129.24 672.47L167.91 672.47Z" />
			<path id="path22" fill-rule="evenodd" class="shp0" d="M211.29 724.98L203.31 724.98C202.38 724.98 201.65 724.76 201.09 724.33C200.54 723.89 200.13 723.35 199.87 722.69L196.55 712.37L177.21 712.37L173.93 722.65C173.71 723.23 173.31 723.76 172.72 724.25C172.13 724.74 171.39 724.98 170.53 724.98L162.42 724.98L181.56 672.47L192.16 672.47L211.29 724.98ZM179.54 705.09L194.17 705.09L188.83 688.48C188.52 687.66 188.19 686.71 187.85 685.61C187.5 684.52 187.16 683.33 186.82 682.03C186.5 683.33 186.17 684.53 185.83 685.63C185.49 686.74 185.17 687.7 184.88 688.52L179.54 705.09Z" />
			<path id="path24" class="shp0" d="M254.28 656.96L241.9 667.92C241.37 668.37 240.87 668.65 240.4 668.77C239.93 668.89 239.31 668.95 238.54 668.95L231.27 668.95L239.06 658.59C239.32 658.22 239.58 657.93 239.85 657.72C240.11 657.51 240.4 657.34 240.72 657.22C241.03 657.1 241.38 657.03 241.76 657C242.15 656.98 242.6 656.96 243.13 656.96L254.28 656.96ZM222.76 672.53C223.08 672.57 223.36 672.64 223.61 672.76C223.86 672.88 224.1 673.05 224.33 673.26C224.55 673.47 224.81 673.75 225.1 674.09L250.96 708.17C250.8 706.43 250.72 704.79 250.72 703.23L250.72 672.47L259.86 672.47L259.86 724.98L254.52 724.98C253.7 724.98 253.02 724.84 252.48 724.57C251.94 724.29 251.41 723.83 250.88 723.2L225.1 689.31C225.25 690.95 225.33 692.46 225.33 693.86L225.33 724.98L216.16 724.98L216.16 672.47L221.62 672.47C222.06 672.47 222.45 672.48 222.76 672.53Z" />
			<path id="path26" fill-rule="evenodd" class="shp0" d="M297.94 706.75L297.94 724.98L287.54 724.98L287.54 672.47L304.42 672.47C307.82 672.47 310.75 672.89 313.2 673.73C315.65 674.58 317.68 675.74 319.29 677.23C320.9 678.72 322.08 680.49 322.85 682.55C323.61 684.61 324 686.86 324 689.31C324 691.9 323.59 694.25 322.79 696.39C321.99 698.53 320.77 700.36 319.15 701.89C317.53 703.42 315.49 704.61 313.04 705.47C310.59 706.32 307.72 706.75 304.42 706.75C304.42 706.75 297.94 706.75 297.94 706.75ZM297.94 698.68L304.42 698.68C307.59 698.68 309.91 697.85 311.38 696.17C312.86 694.5 313.6 692.21 313.6 689.31C313.6 686.6 312.85 684.44 311.34 682.85C309.84 681.25 307.53 680.45 304.42 680.45L297.94 680.45L297.94 698.68Z" />
			<path id="path28" fill-rule="evenodd" class="shp0" d="M369.63 724.98L361.64 724.98C360.72 724.98 359.98 724.76 359.43 724.33C358.87 723.89 358.47 723.35 358.2 722.69L354.88 712.37L335.54 712.37L332.26 722.65C332.05 723.23 331.65 723.76 331.06 724.25C330.46 724.74 329.73 724.98 328.86 724.98L320.75 724.98L339.89 672.47L350.49 672.47L369.63 724.98ZM337.88 705.09L352.51 705.09L347.17 688.48C346.85 687.66 346.52 686.71 346.18 685.61C345.84 684.52 345.49 683.33 345.15 682.03C344.84 683.33 344.51 684.53 344.16 685.63C343.82 686.74 343.5 687.7 343.21 688.52L337.88 705.09Z" />
			<path id="path30" fill-rule="evenodd" class="shp0" d="M384.78 704.77L384.78 724.98L374.34 724.98L374.34 672.47L390.15 672.47C393.66 672.47 396.67 672.84 399.17 673.59C401.67 674.34 403.72 675.39 405.32 676.74C406.91 678.08 408.08 679.69 408.82 681.56C409.56 683.43 409.93 685.49 409.93 687.73C409.93 689.44 409.69 691.07 409.21 692.61C408.74 694.16 408.05 695.57 407.14 696.84C406.23 698.12 405.11 699.26 403.8 700.25C402.48 701.23 400.96 702.03 399.25 702.64C399.91 703.01 400.53 703.45 401.11 703.96C401.69 704.48 402.23 705.1 402.73 705.84L414.47 724.98L405.1 724.98C403.44 724.98 402.16 724.28 401.27 722.89L391.69 706.51C391.3 705.88 390.86 705.43 390.37 705.17C389.88 704.91 389.19 704.77 388.3 704.77C388.3 704.77 384.78 704.77 384.78 704.77ZM384.78 697.38L390.08 697.38C391.76 697.38 393.22 697.15 394.45 696.71C395.67 696.26 396.68 695.64 397.47 694.85C398.26 694.06 398.85 693.11 399.23 692.02C399.61 690.93 399.8 689.73 399.8 688.44C399.8 685.89 399.01 683.91 397.43 682.53C395.85 681.15 393.42 680.45 390.15 680.45L384.78 680.45L384.78 697.38Z" />
			<path id="path32" class="shp0" d="M453.86 672.47L453.86 680.93L439.7 680.93L439.7 724.98L429.34 724.98L429.34 680.93L415.19 680.93L415.19 672.47L453.86 672.47" />
			<path id="path34" class="shp0" d="M466 672.53C466.31 672.57 466.6 672.64 466.85 672.76C467.1 672.88 467.34 673.05 467.56 673.26C467.79 673.47 468.04 673.75 468.33 674.09L494.19 708.17C494.04 706.43 493.96 704.79 493.96 703.23L493.96 672.47L503.09 672.47L503.09 724.98L497.75 724.98C496.94 724.98 496.26 724.84 495.72 724.57C495.18 724.29 494.64 723.83 494.11 723.2L468.33 689.31C468.49 690.95 468.57 692.46 468.57 693.86L468.57 724.98L459.4 724.98L459.4 672.47L464.85 672.47C465.3 672.47 465.68 672.48 466 672.53" />
			<path id="path36" class="shp0" d="M544.61 672.47L544.61 680.73L523.02 680.73L523.02 694.61L539.83 694.61L539.83 702.56L523.02 702.56L523.02 716.72L544.65 716.72L544.61 724.98L512.58 724.98L512.58 672.47L544.61 672.47" />
			<path id="path38" fill-rule="evenodd" class="shp0" d="M562.53 704.77L562.53 724.98L552.09 724.98L552.09 672.47L567.9 672.47C571.41 672.47 574.42 672.84 576.92 673.59C579.42 674.34 581.47 675.39 583.07 676.74C584.66 678.08 585.83 679.69 586.57 681.56C587.31 683.43 587.68 685.49 587.68 687.73C587.68 689.44 587.44 691.07 586.97 692.61C586.49 694.16 585.8 695.57 584.89 696.84C583.98 698.12 582.86 699.26 581.55 700.25C580.23 701.23 578.71 702.03 577 702.64C577.66 703.01 578.28 703.45 578.86 703.96C579.44 704.48 579.98 705.1 580.48 705.84L592.22 724.98L582.85 724.98C581.19 724.98 579.91 724.28 579.02 722.89L569.45 706.51C569.05 705.88 568.61 705.43 568.12 705.17C567.63 704.91 566.94 704.77 566.05 704.77C566.05 704.77 562.53 704.77 562.53 704.77ZM562.53 697.38L567.83 697.38C569.51 697.38 570.97 697.15 572.19 696.71C573.42 696.26 574.43 695.64 575.22 694.85C576.01 694.06 576.6 693.11 576.98 692.02C577.36 690.93 577.55 689.73 577.55 688.44C577.55 685.89 576.76 683.91 575.18 682.53C573.6 681.15 571.17 680.45 567.9 680.45L562.53 680.45L562.53 697.38Z" />
			<path id="path40" class="shp0" d="M629.71 672.47L629.71 680.73L608.12 680.73L608.12 694.61L624.93 694.61L624.93 702.56L608.12 702.56L608.12 716.72L629.75 716.72L629.71 724.98L597.68 724.98L597.68 672.47L629.71 672.47" />
			<path id="path42" class="shp0" d="M667.99 707.74C668.36 706.82 668.73 705.91 669.1 705.03C669.47 704.15 669.87 703.3 670.32 702.48L686.5 674.09C686.71 673.69 686.93 673.38 687.15 673.16C687.37 672.93 687.62 672.78 687.88 672.68C688.14 672.59 688.45 672.53 688.79 672.51C689.13 672.48 689.53 672.47 689.98 672.47L697.81 672.47L697.81 724.98L688.67 724.98L688.67 692.12C688.67 691.41 688.69 690.64 688.73 689.81C688.77 688.97 688.83 688.13 688.91 687.25L672.34 716.6C671.52 718.13 670.32 718.89 668.74 718.89L667.28 718.89C665.67 718.89 664.46 718.13 663.64 716.6L646.87 687.1C646.98 687.99 647.06 688.87 647.11 689.73C647.16 690.58 647.19 691.38 647.19 692.12L647.19 724.98L638.02 724.98L638.02 672.47L645.89 672.47C646.33 672.47 646.72 672.48 647.05 672.51C647.38 672.53 647.69 672.6 647.96 672.7C648.24 672.81 648.49 672.97 648.71 673.18C648.94 673.39 649.15 673.69 649.36 674.09L665.66 702.56C666.55 704.22 667.33 705.95 667.99 707.74" />
			<path id="path44" class="shp0" d="M188.18 199.25C188.18 219.59 188.18 239.93 188.18 260.27C188.18 262.89 190.48 265.39 193.18 265.27C195.89 265.15 198.18 263.08 198.18 260.27C198.18 239.93 198.18 219.59 198.18 199.25C198.18 196.64 195.88 194.13 193.18 194.25C190.47 194.38 188.18 196.45 188.18 199.25L188.18 199.25Z" />
			<path id="path46" class="shp0" d="M202.41 211.4C225.85 210.47 249.28 209.54 272.71 208.61C275.32 208.51 277.84 206.38 277.71 203.61C277.6 200.99 275.51 198.5 272.71 198.61C249.28 199.54 225.85 200.47 202.41 201.4C199.8 201.5 197.29 203.63 197.41 206.4C197.53 209.02 199.61 211.51 202.41 211.4L202.41 211.4Z" />
			<path id="path48" class="shp0" d="M266.25 206.67C265.44 223.3 264.63 239.93 263.82 256.57C263.69 259.18 266.21 261.68 268.82 261.57C271.64 261.44 273.68 259.37 273.82 256.57C274.63 239.93 275.44 223.3 276.25 206.67C276.38 204.05 273.86 201.55 271.25 201.67C268.43 201.8 266.39 203.87 266.25 206.67L266.25 206.67" />
			<path id="path50" class="shp0" d="M200.57 261.58C220.91 261.58 241.25 261.58 261.59 261.58C264.21 261.58 266.71 259.28 266.59 256.58C266.47 253.87 264.4 251.58 261.59 251.58C241.25 251.58 220.91 251.58 200.57 251.58C197.96 251.58 195.45 253.87 195.57 256.58C195.69 259.28 197.77 261.58 200.57 261.58L200.57 261.58Z" />
			<path id="path52" class="shp0" d="M405.11 198C401.57 217.34 399.36 236.92 398.56 256.56C398.45 259.18 400.93 261.68 403.56 261.56C406.36 261.43 408.44 259.36 408.56 256.56C409.33 237.74 411.37 219.14 414.75 200.66C415.22 198.1 414.05 195.15 411.26 194.51C408.81 193.95 405.61 195.25 405.11 198L405.11 198Z" />
			<path id="path54" class="shp0" d="M404.05 214.66C421.52 213.45 439 212.24 456.47 211.04C460.9 210.73 465.32 210.42 469.75 210.12C471.64 209.99 473.6 209.7 475.5 209.8C476.18 209.84 474.78 209.37 475.88 209.9C474.42 209.2 475.34 209.45 474.71 209.02C474.66 208.89 474.62 208.76 474.58 208.63C474.68 208.92 474.75 209.21 474.8 209.51C474.64 208.63 474.77 209.75 474.77 210.05C474.97 218.63 474.78 227.25 474.78 235.83C474.78 245.83 474.78 255.83 474.78 265.82C474.78 268.44 477.08 270.94 479.78 270.82C482.49 270.7 484.78 268.63 484.78 265.82C484.78 256.49 484.78 247.16 484.78 237.83C484.78 228.58 484.99 219.3 484.77 210.05C484.73 207.95 484.43 205.81 483.34 203.97C481.82 201.42 479.13 200.14 476.26 199.86C474.31 199.67 472.35 199.94 470.41 200.07C467.98 200.24 465.54 200.41 463.11 200.58C453.82 201.22 444.53 201.86 435.24 202.5C424.84 203.22 414.44 203.94 404.05 204.66C401.44 204.84 398.92 206.83 399.05 209.66C399.16 212.21 401.25 214.85 404.05 214.66L404.05 214.66" />
			<path id="path56" class="shp0" d="M402.12 270.82C426.77 270.82 451.43 270.82 476.08 270.82C478.7 270.82 481.2 268.52 481.08 265.82C480.96 263.11 478.89 260.82 476.08 260.82C451.43 260.82 426.77 260.82 402.12 260.82C399.51 260.82 397 263.12 397.12 265.82C397.24 268.53 399.32 270.82 402.12 270.82L402.12 270.82Z" />
			<path id="path58" class="shp0" d="M226.48 227.35C224.06 210.33 224.75 191.47 227.67 174.56C230.75 156.64 236.13 139.18 242.82 122.3C249.45 105.6 257.67 89.07 266.46 73.15C274.35 58.88 282.7 45.21 293.79 33.72C299.49 27.81 304.99 23.23 311.89 19.15C313.37 18.28 314.88 17.47 316.42 16.73C317.26 16.31 318.11 15.93 318.97 15.55C319.88 15.15 319.27 15.42 319.08 15.5C319.66 15.27 320.24 15.03 320.83 14.81C324.22 13.54 327.71 12.53 331.26 11.81C332.03 11.65 332.8 11.51 333.58 11.38C334.04 11.31 334.51 11.23 334.97 11.16C334.01 11.31 335.04 11.15 335.28 11.13C337.06 10.91 338.85 10.77 340.65 10.71C342.36 10.65 344.07 10.65 345.77 10.74C346.62 10.78 347.47 10.83 348.31 10.91C348.69 10.95 349.08 10.98 349.46 11.03C349.76 11.06 350.07 11.1 350.37 11.14C349.8 11.06 349.81 11.06 350.41 11.15C353.71 11.71 356.94 12.45 360.1 13.59C360.52 13.74 360.94 13.9 361.36 14.06C361.47 14.1 362.83 14.69 361.83 14.25C362.52 14.55 363.2 14.87 363.87 15.2C365.48 16 367.04 16.9 368.54 17.9C369.23 18.36 369.9 18.83 370.56 19.33C371.26 19.86 369.7 18.59 370.8 19.53C371.15 19.83 371.5 20.11 371.84 20.41C373.28 21.66 374.63 23.02 375.88 24.46C378.24 27.18 380.39 30.63 382.25 34.17C386.33 41.96 389.14 50.19 392.41 58.67C399.52 77.14 406.51 95.66 413.38 114.22C427.11 151.35 440.34 188.67 453.07 226.16C454.61 230.71 456.15 235.27 457.69 239.83C458.54 242.39 461.13 244.07 463.84 243.33C466.33 242.64 468.19 239.75 467.33 237.17C454.38 198.61 440.89 160.22 426.88 122.03C419.87 102.93 412.73 83.89 405.46 64.89C402.03 55.92 398.71 46.88 394.98 38.02C391.45 29.6 387.2 21.34 380.59 14.89C369.84 4.39 354.5 0.01 339.72 0.75C332.07 1.13 324.42 2.71 317.29 5.51C309.57 8.55 302.67 12.81 296.19 17.98C282.9 28.61 272.74 42.75 264.06 57.24C254.66 72.92 246.26 89.31 238.89 106.04C223.76 140.36 213.01 177.65 215.31 215.51C215.61 220.36 216.15 225.19 216.84 230C217.22 232.68 220.62 234.15 222.99 233.5C225.87 232.71 226.86 230.03 226.48 227.35L226.48 227.35" />
			<path id="path60" class="shp0" d="M255.09 220.53C254.18 189.48 260.54 159.27 270.73 129.91C275.81 115.28 281.65 101.36 288.17 87.38C291.02 81.29 293.92 75.21 297.18 69.32C298.7 66.57 300.29 63.86 301.98 61.22C302.78 59.97 303.6 58.74 304.45 57.53C304.92 56.85 305.39 56.19 305.87 55.53C306.07 55.26 306.26 55 306.46 54.74C306.46 54.73 307.4 53.51 306.86 54.2C308.73 51.79 310.73 49.48 312.87 47.31C313.87 46.3 314.9 45.32 315.96 44.38C316.55 43.86 317.14 43.35 317.75 42.86C317.99 42.66 318.23 42.47 318.48 42.27C317.73 42.87 318.91 41.95 318.95 41.92C321.31 40.18 323.83 38.64 326.47 37.37C326.82 37.2 327.17 37.04 327.52 36.88C327.73 36.79 328.67 36.41 327.83 36.74C328.4 36.51 328.98 36.29 329.57 36.08C331.06 35.55 332.57 35.11 334.11 34.75C337.27 34.03 340.65 33.73 343.67 34.61C346.36 35.38 348.88 37.37 351.16 39.42C356.21 43.98 359.61 48.26 363.07 53.75C370.27 65.15 374.34 76.49 379.01 88.99C381.47 95.57 383.97 102.13 386.76 108.58C389.92 115.9 393.44 123.07 396.91 130.25C400.28 137.25 403.67 144.31 406.5 151.44C409.41 158.76 411.83 166.26 413.9 173.86C418.03 189.1 420.72 204.69 423.1 220.28C423.7 224.18 424.28 228.09 424.85 231.99C425.25 234.66 428.63 236.14 431.01 235.48C433.87 234.69 434.89 232.01 434.5 229.33C432.1 213.1 429.68 196.84 425.96 180.85C422.21 164.74 416.83 149.3 409.87 134.31C403.36 120.27 396.34 106.59 390.86 92.19C385.92 79.2 381.41 65.92 374.67 53.72C371.37 47.76 367.48 42.08 362.9 37.02C358.05 31.65 351.96 25.9 344.59 24.56C330.7 22.02 316.48 29.86 306.81 39.24C297.38 48.39 290.5 59.99 284.66 71.67C277.58 85.82 271.2 100.37 265.52 115.14C254 145.1 245.9 176.73 245.07 208.95C244.97 212.81 244.98 216.67 245.09 220.53C245.17 223.14 247.34 225.65 250.09 225.53C252.74 225.41 255.17 223.33 255.09 220.53L255.09 220.53" />
			<path id="path62" class="shp0" d="M143.25 170.97C167.6 170.97 191.94 170.97 216.29 170.97C218.91 170.97 221.41 168.67 221.29 165.97C221.17 163.26 219.09 160.97 216.29 160.97C191.94 160.97 167.6 160.97 143.25 160.97C140.64 160.97 138.13 163.27 138.25 165.97C138.37 168.68 140.45 170.97 143.25 170.97L143.25 170.97" />
			<path id="path64" class="shp0" d="M258.84 174.03C297.67 171.63 336.54 170 375.43 169.15C386.48 168.91 397.53 168.73 408.59 168.61C411.2 168.58 413.71 166.33 413.59 163.61C413.47 160.93 411.39 158.58 408.59 158.61C369.69 159.03 330.79 160.21 291.94 162.17C280.9 162.73 269.87 163.35 258.84 164.03C256.23 164.2 253.71 166.22 253.84 169.03C253.95 171.61 256.04 174.21 258.84 174.03L258.84 174.03" />
			<path id="path66" class="shp0" d="M439.09 173.77C459.17 173.38 479.25 173.69 499.3 174.7C509.21 175.21 519.11 175.89 529 176.74C534.06 177.17 539.11 177.65 544.15 178.18C545.36 178.3 546.57 178.43 547.77 178.56C548.87 178.68 549.63 178.75 550.1 178.84C550.98 179.01 551.84 179.19 552.7 179.46C554.11 179.89 552.14 179.1 553.43 179.8C553.93 180.14 554.02 180.18 553.72 179.92C553.98 180.14 554.23 180.38 554.47 180.63C554.82 180.97 555.01 181.3 555.49 182.17C556.12 183.33 556.09 183.34 556.49 184.37C557.29 186.43 558.02 188.52 558.74 190.61C560.25 195.02 561.61 199.48 562.84 203.98C565.24 212.76 567.11 221.68 568.55 230.66C571.38 248.35 572.47 267.05 572.65 285.33C572.86 306.24 571.9 327.14 570.89 348.03C570.76 350.64 573.28 353.14 575.89 353.03C578.7 352.9 580.75 350.83 580.89 348.03C582.73 309.83 584.36 271.41 579 233.41C577.68 224 575.9 214.64 573.56 205.43C571.27 196.38 568.69 187.07 564.82 178.55C562.69 173.85 558.91 170.51 553.81 169.4C548.97 168.34 543.82 168.13 538.89 167.65C528.79 166.66 518.67 165.85 508.55 165.23C485.43 163.8 462.25 163.32 439.09 163.77C436.48 163.82 433.97 166.03 434.09 168.77C434.21 171.44 436.29 173.83 439.09 173.77L439.09 173.77" />
			<path id="path68" class="shp0" d="M144.22 159.92C134.59 160.06 125.61 164.61 118.92 171.4C111.8 178.62 107.55 188.17 105.17 197.92C102.6 208.49 101.75 219.53 101.32 230.37C100.88 241.48 101.02 252.61 101.06 263.73C101.14 286.57 101.21 309.4 101.29 332.23C101.37 355.07 101.44 377.9 101.52 400.73C101.6 423.45 101.67 446.18 101.75 468.9C101.76 471.78 101.77 474.66 101.78 477.54C101.79 480.16 104.07 482.67 106.78 482.54C109.48 482.42 111.79 480.35 111.78 477.54C111.7 455.27 111.63 432.99 111.55 410.71C111.48 388.43 111.4 366.15 111.33 343.87C111.25 321.59 111.18 299.31 111.11 277.03C111.03 255.19 110.06 233.04 112.83 211.32C112.91 210.66 113.06 209.69 113.23 208.6C113.43 207.35 113.64 206.11 113.88 204.86C114.35 202.47 114.89 200.1 115.56 197.76C116.89 193.05 118.39 189.26 120.87 185.11C121.43 184.17 122.03 183.26 122.66 182.37C123.27 181.5 123.46 181.25 124.41 180.16C125.83 178.55 127.37 177.07 129.02 175.7C129.45 175.34 129.1 175.62 129.01 175.69C129.21 175.53 129.42 175.38 129.63 175.23C130.04 174.93 130.46 174.64 130.88 174.36C131.8 173.75 132.75 173.18 133.72 172.66C134.16 172.43 134.62 172.2 135.07 171.98C135.25 171.9 136.38 171.43 135.73 171.69C136.74 171.29 137.77 170.94 138.83 170.66C139.31 170.53 139.8 170.41 140.29 170.31C140.54 170.26 140.78 170.21 141.03 170.16C141.05 170.16 141.86 170.01 141.36 170.09C140.85 170.18 141.67 170.06 141.69 170.06C141.94 170.03 142.19 170.01 142.45 169.99C143.04 169.95 143.63 169.93 144.22 169.92C146.83 169.88 149.34 167.65 149.22 164.92C149.1 162.24 147.02 159.87 144.22 159.92L144.22 159.92" />
			<path id="path70" class="shp0" d="M101.23 478.96C106.93 495.58 114.95 513.08 130.45 522.71C139.62 528.4 150.4 529.91 160.96 530.7C172.36 531.54 183.8 531.79 195.23 531.8C218.15 531.83 241.07 530.87 263.99 531.56C275.56 531.91 287.12 532.7 298.6 534.21C309.76 535.68 320.84 537.67 332 539.16C354.97 542.24 378.05 542.08 401.18 541.95C424.49 541.82 447.81 541.69 471.12 541.56C482.7 541.5 494.27 541.49 505.85 541.36C515.25 541.26 525.03 540.84 534 537.74C543.18 534.57 550.67 528.72 555.83 520.47C560.83 512.47 563.46 503.18 565.89 494.15C577.65 450.43 583.83 405.13 584.22 359.86C584.26 354.41 584.22 348.95 584.1 343.5C583.96 337.07 573.96 337.05 574.1 343.5C575.05 387.16 570.62 430.86 560.77 473.41C558.45 483.43 556.09 493.57 552.76 503.31C550.16 510.94 546.4 518.77 539.77 523.7C532.96 528.76 524.26 530.4 515.98 531C505.79 531.73 495.5 531.43 485.3 531.48C462.61 531.61 439.93 531.74 417.25 531.86C394.73 531.98 372.1 532.68 349.63 531.03C327.57 529.41 305.93 524.45 283.89 522.65C261.51 520.81 239.04 521.3 216.61 521.62C205.46 521.78 194.3 521.91 183.15 521.68C172.58 521.47 161.67 521.42 151.23 519.62C142.41 518.1 134.64 514.68 128.33 508.24C122.58 502.38 118.51 495.08 115.21 487.63C113.57 483.93 112.18 480.12 110.87 476.3C108.79 470.25 99.13 472.85 101.23 478.96L101.23 478.96" />
			<path id="path72" class="shp0" d="M165.32 347.18C165.32 375 165.32 402.83 165.32 430.65C165.32 433.27 167.62 435.77 170.32 435.65C173.03 435.53 175.32 433.45 175.32 430.65C175.32 402.83 175.32 375 175.32 347.18C175.32 344.56 173.02 342.06 170.32 342.18C167.61 342.3 165.32 344.38 165.32 347.18L165.32 347.18Z" />
			<path id="path74" class="shp0" d="M142.8 376.59C143 376.62 144.42 377.16 143.56 376.69C144.48 377.19 143.95 376.89 143.73 376.76C143.83 376.9 143.94 377.04 144.04 377.18C143.9 376.96 143.77 376.74 143.65 376.51C144.17 377.46 143.7 376.74 143.69 376.4C143.68 375.61 143.6 377.63 143.68 376.34C143.69 376.22 143.9 375.1 143.68 375.8C143.38 376.76 144.19 374.67 143.54 376.14C143.64 375.91 144.39 374.79 144.19 375.03C143.77 375.54 144.85 374.41 144.78 374.48C145.79 373.45 144.41 374.69 145.11 374.21C145.86 373.7 146.65 373.25 147.47 372.86C147.77 372.71 148.07 372.57 148.38 372.44C147.44 372.85 149.2 372.14 149.12 372.17C150.16 371.78 151.21 371.41 152.26 371.08C160.47 368.44 168.3 367.53 176.79 367.15C181.05 366.97 185.32 366.93 189.58 366.95C191.53 366.96 193.55 366.83 195.49 367.01C195.4 366.99 195.3 366.97 195.21 366.94C195.75 367.1 195.88 367.12 195.59 367.01C195.56 367.08 195.11 366.7 195.18 366.68C195.28 366.65 195.89 367.91 195.95 368.02C196.39 368.86 195.96 367.67 196.19 368.67C196.29 369.07 196.42 369.46 196.51 369.86C196.56 370.08 196.69 371.13 196.6 370.25C196.68 371.09 196.65 371.91 196.64 372.75C196.6 374.25 196.87 371.94 196.57 373.42C196.5 373.75 196.43 374.08 196.35 374.41C196.23 374.9 196.09 375.39 195.93 375.87C195.88 376.03 195.34 377.31 195.68 376.57C195.33 377.34 194.91 378.08 194.46 378.79C194.47 378.77 193.51 380.1 194.03 379.43C193.82 379.7 193.59 379.96 193.37 380.21C192.8 380.85 192.19 381.46 191.55 382.03C190.75 382.74 190.77 382.73 189.7 383.44C188.84 384.02 187.94 384.55 187.03 385.03C186.57 385.27 186.1 385.51 185.63 385.73C185.49 385.79 184.19 386.35 184.91 386.06C182.9 386.87 180.8 387.53 178.68 388C175.02 388.82 170.59 388.96 167.42 387.51C164.96 386.38 162.03 386.81 160.58 389.3C159.32 391.45 159.9 395.01 162.37 396.14C172.23 400.67 184.07 398.35 193.21 393.03C202.2 387.81 208.34 378.06 206.2 367.45C205.68 364.84 204.47 362.2 202.72 360.18C200.57 357.71 197.58 357.03 194.44 356.98C189.07 356.9 183.68 356.9 178.31 357.09C167.56 357.47 156.59 358.71 146.47 362.52C141.28 364.48 135.43 367.52 134.01 373.41C133.34 376.24 133.74 379.37 135.2 381.9C136.88 384.79 139.57 386.2 142.8 386.59C145.41 386.91 147.91 384.07 147.8 381.59C147.67 378.61 145.59 376.93 142.8 376.59L142.8 376.59" />
			<path id="path76" class="shp0" d="M205.84 382.11C204.67 395.24 204.13 409.29 212.63 420.28C216.27 424.97 221.43 428.82 227.38 429.89C231.53 430.64 235.5 429.97 238.73 427.12C241.08 425.05 242.68 422.05 244.15 419.33C250.45 407.68 253.96 394.39 253.93 381.13C253.92 374.13 252.42 367.31 247.77 361.89C243.81 357.26 237.85 354.51 231.81 354.1C224.97 353.64 217.73 356.83 213.33 362.06C208.4 367.91 206.88 375.62 207.63 383.1C207.89 385.69 209.74 388.23 212.63 388.1C215.11 387.99 217.91 385.89 217.63 383.1C217.5 381.81 217.42 380.52 217.43 379.22C217.44 378.67 217.46 378.11 217.49 377.56C217.52 377.19 217.55 376.82 217.59 376.45C217.53 376.98 217.61 376.29 217.63 376.14C217.86 374.87 218.19 373.64 218.6 372.42C218.83 371.72 218.61 372.25 218.94 371.59C219.27 370.95 219.61 370.33 220 369.72C220.82 368.45 222.47 366.91 223.89 366.04C224.39 365.74 224.91 365.47 225.43 365.21C225.93 364.96 225.47 365.16 225.37 365.21C225.67 365.08 225.99 364.97 226.3 364.86C226.77 364.7 227.25 364.55 227.73 364.43C227.94 364.37 229.69 364.07 228.85 364.16C229.99 364.03 231.15 364.04 232.3 364.14C231.44 364.06 232.86 364.26 233.12 364.32C233.67 364.44 234.21 364.59 234.75 364.77C235.06 364.87 235.36 364.98 235.66 365.1C235.57 365.06 235.06 364.83 235.58 365.08C236.09 365.33 236.59 365.59 237.08 365.87C237.57 366.16 238.04 366.47 238.5 366.8C238.97 367.13 238.53 366.83 238.45 366.76C238.7 366.97 238.95 367.18 239.19 367.4C239.61 367.78 240 368.18 240.38 368.6C240.46 368.68 241.11 369.44 240.77 369.02C240.47 368.65 240.95 369.27 240.96 369.29C241.28 369.76 241.59 370.23 241.86 370.72C242.16 371.25 242.42 371.79 242.52 372.05C242.99 373.22 243.3 374.47 243.54 375.71C243.76 376.87 243.84 377.85 243.9 379.36C244.3 389.72 241.99 400.55 237.74 409.83C236.6 412.31 235.33 414.74 233.93 417.08C233.6 417.62 233.27 418.14 232.92 418.67C232.94 418.64 232.43 419.34 232.69 419.02C232.94 418.69 232.39 419.34 232.41 419.32C232.17 419.56 231.93 419.84 231.66 420.05C231.78 419.96 232.09 419.77 231.63 420.01C231.41 420.13 231.26 420.21 230.99 420.23C229.74 420.33 229.35 420.17 228.03 419.76C227.8 419.69 227.57 419.61 227.34 419.54C227.31 419.53 226.58 419.25 227.05 419.44C227.57 419.65 226.67 419.26 226.56 419.2C226.28 419.06 226 418.92 225.72 418.76C225.24 418.49 224.76 418.2 224.3 417.89C224.11 417.75 223.91 417.62 223.72 417.48C223.07 417 224.21 417.9 223.6 417.37C222.75 416.64 221.93 415.87 221.18 415.02C220.33 414.07 220.24 413.96 219.34 412.52C218.64 411.41 218.03 410.25 217.48 409.05C217.24 408.53 217.46 409.02 217.5 409.11C217.38 408.81 217.26 408.51 217.15 408.2C216.92 407.59 216.72 406.97 216.54 406.34C216.08 404.78 215.73 403.18 215.49 401.57C214.59 395.5 215.27 388.48 215.84 382.11C216.08 379.5 213.38 377 210.84 377.11C207.94 377.24 206.1 379.31 205.84 382.11L205.84 382.11" />
			<path id="path78" class="shp0" d="M251.96 367.25C251.97 385.12 251.97 402.98 251.98 420.85C255.32 420.85 258.65 420.85 261.98 420.85C261.82 402.24 261.91 383.63 262.26 365.03C259.41 366.2 256.57 367.38 253.72 368.56C261.31 374.83 266.67 383.36 274.38 389.49C278.58 392.83 283.99 396.26 289.54 396.43C296.6 396.64 298.23 388.78 300.88 383.83C301.53 382.62 302.21 381.43 302.97 380.29C303.36 379.69 303.77 379.1 304.2 378.53C303.69 379.2 304.74 377.92 304.91 377.73C305.37 377.22 305.86 376.72 306.37 376.25C306.6 376.05 306.83 375.85 307.06 375.65C307.67 375.12 306.14 376.22 307.31 375.45C307.83 375.12 308.33 374.78 308.87 374.48C309.14 374.33 309.41 374.2 309.69 374.06C310.62 373.58 309.13 374.25 310.23 373.86C308.11 372.25 306.01 370.64 303.9 369.03C303.23 387.49 303.65 405.97 305.17 424.37C305.38 426.97 307.31 429.5 310.17 429.37C312.69 429.25 315.4 427.16 315.17 424.37C313.65 405.97 313.23 387.49 313.9 369.03C314.01 365.96 310.58 363.13 307.57 364.21C302.31 366.09 298.37 369.57 295.15 374.06C292.33 377.97 290.72 382.39 288.53 386.64C288.43 386.83 288.26 387.05 288.19 387.25C288.04 387.65 288.44 387.03 288.75 386.83C288.67 386.88 289.48 386.49 289.54 386.43C289.71 386.26 289.88 386.51 289.31 386.34C288.79 386.19 288.26 386.05 287.75 385.88C287.53 385.81 287.31 385.73 287.09 385.65C287.12 385.66 285.89 385.15 286.42 385.39C286.96 385.63 286.1 385.23 285.98 385.17C285.78 385.07 285.58 384.97 285.37 384.87C284.91 384.63 284.44 384.37 283.99 384.1C283.01 383.52 282.08 382.87 281.16 382.2C281.9 382.74 280.54 381.68 280.38 381.55C280.03 381.25 279.68 380.95 279.34 380.64C278.41 379.81 277.51 378.94 276.64 378.05C275.02 376.41 273.48 374.69 271.95 372.97C268.41 368.97 264.92 364.9 260.79 361.49C259.22 360.19 257.31 359.59 255.33 360.45C253.5 361.26 252.3 362.98 252.26 365.03C251.91 383.63 251.82 402.24 251.98 420.85C252.01 423.46 254.27 425.97 256.98 425.85C259.69 425.73 261.98 423.65 261.98 420.85C261.97 402.98 261.97 385.12 261.96 367.25C261.96 364.64 259.66 362.13 256.96 362.25C254.25 362.38 251.96 364.45 251.96 367.25L251.96 367.25" />
			<path id="path80" class="shp0" d="M326.13 365.14C326.15 386.11 324.74 407.23 321.79 427.9C325.06 428.34 328.34 428.79 331.61 429.23C331.8 410.19 333.75 391.43 337.62 372.84C337.8 371.96 338.04 371.08 338.23 370.2C338.53 368.89 337.89 370.67 338.5 369.5C338.57 369.36 338.89 368.63 338.59 369.33C338.69 369.23 338.8 369.13 338.91 369.03C338.47 369.35 338.49 369.36 338.97 369.05C338.84 369.1 338.71 369.15 338.59 369.19C338.86 369.09 339.15 369.01 339.44 368.94C339.73 368.85 340.29 368.93 339.45 368.93C339.75 368.92 340.05 368.92 340.35 368.94C339.78 368.84 339.78 368.85 340.37 368.97C340.28 368.94 341.65 369.42 341.09 369.18C340.5 368.92 341.93 369.67 341.82 369.61C342.96 370.23 341.46 369.14 342.4 370.04C342.64 370.27 342.89 370.5 343.12 370.74C343.11 370.73 344.2 371.97 343.64 371.27C343.95 371.66 344.23 372.1 344.5 372.52C345.11 373.48 345.64 374.48 346.13 375.51C346.65 376.58 347.35 378.81 347.77 380.47C348.31 382.61 348.7 384.78 349 386.97C348.89 386.18 349.14 388.06 349.12 387.93C349.17 388.31 349.21 388.69 349.26 389.07C349.38 390.16 349.5 391.25 349.62 392.34C349.89 394.85 350.16 397.37 350.43 399.88C351.61 410.82 352.8 421.75 353.98 432.69C354.26 435.28 356.08 437.82 358.98 437.69C361.45 437.58 364.28 435.47 363.98 432.69C362.82 421.97 361.66 411.25 360.5 400.54C359.41 390.46 359.13 379.79 354.77 370.46C352.62 365.86 349.18 361.66 344.36 359.77C339.96 358.06 334.41 358.97 331.22 362.59C327.86 366.41 327.49 372.35 326.61 377.16C325.6 382.68 324.77 388.24 324.05 393.81C322.53 405.55 321.73 417.38 321.61 429.23C321.59 431.72 323.53 433.81 325.95 434.14C328.15 434.43 331.08 433.02 331.43 430.56C334.53 408.88 336.15 387.04 336.13 365.14C336.12 362.53 333.83 360.02 331.13 360.14C328.42 360.26 326.12 362.34 326.13 365.14L326.13 365.14" />
			<path id="path82" class="shp0" d="M327.77 410.44C337.97 409.99 348.18 409.53 358.39 409.08C361 408.97 363.52 406.87 363.39 404.08C363.28 401.47 361.19 398.96 358.39 399.08C348.18 399.53 337.97 399.99 327.77 400.44C325.16 400.55 322.64 402.65 322.77 405.44C322.88 408.05 324.97 410.56 327.77 410.44L327.77 410.44Z" />
			<path id="path84" class="shp0" d="M397.87 367.74C395.04 363.82 390.7 361.63 385.81 362C381.35 362.33 376.89 364.25 373.89 367.64C370.2 371.81 368.75 377.14 368.09 382.54C367.54 387.08 367.45 391.78 367.68 396.34C367.92 401.09 368.71 405.86 370.95 410.1C373.43 414.79 377.77 417.99 382.75 419.61C391.12 422.32 402.76 421.65 409.13 414.91C413.51 410.27 415.09 402.65 409.64 398.12C407.4 396.25 404.66 395.21 401.8 394.81C400.91 394.69 400.02 394.58 399.13 394.48C398.86 394.45 398.59 394.42 398.33 394.39C398.12 394.36 397.52 394.25 398.05 394.35C397.36 394.22 396.68 394.07 395.99 393.88C396 393.88 395.22 393.58 395.62 393.75C395.93 393.9 394.83 393.26 394.83 393.26C394.83 396.14 394.83 399.02 394.83 401.9C400.36 399.29 406.37 397.31 412.47 395.95C415.11 395.36 416.65 392.31 415.96 389.8C415.22 387.08 412.46 385.71 409.81 386.31C402.88 387.86 396.21 390.24 389.79 393.26C386.2 394.95 386.88 400.03 389.79 401.9C391.56 403.04 393.59 403.7 395.66 404.03C396.9 404.23 398.15 404.38 399.4 404.51C399.49 404.52 400.38 404.64 399.67 404.53C400.2 404.61 400.72 404.72 401.25 404.85C401.62 404.95 401.99 405.07 402.36 405.2C401.39 404.85 402.74 405.43 402.84 405.47C403.03 405.56 403.55 406.04 402.91 405.47C403.03 405.58 403.93 406.63 403.24 405.77C402.75 405.17 403.28 405.4 403.24 405.79C403.33 404.8 403.19 406.73 403.22 405.75C403.21 406.1 403.03 406.49 403.19 406.06C402.98 406.63 402.59 407.18 402.25 407.67C402.76 406.94 402.35 407.54 402.21 407.68C401.9 407.97 401.59 408.29 401.28 408.58C400.62 409.23 401.09 408.73 401.27 408.61C400.91 408.85 400.55 409.09 400.17 409.31C399.85 409.49 399.52 409.65 399.19 409.81C398.44 410.19 400.28 409.48 398.94 409.91C398.07 410.19 397.22 410.47 396.32 410.66C395.94 410.75 395.57 410.81 395.19 410.87C394.32 411.02 396.37 410.81 394.91 410.9C394.14 410.95 393.37 411.01 392.6 411.02C391.84 411.02 391.08 410.99 390.32 410.94C389.8 410.9 389.27 410.86 388.74 410.78C389.56 410.9 387.96 410.62 387.97 410.63C387.11 410.45 386.25 410.24 385.41 409.96C385.44 409.97 383.85 409.36 384.64 409.71C384.33 409.57 384.01 409.41 383.71 409.25C383.25 409 382.8 408.73 382.37 408.44C381.03 407.55 382.59 408.69 381.95 408.11C381.65 407.84 381.37 407.57 381.09 407.27C380.95 407.13 380.19 406.15 380.68 406.84C378.85 404.3 378.09 401.1 377.84 398.58C377.49 395.06 377.57 391.51 377.7 387.98C377.76 386.17 377.85 384.34 378.09 382.54C377.99 383.29 378.16 382.17 378.2 381.99C378.27 381.55 378.36 381.11 378.46 380.68C378.69 379.64 378.99 378.62 379.34 377.62C379.89 376.06 379.14 377.97 379.56 377.11C379.83 376.56 380.12 376.01 380.44 375.49C380.38 375.59 381.36 374.18 380.93 374.73C380.68 375.05 381.55 374.08 381.67 373.96C381.87 373.77 382.08 373.58 382.29 373.41C381.42 374.14 382.8 373.11 383.01 373C383.25 372.86 383.5 372.74 383.75 372.6C384.27 372.36 384.25 372.36 383.71 372.6C383.97 372.5 384.24 372.41 384.5 372.33C384.77 372.25 385.04 372.18 385.31 372.11C385.58 372.05 385.85 371.99 386.12 371.95C385.47 372.03 385.43 372.04 386.01 371.98C386.28 371.98 386.55 371.96 386.82 371.96C387.09 371.96 387.35 371.97 387.62 371.99C386.94 371.89 386.89 371.88 387.45 371.99C387.69 372.05 387.97 372.13 388.21 372.18C389.21 372.37 387.34 372.07 388.59 372.35C388.87 372.41 389.54 373.07 388.69 372.33C388.89 372.51 389.92 373.73 389.24 372.79C390.81 374.97 393.59 376.03 396.08 374.58C398.24 373.31 399.46 369.94 397.87 367.74L397.87 367.74" />
			<path id="path86" class="shp0" d="M427.91 365.08C425.27 386.5 422.63 407.93 420 429.35C423.33 429.35 426.66 429.35 430 429.35C430.89 420.37 431.79 411.39 432.69 402.41C433.52 394.03 434.03 385.24 435.37 377.12C435.53 376.14 435.69 375.16 435.92 374.19C436 373.84 436.11 373.5 436.2 373.15C436.26 372.9 436.64 372.01 436.23 372.91C436.35 372.65 436.52 372.4 436.63 372.14C437.03 371.19 436.05 372.44 436.83 371.84C435.98 372.5 436.52 371.99 436.74 371.92C436.42 372.11 436.08 372.2 435.71 372.17C436.21 372.18 436.25 372.17 435.83 372.15C435.65 372.06 434.43 371.75 435.35 372.09C435.21 371.99 435.07 371.9 434.93 371.8C435.02 371.89 435.11 371.98 435.2 372.08C435.1 371.95 435.01 371.83 434.91 371.7C435.07 371.93 435.21 372.17 435.35 372.42C435.45 372.56 435.77 373.29 435.39 372.4C436.13 374.12 436.38 376.06 436.73 377.88C438.35 386.44 439.77 395.03 440.99 403.65C442.34 413.21 443.42 423.07 444.24 432.81C444.46 435.4 446.38 437.93 449.24 437.81C451.76 437.69 454.48 435.59 454.24 432.81C452.55 412.85 449.85 392.96 446 373.3C445.24 369.42 443.65 365.37 440.08 363.27C435.55 360.6 430.05 363.08 427.79 367.47C425.69 371.53 425.37 376.41 424.86 380.87C424.29 385.85 423.84 390.85 423.34 395.84C422.23 407.01 421.11 418.18 420 429.35C419.73 431.96 422.48 434.46 425 434.35C427.98 434.22 429.65 432.14 430 429.35C432.63 407.93 435.27 386.5 437.91 365.08C438.23 362.47 435.38 359.97 432.91 360.08C429.93 360.21 428.26 362.29 427.91 365.08L427.91 365.08" />
			<path id="path88" class="shp0" d="M426.39 410.42C441.47 405.64 456.73 403.47 472.52 403.86C475.13 403.92 477.64 401.51 477.52 398.86C477.39 396.09 475.32 393.93 472.52 393.86C456.03 393.45 439.45 395.79 423.73 400.77C421.16 401.59 419.51 404.25 420.24 406.92C420.94 409.46 423.81 411.23 426.39 410.42L426.39 410.42" />
			<path id="path90" class="shp0" d="M469.15 360.9C468.48 381.69 467.81 402.48 467.14 423.28C467.05 425.89 469.5 428.4 472.14 428.28C474.92 428.15 477.05 426.08 477.14 423.28C477.81 402.48 478.48 381.69 479.15 360.9C479.23 358.28 476.79 355.78 474.15 355.9C471.36 356.02 469.24 358.1 469.15 360.9L469.15 360.9Z" />
			<path id="path92" class="shp0" d="M471.47 368.09C477.48 381.47 484.81 394.22 493.35 406.15C494.92 408.34 497.71 409.39 500.19 407.94C502.36 406.67 503.57 403.31 501.99 401.1C493.44 389.18 486.11 376.43 480.1 363.04C479 360.58 475.42 359.99 473.26 361.25C470.73 362.73 470.36 365.62 471.47 368.09L471.47 368.09Z" />
			<path id="path94" class="shp0" d="M515.56 372.24C509.42 379.87 503.28 387.5 497.14 395.12C496.28 396.19 495.68 397.23 495.68 398.66C495.68 399.89 496.22 401.35 497.14 402.19C498.96 403.86 502.46 404.37 504.21 402.19C510.35 394.57 516.49 386.94 522.63 379.31C523.49 378.24 524.09 377.2 524.09 375.78C524.09 374.55 523.55 373.09 522.63 372.24C520.81 370.57 517.31 370.07 515.56 372.24L515.56 372.24Z" />
			<path id="path96" class="shp0" d="M518.23 365.14C518.23 388.03 518.23 410.93 518.23 433.82C518.23 436.44 520.53 438.94 523.23 438.82C525.94 438.7 528.23 436.63 528.23 433.82C528.23 410.93 528.23 388.03 528.23 365.14C528.23 362.53 525.93 360.02 523.23 360.14C520.52 360.26 518.23 362.34 518.23 365.14L518.23 365.14Z" />
			<path id="path98" class="shp0" d="M508.55 171.17C511.5 183.42 517.68 194.35 525.98 203.76C529.81 208.1 534.01 212.08 538.31 215.94C542.76 219.93 547.23 224.4 552.37 227.49C558.67 231.29 566.03 231.59 573.17 230.99C575.77 230.77 578.3 228.84 578.17 225.99C578.05 223.47 575.96 220.75 573.17 220.99C570.45 221.21 567.72 221.37 564.99 221.18C563.01 221.04 560.29 220.43 558.4 219.42C553.94 217.03 550.22 213.18 546.25 209.64C538.16 202.44 530.48 194.98 525.11 185.82C521.87 180.29 519.71 174.81 518.19 168.51C517.56 165.88 514.58 164.32 512.04 165.02C509.36 165.75 507.91 168.53 508.55 171.17L508.55 171.17" />
			<path id="path100" class="shp0" d="M566.34 472.11C558.83 470.58 552.28 474.05 545.79 477.37C540.65 479.99 535.54 482.72 530.76 485.96C525.88 489.25 521.21 493.02 517.47 497.59C513.28 502.69 510.27 508.44 508.42 514.78C506.35 521.88 505.68 529.35 505.19 536.7C505.01 539.32 507.61 541.82 510.19 541.7C513.05 541.57 515 539.5 515.19 536.7C515.93 525.67 517.2 514.64 523.91 505.46C524.06 505.26 524.21 505.05 524.37 504.85C523.95 505.39 524.48 504.72 524.53 504.66C524.92 504.21 525.3 503.75 525.7 503.3C526.6 502.29 527.55 501.31 528.54 500.37C529.47 499.49 530.43 498.64 531.42 497.83C532.52 496.92 532.61 496.85 533.89 495.93C538.21 492.81 542.86 490.17 547.57 487.69C550.21 486.3 552.86 484.92 555.55 483.64C556.96 482.97 558.23 482.44 559.82 482.02C561.3 481.63 562.49 481.51 563.68 481.75C566.23 482.27 569.2 481.02 569.83 478.26C570.4 475.77 569.08 472.67 566.34 472.11L566.34 472.11" />
			<path id="path102" class="shp0" d="M111.34 476.1C111.7 476.04 112.07 475.97 112.44 475.92C111.79 476.01 112.7 475.91 112.76 475.9C113.5 475.85 114.23 475.78 114.96 475.75C116.61 475.69 118.25 475.73 119.89 475.87C121.47 476.01 121.56 476.03 123.17 476.35C124.71 476.65 126.23 477.04 127.72 477.49C130.89 478.44 133 479.31 135.86 480.75C138.56 482.12 141.17 483.67 143.68 485.37C148.58 488.67 152.99 492.51 157.34 496.93C161.63 501.29 164.98 505.33 168.19 510.24C170.02 513.03 171.67 515.93 173.13 518.93C174.54 521.86 175.51 524.36 176.57 527.8C177.36 530.38 180.06 532.02 182.72 531.29C185.27 530.59 187 527.73 186.21 525.14C182.28 512.33 174.92 500.9 165.74 491.23C156.36 481.33 144.99 472.75 131.97 468.35C124.43 465.81 116.52 465.15 108.68 466.46C106.01 466.9 104.52 470.2 105.19 472.61C105.96 475.43 108.66 476.55 111.34 476.1L111.34 476.1Z" />
			<path id="path104" class="shp0" d="M114.76 230.31C119.78 227.86 124.77 225.33 129.72 222.72C134.61 220.14 139.95 217.76 144.16 214.11C147.83 210.92 149.76 206.36 152.51 202.46C153.04 201.71 153.55 201.13 154.31 200.19C155.22 199.07 156.15 197.93 156.9 196.68C158.42 194.17 159.11 191.42 159.43 188.53C159.74 185.86 159.5 183.17 159.3 180.49C159.2 179.18 159.1 177.86 159.07 176.54C159.05 175.79 159.06 175.04 159.09 174.3C159.11 174.02 159.13 173.74 159.15 173.46C159.24 172.47 158.93 174.58 159.23 172.87C159.67 170.3 158.55 167.36 155.74 166.72C153.31 166.17 150.06 167.45 149.59 170.21C149.02 173.47 149.01 176.64 149.26 179.93C149.37 181.43 149.5 182.92 149.56 184.43C149.58 185.16 149.59 185.9 149.57 186.64C149.56 186.83 149.4 188.69 149.5 188C149.08 190.87 147.95 192.23 146.17 194.43C144.23 196.81 142.63 199.32 141.04 201.95C140.36 203.08 139.67 204.24 138.85 205.28C139.2 204.83 138.06 206.13 137.91 206.27C137.61 206.57 136.78 207.29 136.7 207.35C134.07 209.3 130.96 210.73 128.09 212.27C122.03 215.53 115.9 218.66 109.71 221.67C107.29 222.86 106.63 226.31 107.92 228.51C109.37 230.99 112.32 231.5 114.76 230.31L114.76 230.31" />
		</g>
	</g>
</svg>