<svg xmlns="http://www.w3.org/2000/svg" viewBox="0 0 806 818" width="806" height="818">
	<style>
		tspan { white-space:pre }
		.shp0 { fill: #eb1d27 } 
	</style>
	<g id="g10">
		<g id="g12">
			<path id="path14" class="shp0" d="M36.53 764.47L36.53 768.3C36.53 769.43 36.2 770.48 35.54 771.42L12.93 808.72L35.9 808.72L35.9 816.98L0.35 816.98L0.35 812.95C0.35 811.89 0.65 810.94 1.26 810.1L23.88 772.73L2.09 772.73L2.09 764.47L36.53 764.47Z" />
			<path id="path16" fill-rule="evenodd" class="shp0" d="M42.43 816.98L42.43 764.47L60.26 764.47C63.63 764.47 66.52 764.8 68.92 765.45C71.32 766.11 73.28 767.05 74.79 768.26C76.31 769.47 77.42 770.95 78.11 772.67C78.81 774.4 79.16 776.33 79.16 778.46C79.16 779.68 78.99 780.85 78.65 781.98C78.31 783.12 77.78 784.17 77.07 785.15C76.35 786.12 75.44 787.01 74.32 787.82C73.2 788.62 71.86 789.3 70.3 789.85C77.08 791.49 80.47 795.35 80.47 801.44C80.47 803.68 80.06 805.75 79.24 807.65C78.42 809.55 77.23 811.19 75.66 812.57C74.09 813.96 72.16 815.04 69.85 815.81C67.54 816.59 64.9 816.98 61.92 816.98C61.92 816.98 42.43 816.98 42.43 816.98ZM52.83 787.01L59.67 787.01C62.59 787.01 64.85 786.45 66.43 785.33C68.01 784.21 68.8 782.35 68.8 779.77C68.8 777.08 68.11 775.19 66.75 774.09C65.37 773 63.21 772.45 60.26 772.45L52.83 772.45L52.83 787.01ZM52.83 794.16L52.83 808.91L61.72 808.91C63.38 808.91 64.77 808.7 65.87 808.28C66.98 807.86 67.86 807.29 68.5 806.58C69.15 805.87 69.61 805.04 69.87 804.11C70.13 803.17 70.26 802.2 70.26 801.2C70.26 800.12 70.11 799.15 69.81 798.28C69.51 797.41 69.02 796.67 68.35 796.06C67.67 795.46 66.79 794.99 65.7 794.66C64.6 794.33 63.27 794.16 61.68 794.16L52.83 794.16Z" />
			<path id="path18" class="shp0" d="M99.13 816.98L88.69 816.98L88.69 764.47L99.13 764.47L99.13 816.98Z" />
			<path id="path20" fill-rule="evenodd" class="shp0" d="M148.33 748.96L135.95 759.92C135.42 760.37 134.92 760.65 134.45 760.77C133.97 760.89 133.35 760.95 132.59 760.95L125.31 760.95L133.1 750.59C133.36 750.22 133.63 749.93 133.89 749.72C134.15 749.51 134.45 749.34 134.76 749.22C135.08 749.1 135.43 749.03 135.81 749C136.19 748.98 136.65 748.96 137.17 748.96L148.33 748.96ZM155.8 801.38C154.59 804.66 152.87 807.5 150.64 809.9C148.41 812.3 145.73 814.17 142.59 815.52C139.45 816.86 135.97 817.53 132.15 817.53C128.33 817.53 124.85 816.86 121.71 815.52C118.57 814.17 115.89 812.3 113.64 809.9C111.4 807.5 109.67 804.66 108.44 801.38C107.22 798.1 106.61 794.53 106.61 790.68C106.61 786.86 107.22 783.31 108.44 780.03C109.67 776.75 111.4 773.91 113.64 771.52C115.89 769.14 118.57 767.27 121.71 765.91C124.85 764.55 128.33 763.87 132.15 763.87C135.97 763.87 139.45 764.55 142.59 765.91C145.73 767.27 148.41 769.15 150.64 771.54C152.87 773.94 154.59 776.78 155.8 780.05C157.01 783.31 157.62 786.86 157.62 790.68C157.62 794.53 157.01 798.1 155.8 801.38ZM147.02 790.68C147.02 787.89 146.68 785.39 145.99 783.17C145.31 780.96 144.32 779.07 143.05 777.52C141.77 775.96 140.21 774.77 138.38 773.94C136.55 773.11 134.47 772.69 132.15 772.69C129.83 772.69 127.75 773.11 125.9 773.94C124.06 774.77 122.5 775.96 121.22 777.52C119.94 779.07 118.96 780.96 118.27 783.17C117.59 785.39 117.24 787.89 117.24 790.68C117.24 793.51 117.59 796.03 118.27 798.26C118.96 800.48 119.94 802.37 121.22 803.91C122.5 805.45 124.06 806.63 125.9 807.45C127.75 808.27 129.83 808.68 132.15 808.68C134.47 808.68 136.55 808.27 138.38 807.45C140.21 806.63 141.77 805.45 143.05 803.91C144.32 802.37 145.31 800.48 145.99 798.26C146.68 796.03 147.02 793.51 147.02 790.68Z" />
			<path id="path22" fill-rule="evenodd" class="shp0" d="M174.58 796.77L174.58 816.98L164.14 816.98L164.14 764.47L179.96 764.47C183.47 764.47 186.47 764.84 188.98 765.59C191.48 766.34 193.53 767.39 195.13 768.74C196.72 770.08 197.89 771.69 198.63 773.56C199.36 775.43 199.73 777.49 199.73 779.73C199.73 781.44 199.5 783.07 199.02 784.61C198.55 786.16 197.85 787.57 196.94 788.84C196.03 790.12 194.92 791.26 193.6 792.25C192.28 793.23 190.77 794.03 189.06 794.64C189.71 795.01 190.33 795.45 190.91 795.96C191.49 796.48 192.03 797.1 192.54 797.84L204.28 816.98L194.91 816.98C193.25 816.98 191.97 816.28 191.07 814.89L181.5 798.51C181.11 797.88 180.67 797.43 180.18 797.17C179.69 796.91 179 796.77 178.1 796.77C178.1 796.77 174.58 796.77 174.58 796.77ZM174.58 789.38L179.88 789.38C181.57 789.38 183.03 789.15 184.25 788.71C185.48 788.26 186.49 787.64 187.28 786.85C188.07 786.06 188.65 785.11 189.04 784.02C189.42 782.93 189.61 781.73 189.61 780.44C189.61 777.89 188.82 775.91 187.24 774.53C185.65 773.15 183.23 772.45 179.96 772.45L174.58 772.45L174.58 789.38Z" />
			<path id="path24" class="shp0" d="M219.27 786.25L220.93 786.25C222.51 786.25 223.63 785.73 224.29 784.67L234.61 766.6C235.19 765.81 235.83 765.26 236.53 764.94C237.23 764.62 238.08 764.47 239.08 764.47L248.13 764.47L234.61 786.1C233.63 787.49 232.59 788.48 231.49 789.06C232.28 789.35 232.99 789.77 233.62 790.33C234.25 790.88 234.86 791.58 235.44 792.42L249.2 816.98L239.99 816.98C238.83 816.98 237.97 816.8 237.4 816.45C236.83 816.09 236.35 815.62 235.95 815.04L225.48 795.9C225.08 795.27 224.61 794.81 224.07 794.52C223.53 794.23 222.79 794.08 221.84 794.08L219.27 794.08L219.27 816.98L208.87 816.98L208.87 764.47L219.27 764.47L219.27 786.25Z" />
			<path id="path26" fill-rule="evenodd" class="shp0" d="M298.4 816.98L290.41 816.98C289.48 816.98 288.75 816.76 288.19 816.33C287.64 815.89 287.23 815.35 286.97 814.69L283.65 804.37L264.31 804.37L261.03 814.65C260.81 815.23 260.41 815.76 259.82 816.25C259.23 816.74 258.5 816.98 257.63 816.98L249.52 816.98L268.66 764.47L279.26 764.47C279.26 764.47 298.4 816.98 298.4 816.98ZM266.64 797.09L281.27 797.09L275.93 780.48C275.62 779.66 275.29 778.71 274.95 777.61C274.6 776.52 274.26 775.33 273.92 774.03C273.6 775.33 273.27 776.53 272.93 777.63C272.59 778.74 272.27 779.7 271.98 780.52L266.64 797.09Z" />
			<path id="path28" class="shp0" d="M343.2 808.6C345.04 808.6 346.69 808.29 348.12 807.69C349.56 807.08 350.77 806.22 351.76 805.12C352.75 804.01 353.51 802.67 354.03 801.08C354.56 799.5 354.83 797.74 354.83 795.78L354.83 764.47L365.19 764.47L365.19 795.78C365.19 798.95 364.68 801.86 363.66 804.52C362.65 807.19 361.19 809.49 359.29 811.42C357.4 813.36 355.09 814.87 352.37 815.95C349.66 817.03 346.6 817.57 343.2 817.57C339.8 817.57 336.73 817.03 334.01 815.95C331.28 814.87 328.96 813.36 327.07 811.42C325.17 809.49 323.71 807.19 322.69 804.52C321.68 801.86 321.17 798.95 321.17 795.78L321.17 764.47L331.57 764.47L331.57 795.78C331.57 797.74 331.84 799.5 332.36 801.08C332.89 802.67 333.65 804.01 334.64 805.12C335.63 806.22 336.84 807.08 338.28 807.69C339.71 808.29 341.35 808.6 343.2 808.6" />
			<path id="path30" fill-rule="evenodd" class="shp0" d="M384.72 796.77L384.72 816.98L374.28 816.98L374.28 764.47L390.1 764.47C393.61 764.47 396.61 764.84 399.11 765.59C401.62 766.34 403.67 767.39 405.26 768.74C406.86 770.08 408.03 771.69 408.76 773.56C409.5 775.43 409.87 777.49 409.87 779.73C409.87 781.44 409.63 783.07 409.16 784.61C408.69 786.16 407.99 787.57 407.08 788.84C406.17 790.12 405.06 791.26 403.74 792.25C402.42 793.23 400.91 794.03 399.19 794.64C399.85 795.01 400.47 795.45 401.05 795.96C401.63 796.48 402.17 797.1 402.67 797.84L414.42 816.98L405.05 816.98C403.39 816.98 402.11 816.28 401.21 814.89L391.64 798.51C391.25 797.88 390.8 797.43 390.32 797.17C389.83 796.91 389.14 796.77 388.24 796.77C388.24 796.77 384.72 796.77 384.72 796.77ZM384.72 789.38L390.02 789.38C391.71 789.38 393.16 789.15 394.39 788.71C395.62 788.26 396.62 787.64 397.41 786.85C398.21 786.06 398.79 785.11 399.17 784.02C399.56 782.93 399.75 781.73 399.75 780.44C399.75 777.89 398.96 775.91 397.38 774.53C395.79 773.15 393.37 772.45 390.1 772.45L384.72 772.45L384.72 789.38Z" />
			<path id="path32" fill-rule="evenodd" class="shp0" d="M467.33 790.68C467.33 794.53 466.72 798.1 465.51 801.38C464.3 804.66 462.58 807.5 460.35 809.9C458.12 812.3 455.44 814.17 452.3 815.52C449.17 816.86 445.69 817.53 441.86 817.53C438.04 817.53 434.56 816.86 431.42 815.52C428.29 814.17 425.6 812.3 423.36 809.9C421.11 807.5 419.38 804.66 418.16 801.38C416.93 798.1 416.32 794.53 416.32 790.68C416.32 786.86 416.93 783.31 418.16 780.03C419.38 776.75 421.11 773.91 423.36 771.52C425.6 769.14 428.29 767.27 431.42 765.91C434.56 764.55 438.04 763.87 441.86 763.87C445.69 763.87 449.17 764.55 452.3 765.91C455.44 767.27 458.12 769.15 460.35 771.54C462.58 773.94 464.3 776.78 465.51 780.05C466.72 783.31 467.33 786.86 467.33 790.68ZM456.73 790.68C456.73 787.89 456.39 785.39 455.7 783.17C455.02 780.96 454.03 779.07 452.76 777.52C451.48 775.96 449.92 774.77 448.09 773.94C446.26 773.11 444.18 772.69 441.86 772.69C439.54 772.69 437.46 773.11 435.61 773.94C433.77 774.77 432.21 775.96 430.93 777.52C429.65 779.07 428.67 780.96 427.98 783.17C427.3 785.39 426.95 787.89 426.95 790.68C426.95 793.51 427.3 796.03 427.98 798.26C428.67 800.48 429.65 802.37 430.93 803.91C432.21 805.45 433.77 806.63 435.61 807.45C437.46 808.27 439.54 808.68 441.86 808.68C444.18 808.68 446.26 808.27 448.09 807.45C449.92 806.63 451.48 805.45 452.76 803.91C454.03 802.37 455.02 800.48 455.7 798.26C456.39 796.03 456.73 793.51 456.73 790.68Z" />
			<path id="path34" fill-rule="evenodd" class="shp0" d="M518.38 790.68C518.38 794.53 517.77 798.07 516.56 801.3C515.35 804.53 513.63 807.31 511.4 809.63C509.17 811.95 506.49 813.75 503.35 815.04C500.22 816.33 496.74 816.98 492.91 816.98L473.77 816.98L473.77 764.47L492.91 764.47C496.74 764.47 500.22 765.11 503.35 766.4C506.49 767.69 509.17 769.5 511.4 771.82C513.63 774.14 515.35 776.91 516.56 780.13C517.77 783.34 518.38 786.86 518.38 790.68ZM507.82 790.68C507.82 787.89 507.48 785.39 506.79 783.17C506.11 780.96 505.13 779.07 503.85 777.52C502.57 775.96 501.01 774.77 499.16 773.94C497.32 773.11 495.23 772.69 492.91 772.69L484.21 772.69L484.21 808.72L492.91 808.72C495.23 808.72 497.32 808.31 499.16 807.49C501.01 806.67 502.57 805.49 503.85 803.93C505.13 802.37 506.11 800.48 506.79 798.26C507.48 796.03 507.82 793.51 507.82 790.68Z" />
			<path id="path36" class="shp0" d="M556.78 764.47L556.78 768.3C556.78 769.43 556.45 770.48 555.79 771.42L533.17 808.72L556.15 808.72L556.15 816.98L520.59 816.98L520.59 812.95C520.59 811.89 520.9 810.94 521.5 810.1L544.12 772.73L522.33 772.73L522.33 764.47L556.78 764.47" />
			<path id="path38" class="shp0" d="M573.98 816.98L563.54 816.98L563.54 764.47L573.98 764.47L573.98 816.98Z" />
			<path id="path40" class="shp0" d="M590.98 764.53C591.3 764.57 591.58 764.64 591.83 764.76C592.08 764.88 592.32 765.05 592.55 765.26C592.77 765.47 593.03 765.75 593.32 766.09L619.18 800.17C619.02 798.43 618.94 796.79 618.94 795.23L618.94 764.47L628.08 764.47L628.08 816.98L622.74 816.98C621.92 816.98 621.24 816.84 620.7 816.57C620.16 816.29 619.63 815.83 619.1 815.2L593.32 781.31C593.48 782.95 593.55 784.46 593.55 785.86L593.55 816.98L584.38 816.98L584.38 764.47L589.84 764.47C590.29 764.47 590.67 764.48 590.98 764.53" />
			<path id="path42" fill-rule="evenodd" class="shp0" d="M685.81 790.68C685.81 794.53 685.2 798.1 683.99 801.38C682.78 804.66 681.06 807.5 678.83 809.9C676.6 812.3 673.92 814.17 670.78 815.52C667.65 816.86 664.17 817.53 660.35 817.53C656.52 817.53 653.04 816.86 649.91 815.52C646.77 814.17 644.08 812.3 641.84 809.9C639.6 807.5 637.86 804.66 636.64 801.38C635.41 798.1 634.8 794.53 634.8 790.68C634.8 786.86 635.41 783.31 636.64 780.03C637.86 776.75 639.6 773.91 641.84 771.52C644.08 769.14 646.77 767.27 649.91 765.91C653.04 764.55 656.52 763.87 660.35 763.87C664.17 763.87 667.65 764.55 670.78 765.91C673.92 767.27 676.6 769.15 678.83 771.54C681.06 773.94 682.78 776.78 683.99 780.05C685.2 783.31 685.81 786.86 685.81 790.68ZM675.21 790.68C675.21 787.89 674.87 785.39 674.19 783.17C673.5 780.96 672.52 779.07 671.24 777.52C669.96 775.96 668.41 774.77 666.57 773.94C664.74 773.11 662.66 772.69 660.35 772.69C658.03 772.69 655.94 773.11 654.1 773.94C652.25 774.77 650.69 775.96 649.41 777.52C648.13 779.07 647.15 780.96 646.47 783.17C645.78 785.39 645.44 787.89 645.44 790.68C645.44 793.51 645.78 796.03 646.47 798.26C647.15 800.48 648.13 802.37 649.41 803.91C650.69 805.45 652.25 806.63 654.1 807.45C655.94 808.27 658.03 808.68 660.35 808.68C662.66 808.68 664.74 808.27 666.57 807.45C668.41 806.63 669.96 805.45 671.24 803.91C672.52 802.37 673.5 800.48 674.19 798.26C674.87 796.03 675.21 793.51 675.21 790.68Z" />
			<path id="path44" class="shp0" d="M687.04 764.47L695.74 764.47C696.66 764.47 697.42 764.68 698.01 765.1C698.6 765.52 699.01 766.07 699.22 766.76L706.97 797.09C707.42 798.67 707.84 800.5 708.23 802.59C708.44 801.56 708.65 800.58 708.87 799.64C709.08 798.71 709.33 797.84 709.62 797.05L718.79 766.76C719 766.15 719.41 765.62 720.02 765.16C720.62 764.7 721.35 764.47 722.19 764.47L725.24 764.47C726.16 764.47 726.9 764.67 727.47 765.08C728.04 765.49 728.44 766.05 728.68 766.76L737.85 797.09C738.11 797.85 738.36 798.69 738.58 799.6C738.81 800.51 739.02 801.47 739.24 802.47C739.42 801.47 739.61 800.52 739.81 799.62C740.01 798.72 740.21 797.89 740.42 797.13L748.17 766.76C748.36 766.15 748.76 765.62 749.38 765.16C750 764.7 750.73 764.47 751.57 764.47L759.72 764.47L744.14 816.98L734.73 816.98L724.33 782.06C724.17 781.61 724.02 781.11 723.87 780.56C723.73 780.01 723.59 779.43 723.46 778.82C723.33 779.43 723.18 780.01 723.02 780.56C722.86 781.11 722.72 781.61 722.59 782.06L711.99 816.98L702.62 816.98L687.04 764.47Z" />
			<path id="path46" fill-rule="evenodd" class="shp0" d="M805.31 816.98L797.33 816.98C796.4 816.98 795.67 816.76 795.11 816.33C794.56 815.89 794.15 815.35 793.89 814.69L790.56 804.37L771.23 804.37L767.94 814.65C767.73 815.23 767.33 815.76 766.74 816.25C766.15 816.74 765.41 816.98 764.54 816.98L756.44 816.98L775.58 764.47L786.17 764.47L805.31 816.98ZM773.56 797.09L788.19 797.09L782.85 780.48C782.54 779.66 782.21 778.71 781.86 777.61C781.52 776.52 781.18 775.33 780.84 774.03C780.52 775.33 780.19 776.53 779.85 777.63C779.5 778.74 779.19 779.7 778.9 780.52L773.56 797.09Z" />
			<path id="path48" class="shp0" d="M249.52 253.8C249.2 285.94 249.18 318.08 249.47 350.21C249.55 359.3 249.65 368.39 249.79 377.47C249.82 380.09 252.06 382.59 254.79 382.47C257.46 382.35 259.83 380.27 259.79 377.47C259.33 345.34 259.17 313.2 259.32 281.06C259.36 271.98 259.43 262.89 259.52 253.8C259.54 251.19 257.2 248.68 254.52 248.8C251.79 248.93 249.55 251 249.52 253.8L249.52 253.8Z" />
			<path id="path50" class="shp0" d="M168.13 391.27C169.48 421.18 170.89 451.09 172.37 481C173.84 510.69 175.37 540.37 176.97 570.05C177.88 586.88 178.81 603.71 179.75 620.54C179.9 623.15 181.95 625.67 184.75 625.54C187.34 625.43 189.91 623.34 189.75 620.54C188.07 590.65 186.45 560.75 184.9 530.84C183.36 501.16 181.88 471.47 180.47 441.79C179.67 424.95 178.89 408.11 178.13 391.27C178.01 388.66 175.92 386.14 173.13 386.27C170.52 386.39 168.01 388.47 168.13 391.27L168.13 391.27" />
			<path id="path52" class="shp0" d="M211.82 471.76C212.28 471.76 212.74 471.76 213.2 471.76C213.89 471.79 214.53 471.65 215.12 471.33C215.74 471.13 216.28 470.79 216.73 470.3C217.22 469.85 217.56 469.31 217.77 468.69C218.08 468.09 218.22 467.45 218.2 466.76C218.14 466.32 218.08 465.88 218.02 465.43C217.78 464.59 217.35 463.85 216.73 463.23C216.39 462.97 216.06 462.71 215.72 462.45C214.94 461.99 214.1 461.77 213.2 461.76C212.74 461.76 212.28 461.76 211.82 461.76C211.13 461.74 210.49 461.88 209.9 462.19C209.28 462.4 208.74 462.74 208.29 463.23C207.8 463.68 207.45 464.22 207.25 464.84C206.94 465.43 206.8 466.08 206.82 466.76C206.88 467.21 206.94 467.65 207 468.09C207.24 468.94 207.67 469.67 208.29 470.3C208.62 470.56 208.96 470.82 209.3 471.08C210.08 471.53 210.92 471.76 211.82 471.76L211.82 471.76Z" />
			<path id="path54" class="shp0" d="M259.91 517.1C262.53 517.1 265.03 514.8 264.91 512.1C264.79 509.39 262.71 507.1 259.91 507.1C257.3 507.1 254.79 509.4 254.91 512.1C255.03 514.81 257.11 517.1 259.91 517.1L259.91 517.1Z" />
			<path id="path56" class="shp0" d="M253.04 475.89C255.66 475.89 258.16 473.59 258.04 470.89C257.92 468.18 255.84 465.89 253.04 465.89C250.43 465.89 247.92 468.19 248.04 470.89C248.16 473.59 250.24 475.89 253.04 475.89L253.04 475.89Z" />
			<path id="path58" class="shp0" d="M189.84 496.49C192.45 496.49 194.96 494.19 194.84 491.49C194.72 488.79 192.64 486.49 189.84 486.49C187.22 486.49 184.72 488.79 184.84 491.49C184.96 494.2 187.04 496.49 189.84 496.49L189.84 496.49Z" />
			<path id="path60" class="shp0" d="M266.78 284.91C269.4 284.91 271.9 282.61 271.78 279.91C271.66 277.2 269.58 274.91 266.78 274.91C264.17 274.91 261.66 277.21 261.78 279.91C261.9 282.62 263.98 284.91 266.78 284.91L266.78 284.91Z" />
			<path id="path62" class="shp0" d="M398.06 66.64C398.06 79.92 398.06 93.2 398.06 106.48C398.06 109.1 400.35 111.6 403.06 111.48C405.76 111.36 408.06 109.28 408.06 106.48C408.06 93.2 408.06 79.92 408.06 66.64C408.06 64.02 405.75 61.52 403.06 61.64C400.35 61.76 398.06 63.83 398.06 66.64L398.06 66.64Z" />
			<path id="path64" class="shp0" d="M403.06 77.23C409.2 77.16 415.34 77.09 421.47 77.02C423.01 77 424.54 76.98 426.07 76.97C427.48 76.95 429.07 77.13 430.47 76.92C431.35 76.99 431.07 76.88 429.65 76.59C428.77 76.12 428.33 75.48 428.31 74.68C428.29 74.29 428.29 74.36 428.32 74.88C428.32 75.24 428.32 75.61 428.32 75.97C428.32 77.51 428.32 79.05 428.31 80.58C428.3 92.88 428.28 105.17 428.26 117.47C428.26 120.08 430.57 122.59 433.26 122.47C435.98 122.35 438.26 120.27 438.26 117.47C438.28 103.86 438.3 90.24 438.32 76.63C438.32 73.06 437.79 69.57 434.3 67.78C431.2 66.2 426.82 66.96 423.45 67C416.65 67.08 409.86 67.15 403.06 67.23C400.45 67.26 397.94 69.51 398.06 72.23C398.18 74.92 400.26 77.27 403.06 77.23L403.06 77.23" />
			<path id="path66" class="shp0" d="M403.06 122.4C410.08 122.47 417.1 122.55 424.11 122.61C426.86 122.63 429.58 122.32 432.13 121.24C435.62 119.77 437.53 117 437.97 113.27C438.27 110.67 435.45 108.16 432.97 108.27C430 108.41 428.29 110.48 427.97 113.27C427.94 112.82 428.06 112.41 428.32 112.03C428.05 112.49 428.13 112.42 428.57 111.81C428.43 111.97 428.28 112.12 428.12 112.26C428.7 111.82 428.76 111.75 428.3 112.05C427.54 112.53 429.23 111.87 428.02 112.17C427.6 112.28 427.17 112.38 426.74 112.49C426.18 112.59 426.24 112.59 426.94 112.49C426.68 112.52 426.43 112.55 426.18 112.57C425.69 112.6 425.19 112.61 424.7 112.61C423.33 112.61 421.97 112.58 420.61 112.57C414.76 112.51 408.91 112.46 403.06 112.4C400.44 112.38 397.94 114.72 398.06 117.4C398.18 120.13 400.25 122.37 403.06 122.4L403.06 122.4Z" />
			<path id="path68" class="shp0" d="M410.42 48.78C410.42 56.56 410.42 64.35 410.42 72.13C410.42 74.75 412.72 77.25 415.42 77.13C418.13 77.01 420.42 74.94 420.42 72.13C420.42 64.35 420.42 56.56 420.42 48.78C420.42 46.16 418.12 43.65 415.42 43.78C412.71 43.9 410.42 45.97 410.42 48.78L410.42 48.78Z" />
			<path id="path70" class="shp0" d="M416.88 55C412.28 52.11 408.69 49.81 405.05 46.34C404.11 45.44 403.22 44.5 402.38 43.51C402.17 43.27 401.97 43.02 401.77 42.77C402.06 43.15 402.03 43.11 401.68 42.64C401.33 42.12 400.96 41.6 400.63 41.06C400.39 40.66 400.15 40.25 399.93 39.83C399.84 39.68 399.05 38 399.43 38.89C398.94 37.72 398.58 36.48 398.33 35.24C397.49 31.04 398.91 26.22 401.32 21.93C404.15 16.89 407.4 13.19 411.31 8.89C408.69 8.56 406.07 8.22 403.45 7.88C407.29 16.4 411.12 24.92 414.95 33.44C416.67 37.27 418.65 40.57 419.29 44.71C419.35 45.05 419.36 45.09 419.3 44.81C419.31 45.01 419.33 45.2 419.34 45.39C419.34 45.86 419.33 46.31 419.31 46.77C419.33 46.27 419.4 46.36 419.3 46.81C419.2 47.27 419.08 47.7 418.95 48.15C418.69 49.01 419.09 47.97 418.82 48.42C418.63 48.75 418.46 49.08 418.24 49.39C418.81 48.59 417.94 49.62 417.84 49.71C418.44 49.14 417.66 49.79 417.38 49.94C415.02 51.25 414.25 54.49 415.59 56.79C416.98 59.17 420.05 59.89 422.43 58.58C426.73 56.2 428.98 51.55 429.31 46.77C429.67 41.54 427.29 36.64 425.21 32.01C420.84 22.28 416.46 12.56 412.09 2.83C410.79 -0.06 406.24 -0.38 404.24 1.82C397.51 9.21 390.18 17.75 388.55 27.96C387.69 33.32 388.36 38.44 390.57 43.4C392.43 47.56 395.53 51.21 398.89 54.25C402.85 57.82 407.32 60.8 411.83 63.63C414.11 65.07 417.34 64.12 418.67 61.84C420.07 59.44 419.17 56.44 416.88 55L416.88 55Z" />
			<path id="path72" class="shp0" d="M391.89 77.18C378.21 79.06 364.82 82.7 352.08 88.01C345.58 90.71 339.24 93.75 333.13 97.25C327.57 100.44 322.07 104.02 317.77 108.84C313.53 113.6 310.1 119.78 310.73 126.37C311.35 132.9 314.98 138.1 320.36 141.7C324.99 144.81 330.6 146.51 336.01 147.67C343.21 149.22 350.51 150.42 357.8 151.47C373.02 153.65 388.33 155.01 403.68 155.72C416.4 156.3 429.19 156.46 441.84 154.89C454.55 153.31 467.1 150.17 478.37 143.92C489.23 137.89 500.17 128.3 502.78 115.57C504.06 109.36 503.19 102.74 499.56 97.43C496.31 92.68 491.63 89.28 486.38 87.02C480.9 84.65 475.17 83.34 469.27 82.51C461.48 81.41 453.65 80.74 445.78 80.65C442.08 80.61 438.37 80.7 434.67 80.89C432.06 81.03 429.54 83.1 429.67 85.89C429.78 88.49 431.87 91.04 434.67 90.89C447.71 90.21 461.34 90.55 474.03 93.47C476.55 94.05 479.04 94.78 481.45 95.72C481.57 95.76 482.47 96.13 481.93 95.9C481.4 95.68 482.28 96.06 482.39 96.12C482.88 96.34 483.36 96.57 483.84 96.82C485.04 97.44 486.2 98.13 487.31 98.91C487.55 99.08 487.79 99.25 488.03 99.43C487.96 99.38 487.45 98.96 487.88 99.33C488.32 99.71 488.76 100.09 489.18 100.5C489.59 100.91 489.99 101.33 490.37 101.77C490.47 101.87 491.04 102.58 490.67 102.1C490.28 101.61 490.98 102.56 491.05 102.66C491.37 103.14 491.67 103.65 491.95 104.17C492.1 104.45 492.7 105.86 492.38 105.01C492.61 105.63 492.83 106.27 492.99 106.91C493.08 107.23 493.38 108.83 493.27 107.98C493.44 109.26 493.41 110.56 493.32 111.84C493.25 112.84 493.28 112.18 493.32 111.95C493.26 112.27 493.21 112.59 493.14 112.91C492.99 113.64 492.81 114.35 492.59 115.05C492.09 116.69 492 116.85 491.41 118.05C490.76 119.35 490.02 120.61 489.21 121.82C486.53 125.81 482.2 129.65 478.05 132.41C468.52 138.75 458.39 142.09 446.89 144.11C443.67 144.68 442.01 144.9 438.89 145.22C436.01 145.52 433.12 145.73 430.23 145.88C424.35 146.17 418.47 146.19 412.59 146.04C398.85 145.7 385.1 144.75 371.44 143.22C364.59 142.45 357.93 141.52 351.1 140.36C345.08 139.35 338.94 138.4 333.1 136.59C331.91 136.22 330.75 135.81 329.6 135.35C328.86 135.06 330.25 135.65 329.53 135.32C329.25 135.19 328.98 135.07 328.7 134.94C328.09 134.64 327.5 134.33 326.91 134C326.4 133.71 325.89 133.4 325.4 133.07C325.16 132.91 324.93 132.74 324.69 132.57C324.85 132.68 325.38 133.17 324.68 132.55C323.82 131.81 323 131.04 322.29 130.15C322.93 130.95 322.03 129.7 321.87 129.42C321.74 129.19 321.06 127.73 321.44 128.69C321.22 128.13 321.03 127.55 320.89 126.96C320.81 126.64 320.74 126.32 320.68 126C320.81 126.71 320.69 126.02 320.67 125.66C320.64 125.03 320.66 124.41 320.71 123.78C320.76 123.19 320.7 123.86 320.68 123.95C320.74 123.64 320.8 123.34 320.87 123.03C321.02 122.42 321.22 121.83 321.41 121.23C321.71 120.31 321.55 120.89 321.45 121.1C321.66 120.66 321.87 120.23 322.11 119.8C322.38 119.29 322.68 118.8 322.99 118.32C323.22 117.98 323.92 116.98 323.92 116.98C324.44 116.32 325.75 114.91 326.65 114.02C328.84 111.9 330.29 110.8 332.64 109.24C337.96 105.73 343.69 102.73 349.45 100.02C360.56 94.79 372.85 90.82 385.22 88.37C388.31 87.76 391.43 87.25 394.55 86.82C397.23 86.45 398.69 83.03 398.04 80.67C397.25 77.79 394.58 76.81 391.89 77.18L391.89 77.18" />
			<path id="path74" class="shp0" d="M309.74 127.1C310.34 145.94 310.93 164.79 311.53 183.63C311.68 188.29 311.83 192.95 311.97 197.6C312.12 202.15 311.75 207.36 315.24 210.85C318.24 213.84 322.84 214.97 326.72 216.37C330.71 217.81 334.73 219.16 338.78 220.43C371.53 230.67 406.14 235.35 440.44 234.31C459.85 233.72 479.22 231.29 498.17 227.08C500.81 226.49 502.35 223.44 501.66 220.93C500.92 218.21 498.16 216.85 495.51 217.44C463.54 224.54 430.36 226.23 397.51 222.6C381.87 220.88 365.67 217.71 350.14 213.36C342.17 211.13 334.3 208.57 326.54 205.69C325.63 205.35 324.72 205.01 323.82 204.66C324.6 204.97 323.64 204.58 323.45 204.48C323.09 204.3 322.73 204.12 322.4 203.89C323.22 204.45 322.11 203.42 322.41 203.91C322.74 204.47 322.07 202.99 322.36 203.86C322.26 203.54 322.18 203.19 322.13 202.86C322.26 203.67 322.11 201.78 322.1 201.59C321.94 197.16 321.82 192.72 321.68 188.29C321.03 167.89 320.39 147.49 319.74 127.1C319.66 124.48 317.5 121.97 314.74 122.1C312.1 122.21 309.65 124.3 309.74 127.1L309.74 127.1" />
			<path id="path76" class="shp0" d="M496.69 111.94C493.11 140.36 491.7 169.05 492.51 197.69C492.74 205.78 493.15 213.86 493.73 221.93C493.91 224.53 495.89 227.06 498.73 226.93C501.28 226.81 503.93 224.72 503.73 221.93C501.68 193.35 501.82 164.63 504.17 136.08C504.83 128.02 505.68 119.97 506.69 111.94C507.02 109.33 504.16 106.83 501.69 106.94C498.7 107.07 497.04 109.15 496.69 111.94L496.69 111.94Z" />
			<path id="path78" class="shp0" d="M311.79 172.41C292.57 177.47 274.65 186.57 259.1 198.91C251.57 204.87 243.63 211.99 240.9 221.55C239.43 226.71 240.01 232.05 242.39 236.83C244.56 241.21 248.23 244.77 251.84 247.97C265.3 259.95 280.99 268.9 297.78 275.31C314.7 281.77 332.5 285.43 350.44 287.62C368.39 289.81 386.52 290.34 404.6 290.03C424.16 289.7 443.75 288.61 463.16 286.12C482.92 283.59 502.54 279.69 521.43 273.27C530.85 270.07 540.09 266.27 548.99 261.82C557.46 257.59 566.01 252.93 573.1 246.57C579.77 240.58 585.62 232.01 584.83 222.64C584.02 213.07 577.69 205.96 569.8 201.07C561.52 195.95 551.8 192.7 542.5 190C532.08 186.97 521.36 185.01 510.55 184.01C505.42 183.54 500.27 183.33 495.12 183.34C492.51 183.35 490 185.64 490.12 188.34C490.24 191.04 492.32 193.35 495.12 193.34C515.17 193.29 534.78 196.96 553.59 204.32C554.74 204.77 555.89 205.22 557.03 205.71C556.09 205.31 557.55 205.94 557.6 205.97C558.04 206.17 558.48 206.37 558.92 206.57C560.85 207.48 562.73 208.47 564.55 209.58C565.38 210.09 566.2 210.62 566.99 211.19C567.02 211.21 568.3 212.16 567.53 211.56C567.91 211.86 568.27 212.16 568.64 212.48C569.23 212.99 569.81 213.53 570.36 214.09C570.69 214.42 571.01 214.76 571.32 215.11C571.53 215.34 571.73 215.58 571.93 215.82C571.62 215.41 571.64 215.44 571.99 215.9C572.51 216.65 573.01 217.42 573.45 218.23C573.66 218.63 573.87 219.04 574.05 219.46C573.63 218.48 574.17 219.89 574.2 219.99C574.5 220.89 574.73 221.81 574.86 222.75C574.72 221.71 574.87 223.28 574.87 223.36C574.9 223.99 574.89 224.63 574.85 225.26C574.85 225.39 574.61 226.89 574.81 225.8C574.72 226.26 574.63 226.71 574.52 227.17C574.33 227.93 574.08 228.67 573.82 229.41C573.32 230.81 574.27 228.64 573.57 229.96C573.35 230.39 573.15 230.82 572.91 231.24C572.36 232.25 571.72 233.19 571.08 234.13C570.19 235.43 571.66 233.48 570.64 234.7C570.32 235.09 570 235.48 569.66 235.86C568.98 236.62 568.27 237.36 567.54 238.08C566.15 239.45 563.98 241.29 563.01 242C559.52 244.56 555.81 246.78 552.04 248.9C543.96 253.44 535.66 257.31 527.37 260.51C509.85 267.27 491.52 271.74 473.01 274.69C463.92 276.15 455.06 277.18 445.56 278C436.13 278.82 426.67 279.35 417.21 279.69C399.79 280.32 382.33 280.34 364.94 279.04C356.09 278.37 348.28 277.49 340.03 276.11C331.79 274.74 323.62 272.97 315.59 270.69C299.42 266.09 284.96 259.89 270.88 250.26C267.1 247.67 264.6 245.77 261.26 242.94C259.66 241.59 258.08 240.2 256.56 238.75C255.19 237.45 253.38 235.56 252.67 234.52C251.33 232.56 250.73 231.52 250.26 229.49C250.26 229.47 250.03 227.79 250.11 228.73C250.07 228.22 250.05 227.7 250.06 227.18C250.09 225.63 250.07 225.96 250.47 224.46C251.41 221.01 253.79 217.58 256.41 214.74C262.62 207.99 269.69 202.95 277.39 198.11C281.38 195.61 285.5 193.3 289.72 191.22C293.89 189.17 297.26 187.71 301.51 186.13C305.75 184.55 310.07 183.2 314.45 182.05C317.06 181.36 318.65 178.48 317.94 175.9C317.22 173.26 314.41 171.72 311.79 172.41L311.79 172.41" />
			<path id="path80" class="shp0" d="M580.36 223.38C576.23 224.97 573.95 228.29 572.99 232.54C572.08 236.53 571.63 240.68 571.05 244.73C569.76 253.67 568.66 262.65 567.79 271.64C566.12 288.97 565.27 306.36 565.24 323.76C565.23 333.77 565.49 343.77 566.02 353.77C566.16 356.37 568.22 358.89 571.02 358.77C573.61 358.65 576.17 356.56 576.02 353.77C574.26 320.42 575.51 286.93 579.81 253.81C580.36 249.52 581.02 245 581.71 240.61C582.03 238.59 582.26 236.51 582.79 234.53C582.87 234.23 582.97 233.94 583.06 233.65C583.24 233.16 583.26 233.08 583.13 233.41C582.99 233.72 583.03 233.66 583.25 233.2C583.33 233.08 583.4 232.95 583.47 232.83C583.14 233.2 583.09 233.26 583.33 233C583.72 232.27 583.81 232.72 583.02 233.02C585.54 232.05 587.28 229.66 586.51 226.87C585.85 224.47 582.89 222.4 580.36 223.38L580.36 223.38" />
			<path id="path82" class="shp0" d="M252.27 364.82C269.83 377.52 289.37 387.22 309.78 394.41C330.41 401.68 351.86 406.23 373.52 409.11C395.1 411.99 416.9 413.09 438.66 413.07C450.93 413.06 463.26 412.88 475.36 410.71C487.56 408.52 498.99 403.61 510.02 398.1C530.1 388.07 551.01 377.74 567.55 362.27C569.54 360.4 571.46 358.45 573.29 356.43C575.11 354.43 575.27 351.33 573.29 349.36C571.45 347.51 568.05 347.35 566.22 349.36C551.66 365.41 532.22 375.39 512.97 385.38C502.54 390.79 492.32 396.03 481.01 399.18C469.41 402.4 457.56 402.89 445.48 403.03C424.05 403.27 402.58 402.5 381.27 400.07C371.15 398.92 360.92 397.34 350.43 395.19C340.07 393.06 329.8 390.44 319.72 387.21C299.93 380.89 281.44 372.44 263.89 360.75C261.67 359.27 259.48 357.75 257.32 356.18C255.13 354.6 251.75 355.81 250.47 357.97C249 360.5 250.07 363.23 252.27 364.82L252.27 364.82" />
			<path id="path84" class="shp0" d="M323.21 173.74C323.39 172.9 323.65 172.09 323.88 171.27C324.12 170.39 323.95 171.02 323.86 171.23C324.03 170.84 324.22 170.45 324.44 170.08C324.56 169.86 325.37 168.91 324.59 169.75C324.77 169.56 324.95 169.38 325.13 169.19C324.99 169.3 324.84 169.41 324.7 169.51C325.19 169.24 325.11 169.25 324.47 169.53C325.02 169.4 324.93 169.39 324.22 169.53C324.78 169.55 324.73 169.54 324.06 169.5C323.96 169.48 323.01 169.15 323.9 169.45C323.75 169.35 323.61 169.23 323.47 169.12C323.84 169.52 323.82 169.47 323.42 168.97C323.63 169.27 324.38 170.94 324.02 169.96C324.62 171.58 325.01 173.27 325.63 174.89C328.45 182.29 336.04 187.42 344.01 187.15C348.44 187 352.05 185.05 355.79 182.87C357.68 181.78 358.2 181.49 360.16 181.05C358.89 181.34 359.97 181.09 360.3 181.08C360.6 181.08 360.9 181.1 361.2 181.1C361.59 181.1 362.29 181.35 361.1 181.06C361.56 181.18 362.02 181.26 362.48 181.39C362.7 181.46 362.93 181.55 363.15 181.62C364.3 181.97 362.21 181.11 363.29 181.67C363.83 181.96 364.38 182.23 364.91 182.54C365.56 182.93 366.2 183.36 366.82 183.8C367.03 183.95 367.24 184.1 367.45 184.25C367.66 184.41 367.87 184.56 368.08 184.72C367.59 184.34 367.56 184.32 368 184.67C370.51 186.69 372.97 188.8 375.62 190.64C378.11 192.36 380.97 193.84 383.98 194.38C388.18 195.13 392.15 194.33 395.94 192.42C398.92 190.92 401.5 188.75 404.21 186.83C405.52 185.91 406.86 185.03 408.28 184.3C408.61 184.13 408.95 183.96 409.29 183.81C408.28 184.25 409.64 183.71 409.77 183.67C410.12 183.55 410.48 183.45 410.85 183.37C411.09 183.31 412.65 183.1 411.5 183.2C412.22 183.14 412.95 183.11 413.68 183.13C414.12 183.15 414.55 183.19 414.99 183.23C413.79 183.11 415.21 183.28 415.39 183.32C417.01 183.63 418.59 184.13 420.13 184.71C420.56 184.87 420.99 185.05 421.42 185.22C422.84 185.78 420.54 184.81 421.94 185.44C422.66 185.77 423.38 186.08 424.09 186.41C425.74 187.17 427.38 187.94 429.05 188.66C432.8 190.27 436.48 191.58 440.55 192.03C444.35 192.45 448.16 191.69 451.71 190.36C452.92 189.91 454.1 189.4 455.29 188.9C455.76 188.7 456.23 188.49 456.71 188.29C456.77 188.26 458.14 187.69 457.39 188C459.37 187.17 461.34 186.51 463.43 186.01C464.83 185.67 462.85 186.02 463.7 185.96C464.24 185.92 464.77 185.94 465.3 185.92C466.61 185.88 464.52 185.64 465.79 185.98C466.25 186.11 466.71 186.2 467.15 186.38C466.33 186.05 467.93 186.84 467.9 186.82C468.46 187.15 469 187.52 469.55 187.89C470.56 188.57 471.57 189.23 472.68 189.75C481.04 193.64 492.23 188.51 493.95 179.16C494.42 176.6 493.25 173.65 490.46 173.01C488.01 172.45 484.82 173.75 484.31 176.5C484.23 176.92 484.11 177.32 484.02 177.73C483.76 178.89 484.52 177.09 483.87 178.08C483.73 178.3 483.58 178.56 483.45 178.79C482.85 179.84 484.09 178.28 483.19 179.09C482.88 179.38 482.6 179.69 482.28 179.97C482.96 179.36 482.49 179.83 482.29 179.95C481.92 180.17 481.55 180.38 481.19 180.6C480.67 180.85 480.69 180.85 481.23 180.62C480.97 180.72 480.7 180.81 480.43 180.89C480.16 180.97 479.89 181.03 479.62 181.11C478.42 181.47 480.53 181.18 479.29 181.15C478.87 181.14 478.45 181.15 478.04 181.14C478.25 181.14 479.03 181.38 478.13 181.13C477.72 181.02 477.31 180.93 476.92 180.77C477.86 181.16 476.25 180.33 476.24 180.33C475.28 179.75 474.38 179.07 473.42 178.48C469.52 176.05 465.23 175.5 460.77 176.37C459.01 176.7 457.32 177.31 455.67 177.97C454.64 178.38 453.62 178.82 452.6 179.25C451.6 179.68 450.9 179.99 450.49 180.15C448.76 180.84 447.03 181.49 445.21 181.9C445.14 181.92 443.55 182.19 444.6 182.05C444.3 182.09 443.99 182.11 443.69 182.13C442.71 182.19 441.75 182.12 440.78 182.05C439.94 181.99 441.92 182.32 440.55 182C440.11 181.9 439.67 181.83 439.23 181.72C438.49 181.54 437.76 181.33 437.03 181.1C436.22 180.84 435.43 180.54 434.64 180.23C434.27 180.09 433.91 179.94 433.55 179.79C434.46 180.18 432.74 179.43 432.58 179.36C426.11 176.45 419.28 172.62 411.93 173.17C408 173.46 404.39 174.8 401.07 176.91C398.11 178.79 395.44 181.12 392.43 182.93C391.8 183.31 391.15 183.64 390.5 183.98C389.29 184.61 391.39 183.76 390.1 184.14C389.82 184.23 389.56 184.33 389.28 184.41C388.86 184.53 388.45 184.61 388.03 184.71C389.18 184.46 387.84 184.71 387.62 184.71C387.34 184.72 387.07 184.72 386.79 184.71C386.54 184.7 386.29 184.68 386.05 184.66C386.76 184.76 386.84 184.77 386.28 184.67C385.67 184.51 385.08 184.38 384.5 184.18C384.24 184.09 383.17 183.56 384.31 184.13C384.03 183.98 383.74 183.86 383.46 183.71C382.14 183.03 380.9 182.19 379.71 181.31C379.56 181.2 378.5 180.38 379.45 181.13C379.24 180.96 379.03 180.8 378.82 180.63C378.19 180.13 377.57 179.62 376.94 179.11C375.58 178 374.21 176.9 372.81 175.85C370.36 174.01 367.62 172.37 364.62 171.61C360.54 170.56 356.59 171.27 352.84 173.1C351.24 173.88 349.76 174.86 348.2 175.73C347.74 175.99 347.27 176.24 346.79 176.47C345.5 177.11 347.3 176.43 346.11 176.74C345.82 176.81 345.55 176.91 345.26 176.97C344.98 177.04 344.7 177.1 344.41 177.15C345.02 177.08 345.03 177.07 344.44 177.13C344.01 177.13 343.58 177.16 343.14 177.15C342.88 177.14 341.6 176.98 342.73 177.16C341.86 177.02 341.03 176.76 340.19 176.52C338.9 176.14 340.95 176.99 339.76 176.34C339.25 176.06 338.73 175.8 338.24 175.48C337.99 175.32 337.75 175.16 337.51 174.99C338.38 175.62 337.01 174.5 336.87 174.35C336.61 174.09 336.37 173.82 336.13 173.55C335.9 173.28 335.94 173.33 336.24 173.71C336.07 173.47 335.91 173.23 335.75 172.98C335.52 172.61 335.32 172.23 335.12 171.84C335.59 172.75 335.05 171.6 334.99 171.43C334.29 169.37 333.77 167.3 332.83 165.32C330.61 160.59 325.15 158.05 320.29 160.53C316.42 162.49 314.41 167.05 313.57 171.08C313.03 173.64 314.31 176.61 317.06 177.24C319.57 177.81 322.64 176.48 323.21 173.74L323.21 173.74" />
			<path id="path86" class="shp0" d="M250.55 299.87C255.72 300.42 260.75 298.38 265.23 296.01C267.4 294.86 269.5 293.59 271.65 292.42C272.58 291.92 273.52 291.45 274.47 290.99C274.61 290.92 275.41 290.56 274.81 290.82C274.21 291.08 275 290.75 275.15 290.69C275.71 290.48 276.27 290.28 276.84 290.11C277.34 289.97 277.85 289.86 278.35 289.74C279.24 289.52 278.34 289.72 278.16 289.74C278.41 289.71 278.66 289.68 278.91 289.67C279.43 289.64 279.93 289.66 280.44 289.67C281.35 289.69 280.44 289.67 280.26 289.63C280.65 289.71 281.03 289.78 281.41 289.88C281.84 290 283.08 290.64 281.99 290.03C282.34 290.23 282.71 290.39 283.06 290.59C283.23 290.7 284.36 291.56 283.8 291.07C283.25 290.59 283.81 291.09 283.93 291.22C284.13 291.42 284.33 291.6 284.53 291.81C284.86 292.15 285.47 292.97 284.83 292.08C285.1 292.45 285.36 292.82 285.6 293.2C286.17 294.1 286.66 295.05 287.1 296.01C287.2 296.23 287.3 296.46 287.39 296.68C287.33 296.54 287 295.66 287.31 296.51C287.48 296.98 287.67 297.44 287.84 297.91C288.19 298.87 288.51 299.84 288.82 300.81C290.21 305.07 291.5 309.48 293.76 313.39C296.27 317.72 300.01 321.02 304.76 322.67C313.62 325.73 323.2 321.47 331.61 318.89C333.71 318.25 335.83 317.65 337.98 317.25C338.49 317.16 338.99 317.07 339.5 317C338.35 317.17 339.61 317.01 340.04 316.98C341.08 316.9 342.11 316.92 343.14 316.98C344.42 317.05 342.35 316.76 343.59 317.03C344 317.12 344.4 317.2 344.81 317.31C345.27 317.44 345.71 317.62 346.17 317.76C344.94 317.39 346.58 317.98 346.96 318.2C348.08 318.85 348.31 319.06 349.39 320.17C350.41 321.22 351.24 322.3 351.79 323.04C355.87 328.49 360.36 333.88 367.64 334.51C373.97 335.06 378.36 330.5 381 325.32C381.51 324.33 381.98 323.33 382.51 322.36C382.77 321.87 383.04 321.4 383.33 320.93C383.44 320.76 383.56 320.59 383.66 320.42C384.27 319.37 383.03 321.02 383.85 320.14C384.21 319.75 384.56 319.36 384.97 319.02C384.22 319.66 385.58 318.7 385.83 318.58C384.96 319 386.49 318.46 386.75 318.4C386.53 318.45 385.79 318.43 386.75 318.42C387.12 318.42 387.5 318.41 387.87 318.43C388.02 318.44 388.95 318.58 388.35 318.47C387.73 318.35 388.69 318.56 388.82 318.59C389.44 318.74 390.04 318.94 390.64 319.16C391.4 319.44 390.05 318.86 390.79 319.23C391.08 319.37 391.37 319.51 391.66 319.67C392.31 320.03 392.93 320.43 393.55 320.83C393.65 320.9 394.31 321.4 393.72 320.94C393.98 321.14 394.23 321.35 394.47 321.57C394.95 321.99 395.41 322.44 395.85 322.91C396.33 323.42 396.78 323.95 397.23 324.49C397.46 324.76 397.68 325.04 397.9 325.31C398.36 325.87 397.99 325.41 398.25 325.76C401.98 330.64 405.47 336.01 410.99 339.07C416.03 341.86 421.96 342.45 427.54 341.22C433.1 339.99 438.04 336.68 441.32 332.06C442.89 329.86 443.89 327.34 444.96 324.88C445.48 323.69 446.01 322.49 446.64 321.35C446.95 320.78 447.29 320.24 447.64 319.7C447.72 319.58 448.22 318.98 447.73 319.57C447.98 319.26 448.26 318.97 448.54 318.69C448.62 318.61 449.35 317.93 448.94 318.27C448.54 318.62 449.31 318.02 449.4 317.96C449.67 317.79 449.94 317.63 450.22 317.48C450.33 317.42 451.21 317.01 450.68 317.23C450.14 317.45 451.05 317.11 451.17 317.07C451.47 316.98 451.77 316.9 452.08 316.82C452.38 316.75 452.69 316.69 453 316.63C453.54 316.53 452.38 316.64 453.32 316.61C453.97 316.59 454.61 316.56 455.26 316.58C455.44 316.58 457.32 316.75 456.39 316.63C457.81 316.81 459.21 317.17 460.57 317.58C461.21 317.78 461.85 318 462.48 318.23C462.8 318.35 463.11 318.47 463.42 318.6C464.19 318.91 462.84 318.33 463.59 318.68C465.04 319.35 466.47 320.06 467.9 320.79C470.91 322.32 473.93 323.83 477.09 325.03C480.2 326.22 483.49 326.9 486.83 326.97C489.45 327.03 491.95 324.63 491.83 321.97C491.71 319.21 489.63 317.03 486.83 316.97C485.27 316.94 484.87 316.91 483.2 316.49C481.93 316.17 479.8 315.44 479.11 315.15C476.31 313.97 473.63 312.47 470.91 311.13C465.49 308.45 459.48 306.17 453.32 306.61C446.7 307.08 441.23 310.44 438.01 316.3C436.66 318.75 435.74 321.4 434.51 323.91C433.95 325.04 433.33 326.17 432.56 327.19C433.11 326.46 432.28 327.46 432.08 327.67C431.63 328.15 431.15 328.58 430.65 329.01C431.37 328.39 430.19 329.33 429.91 329.51C429.42 329.82 428.92 330.11 428.4 330.38C428.15 330.51 427.88 330.64 427.62 330.76C428.45 330.36 427.8 330.7 427.6 330.76C426.91 331 426.23 331.24 425.52 331.42C424.95 331.57 424.38 331.68 423.8 331.78C424.88 331.59 423.25 331.82 422.96 331.84C422.45 331.86 421.94 331.87 421.43 331.85C421.14 331.84 420.85 331.82 420.56 331.81C420.08 331.78 419.65 331.69 420.37 331.81C419.22 331.61 418.12 331.31 417.01 330.93C416.11 330.62 416.83 330.84 417.01 330.93C416.75 330.8 416.48 330.68 416.23 330.54C415.54 330.17 414.87 329.75 414.24 329.28C414.76 329.67 413.37 328.5 413.26 328.4C412.75 327.93 412.27 327.43 411.8 326.93C411.33 326.42 410.87 325.89 410.43 325.36C410.26 325.15 409.27 323.89 409.58 324.31C405.78 319.35 402.35 314.09 396.71 311.04C391.07 307.98 384.05 307.19 378.72 311.3C374.81 314.32 372.94 319.24 370.55 323.41C370.21 323.99 371.13 322.9 370.61 323.31C370.42 323.46 370.25 323.68 370.09 323.86C369.96 324.01 369.8 324.11 369.67 324.25C370.3 323.58 370.06 324 369.76 324.15C369.53 324.27 369.31 324.42 369.08 324.53C369.88 324.15 369.17 324.47 368.97 324.51C367.91 324.73 368.66 324.56 368.85 324.55C368.72 324.56 367.32 324.41 368.25 324.58C367.92 324.52 367.61 324.42 367.28 324.34C367.18 324.32 366.4 324.02 367.06 324.3C366.43 324.04 365.85 323.65 365.26 323.29C365.2 323.26 364.49 322.76 365 323.14C364.72 322.93 364.45 322.69 364.2 322.45C363.62 321.93 363.09 321.36 362.58 320.77C362.35 320.5 362.13 320.23 361.9 319.95C361.35 319.27 362.24 320.4 361.7 319.7C361.27 319.14 360.85 318.57 360.43 318C359.38 316.59 358.33 315.18 357.17 313.87C355.33 311.79 353.07 309.97 350.52 308.83C345.82 306.71 340.91 306.65 335.9 307.51C331.51 308.25 327.3 309.78 323.08 311.14C320.97 311.81 318.85 312.47 316.69 312.97C315.68 313.2 314.68 313.39 313.66 313.56C314.8 313.37 313.58 313.56 313.13 313.59C312.59 313.64 312.04 313.67 311.49 313.67C311.01 313.67 310.54 313.66 310.06 313.63C309.82 313.61 309.59 313.58 309.35 313.57C308.66 313.53 310.3 313.79 309.63 313.59C308.67 313.31 307.71 313.14 306.75 312.78C308.01 313.25 306.6 312.65 306.33 312.49C305.89 312.25 305.49 311.96 305.07 311.68C305.97 312.28 305 311.61 304.69 311.31C304.3 310.94 303.94 310.54 303.58 310.14C302.77 309.23 303.94 310.75 303.27 309.73C303 309.32 302.73 308.92 302.49 308.5C301.95 307.59 301.5 306.64 301.05 305.68C300.67 304.86 301.06 305.68 301.11 305.83C301.02 305.59 300.92 305.36 300.83 305.12C300.65 304.64 300.47 304.16 300.3 303.68C299.93 302.64 299.58 301.6 299.24 300.55C296.49 292.08 293.12 281.95 283.11 280.02C277.72 278.98 272.68 280.65 267.92 283.09C265.81 284.18 263.78 285.4 261.71 286.55C260.7 287.11 259.69 287.65 258.66 288.15C258.15 288.4 257.64 288.64 257.12 288.87C258.15 288.42 256.43 289.1 256.18 289.19C255.67 289.36 255.15 289.52 254.62 289.65C254.43 289.7 252.86 290.01 253.5 289.91C254.13 289.8 252.59 289.96 252.37 289.96C251.76 289.97 251.16 289.93 250.55 289.87C247.94 289.59 245.44 292.37 245.55 294.87C245.68 297.81 247.75 299.57 250.55 299.87L250.55 299.87" />
			<path id="path88" class="shp0" d="M481.47 329.57C488.79 332.48 496.78 329.11 502.67 324.65C505.57 322.45 508.16 319.93 510.9 317.54C511.49 317.02 512.09 316.51 512.71 316.01C512.83 315.91 513.7 315.25 513.13 315.67C513.41 315.46 513.69 315.26 513.97 315.06C514.6 314.62 515.25 314.2 515.91 313.81C516.27 313.59 516.64 313.39 517.01 313.19C517.16 313.11 518.43 312.52 517.64 312.85C518.25 312.59 518.89 312.39 519.53 312.21C519.93 312.1 520.34 312.01 520.75 311.93C521.64 311.76 519.62 311.93 521.19 311.88C521.85 311.86 522.51 311.84 523.17 311.87C523.07 311.87 524.69 312.01 524.01 311.93C523.6 311.88 524.9 312.09 525.09 312.13C528.29 312.76 531.36 313.87 534.53 314.58C537.96 315.36 541.54 315.73 544.99 314.81C548.83 313.8 551.8 311.3 554.13 308.18C556.22 305.38 557.64 302.15 559.46 299.19C560.01 298.3 561.48 296.81 562.47 296.21C562.75 296.04 563.05 295.87 563.35 295.73C562.55 296.1 563.8 295.64 563.98 295.59C563.1 295.81 564 295.6 564.3 295.6C564.66 295.62 564.61 295.6 564.15 295.56C564.48 295.63 564.79 295.72 565.1 295.84C567.58 296.69 570.68 294.87 571.25 292.35C571.89 289.57 570.41 287.11 567.76 286.2C559.7 283.44 552.83 290.28 549.31 296.73C548.59 298.05 547.9 299.39 547.13 300.68C546.75 301.31 546.36 301.94 545.93 302.54C545.42 303.26 546.69 301.77 545.67 302.86C545.35 303.22 545 303.55 544.68 303.9C544.11 304.53 544.37 304.21 544.59 304.03C544.27 304.28 543.93 304.49 543.58 304.69C543.38 304.8 542.43 305.19 543.23 304.89C542.93 305 542.63 305.09 542.33 305.17C542.03 305.25 541.72 305.32 541.42 305.37C542.38 305.2 541.38 305.35 541.12 305.36C540.26 305.39 539.38 305.35 538.52 305.24C539.44 305.36 537.74 305.06 537.43 305C536.61 304.82 535.79 304.6 534.98 304.38C533.4 303.96 531.84 303.48 530.26 303.07C526.73 302.15 523.13 301.59 519.51 302.08C512.29 303.05 506.67 307.85 501.47 312.58C498.56 315.23 496.4 317.24 492.94 319.05C491.48 319.82 490.1 320.41 488.08 320.67C488.86 320.57 487.98 320.65 487.87 320.64C487.36 320.63 486.85 320.66 486.33 320.61C487.17 320.69 486.09 320.55 485.88 320.5C485.28 320.36 484.7 320.15 484.13 319.93C481.69 318.96 478.53 320.98 477.98 323.42C477.32 326.3 478.86 328.53 481.47 329.57L481.47 329.57" />
			<path id="path90" class="shp0" d="M250.35 331.08C235.94 335.11 221.5 339.07 207.12 343.18C196.18 346.31 184.98 350.11 176.33 357.79C167.83 365.33 163.61 376.54 164.92 387.8C166.22 398.92 171.68 409.21 179.4 417.24C197.5 436.05 225.59 438.25 249.69 443.32C277.47 449.16 304.1 459.17 331.16 467.52C358.37 475.91 386.03 481.64 414.52 483.02C442.82 484.4 471.21 481.98 499.09 477.12C527.05 472.24 554.52 464.8 581.4 455.76C606.23 447.41 632.24 437.5 647.78 415.12C654.54 405.39 658.61 393.48 657.93 381.55C657.25 369.44 652.33 358.11 644.93 348.61C628.79 327.9 602.85 319.67 577.47 318.38C571.09 318.06 564.69 318.16 558.31 318.53C551.92 318.9 551.87 328.91 558.31 328.53C581.8 327.17 608.22 329.37 627.23 344.77C635.29 351.29 642.05 359.9 645.47 369.76C648.95 379.79 648.77 390.37 644.68 400.21C635.33 422.71 611.79 434.32 590.2 442.14C565.08 451.23 539.28 458.73 513.14 464.25C460.8 475.31 406.53 477.37 354.45 463.8C328.31 456.98 303.01 447.35 277.06 439.9C264.36 436.25 251.54 433.44 238.57 431.01C226.77 428.8 214.59 426.62 203.58 421.66C193.96 417.33 185.7 411.13 180.22 401.99C175.49 394.11 173.07 384.67 175.85 375.92C178.89 366.4 187.98 360.57 196.83 357.08C208.45 352.49 220.86 349.72 232.87 346.36C239.58 344.48 246.29 342.6 253 340.72C259.19 338.99 256.56 329.34 250.35 331.08L250.35 331.08Z" />
			<path id="path92" class="shp0" d="M643.89 381.27C644.43 409.83 644.52 438.4 644.14 466.97C643.76 495.53 642.92 524.08 641.62 552.62C640.89 568.77 640 584.91 638.97 601.04C638.81 603.66 641.39 606.16 643.97 606.04C646.83 605.92 648.8 603.85 648.97 601.04C650.79 572.53 652.15 544 653.05 515.45C653.95 486.9 654.39 458.33 654.37 429.76C654.36 413.6 654.2 397.43 653.89 381.27C653.84 378.66 651.63 376.15 648.89 376.27C646.22 376.39 643.84 378.47 643.89 381.27L643.89 381.27" />
			<path id="path94" class="shp0" d="M177.6 606.77C181.91 620.01 193.3 628.59 205.46 634.31C219.89 641.11 235.49 645.83 250.87 649.93C283.15 658.53 316.36 663.08 349.54 666.46C366.41 668.18 383.32 669.64 400.22 671.03C417.64 672.47 435.14 673.53 452.61 672.37C486.32 670.15 519.07 661.07 550.87 650.08C566.37 644.72 581.85 639.12 597.07 632.99C611.5 627.18 625.76 620.64 638.57 611.73C641.85 609.44 645.03 607 648.11 604.44C650.19 602.71 649.9 599.15 648.11 597.37C646.05 595.31 643.13 595.64 641.04 597.37C617.79 616.66 587.71 626.3 559.71 636.37C529.06 647.4 497.57 657.46 465.09 661.23C431.79 665.11 398.19 661.03 364.99 657.96C332.75 654.97 300.51 651.24 268.9 644.07C253.18 640.5 237.64 636.08 222.49 630.53C211.3 626.43 198.52 621.49 191.14 611.58C189.45 609.31 188.12 606.8 187.25 604.11C185.26 598.01 175.6 600.62 177.6 606.77L177.6 606.77" />
			<path id="path96" class="shp0" d="M181.36 505.45C190.06 500.19 199.36 494.53 209.93 495.39C210.33 495.42 210.73 495.46 211.13 495.51C210.19 495.39 211.22 495.53 211.45 495.58C212.23 495.73 213 495.88 213.77 496.08C214.6 496.29 215.43 496.54 216.24 496.81C216.54 496.92 216.83 497.02 217.13 497.13C217.42 497.24 217.71 497.35 218 497.47C217.61 497.29 217.57 497.28 217.89 497.42C220.98 498.76 223.87 500.54 226.59 502.51C227.64 503.28 227.23 502.96 228.14 503.69C228.79 504.22 229.44 504.75 230.07 505.3C231.5 506.52 232.89 507.79 234.25 509.09C236.92 511.63 239.48 514.28 242.02 516.95C247.08 522.27 252.06 527.71 257.62 532.53C263.2 537.36 269.29 541.57 276.31 543.99C284.97 546.97 294.31 546.25 302.8 543.06C312.7 539.35 321.44 532.88 331.55 529.76C339.4 527.33 348.99 526.42 355.02 532.95C357.84 536 359.37 540.15 360.93 543.94C362.86 548.61 364.83 553.15 368.09 557.08C374.75 565.08 385.57 566.74 395.29 564.63C405.61 562.38 413.91 556.07 421.61 549.16C429.35 542.21 436.89 534.61 447.07 531.41C457.7 528.08 469.3 528.41 480.32 528.66C489.25 528.87 499.14 529.56 506.67 534.9C510.78 537.81 512.97 542.39 516.57 545.78C520.61 549.57 525.81 551.51 531.29 551.81C542.43 552.43 552.14 545.83 559.22 537.82C566.98 529.05 573.49 518.93 578.9 508.57C579.5 507.42 580.03 505.8 580.82 504.78C581.05 504.48 581.58 504.09 581.88 503.91C582.83 503.33 582.57 503.48 583.68 503.21C584.2 503.09 585.13 503.03 586.25 503.09C589.61 503.26 593.84 505.27 596.95 507.47C604.96 513.17 612.02 522.01 622.98 522.03C633.26 522.05 639.83 514.01 643.15 505.14C644.67 501.07 645.53 496.79 646.17 492.5C646.57 489.84 645.5 487.13 642.68 486.35C640.32 485.7 636.93 487.16 636.53 489.85C635.89 494.13 635.02 498.41 633.51 502.48C632.36 505.55 630.29 509.02 627.87 510.56C624.97 512.4 621.28 512.41 617.77 510.71C613.37 508.57 609.73 505.15 606.04 502.02C599.22 496.25 589.18 490.76 579.98 493.87C577.78 494.61 575.76 495.77 574.09 497.4C571.95 499.5 570.87 502.42 569.47 505.03C566.73 510.15 563.7 515.12 560.42 519.91C555.03 527.77 548.36 537.57 538.87 540.75C534.95 542.07 530.45 542.43 526.6 540.68C521.99 538.59 519.76 533.46 516.31 530.02C508.99 522.71 498.72 520.11 488.73 519.13C478.19 518.1 467.02 518.1 456.51 519.36C450.45 520.09 444.63 521.38 439.01 523.82C434.09 525.96 429.73 529.01 425.57 532.36C417.79 538.62 411.1 546.55 402.26 551.38C395.17 555.26 385.54 557.68 378.49 553.1C374.98 550.83 373.01 546.87 371.36 543.15C369.49 538.92 368.02 534.48 365.58 530.52C360.11 521.63 350.57 517.38 340.28 518.02C329.58 518.68 320.31 523.38 310.99 528.27C306.42 530.67 301.83 533.04 296.87 534.53C294.61 535.21 292.31 535.74 289.96 535.88C288.9 535.95 287.84 535.96 286.79 535.92C286.41 535.9 284.1 535.69 284.97 535.81C283.32 535.59 281.68 535.2 280.09 534.71C279.34 534.48 278.6 534.21 277.86 533.95C277.66 533.87 276.71 533.47 277.52 533.82C277.08 533.64 276.65 533.44 276.23 533.23C273.16 531.76 270.28 529.91 267.58 527.86C268.32 528.42 267.02 527.41 267.02 527.41C266.76 527.2 266.5 526.98 266.24 526.77C265.59 526.23 264.94 525.68 264.31 525.13C262.89 523.88 261.5 522.59 260.14 521.27C257.48 518.7 254.93 516.03 252.38 513.35C247.34 508.04 242.36 502.64 236.76 497.9C231.18 493.18 225.05 489.06 218.01 486.88C209 484.09 199.63 485.33 191.05 488.95C185.9 491.12 181.09 493.93 176.31 496.81C170.81 500.14 175.83 508.79 181.36 505.45L181.36 505.45" />
			<path id="path98" class="shp0" d="M284.9 503.05C287.51 503.05 290.02 500.75 289.9 498.05C289.77 495.35 287.7 493.05 284.9 493.05C282.28 493.05 279.78 495.35 279.9 498.05C280.02 500.76 282.09 503.05 284.9 503.05L284.9 503.05Z" />
			<path id="path100" class="shp0" d="M425.04 504.43C427.65 504.43 430.16 502.13 430.04 499.43C429.92 496.72 427.84 494.43 425.04 494.43C422.42 494.43 419.92 496.73 420.04 499.43C420.16 502.14 422.23 504.43 425.04 504.43L425.04 504.43Z" />
			<path id="path102" class="shp0" d="M405.8 533.28C408.42 533.28 410.92 530.98 410.8 528.28C410.68 525.57 408.61 523.28 405.8 523.28C403.19 523.28 400.68 525.58 400.8 528.28C400.92 530.99 403 533.28 405.8 533.28L405.8 533.28Z" />
			<path id="path104" class="shp0" d="M537.7 522.29C540.32 522.29 542.82 519.99 542.7 517.29C542.58 514.58 540.5 512.29 537.7 512.29C535.09 512.29 532.58 514.59 532.7 517.29C532.82 520 534.9 522.29 537.7 522.29L537.7 522.29Z" />
			<path id="path106" class="shp0" d="M570.68 483.82C571.59 483.82 572.51 483.82 573.42 483.82C574.11 483.85 574.75 483.7 575.35 483.39C575.97 483.19 576.51 482.84 576.96 482.36C577.45 481.9 577.79 481.37 577.99 480.75C578.31 480.15 578.45 479.51 578.42 478.82C578.36 478.38 578.31 477.93 578.25 477.49C578.01 476.64 577.58 475.91 576.96 475.28C576.62 475.02 576.29 474.76 575.95 474.5C575.17 474.05 574.33 473.82 573.42 473.82C572.51 473.82 571.59 473.82 570.68 473.82C569.99 473.79 569.35 473.94 568.75 474.25C568.13 474.45 567.59 474.8 567.14 475.28C566.65 475.74 566.31 476.27 566.11 476.89C565.79 477.49 565.65 478.13 565.68 478.82C565.74 479.26 565.79 479.71 565.85 480.15C566.09 481 566.52 481.73 567.14 482.36C567.48 482.62 567.81 482.88 568.15 483.14C568.93 483.59 569.77 483.82 570.68 483.82L570.68 483.82Z" />
			<path id="path108" class="shp0" d="M622.89 478.32C625.5 478.32 628.01 476.03 627.89 473.32C627.76 470.61 625.69 468.32 622.89 468.32C620.27 468.32 617.77 470.62 617.89 473.32C618.01 476.03 620.08 478.32 622.89 478.32L622.89 478.32Z" />
			<path id="path110" class="shp0" d="M497.86 498.93C500.47 498.93 502.98 496.63 502.86 493.93C502.74 491.22 500.66 488.93 497.86 488.93C495.24 488.93 492.74 491.23 492.86 493.93C492.98 496.64 495.05 498.93 497.86 498.93L497.86 498.93Z" />
			<path id="path112" class="shp0" d="M359.09 493.44C361.7 493.44 364.21 491.14 364.09 488.44C363.97 485.73 361.89 483.44 359.09 483.44C356.47 483.44 353.97 485.74 354.09 488.44C354.21 491.15 356.29 493.44 359.09 493.44L359.09 493.44Z" />
			<path id="path114" class="shp0" d="M367.33 520.92C369.95 520.92 372.45 518.62 372.33 515.92C372.21 513.21 370.14 510.92 367.33 510.92C364.72 510.92 362.21 513.22 362.33 515.92C362.45 518.63 364.53 520.92 367.33 520.92L367.33 520.92Z" />
			<path id="path116" class="shp0" d="M284.9 470.08C287.51 470.08 290.02 467.78 289.9 465.08C289.77 462.37 287.7 460.08 284.9 460.08C282.28 460.08 279.78 462.38 279.9 465.08C280.02 467.79 282.09 470.08 284.9 470.08L284.9 470.08Z" />
			<path id="path118" class="shp0" d="M330.24 504.43C332.85 504.43 335.36 502.13 335.24 499.43C335.11 496.72 333.04 494.43 330.24 494.43C327.62 494.43 325.11 496.73 325.24 499.43C325.36 502.14 327.43 504.43 330.24 504.43L330.24 504.43Z" />
			<path id="path120" class="shp0" d="M315.12 301.09C317.74 301.09 320.24 298.79 320.12 296.09C320 293.38 317.93 291.09 315.12 291.09C312.51 291.09 310 293.39 310.12 296.09C310.24 298.79 312.32 301.09 315.12 301.09L315.12 301.09Z" />
			<path id="path122" class="shp0" d="M364.58 302.46C367.2 302.46 369.71 300.16 369.58 297.46C369.46 294.75 367.39 292.46 364.58 292.46C361.97 292.46 359.46 294.76 359.58 297.46C359.71 300.17 361.78 302.46 364.58 302.46L364.58 302.46Z" />
			<path id="path124" class="shp0" d="M419.54 312.08C422.16 312.08 424.66 309.78 424.54 307.08C424.42 304.37 422.35 302.08 419.54 302.08C416.93 302.08 414.42 304.38 414.54 307.08C414.66 309.79 416.74 312.08 419.54 312.08L419.54 312.08" />
			<path id="path126" class="shp0" d="M486.87 298.34C489.48 298.34 491.99 296.04 491.87 293.34C491.74 290.63 489.67 288.34 486.87 288.34C484.25 288.34 481.75 290.64 481.87 293.34C481.99 296.05 484.06 298.34 486.87 298.34L486.87 298.34Z" />
			<path id="path128" class="shp0" d="M548.69 280.48C551.31 280.48 553.81 278.18 553.69 275.48C553.57 272.77 551.5 270.48 548.69 270.48C546.08 270.48 543.57 272.78 543.69 275.48C543.81 278.19 545.89 280.48 548.69 280.48L548.69 280.48Z" />
			<path id="path130" class="shp0" d="M473.13 167.81C475.74 167.81 478.25 165.51 478.13 162.81C478 160.1 475.93 157.81 473.13 157.81C470.51 157.81 468.01 160.11 468.13 162.81C468.25 165.52 470.32 167.81 473.13 167.81L473.13 167.81Z" />
			<path id="path132" class="shp0" d="M438.78 167.81C441.39 167.81 443.9 165.51 443.78 162.81C443.66 160.1 441.58 157.81 438.78 157.81C436.16 157.81 433.66 160.11 433.78 162.81C433.9 165.52 435.97 167.81 438.78 167.81L438.78 167.81Z" />
			<path id="path134" class="shp0" d="M389.32 167.81C391.93 167.81 394.44 165.51 394.32 162.81C394.19 160.1 392.12 157.81 389.32 157.81C386.7 157.81 384.19 160.11 384.32 162.81C384.44 165.52 386.51 167.81 389.32 167.81L389.32 167.81Z" />
			<path id="path136" class="shp0" d="M346.72 159.57C349.34 159.57 351.84 157.27 351.72 154.57C351.6 151.86 349.53 149.57 346.72 149.57C344.11 149.57 341.6 151.87 341.72 154.57C341.85 157.28 343.92 159.57 346.72 159.57L346.72 159.57Z" />
			<path id="path138" class="shp0" d="M457.73 555.73C456.11 562.08 454.38 568.39 452.54 574.68C451.81 577.19 453.43 580.23 456.03 580.83C458.71 581.44 461.4 580.02 462.18 577.34C464.02 571.05 465.75 564.74 467.37 558.39C468.02 555.86 466.55 552.85 463.88 552.24C461.28 551.65 458.42 553.02 457.73 555.73L457.73 555.73Z" />
			<path id="path140" class="shp0" d="M463.39 550.8C457.31 549.7 451.14 549.02 444.96 548.89C441.82 548.83 438.51 548.7 435.41 549.27C432.53 549.81 430.04 551.54 428.09 553.67C424.45 557.64 422.36 562.78 421.55 568.06C421.07 571.21 420.89 574.36 420.9 577.55C420.91 579.04 420.94 580.53 420.97 582.02C420.98 582.66 420.99 583.3 420.99 583.93C420.99 584.36 420.99 584.79 420.99 585.21C421.06 584.88 421.14 584.55 421.23 584.22C421.83 583.63 422.43 583.03 423.03 582.43C424.36 582.15 424.51 582.04 423.47 582.1C423.14 582.1 422.81 582.1 422.48 582.1C421.82 582.1 421.16 582.1 420.5 582.1C419.06 582.1 417.63 582.1 416.2 582.1C413.34 582.1 410.47 582.1 407.61 582.1C404.99 582.1 402.49 584.4 402.61 587.1C402.73 589.81 404.8 592.1 407.61 592.1C410.47 592.1 413.34 592.1 416.2 592.1C418.99 592.1 421.86 592.31 424.64 592.09C428.91 591.73 430.99 588.63 430.99 584.57C431 581.81 430.88 579.04 430.91 576.27C430.93 573.83 431.04 571.37 431.41 569.41C431.63 568.28 431.91 567.16 432.26 566.06C432.69 564.71 432.66 564.75 433.27 563.59C433.55 563.05 433.85 562.52 434.19 562.01C434.28 561.86 435.01 560.89 434.64 561.33C434.97 560.93 435.33 560.54 435.71 560.17C435.89 559.99 436.08 559.81 436.28 559.64C436.88 559.1 435.8 559.92 436.48 559.48C436.69 559.35 436.9 559.2 437.13 559.09C436.99 559.16 436.53 559.27 437.17 559.11C437.52 559.02 437.98 558.98 438.59 558.95C439.97 558.89 441.35 558.87 442.73 558.87C448.85 558.87 454.86 559.39 460.73 560.44C463.3 560.91 466.25 559.75 466.88 556.95C467.44 554.51 466.14 551.3 463.39 550.8L463.39 550.8" />
			<path id="path142" class="shp0" d="M406.92 609.1C411.99 608.89 417.08 609 422.14 609.4C423.36 609.5 424.84 608.77 425.68 607.93C426.55 607.07 427.2 605.64 427.14 604.4C427.01 601.51 424.94 599.62 422.14 599.4C417.08 599 411.99 598.89 406.92 599.1C404.31 599.2 401.79 601.32 401.92 604.1C402.03 606.72 404.12 609.21 406.92 609.1L406.92 609.1" />
			<path id="path144" class="shp0" d="M416.8 606.14C416.8 617.86 416.79 629.59 416.79 641.31C416.79 642.74 416.79 644.16 416.79 645.59C416.79 647.2 416.6 648.97 416.98 650.54C417.45 652.49 418.83 654 420.73 654.62C422.57 655.23 424.4 654.76 426.27 654.5C432.02 653.69 437.76 652.89 443.51 652.09C446.19 651.71 447.65 648.3 447 645.94C446.21 643.06 443.54 642.07 440.85 642.45C437.66 642.89 434.47 643.34 431.27 643.78C429.78 643.99 428.29 644.2 426.8 644.41C425.95 644.53 425.1 644.65 424.25 644.77C423.82 644.83 423.4 644.89 422.97 644.94C421.98 645.06 422.12 645.08 423.39 644.98C424.38 645.75 425.38 646.51 426.38 647.28C426.69 647.73 426.67 649.71 426.79 648.22C426.83 647.79 426.79 647.34 426.79 646.9C426.79 646.03 426.79 645.15 426.79 644.27C426.79 642.41 426.79 640.55 426.79 638.69C426.79 635.07 426.79 631.45 426.79 627.84C426.8 620.6 426.8 613.37 426.8 606.14C426.8 603.52 424.5 601.02 421.8 601.14C419.09 601.26 416.8 603.33 416.8 606.14L416.8 606.14" />
			<path id="path146" class="shp0" d="M439.09 603.73C437.67 610.36 437.69 617.23 437.41 623.97C437.12 630.71 436.84 637.46 436.55 644.2C436.44 646.82 438.93 649.32 441.55 649.2C444.36 649.08 446.43 647.01 446.55 644.2C446.83 637.68 447.11 631.15 447.38 624.62C447.64 618.55 447.52 612.06 448.73 606.39C449.28 603.84 447.97 600.86 445.24 600.24C442.72 599.67 439.67 601 439.09 603.73L439.09 603.73" />
			<path id="path148" class="shp0" d="M456.45 570.82C456.23 570.87 456.02 570.9 455.81 570.93C456.25 570.87 456.69 570.81 457.14 570.75C456.63 570.8 456.15 570.79 455.65 570.74C456.09 570.8 456.53 570.86 456.98 570.92C454.61 570.59 452.51 569.31 450.19 568.82C448.29 568.42 446.23 568.26 444.35 568.88C442.32 569.55 440.5 571 439.62 572.99C438.86 574.71 438.55 576.39 438.44 578.29C438.35 579.77 438.29 581.25 438.21 582.73C438.11 584.75 437.81 586.88 438.95 588.68C440.05 590.43 441.86 591.29 443.89 591.41C444.67 591.45 445.45 591.42 446.23 591.42C449.74 591.42 453.24 591.41 456.75 591.41C459.36 591.4 461.87 589.11 461.75 586.41C461.63 583.7 459.55 581.4 456.75 581.41C454.56 581.41 452.37 581.41 450.18 581.41C448.07 581.42 445.88 581.59 443.79 581.4C444.23 581.46 444.67 581.52 445.11 581.58C445.05 581.56 444.99 581.55 444.92 581.54C445.32 581.7 445.72 581.87 446.11 582.04C446.06 582.01 446 581.99 445.94 581.96C446.28 582.22 446.61 582.48 446.95 582.75C446.9 582.7 446.85 582.66 446.8 582.62C447.06 582.96 447.32 583.3 447.58 583.63C447.55 583.58 447.52 583.53 447.48 583.48C447.65 583.88 447.82 584.28 447.99 584.68C447.94 584.57 447.91 584.45 447.9 584.33C447.96 584.77 448.02 585.22 448.08 585.66C448.03 584.18 448.21 582.66 448.29 581.18C448.36 579.81 448.37 578.43 448.55 577.07C448.49 577.51 448.43 577.95 448.37 578.4C448.45 577.86 448.57 577.35 448.76 576.84C448.59 577.24 448.43 577.64 448.26 578.03C448.39 577.74 448.53 577.47 448.71 577.2C448.45 577.54 448.19 577.87 447.93 578.21C448.09 578.01 448.26 577.83 448.45 577.67C448.11 577.93 447.78 578.19 447.44 578.45C447.62 578.32 447.78 578.22 447.98 578.11C447.58 578.28 447.18 578.45 446.78 578.62C447.1 578.49 447.4 578.4 447.73 578.34C447.29 578.4 446.85 578.46 446.4 578.52C447.01 578.44 447.6 578.45 448.21 578.53C447.77 578.47 447.32 578.41 446.88 578.35C448.63 578.61 450.23 579.36 451.89 579.94C454.24 580.76 456.67 581 459.11 580.46C461.66 579.9 463.4 576.79 462.6 574.31C461.73 571.62 459.19 570.22 456.45 570.82L456.45 570.82" />
			<path id="path150" class="shp0" d="M442.21 608.71C447.06 608.71 451.9 608.71 456.75 608.71C459.36 608.71 461.87 606.42 461.75 603.71C461.63 601.01 459.55 598.71 456.75 598.71C451.9 598.71 447.06 598.71 442.21 598.71C439.6 598.71 437.09 601.01 437.21 603.71C437.33 606.42 439.41 608.71 442.21 608.71L442.21 608.71Z" />
			<path id="path152" class="shp0" d="M453.83 588.49C453.83 593.45 453.83 598.41 453.83 603.37C453.83 605.98 456.13 608.49 458.83 608.37C461.53 608.25 463.83 606.17 463.83 603.37C463.83 598.41 463.83 593.45 463.83 588.49C463.83 585.87 461.53 583.37 458.83 583.49C456.12 583.61 453.83 585.69 453.83 588.49L453.83 588.49Z" />
			<path id="path154" class="shp0" d="M400.53 587.45C400.53 593.68 400.53 599.91 400.53 606.14C400.53 608.75 402.83 611.26 405.53 611.14C408.24 611.02 410.53 608.94 410.53 606.14C410.53 599.91 410.53 593.68 410.53 587.45C410.53 584.83 408.23 582.33 405.53 582.45C402.82 582.57 400.53 584.65 400.53 587.45L400.53 587.45Z" />
		</g>
	</g>
</svg>