<svg xmlns="http://www.w3.org/2000/svg" viewBox="0 0 799 692" width="799" height="692">
	<style>
		tspan { white-space:pre }
		.shp0 { fill: #eb1d27 } 
	</style>
	<g id="g10">
		<g id="g12">
			<path id="path14" class="shp0" d="M256.36 682.44L274.59 682.44L274.59 690.98L245.96 690.98L245.96 638.47L256.36 638.47L256.36 682.44" />
			<path id="path16" class="shp0" d="M291.95 690.98L281.51 690.98L281.51 638.47L291.95 638.47L291.95 690.98Z" />
			<path id="path18" class="shp0" d="M333.98 678.25C334.54 678.25 335.01 678.46 335.41 678.88L339.56 683.35C337.66 686.01 335.28 688.04 332.42 689.44C329.56 690.84 326.17 691.53 322.24 691.53C318.68 691.53 315.48 690.87 312.63 689.54C309.78 688.21 307.36 686.35 305.37 683.96C303.38 681.58 301.85 678.74 300.79 675.46C299.72 672.18 299.19 668.59 299.19 664.68C299.19 660.75 299.76 657.15 300.91 653.87C302.05 650.59 303.67 647.76 305.75 645.39C307.83 643.01 310.32 641.17 313.22 639.85C316.12 638.53 319.31 637.87 322.79 637.87C326.33 637.87 329.45 638.5 332.17 639.75C334.88 641 337.15 642.66 338.97 644.71L335.49 649.58C335.25 649.87 334.98 650.13 334.68 650.37C334.37 650.61 333.95 650.72 333.39 650.72C332.84 650.72 332.31 650.51 331.79 650.09C331.28 649.67 330.64 649.21 329.89 648.71C329.14 648.21 328.2 647.75 327.07 647.32C325.93 646.9 324.48 646.69 322.71 646.69C320.79 646.69 319.04 647.09 317.46 647.9C315.87 648.7 314.52 649.87 313.38 651.42C312.25 652.96 311.37 654.84 310.75 657.07C310.13 659.3 309.82 661.84 309.82 664.68C309.82 667.56 310.17 670.11 310.85 672.35C311.54 674.6 312.47 676.49 313.64 678.03C314.81 679.57 316.19 680.75 317.77 681.55C319.35 682.35 321.05 682.75 322.87 682.75C323.95 682.75 324.93 682.69 325.8 682.58C326.67 682.46 327.48 682.25 328.23 681.95C328.98 681.64 329.69 681.25 330.35 680.78C331.01 680.3 331.66 679.71 332.32 679C332.59 678.79 332.86 678.61 333.13 678.47C333.41 678.32 333.69 678.25 333.98 678.25" />
			<path id="path20" class="shp0" d="M366.57 670.73L366.57 690.98L356.29 690.98L356.29 670.65L339.8 638.47L349.01 638.47C349.85 638.47 350.54 638.68 351.07 639.1C351.59 639.52 352.03 640.07 352.37 640.76L358.86 657.72C359.41 658.78 359.91 659.77 360.34 660.69C360.78 661.61 361.16 662.53 361.51 663.46C361.8 662.53 362.15 661.61 362.58 660.69C363 659.77 363.47 658.79 364 657.76L370.44 640.76C370.73 640.21 371.16 639.69 371.71 639.2C372.26 638.71 372.97 638.47 373.85 638.47L383.06 638.47L366.57 670.73Z" />
			<path id="path22" class="shp0" d="M421.85 638.47L421.85 646.93L407.69 646.93L407.69 690.98L397.33 690.98L397.33 646.93L383.18 646.93L383.18 638.47L421.85 638.47Z" />
			<path id="path24" class="shp0" d="M449.02 682.6C450.86 682.6 452.51 682.29 453.94 681.69C455.38 681.08 456.59 680.22 457.58 679.12C458.57 678.01 459.33 676.67 459.85 675.08C460.38 673.5 460.64 671.74 460.64 669.78L460.64 638.47L471.01 638.47L471.01 669.78C471.01 672.95 470.5 675.86 469.48 678.52C468.47 681.19 467.01 683.49 465.11 685.42C463.21 687.36 460.91 688.87 458.19 689.95C455.48 691.03 452.42 691.57 449.02 691.57C445.62 691.57 442.55 691.03 439.82 689.95C437.1 688.87 434.78 687.36 432.88 685.42C430.99 683.49 429.53 681.19 428.51 678.52C427.5 675.86 426.99 672.95 426.99 669.78L426.99 638.47L437.39 638.47L437.39 669.78C437.39 671.74 437.66 673.5 438.18 675.08C438.71 676.67 439.47 678.01 440.46 679.12C441.45 680.22 442.66 681.08 444.09 681.69C445.53 682.29 447.17 682.6 449.02 682.6" />
			<path id="path26" class="shp0" d="M497.18 672.2C497.18 675.12 496.87 677.78 496.25 680.17C495.63 682.55 494.69 684.59 493.41 686.27C492.13 687.96 490.52 689.26 488.58 690.17C486.65 691.08 484.37 691.53 481.76 691.53C480.58 691.53 479.41 691.46 478.28 691.32C477.15 691.17 475.96 690.93 474.72 690.59L475.28 684.42C475.33 683.89 475.54 683.45 475.91 683.09C476.28 682.74 476.81 682.56 477.49 682.56C477.86 682.56 478.29 682.64 478.8 682.79C479.3 682.95 479.93 683.03 480.69 683.03C481.75 683.03 482.66 682.84 483.42 682.46C484.19 682.08 484.82 681.46 485.32 680.62C485.82 679.78 486.19 678.69 486.45 677.36C486.7 676.03 486.82 674.4 486.82 672.47L486.82 638.47L497.18 638.47L497.18 672.2Z" />
			<path id="path28" class="shp0" d="M186.16 47.17C184.18 54.89 183.08 62.88 183 70.86C182.92 78.43 182.69 87.84 189.45 92.79C192.36 94.92 195.89 95.67 199.41 96.08C202.96 96.49 206.56 96.47 210.11 96.09C217.74 95.29 225.06 93.22 232.2 90.46C239.43 87.66 246.45 84.35 253.53 81.2C260.34 78.17 267.1 75.27 273.96 72.46C288.17 66.63 302.55 61.22 317.09 56.3C324.41 53.81 331.77 51.46 339.18 49.23C345.82 47.23 352.63 45.64 359.19 43.39C365.19 41.34 371.08 38.36 374.61 32.87C378.36 27.05 377.89 19.71 374.67 13.77C371.39 7.74 365.53 3.59 358.97 1.8C351.69 -0.19 344.08 0.52 336.73 1.69C321.37 4.13 306.53 8.96 291.83 13.9C261.38 24.14 230.94 34.41 200.5 44.67C196.71 45.94 192.93 47.22 189.15 48.49C186.59 49.35 184.91 51.93 185.65 54.64C186.34 57.14 189.23 59 191.81 58.14C220.71 48.4 249.62 38.66 278.53 28.92C292.51 24.21 306.45 19.21 320.71 15.39C324.3 14.43 327.91 13.55 331.55 12.79C333.21 12.44 334.88 12.11 336.56 11.81C337.5 11.64 338.44 11.48 339.39 11.33C339.77 11.27 340.15 11.21 340.53 11.15C341.17 11.05 340.83 11.1 341.23 11.05C344.6 10.61 348.03 10.4 351.42 10.62C353.77 10.77 357.28 11.45 359.42 12.54C359.98 12.83 360.53 13.12 361.06 13.45C361.21 13.55 362.66 14.6 361.98 14.05C363.08 14.94 364.13 15.96 364.99 17.08C364.5 16.45 364.98 17.1 365.05 17.22C365.22 17.48 365.4 17.74 365.56 18.01C365.89 18.54 366.17 19.1 366.46 19.65C367.12 20.95 366.3 19.14 366.58 19.95C366.68 20.24 366.78 20.53 366.87 20.83C367.07 21.48 367.23 22.15 367.33 22.82C367.18 21.78 367.32 23.64 367.31 23.96C367.3 24.11 367.25 25.06 367.31 24.42C367.36 23.79 367.25 24.72 367.21 24.87C367.15 25.17 367.07 25.46 366.99 25.75C366.95 25.88 366.64 26.79 366.85 26.24C367.09 25.6 366.52 26.91 366.54 26.88C366.36 27.2 366.17 27.51 365.97 27.83C365.9 27.95 365.37 28.69 365.73 28.21C366.09 27.73 365.53 28.45 365.43 28.55C364.98 29.03 364.5 29.47 364.03 29.93C363.9 30.05 363.29 30.53 364.01 29.98C363.77 30.16 363.53 30.33 363.28 30.5C362.72 30.88 362.14 31.23 361.55 31.57C360.95 31.9 360.33 32.22 359.71 32.51C359.42 32.64 359.14 32.77 358.86 32.9C359.05 32.81 359.67 32.59 358.75 32.93C357.43 33.43 356.1 33.91 354.74 34.33C351.74 35.26 348.69 36.05 345.66 36.91C338.74 38.88 331.85 40.97 324.99 43.17C297.06 52.13 269.76 62.94 243.04 75.01C230.94 80.47 218 86.38 204.73 86.38C203.03 86.38 201.34 86.3 199.65 86.11C198.81 86.01 200.33 86.23 199.49 86.08C199.07 86 198.66 85.93 198.25 85.84C197.92 85.76 197.59 85.68 197.27 85.58C197.16 85.55 195.98 85.15 196.45 85.34C196.94 85.53 196.03 85.13 195.92 85.08C195.64 84.92 195.36 84.76 195.09 84.58C194.4 84.11 195.77 85.33 194.78 84.29C194.71 84.22 194.21 83.61 194.59 84.13C194.39 83.85 194.21 83.51 194.06 83.21C194.15 83.41 194.26 83.94 193.96 82.92C193.7 82.06 193.49 81.18 193.37 80.28C193.46 80.96 193.27 78.93 193.26 78.81C193.19 77.96 193.14 77.12 193.1 76.27C193.01 74.36 192.98 72.45 193 70.54C193.05 67.21 193.3 63.52 193.69 60.44C194.16 56.86 194.91 53.32 195.81 49.83C196.46 47.3 194.98 44.28 192.31 43.68C189.71 43.08 186.86 44.46 186.16 47.17L186.16 47.17" />
			<path id="path30" class="shp0" d="M224.69 88.39C231.47 113.27 235.95 138.69 240.08 164.12C244.22 189.56 248.04 215.07 253.58 240.25C256.7 254.42 260.37 268.47 264.91 282.26C265.75 284.83 268.37 286.49 271.06 285.75C273.57 285.06 275.4 282.18 274.55 279.6C266.51 255.15 261.22 229.91 256.81 204.58C252.37 179.17 248.77 153.61 243.97 128.26C241.26 113.98 238.15 99.76 234.33 85.73C233.62 83.13 230.78 81.53 228.18 82.24C225.56 82.96 223.98 85.78 224.69 88.39L224.69 88.39" />
			<path id="path32" class="shp0" d="M347.35 43.69C352.69 71.19 358.64 98.56 365.21 125.79C371.78 153.01 378.97 180.09 386.77 206.99C391.16 222.15 395.75 237.26 400.53 252.31C401.35 254.88 404.01 256.53 406.69 255.8C409.22 255.1 411 252.23 410.18 249.65C401.7 222.95 393.82 196.07 386.55 169.02C379.29 141.97 372.64 114.76 366.6 87.41C363.2 71.99 360 56.53 356.99 41.03C356.48 38.38 353.3 36.87 350.84 37.54C348.07 38.3 346.83 41.03 347.35 43.69L347.35 43.69" />
			<path id="path34" class="shp0" d="M269.53 290.98C278.89 291.88 288.05 289.05 296.89 286.35C306.02 283.55 315.15 280.76 324.29 277.96C342.55 272.37 360.82 266.79 379.09 261.2C389.5 258.01 399.9 254.83 410.31 251.64C412.89 250.85 414.53 248.15 413.8 245.49C413.1 242.94 410.25 241.21 407.65 242C371.33 253.11 335.01 264.23 298.69 275.34C289.12 278.27 279.54 281.95 269.53 280.98C266.92 280.73 264.42 283.46 264.53 285.98C264.66 288.9 266.73 290.71 269.53 290.98L269.53 290.98" />
			<path id="path36" class="shp0" d="M257.93 300.63C268.75 301.67 278.36 296.17 288.35 293.03C293.79 291.33 299.44 290.59 305.06 289.83C310.43 289.1 315.75 288.17 321.02 286.92C341.73 282.04 361.27 273.42 381.31 266.44C392.6 262.51 404.1 259.1 415.92 257.18C418.59 256.75 420.07 253.43 419.41 251.03C418.63 248.19 415.94 247.1 413.26 247.54C392.43 250.93 372.81 258.9 353.13 266.2C343.19 269.9 333.18 273.44 322.92 276.14C317.9 277.46 312.83 278.58 307.71 279.41C302.06 280.33 296.34 280.83 290.75 282.05C284.95 283.32 279.54 285.65 274 287.69C268.4 289.75 263.6 291.17 257.93 290.63C255.32 290.37 252.81 293.11 252.93 295.63C253.06 298.55 255.13 300.36 257.93 300.63L257.93 300.63" />
			<path id="path38" class="shp0" d="M254.17 290.86C245.49 295.62 238.83 304.17 236.54 313.83C235.34 318.92 235.36 324.47 237.84 329.19C240.46 334.16 245.62 336.34 250.89 337.19C274.17 340.92 297.57 335.56 319.53 327.99C340.88 320.63 361.63 311.27 383.79 306.53C394.31 304.28 404.99 302.95 415.47 300.5C425.57 298.15 436.15 294.76 444.46 288.35C448.54 285.2 451.87 281.37 453.8 276.55C455.78 271.61 455.3 266.11 453.01 261.37C448.09 251.21 436.55 247.53 426.07 247C423.36 246.86 420.65 246.9 417.93 246.95C415.32 247.01 412.81 249.21 412.93 251.95C413.05 254.62 415.13 257.01 417.93 256.95C420.45 256.9 422.96 256.86 425.47 256.97C428.01 257.07 429.89 257.25 432.16 257.76C433.32 258.02 434.47 258.34 435.6 258.74C435.81 258.81 437.13 259.37 436.42 259.04C436.94 259.28 437.45 259.54 437.95 259.82C438.38 260.06 438.8 260.31 439.21 260.58C439.43 260.71 440.31 261.33 440.12 261.18C439.93 261.04 440.75 261.72 440.94 261.89C441.36 262.27 441.77 262.67 442.16 263.09C442.33 263.27 443.16 264.27 443.01 264.07C442.85 263.84 443.45 264.75 443.57 264.95C443.83 265.36 444.04 265.78 444.27 266.21C444.53 266.71 444.29 266.19 444.25 266.09C444.37 266.39 444.48 266.69 444.58 266.99C444.72 267.44 444.83 267.9 444.95 268.36C445.17 269.26 444.99 267.99 445.04 268.93C445.06 269.41 445.08 269.9 445.06 270.39C445.05 270.63 445.03 270.87 445.01 271.11C444.93 271.91 445.16 270.41 444.98 271.19C444.87 271.65 444.77 272.11 444.63 272.56C444.56 272.79 444.48 273.01 444.41 273.23C444.4 273.27 444.11 273.98 444.31 273.51C444.51 273.04 444.19 273.75 444.17 273.78C444.06 273.99 443.95 274.2 443.84 274.41C443.57 274.9 443.28 275.38 442.96 275.84C442.85 276.02 442.13 276.95 442.58 276.4C442.27 276.78 441.95 277.15 441.62 277.51C440.88 278.31 440.09 279.06 439.27 279.77C438.29 280.62 438.54 280.41 437.47 281.15C436.58 281.78 435.66 282.36 434.71 282.91C432.69 284.07 430.58 285.1 428.43 286.01C426.93 286.65 424.31 287.6 422.32 288.25C420.02 288.99 417.69 289.65 415.35 290.24C405.78 292.67 395.99 294.01 386.3 295.85C365.84 299.73 346.6 307.47 327.15 314.66C307.62 321.88 287.39 328.47 266.56 328.46C261.64 328.46 256.61 328.18 252 327.27C250.97 327.07 249.94 326.82 248.96 326.46C249.55 326.68 248.45 326.2 248.27 326.1C248.05 325.97 247.83 325.84 247.62 325.69C246.96 325.21 247.99 326.07 247.48 325.53C247.32 325.36 247.15 325.2 246.99 325.03C247.05 325.09 247.39 325.6 247.07 325.13C246.81 324.75 246.59 324.35 246.37 323.94C246.11 323.43 246.38 323.97 246.42 324.07C246.34 323.85 246.26 323.63 246.19 323.4C246.03 322.87 245.92 322.33 245.81 321.79C245.97 322.61 245.78 321.49 245.77 321.2C245.74 320.72 245.73 320.23 245.75 319.74C245.76 319.25 245.8 318.77 245.83 318.28C245.85 318.11 245.99 317.31 245.84 318.17C245.9 317.85 245.95 317.54 246.02 317.23C246.22 316.24 246.48 315.27 246.79 314.31C246.94 313.83 247.12 313.36 247.29 312.88C247.29 312.88 247.58 312.11 247.41 312.54C247.26 312.91 247.62 312.07 247.66 311.99C248.54 310.08 249.62 308.27 250.85 306.58C250.46 307.12 251.19 306.15 251.32 306.01C251.64 305.62 251.97 305.24 252.32 304.87C253.06 304.07 253.84 303.31 254.66 302.59C255.64 301.73 255.35 301.95 256.42 301.21C257.32 300.59 258.26 300.02 259.21 299.5C261.58 298.2 262.35 294.94 261.01 292.66C259.61 290.27 256.54 289.56 254.17 290.86L254.17 290.86" />
			<path id="path40" class="shp0" d="M376.97 141.34C402.46 136.61 427.69 130.64 452.73 123.95C477.81 117.24 502.7 109.83 527.53 102.26C552.37 94.69 577.17 86.95 602.08 79.59C627.03 72.22 652.1 65.23 677.41 59.18C702.55 53.17 727.93 48.1 753.53 44.53C756.51 44.12 759.48 43.74 762.46 43.37C765.14 43.04 767.46 41.31 767.46 38.37C767.46 35.92 765.15 33.03 762.46 33.37C736.46 36.58 710.68 41.3 685.14 47.11C659.78 52.89 634.67 59.69 609.69 66.94C584.64 74.21 559.73 81.95 534.79 89.58C509.85 97.23 484.87 104.78 459.71 111.69C434.61 118.58 409.32 124.84 383.77 129.89C380.62 130.51 377.47 131.11 374.31 131.7C371.66 132.19 370.15 135.4 370.82 137.85C371.59 140.64 374.31 141.83 376.97 141.34L376.97 141.34" />
			<path id="path42" class="shp0" d="M382.63 182.65C405.48 180.82 428.17 177.37 450.77 173.52C473.05 169.73 495.28 165.56 517.65 162.28C540.14 158.98 562.73 157 585.45 156.28C608.52 155.55 631.61 155.8 654.69 155.56C666.23 155.45 677.77 155.21 689.3 154.68C700.48 154.16 711.84 153.53 722.71 150.68C725.3 150 727.84 149.18 730.33 148.23C732.85 147.26 734.59 144.86 733.82 142.08C733.16 139.67 730.21 137.62 727.67 138.59C717.61 142.43 707.23 143.65 696.6 144.3C685.16 144.99 673.69 145.3 662.23 145.47C639.15 145.82 616.06 145.54 592.98 146.08C570.09 146.61 547.32 148.23 524.62 151.29C502.1 154.31 479.75 158.39 457.37 162.28C435.34 166.11 413.25 169.76 390.98 171.91C388.2 172.18 385.41 172.42 382.63 172.65C379.93 172.86 377.63 174.79 377.63 177.65C377.63 180.19 379.92 182.86 382.63 182.65L382.63 182.65Z" />
			<path id="path44" class="shp0" d="M761.86 41.53C762.61 41.75 763.35 41.99 764.08 42.26C764.52 42.42 764.96 42.58 765.39 42.76C764.54 42.42 765.48 42.81 765.68 42.91C767.22 43.62 768.71 44.44 770.14 45.35C770.79 45.76 771.42 46.19 772.04 46.65C772.22 46.77 773.02 47.39 772.32 46.84C772.62 47.08 772.92 47.32 773.22 47.57C774.52 48.66 775.76 49.83 776.92 51.07C777.51 51.69 778.07 52.33 778.62 52.98C778.82 53.22 779.02 53.46 779.21 53.7C780.18 54.88 778.69 52.93 779.57 54.17C780.57 55.58 781.54 57 782.41 58.49C783.2 59.85 783.93 61.25 784.59 62.67C784.72 62.96 784.85 63.25 784.97 63.54C784.56 62.59 785.17 64.02 785.2 64.09C785.55 64.97 785.87 65.86 786.17 66.76C786.66 68.26 787.09 69.79 787.44 71.33C787.62 72.09 787.77 72.87 787.91 73.65C787.98 74.03 788.04 74.42 788.11 74.81C788.16 75.18 788.16 75.13 788.09 74.65C788.13 74.97 788.17 75.28 788.21 75.59C788.58 79.03 788.56 82.49 788.21 85.93C788.1 87.07 787.88 88.54 787.51 90.31C787.13 92.2 786.64 94.06 786.07 95.9C784.89 99.69 783.92 101.99 782.15 105.41C778.62 112.22 774.71 117.48 769.48 122.86C766.95 125.46 763.93 128.28 761.38 130.1C759.78 131.24 758.1 132.23 756.34 133.11C755.78 133.39 755.46 133.51 754.49 133.82C754.15 133.93 753.8 134.02 753.46 134.11C753.19 134.18 751.82 134.44 752.04 134.41C750.5 134.59 749.55 134.42 747.8 133.9C747.61 133.84 746.96 133.5 747.73 133.88C747.33 133.68 746.94 133.47 746.56 133.24C746.3 133.09 746.06 132.92 745.82 132.75C746.68 133.34 745.29 132.28 745.13 132.13C744.92 131.92 744.71 131.71 744.51 131.49C744.44 131.42 743.49 130.29 744.15 131.13C743.68 130.53 743.27 129.89 742.88 129.24C742.48 128.57 742.12 127.89 741.78 127.19C741.65 126.91 741.52 126.62 741.39 126.33C741.78 127.21 741.07 125.49 741.01 125.33C738.3 117.9 737.18 109.69 736.44 102.01C735.96 96.92 735.74 91.81 735.78 86.7C735.8 84.42 735.84 82.14 736.03 79.87C736.11 78.78 736.16 78.27 736.43 77.07C736.56 76.49 736.71 75.91 736.89 75.34C736.87 75.39 737.47 73.72 737.11 74.61C737.47 73.72 737.95 72.87 738.46 72.06C738.71 71.66 738.99 71.26 739.27 70.87C738.78 71.55 739.57 70.5 739.68 70.38C740.95 68.91 742.39 67.57 743.92 66.37C743.35 66.82 744.01 66.31 744.09 66.24C744.63 65.85 745.17 65.46 745.73 65.09C746.56 64.53 747.4 63.98 748.26 63.46C749.96 62.41 751.7 61.43 753.45 60.47C755.81 59.16 756.58 55.92 755.25 53.63C753.85 51.25 750.77 50.52 748.4 51.83C741.29 55.77 733.86 60.25 729.57 67.42C727.09 71.59 726.22 76.29 725.95 81.07C725.67 85.92 725.72 90.79 725.97 95.64C726.47 105.23 727.68 115.07 730.21 124.36C732.4 132.34 736.56 140.29 744.71 143.38C753.91 146.86 763.4 141.5 770.31 135.74C776.76 130.35 782.42 123.9 787.03 116.87C796.19 102.9 800.8 85.67 797.19 69.13C793.49 52.24 781.39 36.93 764.52 31.89C762.01 31.14 758.96 32.79 758.37 35.38C757.75 38.07 759.18 40.73 761.86 41.53L761.86 41.53" />
			<path id="path46" class="shp0" d="M111.05 436.18C111.05 458.93 111.05 481.68 111.05 504.44C111.05 510.99 111.05 517.53 111.05 524.08C111.05 526.7 113.35 529.2 116.05 529.08C118.76 528.96 121.05 526.89 121.05 524.08C121.05 501.33 121.05 478.58 121.05 455.82C121.05 449.27 121.05 442.73 121.05 436.18C121.05 433.56 118.75 431.06 116.05 431.18C113.35 431.3 111.05 433.37 111.05 436.18L111.05 436.18Z" />
			<path id="path48" class="shp0" d="M122.11 449.8C160.07 447.4 198.05 445.43 236.06 443.92C274.07 442.41 312.09 441.34 350.12 440.72C388.15 440.1 426.19 439.93 464.22 440.2C502.26 440.48 540.29 441.2 578.31 442.36C583.14 442.51 587.97 442.66 592.81 442.83C595.26 442.91 599.33 442.59 601.08 444.72C602.91 446.94 602.22 451.37 602.21 453.97C602.2 458.79 602.19 463.61 602.18 468.42C602.15 487.37 602.11 506.31 602.08 525.26C602.07 529.91 602.06 534.57 602.05 539.22C602.04 545.66 612.04 545.67 612.05 539.22C612.09 519.96 612.13 500.69 612.16 481.43C612.18 471.63 612.21 461.84 612.21 452.05C612.22 447.98 612.04 443.73 609.98 440.11C607.95 436.56 604.27 434.32 600.32 433.53C596.12 432.7 591.75 432.79 587.49 432.65C582.66 432.5 577.83 432.35 572.99 432.2C563.33 431.92 553.66 431.66 543.99 431.43C524.5 430.97 505 430.63 485.5 430.4C446.82 429.96 408.14 429.97 369.46 430.45C330.62 430.93 291.79 431.87 252.97 433.28C214.15 434.69 175.36 436.56 136.58 438.9C131.76 439.19 126.93 439.49 122.11 439.8C119.41 439.97 117.11 441.97 117.11 444.8C117.11 447.37 119.4 449.97 122.11 449.8L122.11 449.8" />
			<path id="path50" class="shp0" d="M113.03 529.79C175.89 528.63 238.76 528.04 301.62 528.02C364.17 528.01 426.71 528.56 489.25 529.68C524.53 530.31 559.8 531.12 595.07 532.11C601.51 532.29 601.5 522.29 595.07 522.11C532.23 520.35 469.37 519.15 406.51 518.53C343.96 517.91 281.42 517.86 218.87 518.37C183.59 518.67 148.31 519.14 113.03 519.79C106.61 519.91 106.59 529.91 113.03 529.79L113.03 529.79" />
			<path id="path52" class="shp0" d="M157.36 376.7C163.44 398.93 169.52 421.15 175.6 443.37C176.32 445.98 179.15 447.58 181.75 446.86C184.37 446.15 185.96 443.33 185.25 440.71C179.16 418.49 173.08 396.27 167 374.05C166.29 371.44 163.45 369.84 160.85 370.55C158.23 371.27 156.64 374.09 157.36 376.7L157.36 376.7Z" />
			<path id="path54" class="shp0" d="M167.58 372.73C194.81 372.68 222.04 372.64 249.27 372.59C276.5 372.54 303.73 372.5 330.96 372.45C357.47 372.4 384.03 372.76 410.53 371.94C436.49 371.14 462.64 368.73 487.76 361.78C490.81 360.94 493.84 360.02 496.86 359.05C498.03 358.67 499.2 358.29 500.4 358.03C500.64 357.97 500.87 357.93 501.11 357.88C501.91 357.72 500.39 357.92 501.19 357.87C501.43 357.85 501.66 357.83 501.89 357.82C501.88 357.83 503.25 357.87 502.6 357.8C502.14 357.75 503.43 358 503.68 358.11C502.75 357.71 503.66 358.14 503.7 358.22C503.68 358.18 502.96 357.36 503.8 358.36C503.82 358.38 504.33 359.02 504.04 358.61C503.72 358.17 504.24 359.02 504.29 359.12C504.57 359.59 504.35 359.14 504.3 359.03C504.46 359.42 504.58 359.83 504.69 360.23C504.85 360.82 504.98 361.42 505.08 362.02C504.97 361.32 505.09 362.2 505.1 362.29C505.12 362.57 505.15 362.84 505.17 363.11C505.27 364.59 505.27 366.07 505.26 367.54C505.21 380.97 505.14 394.4 505.08 407.82C505.07 411.21 505.05 414.59 505.04 417.98C505.03 420.68 507.35 422.98 510.04 422.98C512.76 422.98 515.03 420.69 515.04 417.98C515.1 404.21 515.16 390.45 515.22 376.68C515.25 370.48 516.01 363.63 514.33 357.58C512.57 351.21 507.14 347.15 500.49 347.95C497.54 348.3 494.83 349.22 492.01 350.11C488.89 351.08 485.74 351.99 482.58 352.82C476.09 354.53 469.53 355.95 462.92 357.12C450.32 359.34 437.61 360.59 424.75 361.32C397.98 362.86 371.09 362.38 344.29 362.43C316.6 362.47 288.92 362.52 261.23 362.57C233.43 362.62 205.64 362.66 177.84 362.71C174.42 362.72 171 362.72 167.58 362.73C164.88 362.73 162.58 365.03 162.58 367.73C162.58 370.44 164.87 372.73 167.58 372.73L167.58 372.73" />
			<path id="path56" class="shp0" d="M472.54 311.15C495.84 290.9 519.81 271.41 544.43 252.81C551.4 247.55 558.42 242.36 565.48 237.23C567.66 235.64 568.73 232.88 567.27 230.39C566.01 228.23 562.63 227 560.43 228.59C534.94 247.1 510.06 266.47 485.88 286.67C479.02 292.41 472.22 298.21 465.47 304.08C463.43 305.85 463.65 309.33 465.47 311.15C467.49 313.17 470.5 312.92 472.54 311.15L472.54 311.15" />
			<path id="path58" class="shp0" d="M511.33 325.99C541.95 322.34 572.28 316.45 601.99 308.17C610.38 305.83 618.72 303.3 627 300.6C629.57 299.77 631.24 297.14 630.5 294.45C629.81 291.93 626.92 290.12 624.35 290.96C595.56 300.35 566.07 307.55 536.19 312.47C527.8 313.84 519.66 315 511.33 315.99C508.74 316.3 506.2 318.07 506.33 320.99C506.44 323.43 508.55 326.32 511.33 325.99L511.33 325.99Z" />
			<path id="path60" class="shp0" d="M98.49 226.62C104.43 241.17 116.57 252.09 127.16 263.3C138.59 275.42 150.03 287.53 161.47 299.65C168.03 306.59 174.58 313.54 181.14 320.49C182.99 322.45 186.34 322.36 188.21 320.49C190.17 318.53 190.07 315.39 188.21 313.42C176.93 301.46 165.64 289.51 154.36 277.55C143.27 265.81 132.04 254.17 121.09 242.29C115.97 236.73 110.87 230.65 108.14 223.96C107.12 221.46 104.81 219.69 101.99 220.47C99.62 221.12 97.47 224.1 98.49 226.62L98.49 226.62" />
			<path id="path62" class="shp0" d="M3.74 315.04C42.89 324.43 82.33 332.62 121.98 339.59C133.19 341.56 144.41 343.43 155.65 345.2C158.22 345.61 161.16 344.54 161.8 341.71C162.35 339.31 161.07 336 158.31 335.56C118.54 329.28 78.97 321.78 39.66 313.07C28.55 310.61 17.46 308.05 6.4 305.4C3.86 304.79 0.86 306.2 0.25 308.89C-0.34 311.46 1.02 314.39 3.74 315.04L3.74 315.04" />
			<path id="path64" class="shp0" d="M306.82 422.99C314.76 422.99 322.71 422.99 330.65 422.99C332.45 422.99 333.98 421.46 333.98 419.65C333.98 417.85 332.46 416.32 330.65 416.32C322.71 416.32 314.76 416.32 306.82 416.32C305.02 416.32 303.49 417.85 303.49 419.65C303.49 421.46 305.01 422.99 306.82 422.99L306.82 422.99Z" />
			<path id="path66" class="shp0" d="M218.61 383.61C218.82 397.6 218.13 411.58 216.54 425.48C218.76 425.48 220.98 425.48 223.2 425.48C224.17 414.83 221.93 403.82 224.45 393.32C224.7 392.27 224.93 391.1 225.36 390.11C225.42 389.99 225.85 389.41 225.82 389.31C225.81 389.3 224.45 389.51 224.53 389.32C224.45 389.5 226.19 391.75 226.38 392.07C227.02 393.15 227.61 394.25 228.14 395.38C230.11 399.58 231.21 404.22 231.94 408.79C232.81 414.19 233.06 419.69 233.31 425.15C233.5 429.42 240.17 429.44 239.97 425.15C239.45 413.58 238.73 401.58 233.43 391.06C232.2 388.63 230.67 385.64 228.48 383.96C225.68 381.8 222.23 382.9 220.3 385.6C218.58 388 217.96 391.33 217.48 394.19C216.94 397.36 216.69 400.57 216.64 403.78C216.51 411.02 217.19 418.25 216.54 425.48C216.38 427.27 218.19 428.81 219.87 428.81C221.84 428.81 223 427.28 223.2 425.48C224.8 411.58 225.49 397.6 225.28 383.61C225.21 379.32 218.55 379.31 218.61 383.61L218.61 383.61" />
			<path id="path68" class="shp0" d="M222.51 415.05C229.43 415.5 236.49 414.39 242.91 411.78C244.52 411.13 245.84 409.53 245.24 407.68C244.74 406.13 242.87 404.65 241.14 405.36C238.11 406.58 234.96 407.48 231.74 408.02C231.62 408.04 230.53 408.2 231.04 408.13C230.69 408.18 230.33 408.22 229.98 408.25C229.15 408.34 228.32 408.4 227.49 408.44C225.83 408.52 224.17 408.49 222.51 408.39C220.77 408.28 219.1 410 219.18 411.72C219.26 413.62 220.64 414.93 222.51 415.05L222.51 415.05" />
			<path id="path70" class="shp0" d="M254.01 386.05C254 395.9 254 405.75 253.99 415.61C253.99 417.83 253.72 420.33 254.82 422.36C255.79 424.13 257.62 425.28 259.55 425.76C264.01 426.85 269.19 426.11 273.55 424.94C277.69 423.84 275.94 417.4 271.78 418.51C268.61 419.36 264.57 420.15 261.32 419.33C261.06 419.26 260.39 418.81 260.64 419.17C260.86 419.5 260.65 418.95 260.66 418.73C260.68 418.24 260.66 417.74 260.66 417.25C260.66 415.17 260.66 413.09 260.66 411.01C260.67 402.69 260.67 394.37 260.67 386.05C260.68 381.76 254.01 381.76 254.01 386.05L254.01 386.05" />
			<path id="path72" class="shp0" d="M276.91 389.29C280.2 397.46 276.9 406.61 279.8 414.93C281.11 418.69 283.62 423.92 287.77 425.15C289.51 425.66 291.38 425.31 293.03 424.67C294.36 424.15 295.92 423.31 296.73 423.57C300.84 424.85 302.59 418.41 298.51 417.14C296.83 416.61 295.07 416.78 293.43 417.36C292.4 417.72 290.53 418.77 289.8 418.73C289.34 418.7 289.57 418.78 289.08 418.2C288.55 417.57 288.09 416.88 287.67 416.18C286.7 414.55 286.03 412.83 285.6 410.99C283.83 403.24 286.4 395.12 283.34 387.52C282.67 385.85 281.12 384.68 279.24 385.19C277.66 385.63 276.24 387.61 276.91 389.29L276.91 389.29" />
			<path id="path74" class="shp0" d="M299.38 389.32C300.5 391.49 300.64 394.34 301.08 396.71C301.62 399.6 302.16 402.49 302.69 405.38C303.75 411.06 304.81 416.73 305.86 422.41C306.19 424.18 308.33 425.18 309.96 424.73C311.82 424.22 312.62 422.41 312.29 420.63C311.19 414.75 310.1 408.86 309 402.97C308.47 400.08 307.93 397.19 307.39 394.3C306.86 391.44 306.49 388.57 305.14 385.96C303.17 382.14 297.41 385.51 299.38 389.32L299.38 389.32" />
			<path id="path76" class="shp0" d="M300.69 393.93C309.05 393.54 317.41 393.47 325.76 393.72C327.56 393.77 329.09 392.15 329.09 390.38C329.09 388.53 327.57 387.1 325.76 387.05C317.41 386.8 309.05 386.87 300.69 387.26C298.9 387.35 297.36 388.74 297.36 390.6C297.36 392.34 298.89 394.02 300.69 393.93L300.69 393.93Z" />
			<path id="path78" class="shp0" d="M302.55 407.1C308.25 407.1 313.95 407.1 319.65 407.1C321.39 407.1 323.07 405.57 322.98 403.77C322.9 401.96 321.52 400.44 319.65 400.44C313.95 400.44 308.25 400.44 302.55 400.44C300.8 400.44 299.13 401.97 299.21 403.77C299.29 405.58 300.68 407.1 302.55 407.1L302.55 407.1Z" />
			<path id="path80" class="shp0" d="M358.86 385.36C352.5 381.32 345.47 386.93 342.03 392.13C338.45 397.55 336.7 404.96 337.87 411.39C339.13 418.33 345.65 421.11 351.93 422.03C358.81 423.03 367.22 422.25 370.21 414.83C373.1 407.63 365.71 400.05 358.42 402.02C354.88 402.98 355.47 408.8 359.31 408.57C362.38 408.38 365.46 408.2 368.54 408.01C370.34 407.91 371.88 406.56 371.88 404.68C371.88 402.96 370.35 401.24 368.54 401.35C365.46 401.53 362.38 401.72 359.31 401.9C359.6 404.08 359.89 406.27 360.19 408.45C362.37 407.86 365.13 410.4 363.82 412.84C361.8 416.58 356.21 416.03 352.74 415.45C349.28 414.88 345.22 413.97 344.39 410.1C343.56 406.17 344.69 401.31 346.47 397.78C347.51 395.72 348.86 393.66 350.69 392.21C352.15 391.04 354.03 390.18 355.49 391.11C359.13 393.42 362.47 387.65 358.86 385.36L358.86 385.36" />
			<path id="path82" class="shp0" d="M378.14 389.11C377.42 400.94 378.07 412.76 379.93 424.45C380.44 427.63 385.87 427.65 386.36 424.45C387.33 418.14 386.3 412 386.2 405.68C386.14 401.35 386.65 396.23 389.71 392.87C390.35 392.17 391.07 391.44 391.98 391.08C392.29 390.96 392.64 390.93 392.93 390.86C392.99 390.7 393.14 390.73 393.38 390.95C392.99 390.7 393.01 390.76 393.44 391.14C394.29 392.96 394.37 394.85 393.8 396.78C392.47 401.22 387.96 403.73 383.56 404.11C380.9 404.34 378.88 407.71 381.2 409.8C385.92 414.04 391.56 417.19 397.72 418.76C400.85 419.56 404.91 420.51 407.04 417.31C408.89 414.54 408.8 410.29 408.39 407.12C406.32 407.68 404.25 408.24 402.18 408.8C403.69 412.19 404.21 416 406.27 419.15C408.49 422.53 411.93 424.61 415.99 424.81C424.53 425.21 430.7 418.28 432.8 410.62C433.83 406.83 434.2 402.77 434.25 398.86C434.3 395.09 433.85 391.27 432.31 387.81C430.83 384.48 428.1 381.82 424.62 380.66C420.89 379.41 416.75 380.22 413.35 382.04C404.33 386.87 402.89 397.61 402.31 406.81C402.04 411.1 408.71 411.08 408.98 406.81C409.36 400.83 409.73 393.32 414.69 389.14C418.28 386.11 423.69 385.59 426.09 390.2C427.24 392.41 427.52 395.02 427.58 397.48C427.65 400.38 427.47 403.37 426.96 406.23C426.01 411.45 423.47 417.32 417.53 418.11C410.75 419 409.99 410.03 407.93 405.44C406.62 402.51 401.31 403.88 401.72 407.12C401.88 408.37 401.97 409.61 401.91 410.87C401.9 411.01 401.53 413.58 401.54 413.58C402.58 413.03 402.88 412.81 402.44 412.95C402.26 412.92 402.08 412.89 401.9 412.86C401.43 412.65 400.8 412.64 400.29 412.53C399.13 412.26 397.99 411.93 396.87 411.55C392.83 410.18 389.08 407.94 385.91 405.09C385.13 406.98 384.34 408.88 383.56 410.78C389.13 410.3 394.39 408.01 397.79 403.44C400.99 399.16 402.05 392.64 399.24 387.88C395.94 382.29 388.96 383.95 385.16 387.98C381.48 391.88 380.01 397.18 379.63 402.41C379.12 409.15 380.97 415.96 379.93 422.68C382.08 422.68 384.22 422.68 386.36 422.68C384.59 411.59 384.12 400.32 384.8 389.11C385.06 384.83 378.4 384.85 378.14 389.11L378.14 389.11" />
			<path id="path84" class="shp0" d="M181.61 467.51C180.53 463.16 175.11 462.02 171.76 464.47C168.19 467.08 166.98 472.44 166.02 476.52C164.93 481.16 164.39 485.98 164.27 490.75C164.15 495.38 164.65 500.04 166.65 504.27C170.31 512 179.43 515.67 187 511.15C194.19 506.86 198.31 498.1 200.73 490.42C203.67 481.07 204.26 471.06 203.78 461.32C203.57 457.06 197.07 457 197.11 461.32C197.25 474.09 197.8 486.84 198.75 499.57C198.88 501.37 200.18 502.91 202.08 502.91C203.78 502.91 205.55 501.38 205.41 499.57C204.46 486.84 203.92 474.09 203.78 461.32C201.56 461.32 199.34 461.32 197.11 461.32C197.77 474.66 196.46 489.02 188.71 500.35C185.82 504.57 180.62 508.78 175.66 505.09C170.35 501.15 170.69 493.28 171.1 487.42C171.39 483.32 172.06 479.27 173.24 475.33C173.71 473.76 174.14 471.83 175.12 470.47C175.29 470.23 175.33 470.14 175.47 469.98C175.66 469.77 176.11 469.6 175.74 469.79C175.46 469.92 175.59 469.55 175.72 469.82C175.94 469.87 175.96 469.88 175.76 469.85C175.54 469.68 175.35 469.49 175.18 469.28C176.21 473.44 182.64 471.68 181.61 467.51L181.61 467.51" />
			<path id="path86" class="shp0" d="M201.72 486.71C208.03 487.18 214.36 487.28 220.68 486.99C222.42 486.91 224.09 485.51 224.01 483.66C223.93 481.92 222.54 480.24 220.68 480.32C214.36 480.61 208.03 480.52 201.72 480.04C199.98 479.91 198.31 481.67 198.39 483.38C198.47 485.3 199.85 486.57 201.72 486.71L201.72 486.71Z" />
			<path id="path88" class="shp0" d="M219.18 463.55C219.18 478.83 219.18 494.1 219.18 509.37C219.18 513.66 225.85 513.67 225.85 509.37C225.85 494.1 225.85 478.83 225.85 463.55C225.85 459.26 219.18 459.26 219.18 463.55L219.18 463.55Z" />
			<path id="path90" class="shp0" d="M234.54 464.69C235.92 476.38 236.87 488.12 237.41 499.88C237.61 504.19 243.77 504.14 244.08 499.88C244.52 493.89 244 487.91 244.15 481.92C244.22 479.07 244.44 476.25 245.1 473.47C245.28 472.71 245.49 471.96 245.73 471.21C245.86 470.82 246.29 470.12 246.28 469.7C246.35 469.61 246.39 469.51 246.41 469.41C244.74 469.37 244.19 469.44 244.77 469.61C244.77 469.7 245.58 470.75 245.64 470.86C251.27 481.2 254.23 493.39 254.97 505.08C255.24 509.35 261.91 509.38 261.64 505.08C260.91 493.58 258.16 482.39 253.48 471.86C252.42 469.48 251.39 466.75 249.49 464.9C247.31 462.77 243.94 462.5 241.69 464.69C239.81 466.54 239.09 469.79 238.54 472.27C237.93 475.04 237.64 477.9 237.52 480.73C237.25 487.11 237.88 493.5 237.41 499.88C239.64 499.88 241.86 499.88 244.08 499.88C243.54 488.12 242.58 476.38 241.2 464.69C240.99 462.91 239.82 461.36 237.87 461.36C236.23 461.36 234.33 462.89 234.54 464.69L234.54 464.69" />
			<path id="path92" class="shp0" d="M239.63 493.06C244.62 493.71 249.75 493.31 254.61 492.01C256.29 491.57 257.49 489.62 256.94 487.91C256.38 486.18 254.64 485.11 252.84 485.59C251.71 485.89 250.58 486.14 249.43 486.33C249.17 486.37 248.9 486.44 248.64 486.45C249.5 486.41 248.51 486.47 248.33 486.49C247.75 486.55 247.17 486.6 246.59 486.64C244.27 486.78 241.94 486.69 239.63 486.39C238.85 486.29 237.81 486.84 237.27 487.37C236.7 487.95 236.26 488.89 236.3 489.72C236.34 490.59 236.62 491.48 237.27 492.08C237.97 492.72 238.7 492.94 239.63 493.06L239.63 493.06" />
			<path id="path94" class="shp0" d="M268.67 464.16C268.25 478.47 269.41 492.77 272.01 506.83C272.34 508.61 274.48 509.61 276.11 509.16C278 508.64 278.73 506.85 278.44 505.06C277.03 496.41 275.41 487.64 275.17 478.86C275.08 475.68 275.23 472.44 276.36 469.44C276.8 468.25 277.46 467.07 278.33 466.14C278.76 465.66 279.21 465.21 279.78 464.91C279.55 465.03 279.22 464.68 279.43 464.94C279.86 465.47 279.72 465.18 280.1 465.73C281.64 468.02 281.06 471.29 279.74 473.53C277.99 476.51 274.9 478.43 271.89 479.95C268.55 481.64 264.6 482.93 263.43 486.94C262.84 489 263.13 491.21 264.52 492.88C265.84 494.46 267.75 495.3 269.58 496.15C276.93 499.54 285.43 501.41 291.71 506.76C293.08 507.93 295.08 508.1 296.42 506.76C297.62 505.56 297.8 503.22 296.42 502.05C289.99 496.57 282.03 494.31 274.41 491.04C273.59 490.69 272.78 490.32 271.99 489.94C271.75 489.82 269.58 488.55 269.55 488.57C269.56 488.56 270.12 489.17 269.74 489.17C269.56 489.18 269.91 488.64 269.98 488.54C270.48 487.8 271.61 487.42 272.38 487.05C276.14 485.28 279.85 483.43 282.78 480.4C285.69 477.41 287.54 473.55 287.65 469.34C287.75 465.53 286.12 461.09 282.67 459.1C278.2 456.52 273.78 460.49 271.55 464.14C269.51 467.51 268.75 471.52 268.53 475.4C268.28 480.15 268.88 484.94 269.45 489.65C270.16 495.4 271.08 501.12 272.01 506.83C274.15 506.24 276.29 505.65 278.44 505.06C275.94 491.58 274.94 477.87 275.33 464.16C275.46 459.87 268.79 459.88 268.67 464.16L268.67 464.16" />
			<path id="path96" class="shp0" d="M287.52 467.21C286.85 475.05 291.23 483.12 298.14 486.88C300.11 487.95 302.39 488.87 304.66 488.25C306.83 487.65 308.43 485.85 309.45 483.92C311.68 479.72 312.84 475.04 313.42 470.35C311.2 470.35 308.97 470.35 306.75 470.35C305.73 482.94 304.7 495.53 303.67 508.12C303.52 509.91 305.31 511.45 307 511.45C308.93 511.45 310.19 509.92 310.34 508.12C311.36 495.53 312.39 482.94 313.42 470.35C313.57 468.55 311.78 467.02 310.09 467.02C308.1 467.02 306.97 468.55 306.75 470.35C306.37 473.5 305.48 476.72 304.15 479.61C303.87 480.21 303.55 480.79 303.23 481.37C303.19 481.43 302.69 481.92 302.99 481.81C302.56 481.97 300.46 480.54 299.88 480.11C295.83 477.16 293.76 472.15 294.18 467.21C294.33 465.42 292.54 463.88 290.85 463.88C288.92 463.88 287.67 465.41 287.52 467.21L287.52 467.21" />
			<path id="path98" class="shp0" d="M322.71 466.28C332.89 466.28 343.07 466.28 353.25 466.28C357.54 466.28 357.55 459.61 353.25 459.61C343.07 459.61 332.89 459.61 322.71 459.61C318.42 459.61 318.41 466.28 322.71 466.28L322.71 466.28Z" />
			<path id="path100" class="shp0" d="M335.39 464.78C334.73 477.01 334.98 489.27 336.12 501.47C336.29 503.26 337.53 504.8 339.46 504.8C341.13 504.8 342.96 503.27 342.79 501.47C341.64 489.27 341.4 477.01 342.05 464.78C342.28 460.49 335.62 460.51 335.39 464.78L335.39 464.78Z" />
			<path id="path102" class="shp0" d="M351.73 463.55C351.75 477.36 351.78 491.16 351.8 504.97C354.03 504.97 356.25 504.97 358.47 504.97C358.22 493.72 357.97 482.43 359.16 471.22C359.24 470.43 359.51 469.57 359.55 468.79C359.56 468.52 359.48 468.73 359.19 468.76C359.54 468.72 359.62 468.77 359.91 468.92C361.36 469.7 362.07 472.7 362.6 474.11C364.49 479.14 365.95 484.33 366.94 489.62C368.06 495.53 368.52 501.53 368.43 507.55C368.38 511.84 375.04 511.84 375.1 507.55C375.27 494.86 372.99 482.09 368.24 470.31C367.13 467.58 365.92 464.74 363.27 463.16C360.64 461.6 357.03 461.71 354.84 463.99C352.69 466.23 352.64 469.61 352.36 472.51C352.05 475.74 351.85 478.98 351.74 482.22C351.47 489.8 351.63 497.39 351.8 504.97C351.9 509.25 358.48 509.27 358.47 504.97C358.45 491.16 358.42 477.36 358.4 463.55C358.39 459.26 351.72 459.26 351.73 463.55L351.73 463.55Z" />
			<path id="path104" class="shp0" d="M358.15 493.87C360.8 493.65 363.44 493.43 366.09 493.21C366.98 493.14 367.79 492.89 368.44 492.23C369.02 491.66 369.46 490.71 369.42 489.88C369.38 489.01 369.1 488.12 368.44 487.52C367.82 486.95 366.96 486.47 366.09 486.54C363.44 486.76 360.8 486.98 358.15 487.2C357.25 487.28 356.45 487.53 355.79 488.18C355.21 488.76 354.78 489.71 354.82 490.54C354.85 491.4 355.14 492.29 355.79 492.89C356.41 493.46 357.28 493.94 358.15 493.87L358.15 493.87Z" />
			<path id="path106" class="shp0" d="M371.58 466.23C381.98 466.72 392.4 466.3 402.73 464.95C404.51 464.72 406.06 463.59 406.06 461.62C406.06 460 404.52 458.05 402.73 458.29C392.4 459.63 381.98 460.06 371.58 459.56C367.3 459.36 367.31 466.02 371.58 466.23L371.58 466.23" />
			<path id="path108" class="shp0" d="M385.35 464.77C385.35 477.81 385.35 490.84 385.35 503.87C385.35 508.17 392.02 508.17 392.02 503.87C392.02 490.84 392.02 477.81 392.02 464.77C392.02 460.49 385.35 460.48 385.35 464.77L385.35 464.77Z" />
			<path id="path110" class="shp0" d="M396.85 464.9C401.15 475.87 406.4 486.43 412.66 496.41C414.94 500.04 420.71 496.69 418.42 493.05C412.47 483.56 407.36 473.55 403.28 463.13C402.62 461.45 401.04 460.29 399.18 460.8C397.58 461.24 396.19 463.22 396.85 464.9L396.85 464.9Z" />
			<path id="path112" class="shp0" d="M420.26 464.08C415.57 478.4 411.77 493 408.89 507.8C408.55 509.56 409.39 511.4 411.22 511.9C412.85 512.35 414.97 511.35 415.32 509.57C418.2 494.77 422 480.17 426.69 465.85C428.03 461.76 421.59 460.01 420.26 464.08L420.26 464.08Z" />
			<path id="path114" class="shp0" d="M433.28 464.75C433.71 477.04 433.78 489.35 433.51 501.65C433.44 504.81 438.29 506.39 439.73 503.33C440.72 501.2 441.24 498.81 442.4 496.77C442.95 495.81 443.82 494.61 445.04 494.95C446.53 495.38 447.7 497.16 448.56 498.36C449.97 500.32 451.25 502.37 452.4 504.5C453.11 505.78 454.78 506.41 456.17 506.03C457.7 505.61 458.42 504.29 458.61 502.81C460.24 490.19 459.53 477.36 456.66 464.97C455.69 460.79 449.26 462.55 450.23 466.74C452.97 478.57 453.5 490.77 451.95 502.81C454.02 502.25 456.09 501.69 458.16 501.13C456.59 498.26 454.81 495.5 452.77 492.94C450.97 490.69 448.61 488.71 445.66 488.31C442.69 487.9 439.86 489.25 437.97 491.53C435.91 494.03 435.31 497.1 433.97 499.97C436.04 500.53 438.11 501.09 440.18 501.65C440.45 489.35 440.37 477.04 439.95 464.75C439.8 460.47 433.14 460.45 433.28 464.75L433.28 464.75Z" />
			<path id="path116" class="shp0" d="M461.47 464.99C464.11 476.18 465.56 487.57 465.83 499.06C465.87 500.7 467.07 502.14 468.73 502.33C470.21 502.51 472.12 501.6 472.38 499.94C474.3 487.88 469.27 476.6 468.94 464.65C468.13 465.73 467.31 466.8 466.49 467.87C466.83 467.82 468.01 469.43 468.28 469.83C469.47 471.52 470.51 473.33 471.57 475.11C473.68 478.66 475.68 482.29 477.68 485.91C481.68 493.14 485.71 500.36 490.6 507.03C492.51 509.64 496.68 508.85 496.81 505.35C497.36 491.62 497.29 477.88 496.63 464.16C496.43 459.89 489.76 459.87 489.97 464.16C490.63 477.88 490.69 491.62 490.15 505.35C492.22 504.79 494.29 504.23 496.36 503.67C490.86 496.18 486.47 487.99 481.97 479.89C479.72 475.84 477.43 471.8 474.95 467.87C472.55 464.07 469.63 460.71 464.72 461.44C463.33 461.65 462.24 463.32 462.27 464.65C462.43 470.49 463.69 476.21 464.81 481.91C465.86 487.23 466.81 492.76 465.95 498.17C468.14 498.47 470.32 498.76 472.5 499.06C472.21 486.99 470.67 474.97 467.9 463.22C466.92 459.05 460.49 460.81 461.47 464.99L461.47 464.99" />
			<path id="path118" class="shp0" d="M506.93 464.77C506.93 478.22 506.93 491.66 506.93 505.1C506.93 509.39 513.6 509.39 513.6 505.1C513.6 491.66 513.6 478.22 513.6 464.77C513.6 460.49 506.93 460.48 506.93 464.77L506.93 464.77Z" />
		</g>
	</g>
</svg>