<svg xmlns="http://www.w3.org/2000/svg" viewBox="0 0 763 745" width="763" height="745">
	<style>
		tspan { white-space:pre }
		.shp0 { fill: #eb1d27 } 
	</style>
	<g id="g10">
		<g id="g12">
			<path id="path14" class="shp0" d="M36.25 691.47L36.25 695.3C36.25 696.43 35.92 697.48 35.26 698.42L12.64 735.72L35.61 735.72L35.61 743.98L0.06 743.98L0.06 739.95C0.06 738.89 0.37 737.94 0.97 737.1L23.59 699.73L1.8 699.73L1.8 691.47L36.25 691.47" />
			<path id="path16" fill-rule="evenodd" class="shp0" d="M85.91 743.98L77.93 743.98C77 743.98 76.27 743.76 75.71 743.33C75.16 742.89 74.75 742.35 74.49 741.69L71.16 731.37L51.83 731.37L48.54 741.65C48.33 742.23 47.93 742.76 47.34 743.25C46.75 743.74 46.01 743.98 45.14 743.98L37.04 743.98L56.18 691.47L66.77 691.47L85.91 743.98ZM54.16 724.09L68.79 724.09L63.45 707.48C63.14 706.66 62.81 705.71 62.46 704.61C62.12 703.52 61.78 702.33 61.44 701.03C61.12 702.33 60.79 703.53 60.45 704.63C60.1 705.74 59.79 706.7 59.5 707.52L54.16 724.09Z" />
			<path id="path18" fill-rule="evenodd" class="shp0" d="M100.9 725.75L100.9 743.98L90.5 743.98L90.5 691.47L107.39 691.47C110.79 691.47 113.71 691.89 116.17 692.73C118.62 693.58 120.65 694.74 122.25 696.23C123.86 697.72 125.05 699.49 125.81 701.55C126.58 703.61 126.96 705.86 126.96 708.31C126.96 710.9 126.56 713.25 125.75 715.39C124.95 717.53 123.74 719.36 122.12 720.89C120.49 722.42 118.46 723.61 116.01 724.47C113.56 725.32 110.68 725.75 107.39 725.75L100.9 725.75ZM100.9 717.68L107.39 717.68C110.55 717.68 112.87 716.85 114.35 715.17C115.82 713.5 116.56 711.21 116.56 708.31C116.56 705.6 115.81 703.44 114.31 701.85C112.8 700.25 110.5 699.45 107.39 699.45L100.9 699.45L100.9 717.68Z" />
			<path id="path20" class="shp0" d="M145.07 743.98L134.63 743.98L134.63 691.47L145.07 691.47L145.07 743.98Z" />
			<path id="path22" class="shp0" d="M183.11 701.35C182.85 701.88 182.54 702.25 182.18 702.48C181.83 702.7 181.39 702.81 180.86 702.81C180.36 702.81 179.82 702.63 179.24 702.26C178.66 701.89 177.98 701.49 177.2 701.05C176.42 700.62 175.52 700.22 174.49 699.85C173.47 699.48 172.28 699.3 170.93 699.3C168.56 699.3 166.78 699.87 165.58 701.03C164.38 702.19 163.78 703.71 163.78 705.58C163.78 706.77 164.1 707.75 164.75 708.53C165.39 709.31 166.25 709.98 167.32 710.55C168.38 711.11 169.6 711.62 170.95 712.07C172.31 712.52 173.7 713 175.13 713.51C176.55 714.03 177.94 714.63 179.3 715.33C180.65 716.03 181.87 716.91 182.94 717.96C184 719.02 184.86 720.31 185.51 721.84C186.15 723.36 186.47 725.22 186.47 727.41C186.47 729.78 186.09 732.01 185.31 734.09C184.53 736.18 183.39 737.99 181.89 739.53C180.39 741.07 178.55 742.29 176.37 743.19C174.2 744.09 171.71 744.53 168.92 744.53C167.33 744.53 165.76 744.37 164.19 744.04C162.62 743.71 161.11 743.24 159.66 742.64C158.21 742.03 156.84 741.31 155.55 740.46C154.26 739.62 153.13 738.67 152.15 737.61L155.23 732.67C155.47 732.28 155.79 731.96 156.2 731.72C156.61 731.48 157.05 731.37 157.53 731.37C158.16 731.37 158.81 731.61 159.49 732.1C160.16 732.59 160.94 733.13 161.84 733.72C162.73 734.31 163.78 734.85 164.96 735.34C166.15 735.83 167.56 736.07 169.19 736.07C171.57 736.07 173.41 735.47 174.73 734.25C176.05 733.04 176.71 731.25 176.71 728.87C176.71 727.53 176.38 726.44 175.74 725.59C175.09 724.75 174.24 724.04 173.19 723.48C172.13 722.91 170.93 722.42 169.57 722.01C168.21 721.61 166.83 721.16 165.42 720.69C164.01 720.21 162.62 719.64 161.27 718.97C159.91 718.3 158.7 717.41 157.65 716.3C156.59 715.19 155.74 713.82 155.1 712.19C154.45 710.55 154.13 708.52 154.13 706.1C154.13 704.17 154.5 702.29 155.23 700.46C155.97 698.63 157.05 697 158.48 695.58C159.9 694.15 161.65 693.01 163.72 692.16C165.79 691.3 168.15 690.87 170.81 690.87C173.82 690.87 176.61 691.36 179.18 692.34C181.75 693.31 183.94 694.68 185.76 696.45L183.11 701.35" />
			<path id="path24" class="shp0" d="M207.59 691.47L216.29 691.47C217.21 691.47 217.97 691.68 218.57 692.1C219.16 692.52 219.56 693.07 219.77 693.76L227.52 724.09C227.97 725.67 228.39 727.5 228.79 729.59C229 728.56 229.21 727.58 229.42 726.64C229.63 725.71 229.88 724.84 230.17 724.05L239.35 693.76C239.56 693.15 239.97 692.62 240.57 692.16C241.18 691.7 241.9 691.47 242.75 691.47L245.79 691.47C246.71 691.47 247.46 691.67 248.03 692.08C248.59 692.49 248.99 693.05 249.23 693.76L258.41 724.09C258.67 724.85 258.91 725.69 259.14 726.6C259.36 727.51 259.58 728.47 259.79 729.47C259.97 728.47 260.17 727.52 260.36 726.62C260.56 725.72 260.77 724.89 260.98 724.13L268.73 693.76C268.91 693.15 269.31 692.62 269.93 692.16C270.55 691.7 271.28 691.47 272.13 691.47L280.27 691.47L264.69 743.98L255.28 743.98L244.88 709.06C244.72 708.61 244.57 708.11 244.43 707.56C244.28 707.01 244.14 706.43 244.01 705.82C243.88 706.43 243.73 707.01 243.58 707.56C243.42 708.11 243.27 708.61 243.14 709.06L232.54 743.98L223.17 743.98L207.59 691.47Z" />
			<path id="path26" class="shp0" d="M338.33 691.47L338.33 699.93L324.17 699.93L324.17 743.98L313.81 743.98L313.81 699.93L299.65 699.93L299.65 691.47L338.33 691.47" />
			<path id="path28" class="shp0" d="M375.73 691.47L375.73 699.73L354.14 699.73L354.14 713.61L370.95 713.61L370.95 721.56L354.14 721.56L354.14 735.72L375.77 735.72L375.73 743.98L343.7 743.98L343.7 691.47L375.73 691.47Z" />
			<path id="path30" class="shp0" d="M410.22 701.35C409.95 701.88 409.64 702.25 409.29 702.48C408.93 702.7 408.49 702.81 407.96 702.81C407.46 702.81 406.92 702.63 406.34 702.26C405.76 701.89 405.08 701.49 404.31 701.05C403.53 700.62 402.62 700.22 401.6 699.85C400.57 699.48 399.38 699.3 398.04 699.3C395.66 699.3 393.88 699.87 392.68 701.03C391.48 702.19 390.88 703.71 390.88 705.58C390.88 706.77 391.2 707.75 391.85 708.53C392.49 709.31 393.35 709.98 394.42 710.55C395.49 711.11 396.7 711.62 398.06 712.07C399.41 712.52 400.81 713 402.23 713.51C403.65 714.03 405.04 714.63 406.4 715.33C407.76 716.03 408.97 716.91 410.04 717.96C411.11 719.02 411.96 720.31 412.61 721.84C413.25 723.36 413.58 725.22 413.58 727.41C413.58 729.78 413.19 732.01 412.41 734.09C411.63 736.18 410.49 737.99 408.99 739.53C407.49 741.07 405.65 742.29 403.47 743.19C401.3 744.09 398.81 744.53 396.02 744.53C394.44 744.53 392.86 744.37 391.29 744.04C389.73 743.71 388.22 743.24 386.77 742.64C385.32 742.03 383.95 741.31 382.65 740.46C381.36 739.62 380.23 738.67 379.25 737.61L382.34 732.67C382.57 732.28 382.9 731.96 383.31 731.72C383.71 731.48 384.16 731.37 384.63 731.37C385.26 731.37 385.92 731.61 386.59 732.1C387.26 732.59 388.05 733.13 388.94 733.72C389.84 734.31 390.88 734.85 392.07 735.34C393.25 735.83 394.66 736.07 396.3 736.07C398.67 736.07 400.51 735.47 401.83 734.25C403.15 733.04 403.81 731.25 403.81 728.87C403.81 727.53 403.49 726.44 402.84 725.59C402.19 724.75 401.35 724.04 400.29 723.48C399.24 722.91 398.03 722.42 396.67 722.01C395.31 721.61 393.93 721.16 392.52 720.69C391.11 720.21 389.73 719.64 388.37 718.97C387.01 718.3 385.8 717.41 384.75 716.3C383.69 715.19 382.85 713.82 382.2 712.19C381.55 710.55 381.23 708.52 381.23 706.1C381.23 704.17 381.6 702.29 382.34 700.46C383.08 698.63 384.16 697 385.58 695.58C387 694.15 388.75 693.01 390.82 692.16C392.89 691.3 395.25 690.87 397.92 690.87C400.92 690.87 403.71 691.36 406.28 692.34C408.85 693.31 411.05 694.68 412.87 696.45L410.22 701.35" />
			<path id="path32" class="shp0" d="M454.62 691.47L454.62 699.93L440.47 699.93L440.47 743.98L430.11 743.98L430.11 699.93L415.95 699.93L415.95 691.47L454.62 691.47Z" />
			<path id="path34" fill-rule="evenodd" class="shp0" d="M498 743.98L490.02 743.98C489.09 743.98 488.36 743.76 487.8 743.33C487.25 742.89 486.84 742.35 486.58 741.69L483.25 731.37L463.92 731.37L460.63 741.65C460.42 742.23 460.02 742.76 459.43 743.25C458.84 743.74 458.1 743.98 457.23 743.98L449.13 743.98L468.27 691.47L478.87 691.47L498 743.98ZM466.25 724.09L480.88 724.09L475.54 707.48C475.23 706.66 474.9 705.71 474.55 704.61C474.21 703.52 473.87 702.33 473.53 701.03C473.21 702.33 472.88 703.53 472.54 704.63C472.19 705.74 471.88 706.7 471.59 707.52L466.25 724.09Z" />
			<path id="path36" class="shp0" d="M533.51 726.74C533.88 725.82 534.25 724.91 534.62 724.03C534.99 723.15 535.4 722.3 535.85 721.48L552.02 693.09C552.23 692.69 552.45 692.38 552.67 692.16C552.9 691.93 553.14 691.78 553.41 691.68C553.67 691.59 553.97 691.53 554.31 691.51C554.66 691.48 555.05 691.47 555.5 691.47L563.33 691.47L563.33 743.98L554.2 743.98L554.2 711.12C554.2 710.41 554.22 709.64 554.26 708.81C554.3 707.97 554.35 707.13 554.43 706.25L537.86 735.6C537.05 737.13 535.85 737.89 534.27 737.89L532.8 737.89C531.19 737.89 529.98 737.13 529.17 735.6L512.4 706.1C512.5 706.99 512.58 707.87 512.64 708.73C512.69 709.58 512.71 710.38 512.71 711.12L512.71 743.98L503.54 743.98L503.54 691.47L511.41 691.47C511.86 691.47 512.25 691.48 512.58 691.51C512.91 691.53 513.21 691.6 513.49 691.7C513.76 691.81 514.01 691.97 514.24 692.18C514.46 692.39 514.68 692.69 514.89 693.09L531.18 721.56C532.08 723.22 532.86 724.95 533.51 726.74" />
			<path id="path38" class="shp0" d="M605.53 691.47L605.53 699.73L583.93 699.73L583.93 713.61L600.74 713.61L600.74 721.56L583.93 721.56L583.93 735.72L605.57 735.72L605.53 743.98L573.49 743.98L573.49 691.47L605.53 691.47Z" />
			<path id="path40" class="shp0" d="M619.76 691.53C620.08 691.57 620.36 691.64 620.61 691.76C620.86 691.88 621.1 692.05 621.32 692.26C621.55 692.47 621.8 692.75 622.09 693.09L647.96 727.17C647.8 725.43 647.72 723.79 647.72 722.23L647.72 691.47L656.85 691.47L656.85 743.98L651.51 743.98C650.7 743.98 650.02 743.84 649.48 743.57C648.94 743.29 648.4 742.83 647.88 742.2L622.09 708.31C622.25 709.95 622.33 711.46 622.33 712.86L622.33 743.98L613.16 743.98L613.16 691.47L618.61 691.47C619.06 691.47 619.44 691.48 619.76 691.53" />
			<path id="path42" class="shp0" d="M698.14 731.25C698.69 731.25 699.17 731.46 699.56 731.88L703.71 736.35C701.81 739.01 699.44 741.04 696.58 742.44C693.71 743.84 690.32 744.53 686.39 744.53C682.83 744.53 679.63 743.87 676.78 742.54C673.94 741.21 671.52 739.35 669.53 736.96C667.54 734.58 666.01 731.74 664.94 728.46C663.87 725.18 663.34 721.59 663.34 717.68C663.34 713.75 663.91 710.15 665.06 706.87C666.21 703.59 667.82 700.76 669.9 698.39C671.99 696.01 674.48 694.17 677.38 692.85C680.28 691.53 683.47 690.87 686.95 690.87C690.48 690.87 693.6 691.5 696.32 692.75C699.03 694 701.3 695.66 703.12 697.71L699.64 702.58C699.4 702.87 699.13 703.13 698.83 703.37C698.53 703.61 698.1 703.72 697.54 703.72C696.99 703.72 696.46 703.51 695.94 703.09C695.43 702.67 694.8 702.21 694.05 701.71C693.29 701.21 692.35 700.75 691.22 700.32C690.08 699.9 688.63 699.69 686.87 699.69C684.94 699.69 683.19 700.09 681.61 700.9C680.03 701.7 678.67 702.87 677.53 704.42C676.4 705.96 675.53 707.84 674.91 710.07C674.29 712.3 673.98 714.84 673.98 717.68C673.98 720.56 674.32 723.11 675 725.35C675.69 727.6 676.62 729.49 677.79 731.03C678.97 732.57 680.34 733.75 681.92 734.55C683.51 735.35 685.21 735.75 687.03 735.75C688.11 735.75 689.08 735.69 689.95 735.58C690.82 735.46 691.63 735.25 692.38 734.95C693.14 734.64 693.84 734.25 694.5 733.78C695.16 733.3 695.82 732.71 696.48 732C696.74 731.79 697.01 731.61 697.29 731.47C697.56 731.32 697.85 731.25 698.14 731.25" />
			<path id="path44" class="shp0" d="M720.56 743.98L710.12 743.98L710.12 691.47L720.56 691.47L720.56 743.98Z" />
			<path id="path46" class="shp0" d="M762.83 691.47L762.83 699.73L741.24 699.73L741.24 713.61L758.05 713.61L758.05 721.56L741.24 721.56L741.24 735.72L762.87 735.72L762.83 743.98L730.8 743.98L730.8 691.47L762.83 691.47Z" />
			<path id="path48" class="shp0" d="M183.2 4.84C183.13 66.91 183.05 128.97 182.98 191.03C182.91 252.77 182.84 314.52 182.77 376.27C182.73 411.1 182.69 445.93 182.65 480.76C182.64 487.19 192.64 487.2 192.65 480.76C192.72 418.7 192.79 356.63 192.86 294.57C192.93 232.83 193.01 171.08 193.08 109.33C193.12 74.5 193.16 39.67 193.2 4.84C193.2 -1.59 183.2 -1.6 183.2 4.84L183.2 4.84Z" />
			<path id="path50" class="shp0" d="M193.62 10.67C217.86 10.7 242.07 12.19 266.21 14.32C290.5 16.47 314.72 19.26 338.96 21.88C363.07 24.48 387.21 26.92 411.42 28.36C435.3 29.78 459.26 30.22 483.15 28.8C507.14 27.37 531.08 24.08 554.4 18.22C557.29 17.49 560.17 16.72 563.03 15.92C565.64 15.19 567.25 12.38 566.53 9.77C565.81 7.16 562.99 5.54 560.38 6.27C537.7 12.62 514.42 16.46 490.95 18.27C467.23 20.09 443.41 19.98 419.66 18.81C395.47 17.61 371.34 15.31 347.26 12.76C323.13 10.21 299.03 7.39 274.87 5.12C250.84 2.85 226.73 1.11 202.59 0.74C199.6 0.69 196.61 0.67 193.62 0.67C187.19 0.66 187.18 10.66 193.62 10.67L193.62 10.67" />
			<path id="path52" class="shp0" d="M568.89 10.97C568.89 55.19 568.89 99.4 568.89 143.62C568.89 187.61 568.89 231.6 568.89 275.59C568.89 300.41 568.89 325.22 568.89 350.03C568.89 352.74 571.18 355.03 573.89 355.03C576.6 355.03 578.89 352.75 578.89 350.03C578.89 305.82 578.89 261.6 578.89 217.39C578.89 173.4 578.89 129.41 578.89 85.42C578.89 60.6 578.89 35.79 578.89 10.97C578.89 8.27 576.59 5.97 573.89 5.97C571.17 5.97 568.89 8.26 568.89 10.97L568.89 10.97Z" />
			<path id="path54" class="shp0" d="M467.97 357.83C482.42 369 500.18 372.68 518.09 373.54C526.52 373.94 534.99 373.85 543.41 373.52C551.01 373.22 558.81 372.5 566.09 370.18C574.44 367.53 582.15 362.59 586.24 354.6C587.48 352.2 586.87 349.18 584.45 347.76C582.21 346.45 578.85 347.14 577.61 349.55C577.21 350.34 576.78 351.1 576.3 351.83C576.07 352.19 575.82 352.54 575.57 352.89C575.68 352.73 576.18 352.18 575.56 352.88C574.45 354.15 573.29 355.34 571.95 356.38C572.86 355.67 571.74 356.51 571.61 356.6C571.26 356.84 570.91 357.07 570.55 357.3C569.95 357.68 569.33 358.03 568.7 358.36C567.94 358.77 567.16 359.14 566.37 359.49C566.55 359.41 567.25 359.15 566.35 359.5C565.81 359.71 565.26 359.92 564.7 360.12C561.41 361.27 557.98 362.04 554.53 362.58C554.23 362.63 553.92 362.67 553.61 362.72C552.09 362.94 554.63 362.61 553.1 362.78C552.17 362.88 551.25 362.99 550.32 363.08C548.55 363.24 546.78 363.36 545.01 363.45C537.14 363.84 529.21 363.91 521.34 363.67C517.21 363.54 513.08 363.29 508.97 362.84C505.55 362.46 501.96 361.89 498 360.97C495.88 360.47 493.77 359.9 491.7 359.23C490.54 358.86 489.4 358.47 488.26 358.04C487.94 357.91 487.62 357.79 487.3 357.66C486.98 357.53 486.66 357.41 486.34 357.27C486.74 357.44 486.66 357.4 486.1 357.16C484.06 356.23 482.05 355.23 480.1 354.09C479.2 353.57 478.32 353.02 477.45 352.44C477.01 352.15 476.58 351.85 476.15 351.55C475.99 351.43 474.6 350.42 475.04 350.76C472.91 349.11 470.05 348.68 467.97 350.76C466.25 352.48 465.82 356.17 467.97 357.83L467.97 357.83" />
			<path id="path56" class="shp0" d="M461.37 363.44C471.55 395.45 480.57 427.83 488.37 460.5C490.58 469.78 492.7 479.07 494.72 488.39C495.3 491.03 498.37 492.57 500.87 491.88C503.6 491.13 504.94 488.38 504.37 485.73C497.24 452.91 488.92 420.34 479.41 388.13C476.71 378.98 473.91 369.87 471.02 360.78C470.2 358.21 467.54 356.55 464.87 357.29C462.33 357.99 460.55 360.86 461.37 363.44L461.37 363.44Z" />
			<path id="path58" class="shp0" d="M565.57 362.35C565.39 364.71 565.17 367.07 564.91 369.42C564.62 372 564.43 373.46 564.11 375.68C563.41 380.37 562.55 385.03 561.54 389.65C559.53 398.82 556.91 407.85 553.71 416.67C550.5 425.52 547.02 433.41 542.53 441.96C538.13 450.35 533.17 458.45 527.7 466.17C521.78 474.53 515.12 482.48 507.69 490.12C505.8 492.05 505.76 495.26 507.69 497.19C509.58 499.08 512.87 499.13 514.76 497.19C528.39 483.19 540.13 467.29 549.49 450.14C558.85 432.99 565.98 414.53 570.46 395.51C573.02 384.61 574.71 373.51 575.57 362.35C575.77 359.73 573.12 357.23 570.57 357.35C567.69 357.48 565.78 359.55 565.57 362.35L565.57 362.35" />
			<path id="path60" class="shp0" d="M189.89 493.93C230.08 493.93 270.27 493.93 310.46 493.93C350.43 493.93 390.4 493.93 430.37 493.93C453.01 493.93 475.66 493.93 498.31 493.93C500.93 493.93 503.43 491.63 503.31 488.93C503.19 486.22 501.11 483.93 498.31 483.93C458.12 483.93 417.93 483.93 377.74 483.93C337.77 483.93 297.8 483.93 257.83 483.93C235.18 483.93 212.54 483.93 189.89 483.93C187.27 483.93 184.77 486.23 184.89 488.93C185.01 491.64 187.08 493.93 189.89 493.93L189.89 493.93Z" />
			<path id="path62" class="shp0" d="M294.79 165.56C295.32 165.47 293.82 165.63 293.59 165.63C293.37 165.63 291.93 165.53 292.42 165.6C291.21 165.43 289.58 164.92 288.67 164.54C286.5 163.62 283.98 161.97 281.89 160.45C280.67 159.57 280.81 159.69 279.65 158.74C278.65 157.93 277.68 157.09 276.73 156.23C274.89 154.57 273.13 152.82 271.47 150.99C268.11 147.3 265.79 144.17 263.09 139.67C260.49 135.33 258.51 131.18 257.01 126.98C255.33 122.31 254.13 117.5 253.36 112.6C253.35 112.59 253.23 111.75 253.3 112.25C253.38 112.8 253.24 111.75 253.23 111.64C253.16 111.05 253.09 110.45 253.04 109.86C252.91 108.57 252.83 107.27 252.77 105.98C252.67 103.35 252.71 100.69 253.05 98.09C252.97 98.69 253.2 97.21 253.24 97C253.35 96.38 253.49 95.77 253.64 95.16C253.92 94.03 254.42 92.42 254.71 91.69C254.95 91.11 255.75 89.59 256.28 88.74C256.43 88.51 256.58 88.29 256.72 88.07C256.78 87.98 257.31 87.26 256.85 87.85C257.22 87.37 257.64 86.91 258.07 86.48C258.45 86.1 258.85 85.75 259.26 85.4C259.69 85.03 259.23 85.41 259.15 85.47C259.4 85.28 259.66 85.11 259.91 84.94C260.36 84.64 260.82 84.36 261.3 84.11C261.5 84 261.71 83.9 261.91 83.79C262.71 83.35 261.68 83.84 262.19 83.64C263.19 83.25 264.21 83.07 265.24 82.76C265.78 82.59 265.12 82.75 265.02 82.77C265.31 82.73 265.61 82.7 265.91 82.69C266.5 82.65 267.09 82.68 267.68 82.69C267.76 82.7 268.49 82.78 267.89 82.7C267.24 82.61 268.15 82.76 268.31 82.8C268.81 82.92 269.29 83.06 269.78 83.22C268.94 82.95 270.11 83.38 270.41 83.55C270.98 83.87 271.51 84.25 272.04 84.63C274.47 86.41 276.86 88.13 280.01 88.29C286.16 88.62 289.69 82.74 293.83 79.18C295.58 77.68 297.24 76.47 299.53 75.06C301.74 73.69 304.05 72.47 306.44 71.46C305.92 71.68 307.08 71.21 307.23 71.15C307.9 70.9 308.57 70.65 309.25 70.43C310.53 69.99 311.81 69.61 313.12 69.28C314.24 69 315.38 68.75 316.53 68.54C316.73 68.5 318.51 68.26 317.57 68.36C318.21 68.29 318.85 68.23 319.5 68.19C320.63 68.12 321.76 68.1 322.9 68.16C323.38 68.18 323.86 68.22 324.34 68.26C325.35 68.34 324.66 68.29 324.44 68.26C324.75 68.31 325.07 68.36 325.38 68.42C326.46 68.63 327.5 68.94 328.55 69.3C329.47 69.61 328.83 69.42 328.64 69.32C328.84 69.42 329.05 69.52 329.26 69.63C329.87 69.94 330.45 70.3 331.03 70.68C331.77 71.16 330.84 70.42 331.47 71.04C331.92 71.48 332.37 71.89 332.78 72.38C332.46 72 333.17 72.95 333.26 73.1C333.64 73.71 333.98 74.34 334.28 74.99C334.02 74.43 334.38 75.23 334.41 75.29C334.53 75.63 334.65 75.97 334.76 76.31C334.93 76.83 335.09 77.35 335.23 77.88C335.61 79.29 335.9 80.73 336.15 82.18C337.01 87.09 337.37 92.73 337.21 98.2C337.04 103.85 336.46 108.41 335.22 113.85C332.71 124.83 328.3 134.4 321.85 143.7C315.74 152.51 307.93 160.67 300.09 168.43C298.09 170.41 296.08 172.37 294.07 174.33C292.13 176.22 292.17 179.51 294.07 181.4C296 183.34 299.19 183.29 301.14 181.4C309.81 172.96 318.5 164.46 325.94 154.88C333.63 144.99 339.78 134.18 343.38 122.13C346.91 110.33 348.1 97.68 346.65 85.45C345.93 79.43 345.09 72.75 341.61 67.6C338.35 62.8 333.27 59.69 327.57 58.69C316.23 56.72 304.12 60.48 294.49 66.42C289.5 69.5 285.43 73.36 281.32 77.47C281.15 77.64 280.2 78.68 280.65 78.12C280.11 78.79 280.45 78.41 280.58 78.25C280.52 78.32 279.55 78.5 280.49 78.32C280.65 78.29 281.46 78.61 280.4 78.28C280.49 78.31 281.02 78.58 280.48 78.32C279.79 77.99 279.16 77.53 278.55 77.09C276.29 75.45 274.15 73.97 271.39 73.26C265.95 71.85 259.97 73.1 255.25 76.05C250.11 79.28 246.72 84.25 244.75 89.93C241.07 100.53 242.63 113.17 245.51 123.78C248.47 134.63 253.69 144.7 260.6 153.55C263.87 157.73 267.53 161.58 271.59 164.99C276.27 168.94 281.39 172.75 287.29 174.63C290.63 175.7 294.02 175.82 297.45 175.2C300.11 174.73 301.61 171.49 300.94 169.05C300.17 166.25 297.45 165.08 294.79 165.56L294.79 165.56" />
			<path id="path64" class="shp0" d="M369.63 99.72C413.28 99.72 456.92 99.72 500.57 99.72C512.75 99.72 524.94 99.72 537.12 99.72C539.74 99.72 542.24 97.42 542.12 94.72C542 92.01 539.92 89.72 537.12 89.72C493.48 89.72 449.83 89.72 406.19 89.72C394 89.72 381.82 89.72 369.63 89.72C367.02 89.72 364.51 92.02 364.63 94.72C364.75 97.43 366.83 99.72 369.63 99.72L369.63 99.72Z" />
			<path id="path66" class="shp0" d="M371.68 146.84C409.37 146.04 447.09 146.3 484.77 147.65C495.41 148.03 506.05 148.5 516.68 149.05C519.29 149.18 521.8 146.65 521.68 144.05C521.55 141.22 519.48 139.19 516.68 139.05C479.03 137.1 441.32 136.21 403.61 136.41C392.97 136.47 382.32 136.61 371.68 136.84C369.06 136.89 366.55 139.1 366.68 141.84C366.8 144.5 368.87 146.9 371.68 146.84L371.68 146.84Z" />
			<path id="path68" class="shp0" d="M242.99 227.98C276.7 228.06 310.41 228.5 344.12 229.29C377.82 230.09 411.51 231.24 445.19 232.75C464.24 233.6 483.29 234.57 502.33 235.65C504.95 235.8 507.45 233.25 507.33 230.65C507.21 227.82 505.14 225.81 502.33 225.65C468.68 223.74 435 222.18 401.31 220.98C367.62 219.79 333.92 218.94 300.21 218.46C281.14 218.19 262.07 218.03 242.99 217.98C240.38 217.97 237.87 220.29 237.99 222.98C238.11 225.69 240.19 227.97 242.99 227.98L242.99 227.98Z" />
			<path id="path70" class="shp0" d="M251.19 264.33C288.51 263.65 325.83 262.98 363.16 262.31C400.26 261.64 437.37 260.97 474.47 260.3C495.35 259.92 516.24 259.55 537.12 259.17C539.74 259.12 542.25 256.9 542.12 254.17C542 251.5 539.93 249.12 537.12 249.17C499.8 249.84 462.47 250.52 425.15 251.19C388.04 251.86 350.94 252.53 313.84 253.2C292.95 253.57 272.07 253.95 251.19 254.33C248.57 254.37 246.06 256.59 246.19 259.33C246.31 262 248.38 264.38 251.19 264.33L251.19 264.33" />
			<path id="path72" class="shp0" d="M228.69 301.93C266.02 301.93 303.35 301.93 340.68 301.93C377.78 301.93 414.89 301.93 452 301.93C472.88 301.93 493.77 301.93 514.65 301.93C517.27 301.93 519.77 299.63 519.65 296.93C519.53 294.22 517.46 291.93 514.65 291.93C477.33 291.93 440 291.93 402.67 291.93C365.56 291.93 328.46 291.93 291.35 291.93C270.47 291.93 249.58 291.93 228.69 291.93C226.08 291.93 223.57 294.23 223.69 296.93C223.82 299.64 225.89 301.93 228.69 301.93L228.69 301.93" />
			<path id="path74" class="shp0" d="M240.95 328.28C264.23 327.74 287.54 327.91 310.81 328.82C334.09 329.73 357.34 331.36 380.51 333.72C393.39 335.03 406.35 336.57 419.11 338.33C421.69 338.68 424.61 337.71 425.26 334.83C425.8 332.48 424.54 329.07 421.77 328.69C398.25 325.44 374.64 322.88 350.96 321.11C327.62 319.36 304.23 318.34 280.83 318.05C267.53 317.89 254.24 317.97 240.95 318.28C238.33 318.34 235.82 320.53 235.95 323.28C236.06 325.93 238.14 328.34 240.95 328.28L240.95 328.28Z" />
			<path id="path76" class="shp0" d="M255.27 374.1C296.19 373.02 337.1 371.64 378 369.96C389.5 369.49 400.99 368.99 412.49 368.47C415.09 368.36 417.61 366.26 417.49 363.47C417.37 360.87 415.28 358.35 412.49 358.47C371.59 360.32 330.69 361.87 289.77 363.12C278.27 363.47 266.77 363.79 255.27 364.1C252.65 364.17 250.14 366.35 250.27 369.1C250.39 371.75 252.47 374.17 255.27 374.1L255.27 374.1Z" />
			<path id="path78" class="shp0" d="M259.33 402.01C281.61 402.01 303.89 402.01 326.17 402.01C348.45 402.01 370.72 402.01 393 402.01C405.64 402.01 418.27 402.01 430.91 402.01C433.52 402.01 436.03 399.71 435.91 397.01C435.79 394.31 433.71 392.01 430.91 392.01C408.63 392.01 386.35 392.01 364.07 392.01C341.8 392.01 319.52 392.01 297.24 392.01C284.6 392.01 271.97 392.01 259.33 392.01C256.72 392.01 254.21 394.31 254.33 397.01C254.45 399.72 256.53 402.01 259.33 402.01L259.33 402.01Z" />
		</g>
	</g>
</svg>