<svg xmlns="http://www.w3.org/2000/svg" viewBox="0 0 962 791" width="962" height="791">
	<style>
		tspan { white-space:pre }
		.shp0 { fill: #eb1d27 } 
	</style>
	<g id="g10">
		<g id="g12">
			<path id="path14" class="shp0" d="M36.21 725.47L36.21 729.3C36.21 730.43 35.88 731.48 35.22 732.42L12.6 769.72L35.57 769.72L35.57 777.98L0.02 777.98L0.02 773.95C0.02 772.89 0.33 771.94 0.93 771.1L23.55 733.73L1.76 733.73L1.76 725.47L36.21 725.47Z" />
			<path id="path16" fill-rule="evenodd" class="shp0" d="M89.12 751.68C89.12 755.53 88.51 759.1 87.3 762.38C86.09 765.66 84.37 768.5 82.14 770.9C79.91 773.3 77.23 775.17 74.09 776.52C70.95 777.86 67.47 778.53 63.65 778.53C59.83 778.53 56.35 777.86 53.21 776.52C50.07 775.17 47.38 773.3 45.14 770.9C42.9 768.5 41.17 765.66 39.94 762.38C38.72 759.1 38.11 755.53 38.11 751.68C38.11 747.86 38.72 744.31 39.94 741.03C41.17 737.75 42.9 734.91 45.14 732.52C47.38 730.14 50.07 728.27 53.21 726.91C56.35 725.55 59.83 724.87 63.65 724.87C67.47 724.87 70.95 725.55 74.09 726.91C77.23 728.27 79.91 730.15 82.14 732.54C84.37 734.94 86.09 737.78 87.3 741.05C88.51 744.31 89.12 747.86 89.12 751.68ZM78.52 751.68C78.52 748.89 78.18 746.39 77.49 744.17C76.81 741.96 75.82 740.07 74.55 738.52C73.27 736.96 71.71 735.77 69.88 734.94C68.05 734.11 65.97 733.69 63.65 733.69C61.33 733.69 59.25 734.11 57.4 734.94C55.56 735.77 54 736.96 52.72 738.52C51.44 740.07 50.46 741.96 49.77 744.17C49.08 746.39 48.74 748.89 48.74 751.68C48.74 754.51 49.08 757.03 49.77 759.26C50.46 761.48 51.44 763.37 52.72 764.91C54 766.45 55.56 767.63 57.4 768.45C59.25 769.27 61.33 769.68 63.65 769.68C65.97 769.68 68.05 769.27 69.88 768.45C71.71 767.63 73.27 766.45 74.55 764.91C75.82 763.37 76.81 761.48 77.49 759.26C78.18 757.03 78.52 754.51 78.52 751.68Z" />
			<path id="path18" fill-rule="evenodd" class="shp0" d="M106.08 757.77L106.08 777.98L95.64 777.98L95.64 725.47L111.46 725.47C114.97 725.47 117.97 725.84 120.48 726.59C122.98 727.34 125.03 728.39 126.63 729.74C128.22 731.08 129.39 732.69 130.13 734.56C130.86 736.43 131.23 738.49 131.23 740.73C131.23 742.44 130.99 744.07 130.52 745.61C130.05 747.16 129.35 748.57 128.44 749.84C127.53 751.12 126.42 752.26 125.1 753.25C123.78 754.23 122.27 755.03 120.56 755.64C121.21 756.01 121.83 756.45 122.41 756.96C122.99 757.48 123.53 758.1 124.03 758.84L135.78 777.98L126.41 777.98C124.75 777.98 123.47 777.28 122.57 775.89L113 759.51C112.61 758.88 112.17 758.43 111.68 758.17C111.19 757.91 110.5 757.77 109.6 757.77C109.6 757.77 106.08 757.77 106.08 757.77ZM106.08 750.38L111.38 750.38C113.07 750.38 114.53 750.15 115.75 749.71C116.98 749.26 117.99 748.64 118.78 747.85C119.57 747.06 120.15 746.11 120.53 745.02C120.92 743.93 121.11 742.73 121.11 741.44C121.11 738.89 120.32 736.91 118.74 735.53C117.15 734.15 114.73 733.45 111.46 733.45L106.08 733.45L106.08 750.38Z" />
			<path id="path20" class="shp0" d="M175.6 777.21C172.62 778.09 169.46 778.53 166.11 778.53C161.87 778.53 158.02 777.87 154.58 776.54C151.14 775.21 148.2 773.35 145.75 770.96C143.29 768.58 141.4 765.74 140.07 762.46C138.74 759.18 138.07 755.59 138.07 751.68C138.07 747.75 138.71 744.15 139.97 740.87C141.24 737.59 143.05 734.76 145.41 732.39C147.77 730.01 150.61 728.17 153.95 726.85C157.28 725.53 161.01 724.87 165.12 724.87C167.26 724.87 169.25 725.04 171.09 725.39C172.94 725.73 174.65 726.2 176.23 726.81C177.81 727.42 179.26 728.14 180.56 728.98C181.87 729.83 183.05 730.76 184.1 731.79L181.14 736.46C180.69 737.2 180.09 737.65 179.34 737.82C178.59 737.99 177.78 737.82 176.91 737.29C176.09 736.79 175.27 736.32 174.45 735.89C173.64 735.45 172.76 735.07 171.82 734.74C170.89 734.41 169.85 734.15 168.72 733.97C167.59 733.78 166.28 733.69 164.81 733.69C162.33 733.69 160.1 734.12 158.12 734.98C156.14 735.83 154.46 737.04 153.06 738.59C151.66 740.15 150.59 742.04 149.84 744.27C149.09 746.5 148.71 748.97 148.71 751.68C148.71 754.64 149.12 757.27 149.94 759.59C150.75 761.91 151.91 763.87 153.4 765.47C154.89 767.06 156.69 768.27 158.79 769.1C160.9 769.93 163.25 770.35 165.83 770.35C167.57 770.35 169.13 770.17 170.52 769.81C171.9 769.46 173.27 768.96 174.61 768.33L174.61 759.16L168.56 759.16C167.93 759.16 167.42 758.97 167.04 758.6C166.66 758.23 166.47 757.79 166.47 757.26L166.47 751.41L184.02 751.41L184.02 772.92C181.39 774.9 178.58 776.33 175.6 777.21" />
			<path id="path22" fill-rule="evenodd" class="shp0" d="M236.58 777.98L228.59 777.98C227.67 777.98 226.93 777.76 226.38 777.33C225.82 776.89 225.41 776.35 225.15 775.69L221.83 765.37L202.49 765.37L199.21 775.65C199 776.23 198.6 776.76 198 777.25C197.41 777.74 196.68 777.98 195.81 777.98L187.7 777.98L206.84 725.47L217.44 725.47L236.58 777.98ZM204.82 758.09L219.45 758.09L214.12 741.48C213.8 740.66 213.47 739.71 213.13 738.61C212.79 737.52 212.44 736.33 212.1 735.03C211.78 736.33 211.45 737.53 211.11 738.63C210.77 739.74 210.45 740.7 210.16 741.52L204.82 758.09Z" />
			<path id="path24" class="shp0" d="M248.05 725.53C248.36 725.57 248.64 725.64 248.9 725.76C249.15 725.88 249.38 726.05 249.61 726.26C249.83 726.47 250.09 726.75 250.38 727.09L276.24 761.17C276.08 759.43 276 757.79 276 756.23L276 725.47L285.14 725.47L285.14 777.98L279.8 777.98C278.98 777.98 278.3 777.84 277.76 777.57C277.22 777.29 276.69 776.83 276.16 776.2L250.38 742.31C250.54 743.95 250.62 745.46 250.62 746.86L250.62 777.98L241.44 777.98L241.44 725.47L246.9 725.47C247.35 725.47 247.73 725.48 248.05 725.53" />
			<path id="path26" class="shp0" d="M305.98 777.98L295.54 777.98L295.54 725.47L305.98 725.47L305.98 777.98Z" />
			<path id="path28" class="shp0" d="M349.08 725.47L349.08 729.3C349.08 730.43 348.75 731.48 348.09 732.42L325.47 769.72L348.45 769.72L348.45 777.98L312.9 777.98L312.9 773.95C312.9 772.89 313.2 771.94 313.81 771.1L336.43 733.73L314.64 733.73L314.64 725.47L349.08 725.47" />
			<path id="path30" class="shp0" d="M376.72 769.6C378.57 769.6 380.21 769.29 381.65 768.69C383.08 768.08 384.3 767.22 385.28 766.12C386.27 765.01 387.03 763.67 387.56 762.08C388.08 760.5 388.35 758.74 388.35 756.78L388.35 725.47L398.71 725.47L398.71 756.78C398.71 759.95 398.2 762.86 397.19 765.52C396.17 768.19 394.72 770.49 392.82 772.42C390.92 774.36 388.61 775.87 385.9 776.95C383.18 778.03 380.12 778.57 376.72 778.57C373.32 778.57 370.26 778.03 367.53 776.95C364.8 775.87 362.49 774.36 360.59 772.42C358.69 770.49 357.23 768.19 356.22 765.52C355.2 762.86 354.7 759.95 354.7 756.78L354.7 725.47L365.1 725.47L365.1 756.78C365.1 758.74 365.36 760.5 365.89 762.08C366.41 763.67 367.17 765.01 368.16 766.12C369.15 767.22 370.36 768.08 371.8 768.69C373.24 769.29 374.88 769.6 376.72 769.6" />
			<path id="path32" class="shp0" d="M424.89 759.2C424.89 762.12 424.58 764.78 423.96 767.17C423.34 769.55 422.39 771.59 421.11 773.27C419.83 774.96 418.22 776.26 416.29 777.17C414.35 778.08 412.08 778.53 409.47 778.53C408.28 778.53 407.12 778.46 405.99 778.32C404.85 778.17 403.67 777.93 402.43 777.59L402.98 771.42C403.03 770.89 403.24 770.45 403.61 770.09C403.98 769.74 404.51 769.56 405.19 769.56C405.56 769.56 406 769.64 406.5 769.79C407 769.95 407.63 770.03 408.4 770.03C409.45 770.03 410.36 769.84 411.13 769.46C411.89 769.08 412.52 768.46 413.03 767.62C413.53 766.78 413.9 765.69 414.15 764.36C414.4 763.03 414.53 761.4 414.53 759.47L414.53 725.47L424.89 725.47L424.89 759.2Z" />
			<path id="path34" class="shp0" d="M447.35 725.47L456.05 725.47C456.97 725.47 457.73 725.68 458.32 726.1C458.92 726.52 459.32 727.07 459.53 727.76L467.28 758.09C467.73 759.67 468.15 761.5 468.55 763.59C468.76 762.56 468.97 761.58 469.18 760.64C469.39 759.71 469.64 758.84 469.93 758.05L479.1 727.76C479.31 727.15 479.72 726.62 480.33 726.16C480.94 725.7 481.66 725.47 482.5 725.47L485.55 725.47C486.47 725.47 487.22 725.67 487.78 726.08C488.35 726.49 488.75 727.05 488.99 727.76L498.16 758.09C498.43 758.85 498.67 759.69 498.9 760.6C499.12 761.51 499.34 762.47 499.55 763.47C499.73 762.47 499.92 761.52 500.12 760.62C500.32 759.72 500.52 758.89 500.73 758.13L508.48 727.76C508.67 727.15 509.07 726.62 509.69 726.16C510.31 725.7 511.04 725.47 511.89 725.47L520.03 725.47L504.45 777.98L495.04 777.98L484.64 743.06C484.48 742.61 484.33 742.11 484.19 741.56C484.04 741.01 483.9 740.43 483.77 739.82C483.64 740.43 483.49 741.01 483.33 741.56C483.18 742.11 483.03 742.61 482.9 743.06L472.3 777.98L462.93 777.98L447.35 725.47Z" />
			<path id="path36" class="shp0" d="M536.48 745.95L547.63 739.54L547.63 746.54C547.63 747.52 547.24 748.2 546.45 748.6L536.48 754.57L536.48 769.44L554.71 769.44L554.71 777.98L526.08 777.98L526.08 759.67L521.18 762.32L521.18 755.16C521.18 754.35 521.55 753.73 522.29 753.31L526.08 751.17L526.08 725.47L536.48 725.47L536.48 745.95" />
			<path id="path38" fill-rule="evenodd" class="shp0" d="M604.46 777.98L596.47 777.98C595.55 777.98 594.81 777.76 594.26 777.33C593.7 776.89 593.29 776.35 593.03 775.69L589.71 765.37L570.37 765.37L567.09 775.65C566.88 776.23 566.48 776.76 565.88 777.25C565.29 777.74 564.56 777.98 563.69 777.98L555.58 777.98L574.72 725.47L585.32 725.47C585.32 725.47 604.46 777.98 604.46 777.98ZM572.71 758.09L587.34 758.09L582 741.48C581.68 740.66 581.35 739.71 581.01 738.61C580.67 737.52 580.32 736.33 579.98 735.03C579.67 736.33 579.34 737.53 578.99 738.63C578.65 739.74 578.33 740.7 578.04 741.52L572.71 758.09Z" />
			<path id="path40" class="shp0" d="M636.97 735.35C636.7 735.88 636.39 736.25 636.03 736.48C635.68 736.7 635.24 736.81 634.71 736.81C634.21 736.81 633.67 736.63 633.09 736.26C632.51 735.89 631.83 735.49 631.05 735.05C630.27 734.62 629.37 734.22 628.34 733.85C627.31 733.48 626.13 733.3 624.79 733.3C622.41 733.3 620.63 733.87 619.43 735.03C618.23 736.19 617.63 737.71 617.63 739.58C617.63 740.77 617.95 741.75 618.6 742.53C619.24 743.31 620.1 743.98 621.17 744.55C622.23 745.11 623.45 745.62 624.81 746.07C626.16 746.52 627.55 747 628.98 747.51C630.4 748.03 631.79 748.63 633.15 749.33C634.51 750.03 635.72 750.91 636.79 751.96C637.85 753.02 638.71 754.31 639.36 755.84C640 757.36 640.33 759.22 640.33 761.41C640.33 763.78 639.94 766.01 639.16 768.09C638.38 770.18 637.24 771.99 635.74 773.53C634.24 775.07 632.4 776.29 630.22 777.19C628.05 778.09 625.56 778.53 622.77 778.53C621.19 778.53 619.61 778.37 618.04 778.04C616.47 777.71 614.96 777.24 613.52 776.64C612.07 776.03 610.69 775.31 609.4 774.46C608.11 773.62 606.98 772.67 606 771.61L609.09 766.67C609.32 766.28 609.65 765.96 610.05 765.72C610.46 765.48 610.91 765.37 611.38 765.37C612.01 765.37 612.66 765.61 613.34 766.1C614.01 766.59 614.79 767.13 615.69 767.72C616.59 768.31 617.63 768.85 618.81 769.34C620 769.83 621.41 770.07 623.04 770.07C625.42 770.07 627.26 769.47 628.58 768.25C629.9 767.04 630.56 765.25 630.56 762.87C630.56 761.53 630.23 760.44 629.59 759.59C628.94 758.75 628.09 758.04 627.04 757.48C625.98 756.91 624.78 756.42 623.42 756.01C622.06 755.61 620.68 755.16 619.27 754.69C617.86 754.21 616.47 753.64 615.12 752.97C613.76 752.3 612.55 751.41 611.5 750.3C610.44 749.19 609.59 747.82 608.95 746.19C608.3 744.55 607.98 742.52 607.98 740.1C607.98 738.17 608.35 736.29 609.09 734.46C609.82 732.63 610.91 731 612.33 729.58C613.75 728.15 615.5 727.01 617.57 726.16C619.64 725.3 622 724.87 624.67 724.87C627.67 724.87 630.46 725.36 633.03 726.34C635.6 727.31 637.79 728.68 639.61 730.45L636.97 735.35" />
			<path id="path42" class="shp0" d="M654.21 725.53C654.52 725.57 654.81 725.64 655.06 725.76C655.31 725.88 655.54 726.05 655.77 726.26C655.99 726.47 656.25 726.75 656.54 727.09L682.4 761.17C682.24 759.43 682.16 757.79 682.16 756.23L682.16 725.47L691.3 725.47L691.3 777.98L685.96 777.98C685.14 777.98 684.46 777.84 683.92 777.57C683.38 777.29 682.85 776.83 682.32 776.2L656.54 742.31C656.7 743.95 656.78 745.46 656.78 746.86L656.78 777.98L647.6 777.98L647.6 725.47L653.06 725.47C653.51 725.47 653.89 725.48 654.21 725.53" />
			<path id="path44" fill-rule="evenodd" class="shp0" d="M744.25 784.74C744.69 784.74 745.01 784.97 745.2 785.41L746.7 789.13C745.86 789.69 744.79 790.15 743.52 790.52C742.24 790.89 740.89 791.07 739.46 791.07C736.91 791.07 734.95 790.54 733.59 789.49C732.23 788.43 731.55 787.08 731.55 785.41C731.55 784.07 731.99 782.77 732.88 781.5C733.76 780.23 735.06 779.06 736.77 777.98C735.98 777.93 735.34 777.68 734.84 777.25C734.34 776.81 733.97 776.29 733.73 775.69L730.41 765.37L711.07 765.37L707.79 775.65C707.58 776.23 707.17 776.76 706.58 777.25C705.99 777.74 705.26 777.98 704.39 777.98L696.28 777.98L715.42 725.47L726.02 725.47L745.16 777.98L742.71 777.98C741.76 778.51 740.91 779.19 740.15 780.04C739.4 780.88 739.03 781.83 739.03 782.88C739.03 783.62 739.25 784.2 739.7 784.62C740.15 785.05 740.78 785.26 741.6 785.26C742.05 785.26 742.42 785.23 742.71 785.18C742.99 785.13 743.23 785.07 743.42 785C743.6 784.93 743.75 784.87 743.87 784.82C743.99 784.77 744.12 784.74 744.25 784.74ZM713.4 758.09L728.03 758.09L722.69 741.48C722.38 740.66 722.05 739.71 721.71 738.61C721.36 737.52 721.02 736.33 720.68 735.03C720.36 736.33 720.03 737.53 719.69 738.63C719.35 739.74 719.03 740.7 718.74 741.52L713.4 758.09Z" />
			<path id="path46" fill-rule="evenodd" class="shp0" d="M812.54 777.98L804.55 777.98C803.63 777.98 802.89 777.76 802.34 777.33C801.78 776.89 801.37 776.35 801.11 775.69L797.79 765.37L778.45 765.37L775.17 775.65C774.96 776.23 774.56 776.76 773.97 777.25C773.37 777.74 772.64 777.98 771.77 777.98L763.66 777.98L782.8 725.47L793.4 725.47L812.54 777.98ZM780.79 758.09L795.42 758.09L790.08 741.48C789.76 740.66 789.43 739.71 789.09 738.61C788.75 737.52 788.41 736.33 788.06 735.03C787.75 736.33 787.42 737.53 787.07 738.63C786.73 739.74 786.41 740.7 786.13 741.52L780.79 758.09Z" />
			<path id="path48" class="shp0" d="M826.78 747.25L828.44 747.25C830.02 747.25 831.14 746.73 831.8 745.67L842.12 727.6C842.7 726.81 843.34 726.26 844.04 725.94C844.74 725.62 845.59 725.47 846.59 725.47L855.64 725.47L842.12 747.1C841.14 748.49 840.1 749.48 839 750.06C839.79 750.35 840.5 750.77 841.13 751.33C841.76 751.88 842.37 752.58 842.95 753.42L856.71 777.98L847.5 777.98C846.34 777.98 845.47 777.8 844.91 777.45C844.34 777.09 843.86 776.62 843.47 776.04L832.99 756.9C832.59 756.27 832.12 755.81 831.58 755.52C831.04 755.23 830.3 755.08 829.35 755.08L826.78 755.08L826.78 777.98L816.38 777.98L816.38 725.47L826.78 725.47L826.78 747.25" />
			<path id="path50" class="shp0" d="M890.36 765.25C890.92 765.25 891.39 765.46 891.79 765.88L895.94 770.35C894.04 773.01 891.66 775.04 888.8 776.44C885.94 777.84 882.55 778.53 878.62 778.53C875.06 778.53 871.86 777.87 869.01 776.54C866.16 775.21 863.75 773.35 861.75 770.96C859.76 768.58 858.23 765.74 857.17 762.46C856.1 759.18 855.57 755.59 855.57 751.68C855.57 747.75 856.14 744.15 857.29 740.87C858.43 737.59 860.05 734.76 862.13 732.39C864.21 730.01 866.7 728.17 869.6 726.85C872.5 725.53 875.69 724.87 879.17 724.87C882.71 724.87 885.83 725.5 888.55 726.75C891.26 728 893.53 729.66 895.35 731.71L891.87 736.58C891.63 736.87 891.36 737.13 891.06 737.37C890.75 737.61 890.33 737.72 889.77 737.72C889.22 737.72 888.69 737.51 888.17 737.09C887.66 736.67 887.02 736.21 886.27 735.71C885.52 735.21 884.58 734.75 883.45 734.32C882.31 733.9 880.86 733.69 879.09 733.69C877.17 733.69 875.42 734.09 873.84 734.9C872.25 735.7 870.9 736.87 869.76 738.42C868.63 739.96 867.75 741.84 867.13 744.07C866.51 746.3 866.2 748.84 866.2 751.68C866.2 754.56 866.55 757.11 867.23 759.35C867.92 761.6 868.85 763.49 870.02 765.03C871.19 766.57 872.57 767.75 874.15 768.55C875.73 769.35 877.43 769.75 879.25 769.75C880.33 769.75 881.31 769.69 882.18 769.58C883.05 769.46 883.86 769.25 884.61 768.95C885.36 768.64 886.07 768.25 886.73 767.78C887.39 767.3 888.04 766.71 888.7 766C888.97 765.79 889.24 765.61 889.51 765.47C889.79 765.32 890.07 765.25 890.36 765.25" />
			<path id="path52" class="shp0" d="M920.38 759.2C920.38 762.12 920.07 764.78 919.45 767.17C918.83 769.55 917.88 771.59 916.6 773.27C915.32 774.96 913.72 776.26 911.78 777.17C909.84 778.08 907.57 778.53 904.96 778.53C903.77 778.53 902.61 778.46 901.48 778.32C900.34 778.17 899.16 777.93 897.92 777.59L898.47 771.42C898.52 770.89 898.73 770.45 899.1 770.09C899.47 769.74 900 769.56 900.69 769.56C901.05 769.56 901.49 769.64 901.99 769.79C902.49 769.95 903.12 770.03 903.89 770.03C904.94 770.03 905.85 769.84 906.62 769.46C907.38 769.08 908.01 768.46 908.52 767.62C909.02 766.78 909.39 765.69 909.64 764.36C909.89 763.03 910.02 761.4 910.02 759.47L910.02 725.47L920.38 725.47L920.38 759.2" />
			<path id="path54" class="shp0" d="M959.01 784.74C959.46 784.74 959.78 784.97 959.96 785.41L961.47 789.13C960.62 789.69 959.56 790.15 958.28 790.52C957 790.89 955.65 791.07 954.23 791.07C951.67 791.07 949.71 790.54 948.36 789.49C947 788.43 946.32 787.08 946.32 785.41C946.32 784.07 946.76 782.77 947.64 781.5C948.53 780.23 949.83 779.06 951.54 777.98L928.84 777.98L928.84 725.47L960.87 725.47L960.87 733.73L939.28 733.73L939.28 747.61L956.09 747.61L956.09 755.56L939.28 755.56L939.28 769.72L960.91 769.72L960.87 777.98L957.47 777.98C956.52 778.51 955.67 779.19 954.92 780.04C954.17 780.88 953.79 781.83 953.79 782.88C953.79 783.62 954.02 784.2 954.47 784.62C954.91 785.05 955.55 785.26 956.36 785.26C956.81 785.26 957.18 785.23 957.47 785.18C957.76 785.13 958 785.07 958.18 785C958.37 784.93 958.52 784.87 958.64 784.82C958.76 784.77 958.88 784.74 959.01 784.74" />
			<path id="path56" class="shp0" d="M560.63 513.77C527.22 504.32 490.5 506.43 458.43 519.8C454.27 521.54 450.16 523.4 446.16 525.48C442.03 527.62 437.68 530.17 437 535.23C435.73 544.7 446.76 547.57 454.03 547.58C474 547.59 493.96 547.6 513.92 547.62C536.33 547.63 558.73 547.65 581.13 547.67C583.75 547.67 586.25 545.37 586.13 542.67C586.01 539.87 583.93 537.78 581.13 537.67C566.09 537.08 551.03 537.05 535.99 537.6C528.62 537.86 521.24 538.24 513.88 538.81C507.73 539.3 501.4 539.98 495.6 542.19C489.48 544.52 483.66 548.34 480.47 554.24C477.12 560.43 477.25 567.81 481.93 573.26C485.45 577.36 491.04 579.32 496.23 580.16C502.98 581.24 509.91 581.3 516.73 581.41C533.64 581.68 550.52 580.55 567.27 578.27C569.33 577.99 571.03 575.42 570.94 573.45C570.84 571.16 569.44 569.36 567.27 568.63C551.58 563.36 534.89 561.81 518.42 561.51C510.19 561.36 501.95 561.43 493.72 561.65C486 561.85 477.46 562.58 470.92 567.12C463.87 572.01 459.06 580.51 461.43 589.19C461.84 590.72 463.26 592.44 464.92 592.69C487.41 596 510.13 597.55 532.87 597.09C539.28 596.96 545.69 596.67 552.09 596.24C554.69 596.06 557.21 594.07 557.09 591.24C556.96 588.36 554.89 586.44 552.09 586.24C540.83 585.41 529.12 588.63 519.88 595.12C515.37 598.29 509.69 602.63 508.41 608.33C507.2 613.71 510.07 618.69 514.5 621.61C519.36 624.79 526.03 624.75 530.26 620.55C532.17 618.64 532.16 615.38 530.26 613.47C528.34 611.55 525.11 611.57 523.19 613.47C523.02 613.65 522.83 613.82 522.64 613.98C523.18 613.57 523.23 613.51 522.77 613.81C522.09 614.29 523.67 613.49 522.36 613.92C521.81 614.02 521.91 614.01 522.66 613.89C522.43 613.91 522.19 613.91 521.96 613.91C521.73 613.9 521.49 613.89 521.26 613.86C522 613.97 522.09 613.96 521.53 613.85C521.26 613.76 519.77 613.19 521 613.77C520.56 613.56 520.12 613.33 519.7 613.07C519.5 612.94 519.29 612.8 519.09 612.66C519.62 613.07 519.67 613.09 519.26 612.74C519.06 612.52 518.07 611.31 518.83 612.41C518.56 612.02 518.34 611.61 518.1 611.21C518.77 612.34 518.18 611.12 518.04 610.77C518.39 611.62 518.14 611.37 518.1 610.72C518.14 610.16 518.13 610.25 518.05 610.99C518.1 610.74 518.17 610.51 518.25 610.27C518.05 610.85 518.81 609.34 518.95 609.15C518.64 609.6 519.71 608.29 519.87 608.13C520.84 607.1 521.9 606.15 522.99 605.24C524.53 603.95 527.12 602.22 529.45 600.96C531.99 599.59 533.35 599.01 536.08 598.13C541.66 596.33 546.11 595.8 552.09 596.24C552.09 592.91 552.09 589.57 552.09 586.24C529.96 587.74 507.73 587.42 485.66 585.25C479.57 584.66 473.55 583.92 467.58 583.04C468.74 584.21 469.9 585.37 471.07 586.53C470.96 586.15 470.87 585.77 470.79 585.38C470.64 584.59 470.82 586.11 470.8 585.31C470.78 584.61 470.77 583.92 470.85 583.22C470.74 584.18 471.05 582.59 471.14 582.27C471.25 581.89 471.37 581.52 471.52 581.16C471.64 580.83 471.63 580.86 471.48 581.26C471.58 581.04 471.69 580.83 471.8 580.62C472.14 579.97 472.53 579.37 472.93 578.77C473 578.66 473.51 578.04 473.03 578.61C473.24 578.36 473.45 578.12 473.67 577.87C474.17 577.33 474.69 576.82 475.24 576.33C475.39 576.2 476.21 575.56 475.57 576.04C475.89 575.8 476.23 575.57 476.57 575.36C482.08 571.84 488.81 571.73 495.49 571.61C510.55 571.34 525.71 571.11 540.69 572.92C548.44 573.85 556.89 575.68 564.62 578.27C564.62 575.06 564.62 571.85 564.62 568.63C551.38 570.43 537.71 571.34 524.25 571.44C517.49 571.49 510.73 571.33 503.99 570.95C502.67 570.88 501.35 570.8 500.03 570.66C499.73 570.63 499.43 570.6 499.14 570.56C499.21 570.57 499.93 570.68 499.34 570.58C498.66 570.48 497.99 570.37 497.32 570.23C496.22 570.01 495.12 569.73 494.05 569.38C493.56 569.22 493.08 569.05 492.6 568.86C493.53 569.23 491.97 568.53 491.66 568.35C491.17 568.08 490.7 567.78 490.24 567.47C489.78 567.14 490.39 567.58 490.44 567.62C490.24 567.44 490.03 567.27 489.83 567.08C489.6 566.85 488.69 565.7 489.28 566.56C489.13 566.33 488.98 566.11 488.83 565.87C488.77 565.76 488.23 564.75 488.52 565.35C488.77 565.87 488.47 565.25 488.45 565.16C488.35 564.83 488.25 564.51 488.16 564.19C487.9 563.26 488.07 563.78 488.1 564.04C488.07 563.71 488.06 563.37 488.06 563.05C488.06 562.72 488.08 562.38 488.11 562.06C488.1 562.17 488 562.73 488.12 562.15C488.27 561.41 488.47 560.67 488.75 559.96C488.48 560.64 489.27 558.98 489.36 558.84C489.56 558.49 490.13 557.6 490.12 557.62C490.64 556.91 491.97 555.6 492.95 554.8C492.86 554.87 492.49 555.14 492.95 554.8C493.22 554.59 493.5 554.4 493.78 554.21C494.28 553.88 494.78 553.57 495.3 553.27C495.89 552.94 496.49 552.62 497.1 552.33C497.41 552.18 497.71 552.04 498.03 551.91C497.41 552.17 498.28 551.82 498.5 551.74C503.94 549.71 508.49 549.24 513.88 548.81C520.58 548.29 527.29 547.94 534 547.67C549.7 547.05 565.43 547.06 581.13 547.67C581.13 544.33 581.13 541 581.13 537.67C543.42 537.64 505.71 537.61 468.01 537.58C463.13 537.58 458.25 537.59 453.37 537.57C452.6 537.57 451.85 537.54 451.09 537.5C450.84 537.49 450.15 537.33 451.16 537.52C450.74 537.44 450.32 537.38 449.9 537.28C449.21 537.12 448.55 536.91 447.87 536.69C446.78 536.32 448.21 537.06 447.77 536.63C447.5 536.37 446.94 536.13 446.61 535.94C447.43 536.41 447.01 536.29 446.78 536.04C445.98 535.17 447.32 536.97 446.72 535.99C446.15 535.05 447.02 536.79 446.8 536.12C446.57 535.43 447.29 537.31 446.87 536.26C446.85 536.45 446.83 536.65 446.81 536.85C446.96 536.33 446.99 536.23 446.89 536.56C446.95 536.69 446.17 537.57 446.95 536.63C447.72 535.71 446.44 536.84 447.48 536.19C447.9 535.92 448.32 535.66 448.76 535.41C452.2 533.47 455.8 531.77 459.41 530.17C462.52 528.8 466.48 527.27 470.14 526.01C473.99 524.69 477.91 523.53 481.86 522.52C485.72 521.54 489.62 520.7 493.55 520.03C497.58 519.33 500.48 518.95 504.63 518.57C522.95 516.92 540.5 518.47 557.97 523.41C560.49 524.12 563.53 522.54 564.12 519.92C564.73 517.26 563.32 514.53 560.63 513.77L560.63 513.77" />
			<path id="path58" class="shp0" d="M701.96 224.44C727.08 225.92 752.39 223.7 776.89 218C779.52 217.39 781.08 214.38 780.38 211.85C779.64 209.15 776.87 207.74 774.23 208.36C750.55 213.86 726.31 215.87 701.96 214.44C699.34 214.29 696.84 216.85 696.96 219.44C697.09 222.28 699.16 224.28 701.96 224.44L701.96 224.44" />
			<path id="path60" class="shp0" d="M653.97 120.3C669.69 103.65 685.4 86.99 701.12 70.33C705.6 65.59 710.08 60.84 714.56 56.09C716.41 54.13 716.51 50.97 714.56 49.02C712.69 47.15 709.35 47.05 707.49 49.02C691.77 65.68 676.05 82.33 660.34 98.99C655.86 103.74 651.38 108.48 646.9 113.23C645.04 115.19 644.95 118.35 646.9 120.3C648.77 122.17 652.11 122.27 653.97 120.3L653.97 120.3" />
			<path id="path62" class="shp0" d="M582.85 8.5C574.66 30.37 570.15 53.57 569.38 76.9C569.3 79.52 571.74 82.02 574.38 81.9C577.16 81.78 579.29 79.71 579.38 76.9C580.12 54.44 584.55 32.37 592.49 11.16C593.41 8.71 591.47 5.57 589 5.01C586.16 4.36 583.83 5.88 582.85 8.5L582.85 8.5" />
			<path id="path64" class="shp0" d="M444.56 5.67C446.31 27.97 450.28 50.08 456.52 71.56C457.27 74.15 460.04 75.77 462.67 75.05C465.25 74.34 466.91 71.5 466.16 68.9C460.14 48.18 456.24 27.04 454.56 5.67C454.36 3.07 452.41 0.54 449.56 0.67C447.03 0.78 444.34 2.88 444.56 5.67L444.56 5.67" />
			<path id="path66" class="shp0" d="M302.33 93.32C319.88 102.49 336.61 113.14 352.34 125.15C354.49 126.79 357.94 125.48 359.18 123.36C360.69 120.78 359.54 118.16 357.39 116.51C341.66 104.5 324.92 93.85 307.38 84.69C304.99 83.44 301.95 84.07 300.54 86.48C299.23 88.73 299.93 92.07 302.33 93.32L302.33 93.32" />
			<path id="path68" class="shp0" d="M256.33 217.84C276.38 217.84 296.44 217.84 316.49 217.84C319.11 217.84 321.61 215.54 321.49 212.84C321.37 210.13 319.29 207.84 316.49 207.84C296.44 207.84 276.38 207.84 256.33 207.84C253.72 207.84 251.21 210.14 251.33 212.84C251.45 215.55 253.53 217.84 256.33 217.84L256.33 217.84Z" />
			<path id="path70" class="shp0" d="M452.14 494.38C481.6 483.71 512.59 479.03 543.85 480.41C552.51 480.8 561.19 481.65 569.56 482.97C572.44 483.43 576.22 481.71 575.89 478.15C574.37 461.83 580.48 446.85 588.62 432.77C597.25 417.83 607.72 404.03 616.82 389.38C635.05 360.05 650.7 327.6 653.4 292.7C654.62 276.87 652.81 260.77 647.92 245.66C643.39 231.66 636.44 218.49 627.86 206.55C609.96 181.66 585.87 161.69 559.82 145.8C555.63 143.25 551.42 140.59 546.92 138.61C543.38 137.05 539.77 135.7 536.09 134.53C526.83 131.59 517.28 129.55 507.68 128.15C484.21 124.74 459.06 124.54 436.51 132.77C425.27 136.87 414.74 143.07 406.51 151.86C396.79 162.24 388.91 174.44 383.19 187.44C371.55 213.91 368.18 243.4 371.32 272.03C374.59 301.87 384.4 330.47 399.71 356.26C408.83 371.63 418.83 386.62 425.13 403.24C431.27 419.44 434.84 436.33 435.59 453.4C435.96 461.77 435.68 470.15 434.77 478.47C434.48 481.16 437.28 483.47 439.77 483.47C442.72 483.47 444.48 481.17 444.77 478.47C448.57 443.73 441.05 408.21 424.18 377.66C415.93 362.7 406.02 348.73 398.7 333.25C397.98 331.73 397.29 330.2 396.61 328.67C396.27 327.9 395.93 327.13 395.6 326.35C394.95 324.83 395.95 327.22 395.32 325.69C395.13 325.22 394.93 324.75 394.74 324.28C393.41 320.99 392.16 317.67 391 314.31C388.67 307.57 386.69 300.71 385.08 293.77C384.27 290.29 383.56 286.8 382.94 283.28C382.64 281.61 382.37 279.94 382.12 278.26C381.99 277.42 381.87 276.58 381.76 275.74C381.79 275.96 381.86 276.59 381.74 275.56C381.66 274.97 381.59 274.38 381.52 273.79C380.69 266.84 380.24 259.83 380.2 252.83C380.16 245.81 380.53 238.79 381.35 231.81C381.41 231.32 381.48 230.82 381.54 230.33C381.55 230.19 381.66 229.35 381.55 230.17C381.66 229.35 381.78 228.53 381.91 227.71C382.18 225.91 382.49 224.12 382.83 222.33C383.47 218.92 384.22 215.54 385.09 212.19C385.96 208.86 386.95 205.55 388.06 202.29C388.59 200.73 389.14 199.19 389.72 197.66C390.01 196.89 390.31 196.13 390.61 195.37C390.74 195.07 390.86 194.76 390.98 194.46C391.11 194.16 391.23 193.86 391.36 193.55C391.17 193.99 391.2 193.94 391.43 193.39C394.15 187.15 397.29 181.1 400.95 175.35C404.83 169.25 408.2 164.81 413.02 159.54C414.95 157.42 417.02 155.44 419.23 153.6C419.74 153.17 420.27 152.75 420.8 152.33C419.9 153.04 421.44 151.86 421.73 151.65C422.93 150.78 424.16 149.95 425.41 149.16C427.81 147.65 430.3 146.29 432.85 145.06C433.46 144.77 434.08 144.48 434.7 144.21C434.93 144.1 436.86 143.29 435.75 143.74C437.13 143.18 438.53 142.63 439.94 142.13C445.41 140.19 451.06 138.78 456.78 137.79C458.15 137.55 459.53 137.35 460.91 137.14C459.7 137.32 461.76 137.03 462.08 137C462.92 136.9 463.75 136.81 464.59 136.72C467.45 136.43 470.31 136.24 473.18 136.12C478.93 135.88 484.7 135.97 490.45 136.32C493.28 136.5 496.11 136.74 498.93 137.04C500.24 137.18 501.56 137.33 502.87 137.5C503.1 137.53 504.43 137.71 503.09 137.53C503.35 137.56 503.61 137.6 503.87 137.63C504.63 137.74 505.4 137.85 506.16 137.97C511.22 138.73 516.25 139.69 521.23 140.85C525.52 141.85 529.78 143 533.97 144.35C535.74 144.92 537.5 145.53 539.24 146.19C539.98 146.47 540.71 146.76 541.45 147.06C542.58 147.51 540.36 146.57 541.48 147.07C541.83 147.23 542.19 147.38 542.54 147.54C547.19 149.66 551.57 152.46 555.92 155.14C562.34 159.1 568.62 163.31 574.7 167.78C580.46 172.01 586.02 176.49 591.67 181.53C597.22 186.47 602.53 191.69 607.52 197.21C626.22 217.87 640.54 243.59 643.24 271.66C646.44 304.98 634.67 337.17 618.84 366.13C610.56 381.28 600.98 395.59 591.33 409.88C582.05 423.64 572.84 438.02 568.31 454.14C566.12 461.91 565.14 470.1 565.89 478.15C567.99 476.54 570.11 474.93 572.21 473.33C540.05 468.25 507.09 469.41 475.4 476.97C466.62 479.06 457.97 481.66 449.48 484.74C446.94 485.65 445.23 488.14 445.99 490.89C446.66 493.34 449.59 495.3 452.14 494.38L452.14 494.38" />
			<path id="path72" class="shp0" d="M568.75 271.95C559.22 300.64 551.14 329.8 544.56 359.3C542.7 367.67 540.96 376.07 539.33 384.49C538.84 387.05 540.05 390.01 542.82 390.64C545.3 391.2 548.45 389.9 548.98 387.15C554.7 357.47 561.92 328.08 570.63 299.13C573.1 290.92 575.69 282.74 578.39 274.61C579.21 272.12 577.44 269.03 574.9 268.45C572.14 267.83 569.63 269.29 568.75 271.95L568.75 271.95" />
			<path id="path74" class="shp0" d="M511.28 271.51C511.28 303.5 511.28 335.49 511.28 367.47C511.28 376.58 511.28 385.69 511.28 394.8C511.28 397.42 513.58 399.92 516.28 399.8C518.99 399.68 521.28 397.6 521.28 394.8C521.28 362.81 521.28 330.82 521.28 298.83C521.28 289.73 521.28 280.62 521.28 271.51C521.28 268.89 518.98 266.39 516.28 266.51C513.57 266.63 511.28 268.71 511.28 271.51L511.28 271.51Z" />
			<path id="path76" class="shp0" d="M446.84 274.41C463.93 307.04 470.92 344.2 477.82 380.37C479.8 390.72 481.78 401.06 484 411.35C484.57 413.99 487.65 415.53 490.15 414.84C492.88 414.09 494.21 411.34 493.64 408.69C485.72 371.93 480.9 334.27 468.21 298.71C464.62 288.66 460.42 278.81 455.47 269.36C454.22 266.97 450.89 266.25 448.63 267.57C446.21 268.99 445.58 272.01 446.84 274.41L446.84 274.41" />
			<path id="path78" class="shp0" d="M448.04 233.84C449.12 233.51 450.21 233.23 451.33 233.03C451.58 232.99 451.83 232.94 452.09 232.91C451.98 232.92 451.44 232.98 452.03 232.93C452.71 232.87 453.4 232.82 454.08 232.79C455.11 232.76 456.14 232.78 457.17 232.83C457.77 232.87 458.37 232.91 458.97 232.97C459.23 233 459.49 233.03 459.75 233.06C460.62 233.15 459.11 232.96 459.98 233.08C464.67 233.76 469.25 235.03 473.84 236.15C483.38 238.5 493.54 240.23 502.98 236.48C511.91 232.93 518.93 226.34 524.85 218.91C526.46 216.89 528.02 214.83 529.53 212.74C530.18 211.86 530.8 210.96 531.44 210.08C531.59 209.87 532.23 209.02 532.08 209.21C531.79 209.58 532.29 208.95 532.3 208.94C532.57 208.63 532.83 208.31 533.1 208.01C533.43 207.65 533.77 207.3 534.12 206.97C534.3 206.8 534.48 206.64 534.66 206.48C534.69 206.45 535.3 206 534.89 206.29C534.44 206.6 535.25 206.08 535.35 206.02C535.55 205.91 535.75 205.8 535.96 205.69C535.23 206.07 536.38 205.58 536.71 205.51C537.29 205.39 536.62 205.54 536.54 205.54C536.88 205.53 537.22 205.52 537.56 205.56C536.78 205.47 537.94 205.73 538.17 205.81C537.53 205.59 538.61 206.04 538.81 206.15C539.11 206.33 539.4 206.52 539.69 206.71C539.82 206.79 540.34 207.18 539.94 206.87C542.24 208.67 544.21 210.96 546.25 213.04C548.47 215.31 550.7 217.57 552.92 219.84C557.59 224.61 562.27 229.37 566.94 234.14C568.83 236.07 572.12 236.04 574.01 234.14C575.94 232.21 575.91 229 574.01 227.07C565.69 218.58 557.54 209.85 548.99 201.57C544.89 197.6 539.74 194.49 533.82 195.92C528.62 197.18 525.17 201.7 522.24 205.82C519.38 209.84 517.29 212.69 513.92 216.39C512.37 218.09 510.73 219.72 509 221.24C507.29 222.74 506.24 223.55 503.98 224.92C500.3 227.14 496.49 228.45 492.49 228.67C491.36 228.73 490.22 228.74 489.09 228.69C488.57 228.67 488.04 228.63 487.52 228.59C487.25 228.57 486.99 228.55 486.73 228.52C486.76 228.53 485.41 228.38 485.82 228.43C484.12 228.22 481.25 227.63 479.13 227.14C468.09 224.6 456.68 220.74 445.38 224.19C442.8 224.99 441.16 227.69 441.89 230.35C442.59 232.9 445.45 234.63 448.04 233.84L448.04 233.84" />
		</g>
	</g>
</svg>