<svg xmlns="http://www.w3.org/2000/svg" viewBox="0 0 1011 795" width="1011" height="795">
	<style>
		tspan { white-space:pre }
		.shp0 { fill: #eb1d27 } 
	</style>
	<g id="g10">
		<g id="g12">
			<path id="path14" class="shp0" d="M7.01 741.53C7.33 741.57 7.61 741.64 7.86 741.76C8.11 741.88 8.35 742.05 8.58 742.26C8.8 742.47 9.06 742.75 9.35 743.09L35.21 777.17C35.05 775.43 34.97 773.79 34.97 772.23L34.97 741.47L44.11 741.47L44.11 793.98L38.77 793.98C37.95 793.98 37.27 793.84 36.73 793.57C36.19 793.29 35.66 792.83 35.13 792.2L9.35 758.31C9.5 759.95 9.58 761.46 9.58 762.86L9.58 793.98L0.41 793.98L0.41 741.47L5.87 741.47C6.31 741.47 6.7 741.48 7.01 741.53Z" />
			<path id="path16" fill-rule="evenodd" class="shp0" d="M97.96 793.98L89.98 793.98C89.05 793.98 88.32 793.76 87.76 793.33C87.21 792.89 86.8 792.35 86.54 791.69L83.21 781.37L63.88 781.37L60.6 791.65C60.38 792.23 59.98 792.76 59.39 793.25C58.8 793.74 58.06 793.98 57.19 793.98L49.09 793.98L68.23 741.47L78.83 741.47C78.83 741.47 97.96 793.98 97.96 793.98ZM66.21 774.09L80.84 774.09L75.5 757.48C75.19 756.66 74.86 755.71 74.52 754.61C74.17 753.52 73.83 752.33 73.49 751.03C73.17 752.33 72.84 753.53 72.5 754.63C72.15 755.74 71.84 756.7 71.55 757.52L66.21 774.09Z" />
			<path id="path18" fill-rule="evenodd" class="shp0" d="M147.2 767.68C147.2 771.53 146.59 775.07 145.38 778.3C144.17 781.53 142.44 784.31 140.22 786.63C137.99 788.95 135.31 790.75 132.17 792.04C129.03 793.33 125.55 793.98 121.73 793.98L102.59 793.98L102.59 741.47L121.73 741.47C125.55 741.47 129.03 742.11 132.17 743.4C135.31 744.69 137.99 746.5 140.22 748.82C142.44 751.14 144.17 753.91 145.38 757.13C146.59 760.34 147.2 763.86 147.2 767.68ZM136.64 767.68C136.64 764.89 136.3 762.39 135.61 760.17C134.92 757.96 133.94 756.07 132.67 754.52C131.39 752.96 129.82 751.77 127.98 750.94C126.13 750.11 124.05 749.69 121.73 749.69L113.03 749.69L113.03 785.72L121.73 785.72C124.05 785.72 126.13 785.31 127.98 784.49C129.82 783.67 131.39 782.49 132.67 780.93C133.94 779.37 134.92 777.48 135.61 775.26C136.3 773.03 136.64 770.51 136.64 767.68Z" />
			<path id="path20" class="shp0" d="M185.59 741.47L185.59 745.3C185.59 746.43 185.27 747.48 184.61 748.42L161.99 785.72L184.96 785.72L184.96 793.98L149.41 793.98L149.41 789.95C149.41 788.89 149.71 787.94 150.32 787.1L172.94 749.73L151.15 749.73L151.15 741.47L185.59 741.47Z" />
			<path id="path22" class="shp0" d="M202.8 793.98L192.36 793.98L192.36 741.47L202.8 741.47L202.8 793.98Z" />
			<path id="path24" class="shp0" d="M245.07 741.47L245.07 749.73L223.48 749.73L223.48 763.61L240.28 763.61L240.28 771.56L223.48 771.56L223.48 785.72L245.11 785.72L245.07 793.98L213.04 793.98L213.04 741.47L245.07 741.47Z" />
			<path id="path26" class="shp0" d="M270.89 775.2C270.89 778.12 270.58 780.78 269.96 783.17C269.34 785.55 268.39 787.59 267.12 789.27C265.84 790.96 264.23 792.26 262.29 793.17C260.35 794.08 258.08 794.53 255.47 794.53C254.28 794.53 253.12 794.46 251.99 794.32C250.86 794.17 249.67 793.93 248.43 793.59L248.99 787.42C249.04 786.89 249.25 786.45 249.62 786.09C249.99 785.74 250.51 785.56 251.2 785.56C251.57 785.56 252 785.64 252.5 785.79C253 785.95 253.64 786.03 254.4 786.03C255.46 786.03 256.37 785.84 257.13 785.46C257.89 785.08 258.53 784.46 259.03 783.62C259.53 782.78 259.91 781.69 260.16 780.36C260.41 779.03 260.53 777.4 260.53 775.47L260.53 741.47L270.89 741.47L270.89 775.2Z" />
			<path id="path28" fill-rule="evenodd" class="shp0" d="M321.94 793.98L313.96 793.98C313.03 793.98 312.29 793.76 311.74 793.33C311.19 792.89 310.78 792.35 310.52 791.69L307.19 781.37L287.86 781.37L284.57 791.65C284.36 792.23 283.96 792.76 283.37 793.25C282.78 793.74 282.04 793.98 281.17 793.98L273.07 793.98L292.21 741.47L302.81 741.47L321.94 793.98ZM290.19 774.09L304.82 774.09L299.48 757.48C299.17 756.66 298.84 755.71 298.49 754.61C298.15 753.52 297.81 752.33 297.47 751.03C297.15 752.33 296.82 753.53 296.48 754.63C296.13 755.74 295.82 756.7 295.53 757.52L290.19 774.09Z" />
			<path id="path30" class="shp0" d="M377.82 741.47L377.82 745.3C377.82 746.43 377.49 747.48 376.83 748.42L354.21 785.72L377.19 785.72L377.19 793.98L341.64 793.98L341.64 789.95C341.64 788.89 341.94 787.94 342.55 787.1L365.17 749.73L343.38 749.73L343.38 741.47L377.82 741.47" />
			<path id="path32" fill-rule="evenodd" class="shp0" d="M427.49 793.98L419.5 793.98C418.58 793.98 417.84 793.76 417.29 793.33C416.73 792.89 416.32 792.35 416.06 791.69L412.74 781.37L393.4 781.37L390.12 791.65C389.91 792.23 389.51 792.76 388.91 793.25C388.32 793.74 387.59 793.98 386.72 793.98L378.61 793.98L397.75 741.47L408.35 741.47L427.49 793.98ZM395.73 774.09L410.37 774.09L405.03 757.48C404.71 756.66 404.38 755.71 404.04 754.61C403.69 753.52 403.35 752.33 403.01 751.03C402.69 752.33 402.36 753.53 402.02 754.63C401.68 755.74 401.36 756.7 401.07 757.52L395.73 774.09Z" />
			<path id="path34" class="shp0" d="M463 776.74C463.37 775.82 463.74 774.91 464.11 774.03C464.47 773.15 464.88 772.3 465.33 771.48L481.51 743.09C481.72 742.69 481.93 742.38 482.16 742.16C482.38 741.93 482.63 741.78 482.89 741.68C483.15 741.59 483.46 741.53 483.8 741.51C484.14 741.48 484.54 741.47 484.99 741.47L492.81 741.47L492.81 793.98L483.68 793.98L483.68 761.12C483.68 760.41 483.7 759.64 483.74 758.81C483.78 757.97 483.84 757.13 483.92 756.25L467.35 785.6C466.53 787.13 465.33 787.89 463.75 787.89L462.29 787.89C460.68 787.89 459.47 787.13 458.65 785.6L441.88 756.1C441.99 756.99 442.07 757.87 442.12 758.73C442.17 759.58 442.2 760.38 442.2 761.12L442.2 793.98L433.02 793.98L433.02 741.47L440.89 741.47C441.34 741.47 441.73 741.48 442.06 741.51C442.39 741.53 442.69 741.6 442.97 741.7C443.25 741.81 443.5 741.97 443.72 742.18C443.94 742.39 444.16 742.69 444.37 743.09L460.67 771.56C461.56 773.22 462.34 774.95 463 776.74" />
			<path id="path36" class="shp0" d="M514.33 793.98L503.89 793.98L503.89 741.47L514.33 741.47L514.33 793.98Z" />
			<path id="path38" fill-rule="evenodd" class="shp0" d="M568.94 793.98L560.95 793.98C560.03 793.98 559.29 793.76 558.74 793.33C558.18 792.89 557.77 792.35 557.51 791.69L554.19 781.37L534.85 781.37L531.57 791.65C531.36 792.23 530.96 792.76 530.36 793.25C529.77 793.74 529.04 793.98 528.17 793.98L520.06 793.98L539.2 741.47L549.8 741.47L568.94 793.98ZM537.18 774.09L551.81 774.09L546.48 757.48C546.16 756.66 545.83 755.71 545.49 754.61C545.15 753.52 544.8 752.33 544.46 751.03C544.14 752.33 543.81 753.53 543.47 754.63C543.13 755.74 542.81 756.7 542.52 757.52L537.18 774.09Z" />
			<path id="path40" class="shp0" d="M601.44 751.35C601.18 751.88 600.87 752.25 600.51 752.48C600.16 752.7 599.72 752.81 599.19 752.81C598.69 752.81 598.15 752.63 597.57 752.26C596.99 751.89 596.31 751.49 595.53 751.05C594.75 750.62 593.85 750.22 592.82 749.85C591.79 749.48 590.61 749.3 589.26 749.3C586.89 749.3 585.11 749.87 583.91 751.03C582.71 752.19 582.11 753.71 582.11 755.58C582.11 756.77 582.43 757.75 583.08 758.53C583.72 759.31 584.58 759.98 585.65 760.55C586.71 761.11 587.93 761.62 589.28 762.07C590.64 762.52 592.03 763 593.46 763.51C594.88 764.03 596.27 764.63 597.63 765.33C598.98 766.03 600.2 766.91 601.27 767.96C602.33 769.02 603.19 770.31 603.84 771.84C604.48 773.36 604.81 775.22 604.81 777.41C604.81 779.78 604.42 782.01 603.64 784.09C602.86 786.18 601.72 787.99 600.22 789.53C598.72 791.07 596.88 792.29 594.7 793.19C592.53 794.09 590.04 794.53 587.25 794.53C585.67 794.53 584.09 794.37 582.52 794.04C580.95 793.71 579.44 793.24 577.99 792.64C576.54 792.03 575.17 791.31 573.88 790.46C572.59 789.62 571.46 788.67 570.48 787.61L573.57 782.67C573.8 782.28 574.13 781.96 574.53 781.72C574.94 781.48 575.38 781.37 575.86 781.37C576.49 781.37 577.14 781.61 577.81 782.1C578.49 782.59 579.27 783.13 580.17 783.72C581.07 784.31 582.11 784.85 583.29 785.34C584.48 785.83 585.89 786.07 587.52 786.07C589.9 786.07 591.74 785.47 593.06 784.25C594.38 783.04 595.04 781.25 595.04 778.87C595.04 777.53 594.71 776.44 594.07 775.59C593.42 774.75 592.57 774.04 591.52 773.48C590.46 772.91 589.26 772.42 587.9 772.01C586.54 771.61 585.16 771.16 583.75 770.69C582.34 770.21 580.95 769.64 579.6 768.97C578.24 768.3 577.03 767.41 575.98 766.3C574.92 765.19 574.07 763.82 573.43 762.19C572.78 760.55 572.46 758.52 572.46 756.1C572.46 754.17 572.83 752.29 573.57 750.46C574.3 748.63 575.38 747 576.81 745.58C578.23 744.15 579.98 743.01 582.05 742.16C584.12 741.3 586.48 740.87 589.15 740.87C592.15 740.87 594.94 741.36 597.51 742.34C600.08 743.31 602.27 744.68 604.09 746.45L601.44 751.35" />
			<path id="path42" class="shp0" d="M645.85 741.47L645.85 749.93L631.69 749.93L631.69 793.98L621.33 793.98L621.33 749.93L607.18 749.93L607.18 741.47L645.85 741.47Z" />
			<path id="path44" class="shp0" d="M679.07 763.25L680.73 763.25C682.31 763.25 683.43 762.73 684.09 761.67L694.41 743.6C694.99 742.81 695.63 742.26 696.33 741.94C697.03 741.62 697.88 741.47 698.88 741.47L707.94 741.47L694.41 763.1C693.44 764.49 692.4 765.48 691.29 766.06C692.08 766.35 692.79 766.77 693.42 767.33C694.06 767.88 694.66 768.58 695.24 769.42L709 793.98L699.79 793.98C698.63 793.98 697.77 793.8 697.2 793.45C696.63 793.09 696.15 792.62 695.76 792.04L685.28 772.9C684.88 772.27 684.41 771.81 683.87 771.52C683.33 771.23 682.59 771.08 681.64 771.08L679.07 771.08L679.07 793.98L668.67 793.98L668.67 741.47L679.07 741.47L679.07 763.25" />
			<path id="path46" class="shp0" d="M708.61 741.47L717.31 741.47C718.23 741.47 718.99 741.68 719.58 742.1C720.17 742.52 720.58 743.07 720.79 743.76L728.54 774.09C728.99 775.67 729.41 777.5 729.81 779.59C730.02 778.56 730.23 777.58 730.44 776.64C730.65 775.71 730.9 774.84 731.19 774.05L740.36 743.76C740.57 743.15 740.98 742.62 741.59 742.16C742.19 741.7 742.92 741.47 743.76 741.47L746.81 741.47C747.73 741.47 748.47 741.67 749.04 742.08C749.61 742.49 750.01 743.05 750.25 743.76L759.42 774.09C759.69 774.85 759.93 775.69 760.15 776.6C760.38 777.51 760.6 778.47 760.81 779.47C760.99 778.47 761.18 777.52 761.38 776.62C761.58 775.72 761.78 774.89 761.99 774.13L769.75 743.76C769.93 743.15 770.33 742.62 770.95 742.16C771.57 741.7 772.3 741.47 773.15 741.47L781.29 741.47L765.71 793.98L756.3 793.98L745.9 759.06C745.74 758.61 745.59 758.11 745.44 757.56C745.3 757.01 745.16 756.43 745.03 755.82C744.9 756.43 744.75 757.01 744.59 757.56C744.43 758.11 744.29 758.61 744.16 759.06L733.56 793.98L724.19 793.98L708.61 741.47Z" />
			<path id="path48" class="shp0" d="M797.66 793.98L787.22 793.98L787.22 741.47L797.66 741.47L797.66 793.98Z" />
			<path id="path50" fill-rule="evenodd" class="shp0" d="M852.27 793.98L844.29 793.98C843.36 793.98 842.63 793.76 842.07 793.33C841.52 792.89 841.11 792.35 840.85 791.69L837.52 781.37L818.19 781.37L814.9 791.65C814.69 792.23 814.29 792.76 813.7 793.25C813.1 793.74 812.37 793.98 811.5 793.98L803.4 793.98L822.54 741.47L833.13 741.47C833.13 741.47 852.27 793.98 852.27 793.98ZM820.52 774.09L835.15 774.09L829.81 757.48C829.49 756.66 829.17 755.71 828.82 754.61C828.48 753.52 828.14 752.33 827.8 751.03C827.48 752.33 827.15 753.53 826.81 754.63C826.46 755.74 826.15 756.7 825.86 757.52L820.52 774.09Z" />
			<path id="path52" class="shp0" d="M885.37 741.47L885.37 749.93L871.21 749.93L871.21 793.98L860.85 793.98L860.85 749.93L846.7 749.93L846.7 741.47L885.37 741.47Z" />
			<path id="path54" fill-rule="evenodd" class="shp0" d="M927.53 725.96L915.15 736.92C914.62 737.37 914.12 737.65 913.65 737.77C913.17 737.89 912.55 737.95 911.79 737.95L904.51 737.95L912.3 727.59C912.57 727.22 912.83 726.93 913.09 726.72C913.36 726.51 913.65 726.34 913.96 726.22C914.28 726.1 914.63 726.03 915.01 726C915.39 725.98 915.85 725.96 916.37 725.96L927.53 725.96ZM935 778.38C933.79 781.66 932.07 784.5 929.84 786.9C927.61 789.3 924.93 791.17 921.79 792.52C918.65 793.86 915.17 794.53 911.35 794.53C907.53 794.53 904.05 793.86 900.91 792.52C897.77 791.17 895.09 789.3 892.85 786.9C890.6 784.5 888.87 781.66 887.65 778.38C886.42 775.1 885.81 771.53 885.81 767.68C885.81 763.86 886.42 760.31 887.65 757.03C888.87 753.75 890.6 750.91 892.85 748.52C895.09 746.14 897.77 744.27 900.91 742.91C904.05 741.55 907.53 740.87 911.35 740.87C915.17 740.87 918.65 741.55 921.79 742.91C924.93 744.27 927.61 746.15 929.84 748.54C932.07 750.94 933.79 753.78 935 757.05C936.21 760.31 936.82 763.86 936.82 767.68C936.82 771.53 936.21 775.1 935 778.38ZM926.22 767.68C926.22 764.89 925.88 762.39 925.19 760.17C924.51 757.96 923.53 756.07 922.25 754.52C920.97 752.96 919.41 751.77 917.58 750.94C915.75 750.11 913.67 749.69 911.35 749.69C909.03 749.69 906.95 750.11 905.1 750.94C903.26 751.77 901.7 752.96 900.42 754.52C899.14 756.07 898.16 757.96 897.47 760.17C896.79 762.39 896.44 764.89 896.44 767.68C896.44 770.51 896.79 773.03 897.47 775.26C898.16 777.48 899.14 779.37 900.42 780.91C901.7 782.45 903.26 783.63 905.1 784.45C906.95 785.27 909.03 785.68 911.35 785.68C913.67 785.68 915.75 785.27 917.58 784.45C919.41 783.63 920.97 782.45 922.25 780.91C923.53 779.37 924.51 777.48 925.19 775.26C925.88 773.03 926.22 770.51 926.22 767.68Z" />
			<path id="path56" class="shp0" d="M938.04 741.47L946.75 741.47C947.67 741.47 948.42 741.68 949.02 742.1C949.61 742.52 950.01 743.07 950.22 743.76L957.97 774.09C958.42 775.67 958.85 777.5 959.24 779.59C959.45 778.56 959.66 777.58 959.87 776.64C960.08 775.71 960.33 774.84 960.63 774.05L969.8 743.76C970.01 743.15 970.42 742.62 971.03 742.16C971.63 741.7 972.36 741.47 973.2 741.47L976.25 741.47C977.17 741.47 977.91 741.67 978.48 742.08C979.05 742.49 979.45 743.05 979.69 743.76L988.86 774.09C989.12 774.85 989.37 775.69 989.59 776.6C989.81 777.51 990.03 778.47 990.24 779.47C990.43 778.47 990.62 777.52 990.82 776.62C991.01 775.72 991.22 774.89 991.43 774.13L999.18 743.76C999.36 743.15 999.77 742.62 1000.39 742.16C1001.01 741.7 1001.74 741.47 1002.58 741.47L1010.73 741.47L995.15 793.98L985.73 793.98L975.34 759.06C975.18 758.61 975.03 758.11 974.88 757.56C974.73 757.01 974.6 756.43 974.47 755.82C974.33 756.43 974.19 757.01 974.03 757.56C973.87 758.11 973.73 758.61 973.59 759.06L963 793.98L953.63 793.98L938.04 741.47Z" />
			<path id="path58" class="shp0" d="M391.41 246.7C397.3 276.36 404.25 305.8 412.27 334.95C416.28 349.53 420.55 364.03 425.09 378.45C427.17 385.04 428.91 392.09 433.43 397.51C437.95 402.92 445.06 404.77 451.61 406.39C480.73 413.62 511.12 416.05 541.01 413.4C548.19 412.76 556.21 412.48 561.69 407.13C566.61 402.32 568.3 394.88 570.38 388.56C575.09 374.29 579.47 359.92 583.54 345.45C591.68 316.52 598.55 287.23 604.12 257.7C604.79 254.12 605.45 250.53 606.09 246.93C606.45 244.93 606.02 242.96 604.3 241.68C602.72 240.5 600.49 240.23 598.75 241.29C578.21 253.76 558.79 268.1 540.82 284.04C535.73 288.56 530.77 293.21 525.92 297.98C528.54 298.32 531.16 298.65 533.77 298.99C523.92 277.14 514.07 255.28 504.21 233.42C502.66 229.97 497.25 230.35 495.58 233.42C482.39 257.65 469.2 281.88 456.02 306.11C458.63 305.77 461.25 305.43 463.87 305.1C443.79 285.09 423.72 265.09 403.64 245.09C401.73 243.18 398.48 243.18 396.57 245.09C394.65 247 394.65 250.25 396.57 252.16C416.64 272.16 436.72 292.17 456.8 312.17C459.02 314.38 463.1 314 464.65 311.16C477.84 286.93 491.03 262.7 504.21 238.47C501.34 238.47 498.46 238.47 495.58 238.47C505.43 260.33 515.29 282.18 525.14 304.04C526.5 307.05 530.9 307.11 532.99 305.05C549.7 288.61 567.59 273.88 586.88 260.78C592.42 257.02 598.06 253.4 603.79 249.92C601.34 248.04 598.89 246.16 596.45 244.28C591.33 273.02 585.01 301.55 577.48 329.75C573.71 343.85 569.64 357.87 565.27 371.8C563.1 378.72 560.88 385.63 558.54 392.5C558.32 393.14 558.1 393.79 557.86 394.43C557.74 394.75 557.62 395.08 557.5 395.4C556.91 396.93 557.7 394.99 557.3 395.86C557.01 396.48 556.71 397.08 556.38 397.68C556.21 397.97 556.04 398.26 555.86 398.54C555.73 398.74 555.21 399.48 555.62 398.95C554.62 400.24 554.02 400.68 552.87 401.29C552.01 401.75 550.63 402.15 549.16 402.44C547.56 402.77 547.02 402.8 545.14 403C543.34 403.19 541.54 403.36 539.74 403.51C536.13 403.81 532.52 404.04 528.91 404.19C521.68 404.5 514.44 404.52 507.21 404.25C492.83 403.69 478.89 402.03 464.85 399.15C461.31 398.42 457.78 397.62 454.27 396.75C452.66 396.35 451.05 395.95 449.45 395.49C448.76 395.29 448.07 395.08 447.39 394.85C447.05 394.74 446.71 394.62 446.37 394.5C446.19 394.43 445.25 394.05 445.82 394.3C440.33 391.9 438.63 387.92 436.82 382.35C432.29 368.47 428.14 354.46 424.17 340.41C416.19 312.14 409.21 283.6 403.24 254.84C402.5 251.24 401.77 247.65 401.05 244.05C400.53 241.39 397.37 239.87 394.9 240.55C392.14 241.31 390.88 244.05 391.41 246.7L391.41 246.7" />
			<path id="path60" class="shp0" d="M495.16 416.43C494.52 445.26 494.28 474.09 494.43 502.93C494.59 531.76 495.14 560.59 496.09 589.41C496.63 605.59 497.29 621.77 498.07 637.95C498.2 640.55 500.28 643.07 503.07 642.95C505.67 642.83 508.21 640.74 508.07 637.95C506.68 609.14 505.67 580.33 505.07 551.5C504.47 522.67 504.26 493.83 504.46 465C504.57 448.81 504.8 432.62 505.16 416.43C505.22 413.82 502.82 411.31 500.16 411.43C497.4 411.56 495.22 413.63 495.16 416.43L495.16 416.43" />
			<path id="path62" class="shp0" d="M513.34 535.5C513.48 532.91 513.76 531.1 514.46 528.42C515.04 526.14 515.99 523.36 516.75 521.53C518.69 516.89 521.23 512.47 523.88 508.2C526.27 504.36 528.83 500.63 531.57 497.03C531.77 496.75 531.98 496.48 532.19 496.21C532.12 496.3 531.84 496.66 532.19 496.21C532.51 495.81 532.82 495.41 533.14 495.01C533.89 494.08 534.65 493.15 535.41 492.24C536.9 490.48 538.42 488.75 539.98 487.06C543.05 483.73 546.27 480.55 549.62 477.51C551.33 475.96 553.07 474.46 554.85 472.99C556.73 471.43 558.11 470.34 559.67 469.18C566.92 463.76 574.64 458.99 582.74 454.95C585.03 453.8 587.35 452.72 589.69 451.69C590.83 451.2 591.05 451.1 592.51 450.51C593.69 450.04 594.89 449.58 596.09 449.13C600.97 447.31 605.94 445.77 610.99 444.48C613.6 443.81 615.18 440.9 614.48 438.33C613.75 435.68 610.95 434.17 608.33 434.84C589.74 439.58 572.01 447.93 556.48 459.18C540.76 470.56 527.15 484.67 516.62 500.99C509.89 511.41 504 522.89 503.34 535.5C503.2 538.11 505.74 540.61 508.34 540.5C511.17 540.37 513.19 538.3 513.34 535.5L513.34 535.5" />
			<path id="path64" class="shp0" d="M604.77 435.74C604.68 435.06 604.79 435.96 604.8 436.03C604.84 436.39 604.88 436.75 604.92 437.11C604.99 437.75 605.05 438.38 605.1 439.01C605.23 440.46 605.31 441.9 605.37 443.35C605.48 446.15 605.45 448.96 605.31 451.76C605.02 457.47 604.42 461.69 603.14 467.34C600.66 478.37 596.85 487.91 591.3 497.58C585.67 507.4 579.31 515.65 571.07 523.47C566.92 527.4 563.31 530.29 558.5 533.25C553.65 536.25 549.46 538.2 544.14 539.67C542.67 540.07 541.19 540.41 539.7 540.68C539.35 540.75 539 540.81 538.64 540.86C538.52 540.88 537.4 541.05 538.11 540.95C537.41 541.04 536.69 541.11 535.98 541.17C532.96 541.42 529.93 541.37 526.91 541.07C525.87 540.97 526.43 541.03 526.66 541.05C526.22 541 525.79 540.92 525.35 540.85C524.57 540.71 523.79 540.56 523.01 540.38C521.56 540.04 520.12 539.63 518.7 539.13C517.1 538.57 516.85 538.47 515.29 537.68C513.87 536.97 512.5 536.15 511.18 535.27C508.94 533.76 505.64 534.83 504.34 537.06C502.9 539.52 503.88 542.39 506.13 543.9C516.52 550.86 529.42 552.49 541.57 550.47C553.63 548.45 564.57 542.14 573.84 534.37C583.03 526.68 590.85 517.19 597.25 507.09C603.7 496.88 608.71 485.64 611.81 473.97C615.37 460.59 616.26 446.78 614.41 433.08C614.05 430.4 610.61 428.94 608.26 429.59C605.37 430.38 604.41 433.05 604.77 435.74L604.77 435.74" />
			<path id="path66" class="shp0" d="M505.79 557.28C505.72 557.92 506.1 556.18 506.16 555.97C506.37 555.39 506.41 555.29 506.26 555.66C506.42 555.33 506.58 555 506.76 554.69C507.03 554.2 507.32 553.74 507.62 553.28C507.77 553.05 508.67 551.81 508.48 552.05C510.26 549.76 512.25 547.61 514.2 545.46C518.04 541.23 522.05 537.16 526.22 533.25C534.69 525.3 543.37 518.42 552.96 512.01C555.21 510.51 556.18 507.6 554.76 505.17C553.45 502.95 550.17 501.87 547.92 503.38C537.41 510.4 527.46 518.29 518.29 526.99C513.86 531.19 509.6 535.58 505.54 540.15C501.03 545.24 496.54 550.25 495.79 557.28C495.51 559.89 498.29 562.39 500.79 562.28C503.73 562.15 505.49 560.07 505.79 557.28L505.79 557.28" />
			<path id="path68" class="shp0" d="M504.92 166.76C498.65 162.61 492.59 158.12 486.61 153.56C486.19 153.23 485.76 152.91 485.33 152.58C485.15 152.43 484 151.55 484.69 152.08C483.75 151.36 482.82 150.63 481.89 149.91C480.12 148.52 478.36 147.12 476.6 145.72C472.98 142.82 469.39 139.89 465.84 136.92C459.24 131.39 452.72 125.73 446.49 119.79C440.18 113.77 434.48 107.49 429.82 100.57C423.94 91.82 419.85 83.19 417.6 72.99C417.33 71.75 417.09 70.51 416.89 69.27C416.84 69 416.8 68.73 416.76 68.47C416.76 68.49 416.64 67.61 416.7 68.06C416.77 68.58 416.63 67.47 416.62 67.38C416.58 67.02 416.54 66.66 416.5 66.3C416.26 63.78 416.15 61.24 416.22 58.71C416.25 57.6 416.32 56.5 416.42 55.4C416.46 54.93 416.51 54.45 416.56 53.98C416.67 52.98 416.59 53.68 416.57 53.9C416.61 53.58 416.66 53.27 416.71 52.96C417.06 50.68 417.56 48.43 418.19 46.22C418.5 45.15 418.83 44.09 419.2 43.04C419.38 42.51 419.57 41.99 419.77 41.47C419.87 41.21 420.48 39.72 420.16 40.46C421.03 38.43 422.03 36.45 423.13 34.53C423.69 33.58 424.27 32.65 424.88 31.73C425.18 31.27 425.49 30.82 425.81 30.37C425.95 30.18 426.08 29.99 426.22 29.8C426.29 29.71 427.02 28.74 426.68 29.18C426.48 29.44 427.32 28.4 427.46 28.23C427.76 27.87 428.06 27.52 428.37 27.17C429.15 26.29 429.95 25.45 430.78 24.63C431.56 23.88 432.36 23.15 433.18 22.44C433.6 22.09 434.01 21.75 434.44 21.42C433.75 21.95 435.12 20.93 435.29 20.81C437.06 19.56 438.92 18.45 440.86 17.49C441.35 17.25 441.85 17.02 442.34 16.79C442.87 16.56 442.31 16.8 442.22 16.84C442.51 16.72 442.8 16.6 443.09 16.49C444.28 16.04 445.48 15.64 446.7 15.3C447.8 15 448.92 14.74 450.05 14.53C450.39 14.46 450.74 14.4 451.09 14.34C451.08 14.34 451.94 14.22 451.47 14.28C450.94 14.35 452.01 14.22 452.12 14.21C452.47 14.17 452.82 14.14 453.17 14.11C455.72 13.92 458.29 13.95 460.83 14.2C461.09 14.23 461.36 14.26 461.62 14.29C462.5 14.4 460.99 14.19 461.87 14.33C462.48 14.43 463.08 14.53 463.69 14.65C464.9 14.9 466.1 15.19 467.29 15.54C468.47 15.88 469.63 16.3 470.79 16.73C470.86 16.75 471.67 17.08 471.07 16.83C471.31 16.93 471.55 17.04 471.79 17.15C472.43 17.44 473.07 17.75 473.69 18.07C474.79 18.64 475.86 19.26 476.9 19.92C477.42 20.25 477.93 20.6 478.43 20.96C478.65 21.11 478.86 21.26 479.07 21.42C479.83 21.97 478.23 20.7 479.49 21.74C481.34 23.28 483.08 24.94 484.65 26.76C485.85 28.14 487.14 29.94 488.37 32.03C488.98 33.06 489.55 34.13 490.07 35.21C490.22 35.52 490.36 35.83 490.51 36.15C490.5 36.14 490.84 36.91 490.67 36.49C490.66 36.48 491.11 37.61 491.27 38.06C492.11 40.4 492.76 42.81 493.19 45.27C493.23 45.48 493.41 46.72 493.31 45.98C493.39 46.57 493.44 47.17 493.49 47.77C493.59 49.06 493.62 50.35 493.6 51.64C493.58 53.75 495.17 55.98 497.27 56.46C499.55 56.98 501.62 56.07 502.92 54.16C509.01 45.22 514.87 36.05 521.34 27.37C521.56 27.08 522.23 26.2 522.26 26.16C522.26 26.16 522.84 25.44 523.05 25.18C523.84 24.2 524.65 23.25 525.49 22.31C527.09 20.52 528.79 18.82 530.61 17.25C531.59 16.41 531.63 16.37 532.52 15.74C533.52 15.02 534.57 14.34 535.64 13.72C536.55 13.2 537.48 12.72 538.43 12.29C538.63 12.19 538.84 12.1 539.05 12.01C538.97 12.04 538.37 12.28 538.91 12.08C539.47 11.87 540.04 11.65 540.61 11.47C542.47 10.85 544.37 10.44 546.3 10.13C546.89 10.03 546.16 10.15 546.08 10.16C546.38 10.13 546.68 10.09 546.98 10.07C547.42 10.03 547.87 9.99 548.32 9.97C549.37 9.91 550.43 9.9 551.48 9.93C552.46 9.96 553.44 10.03 554.42 10.13C554.64 10.15 554.87 10.18 555.09 10.21C555.01 10.2 554.3 10.09 554.89 10.18C555.42 10.26 555.94 10.35 556.47 10.45C558.49 10.83 560.49 11.36 562.45 12.02C562.95 12.2 563.46 12.38 563.96 12.57C564.21 12.67 565.24 13.08 564.48 12.76C565.48 13.18 566.45 13.64 567.41 14.14C569.2 15.06 570.93 16.09 572.58 17.23C573.02 17.54 573.46 17.86 573.9 18.18C574.36 18.52 573.88 18.16 573.81 18.11C573.99 18.25 574.17 18.39 574.35 18.54C575.19 19.22 576 19.93 576.79 20.67C578.25 22.05 579.6 23.52 580.86 25.08C581.36 25.69 580.45 24.52 580.92 25.16C581.06 25.34 581.2 25.53 581.33 25.72C581.63 26.13 581.92 26.55 582.2 26.97C582.89 27.99 583.53 29.04 584.14 30.11C584.7 31.1 585.22 32.11 585.71 33.14C585.94 33.61 586.16 34.09 586.37 34.57C586.6 35.1 586.43 34.69 586.38 34.58C586.55 34.99 586.71 35.39 586.86 35.8C587.67 37.93 588.35 40.1 588.89 42.31C589.16 43.42 589.4 44.54 589.61 45.66C589.71 46.18 589.79 46.7 589.88 47.22C589.93 47.57 589.99 47.92 590.03 48.27C589.96 47.72 590.03 48.28 590.05 48.51C590.55 53.21 590.59 57.92 590.14 62.61C589.93 64.7 589.68 66.41 589.15 68.96C588.69 71.23 588.11 73.48 587.44 75.69C584.68 84.74 580.14 93.18 574.53 101.24C569.08 109.08 562.43 116.51 555.4 123.53C540.46 138.46 524.26 151.42 506.48 162.69C504.3 164.07 502.09 165.43 499.87 166.76C497.56 168.14 496.71 171.25 498.08 173.6C499.44 175.92 502.6 176.78 504.92 175.39C524.22 163.84 542.26 150.09 558.48 134.51C573.88 119.71 588.09 102.95 595.61 82.7C602.69 63.65 602.64 40.6 591.55 23.03C581.56 7.19 562.52 -2.25 543.86 0.45C522.14 3.59 510.6 25.16 499.42 41.58C497.71 44.09 496 46.6 494.29 49.11C497.39 49.95 500.5 50.79 503.6 51.64C503.9 28.92 487.12 8.23 464.52 4.69C453.56 2.97 442.32 4.75 432.76 10.53C424.23 15.68 417.38 23.53 412.93 32.4C408.39 41.45 405.97 51.56 406.22 61.69C406.5 73.13 409.7 84.24 414.72 94.47C423.29 111.93 437.19 125.39 451.69 137.95C465.75 150.15 480.37 161.88 495.65 172.52C497.05 173.49 498.45 174.45 499.87 175.39C502.13 176.88 505.41 175.84 506.71 173.6C508.14 171.15 507.18 168.25 504.92 166.76L504.92 166.76" />
		</g>
	</g>
</svg>