<svg xmlns="http://www.w3.org/2000/svg" viewBox="0 0 1024 821" width="1024" height="821">
	<style>
		tspan { white-space:pre }
		.shp0 { fill: #eb1d27 } 
	</style>
	<g id="g10">
		<g id="g12">
			<path id="path14" class="shp0" d="M-0.11 767.47L8.59 767.47C9.51 767.47 10.27 767.68 10.86 768.1C11.45 768.52 11.86 769.07 12.07 769.76L19.82 800.09C20.27 801.67 20.69 803.5 21.08 805.59C21.29 804.56 21.5 803.58 21.72 802.64C21.93 801.71 22.18 800.84 22.47 800.05L31.64 769.76C31.85 769.15 32.26 768.62 32.87 768.16C33.47 767.7 34.2 767.47 35.04 767.47L38.09 767.47C39.01 767.47 39.75 767.67 40.32 768.08C40.89 768.49 41.29 769.05 41.53 769.76L50.7 800.09C50.96 800.85 51.21 801.69 51.43 802.6C51.66 803.51 51.87 804.47 52.09 805.47C52.27 804.47 52.46 803.52 52.66 802.62C52.86 801.72 53.06 800.89 53.27 800.13L61.02 769.76C61.21 769.15 61.61 768.62 62.23 768.16C62.85 767.7 63.58 767.47 64.42 767.47L72.57 767.47L56.99 819.98L47.58 819.98L37.18 785.06C37.02 784.61 36.87 784.11 36.72 783.56C36.58 783.01 36.44 782.43 36.31 781.82C36.18 782.43 36.03 783.01 35.87 783.56C35.71 784.11 35.57 784.61 35.44 785.06L24.84 819.98L15.47 819.98L-0.11 767.47Z" />
			<path id="path16" fill-rule="evenodd" class="shp0" d="M124.85 793.68C124.85 797.53 124.24 801.1 123.03 804.38C121.82 807.66 120.1 810.5 117.87 812.9C115.64 815.3 112.96 817.17 109.82 818.52C106.68 819.86 103.2 820.53 99.38 820.53C95.56 820.53 92.08 819.86 88.94 818.52C85.8 817.17 83.12 815.3 80.87 812.9C78.63 810.5 76.9 807.66 75.67 804.38C74.45 801.1 73.84 797.53 73.84 793.68C73.84 789.86 74.45 786.31 75.67 783.03C76.9 779.74 78.63 776.91 80.87 774.52C83.12 772.14 85.8 770.27 88.94 768.91C92.08 767.55 95.56 766.87 99.38 766.87C103.2 766.87 106.68 767.55 109.82 768.91C112.96 770.27 115.64 772.15 117.87 774.54C120.1 776.94 121.82 779.78 123.03 783.05C124.24 786.31 124.85 789.86 124.85 793.68ZM114.25 793.68C114.25 790.89 113.91 788.39 113.22 786.17C112.54 783.96 111.55 782.07 110.28 780.51C109 778.96 107.44 777.77 105.61 776.94C103.78 776.11 101.7 775.69 99.38 775.69C97.06 775.69 94.98 776.11 93.13 776.94C91.29 777.77 89.73 778.96 88.45 780.51C87.17 782.07 86.19 783.96 85.5 786.17C84.82 788.39 84.47 790.89 84.47 793.68C84.47 796.5 84.82 799.03 85.5 801.26C86.19 803.48 87.17 805.37 88.45 806.91C89.73 808.45 91.29 809.63 93.13 810.45C94.98 811.27 97.06 811.68 99.38 811.68C101.7 811.68 103.78 811.27 105.61 810.45C107.44 809.63 109 808.45 110.28 806.91C111.55 805.37 112.54 803.48 113.22 801.26C113.91 799.03 114.25 796.5 114.25 793.68Z" />
			<path id="path18" class="shp0" d="M141.38 811.44L159.61 811.44L159.61 819.98L130.98 819.98L130.98 767.47L141.38 767.47L141.38 811.44Z" />
			<path id="path20" fill-rule="evenodd" class="shp0" d="M212.44 793.68C212.44 797.53 211.83 801.1 210.62 804.38C209.41 807.66 207.69 810.5 205.46 812.9C203.23 815.3 200.55 817.17 197.41 818.52C194.27 819.86 190.79 820.53 186.97 820.53C183.15 820.53 179.67 819.86 176.53 818.52C173.39 817.17 170.71 815.3 168.47 812.9C166.22 810.5 164.49 807.66 163.27 804.38C162.04 801.1 161.43 797.53 161.43 793.68C161.43 789.86 162.04 786.31 163.27 783.03C164.49 779.74 166.22 776.91 168.47 774.52C170.71 772.14 173.39 770.27 176.53 768.91C179.67 767.55 183.15 766.87 186.97 766.87C190.79 766.87 194.27 767.55 197.41 768.91C200.55 770.27 203.23 772.15 205.46 774.54C207.69 776.94 209.41 779.78 210.62 783.05C211.83 786.31 212.44 789.86 212.44 793.68ZM201.84 793.68C201.84 790.89 201.5 788.39 200.81 786.17C200.13 783.96 199.14 782.07 197.87 780.51C196.59 778.96 195.03 777.77 193.2 776.94C191.37 776.11 189.29 775.69 186.97 775.69C184.65 775.69 182.57 776.11 180.72 776.94C178.88 777.77 177.32 778.96 176.04 780.51C174.76 782.07 173.78 783.96 173.09 786.17C172.41 788.39 172.06 790.89 172.06 793.68C172.06 796.5 172.41 799.03 173.09 801.26C173.78 803.48 174.76 805.37 176.04 806.91C177.32 808.45 178.88 809.63 180.72 810.45C182.57 811.27 184.65 811.68 186.97 811.68C189.29 811.68 191.37 811.27 193.2 810.45C195.03 809.63 196.59 808.45 197.87 806.91C199.14 805.37 200.13 803.48 200.81 801.26C201.5 799.03 201.84 796.5 201.84 793.68Z" />
			<path id="path22" class="shp0" d="M225.73 767.53C226.04 767.56 226.32 767.64 226.58 767.76C226.83 767.88 227.06 768.05 227.29 768.26C227.51 768.47 227.77 768.75 228.06 769.09L253.92 803.17C253.76 801.43 253.68 799.79 253.68 798.23L253.68 767.47L262.82 767.47L262.82 819.98L257.48 819.98C256.66 819.98 255.98 819.84 255.44 819.57C254.9 819.29 254.37 818.83 253.84 818.2L228.06 784.31C228.22 785.95 228.3 787.46 228.3 788.86L228.3 819.98L219.12 819.98L219.12 767.47L224.58 767.47C225.03 767.47 225.41 767.49 225.73 767.53Z" />
			<path id="path24" class="shp0" d="M307.03 767.47L307.03 775.93L292.87 775.93L292.87 819.98L282.51 819.98L282.51 775.93L268.35 775.93L268.35 767.47L307.03 767.47" />
			<path id="path26" fill-rule="evenodd" class="shp0" d="M350.41 819.98L342.42 819.98C341.5 819.98 340.76 819.76 340.21 819.33C339.65 818.89 339.24 818.35 338.98 817.69L335.66 807.37L316.32 807.37L313.04 817.65C312.83 818.23 312.43 818.76 311.83 819.25C311.24 819.74 310.51 819.98 309.64 819.98L301.53 819.98L320.67 767.47L331.27 767.47L350.41 819.98ZM318.65 800.09L333.29 800.09L327.95 783.48C327.63 782.66 327.3 781.71 326.96 780.61C326.61 779.52 326.27 778.33 325.93 777.03C325.61 778.33 325.28 779.53 324.94 780.63C324.6 781.74 324.28 782.7 323.99 783.52L318.65 800.09Z" />
			<path id="path28" fill-rule="evenodd" class="shp0" d="M365.55 799.77L365.55 819.98L355.11 819.98L355.11 767.47L370.93 767.47C374.44 767.47 377.44 767.84 379.95 768.59C382.45 769.34 384.5 770.39 386.1 771.74C387.69 773.08 388.86 774.69 389.6 776.56C390.33 778.43 390.7 780.49 390.7 782.73C390.7 784.44 390.47 786.07 389.99 787.61C389.52 789.16 388.83 790.57 387.92 791.84C387.01 793.12 385.89 794.26 384.57 795.25C383.26 796.23 381.74 797.03 380.03 797.64C380.69 798.01 381.31 798.45 381.89 798.96C382.47 799.48 383.01 800.1 383.51 800.84L395.25 819.98L385.88 819.98C384.22 819.98 382.94 819.28 382.04 817.89L372.47 801.51C372.08 800.88 371.64 800.43 371.15 800.17C370.66 799.91 369.97 799.77 369.07 799.77C369.07 799.77 365.55 799.77 365.55 799.77ZM365.55 792.38L370.85 792.38C372.54 792.38 374 792.15 375.22 791.71C376.45 791.26 377.46 790.64 378.25 789.85C379.04 789.06 379.63 788.11 380.01 787.02C380.39 785.93 380.58 784.73 380.58 783.44C380.58 780.89 379.79 778.91 378.21 777.53C376.63 776.15 374.2 775.45 370.93 775.45L365.55 775.45L365.55 792.38Z" />
			<path id="path30" class="shp0" d="M412.06 819.98L401.62 819.98L401.62 767.47L412.06 767.47L412.06 819.98Z" />
			<path id="path32" fill-rule="evenodd" class="shp0" d="M466.67 819.98L458.68 819.98C457.76 819.98 457.02 819.76 456.47 819.33C455.91 818.89 455.5 818.35 455.24 817.69L451.92 807.37L432.58 807.37L429.3 817.65C429.09 818.23 428.69 818.76 428.09 819.25C427.5 819.74 426.77 819.98 425.9 819.98L417.79 819.98L436.93 767.47L447.53 767.47L466.67 819.98ZM434.91 800.09L449.55 800.09L444.21 783.48C443.89 782.66 443.56 781.71 443.22 780.61C442.88 779.52 442.53 778.33 442.19 777.03C441.87 778.33 441.54 779.53 441.2 780.63C440.86 781.74 440.54 782.7 440.25 783.52L434.91 800.09Z" />
			<path id="path34" class="shp0" d="M499.77 767.47L499.77 775.93L485.61 775.93L485.61 819.98L475.25 819.98L475.25 775.93L461.09 775.93L461.09 767.47L499.77 767.47Z" />
			<path id="path36" fill-rule="evenodd" class="shp0" d="M533.74 801.75L533.74 819.98L523.34 819.98L523.34 767.47L540.22 767.47C543.62 767.47 546.55 767.89 549 768.73C551.45 769.57 553.48 770.74 555.09 772.23C556.7 773.72 557.88 775.49 558.65 777.55C559.41 779.61 559.8 781.86 559.8 784.31C559.8 786.89 559.39 789.25 558.59 791.39C557.78 793.53 556.57 795.36 554.95 796.89C553.33 798.42 551.29 799.61 548.84 800.47C546.39 801.32 543.52 801.75 540.22 801.75L533.74 801.75ZM533.74 793.68L540.22 793.68C543.38 793.68 545.7 792.85 547.18 791.17C548.66 789.5 549.4 787.21 549.4 784.31C549.4 781.6 548.64 779.44 547.14 777.85C545.64 776.25 543.33 775.45 540.22 775.45L533.74 775.45L533.74 793.68Z" />
			<path id="path38" fill-rule="evenodd" class="shp0" d="M577 799.77L577 819.98L566.56 819.98L566.56 767.47L582.37 767.47C585.88 767.47 588.89 767.84 591.39 768.59C593.9 769.34 595.95 770.39 597.54 771.74C599.14 773.08 600.3 774.69 601.04 776.56C601.78 778.43 602.15 780.49 602.15 782.73C602.15 784.44 601.91 786.07 601.43 787.61C600.96 789.16 600.27 790.57 599.36 791.84C598.45 793.12 597.34 794.26 596.02 795.25C594.7 796.23 593.18 797.03 591.47 797.64C592.13 798.01 592.75 798.45 593.33 798.96C593.91 799.48 594.45 800.1 594.95 800.84L606.69 819.98L597.32 819.98C595.66 819.98 594.38 819.28 593.49 817.89L583.92 801.51C583.52 800.88 583.08 800.43 582.59 800.17C582.1 799.91 581.41 799.77 580.52 799.77C580.52 799.77 577 799.77 577 799.77ZM577 792.38L582.3 792.38C583.98 792.38 585.44 792.15 586.67 791.71C587.89 791.26 588.9 790.64 589.69 789.85C590.48 789.06 591.07 788.11 591.45 787.02C591.83 785.93 592.02 784.73 592.02 783.44C592.02 780.89 591.23 778.91 589.65 777.53C588.07 776.15 585.64 775.45 582.37 775.45L577 775.45L577 792.38Z" />
			<path id="path40" fill-rule="evenodd" class="shp0" d="M656.52 819.98L648.53 819.98C647.61 819.98 646.87 819.76 646.32 819.33C645.76 818.89 645.36 818.35 645.09 817.69L641.77 807.37L622.43 807.37L619.15 817.65C618.94 818.23 618.54 818.76 617.95 819.25C617.35 819.74 616.62 819.98 615.75 819.98L607.64 819.98L626.78 767.47L637.38 767.47C637.38 767.47 656.52 819.98 656.52 819.98ZM624.77 800.09L639.4 800.09L634.06 783.48C633.74 782.66 633.41 781.71 633.07 780.61C632.73 779.52 632.39 778.33 632.04 777.03C631.73 778.33 631.4 779.53 631.05 780.63C630.71 781.74 630.39 782.7 630.1 783.52L624.77 800.09Z" />
			<path id="path42" class="shp0" d="M692.07 807.25C692.63 807.25 693.1 807.46 693.49 807.88L697.65 812.35C695.75 815.01 693.37 817.04 690.51 818.44C687.65 819.84 684.25 820.53 680.33 820.53C676.77 820.53 673.57 819.87 670.72 818.54C667.87 817.21 665.45 815.35 663.46 812.96C661.47 810.58 659.94 807.74 658.87 804.46C657.81 801.18 657.27 797.59 657.27 793.68C657.27 789.76 657.85 786.15 658.99 782.87C660.14 779.59 661.75 776.76 663.84 774.39C665.92 772.01 668.41 770.17 671.31 768.85C674.21 767.53 677.4 766.87 680.88 766.87C684.41 766.87 687.54 767.5 690.25 768.75C692.97 770 695.24 771.66 697.05 773.71L693.58 778.58C693.34 778.87 693.07 779.13 692.76 779.37C692.46 779.61 692.03 779.72 691.48 779.72C690.92 779.72 690.39 779.51 689.88 779.09C689.36 778.67 688.73 778.21 687.98 777.71C687.23 777.21 686.28 776.75 685.15 776.32C684.02 775.9 682.57 775.69 680.8 775.69C678.88 775.69 677.13 776.09 675.54 776.9C673.96 777.7 672.6 778.87 671.47 780.42C670.34 781.96 669.46 783.84 668.84 786.07C668.22 788.3 667.91 790.84 667.91 793.68C667.91 796.56 668.25 799.11 668.94 801.35C669.62 803.6 670.55 805.49 671.73 807.03C672.9 808.57 674.28 809.75 675.86 810.55C677.44 811.35 679.14 811.75 680.96 811.75C682.04 811.75 683.02 811.7 683.89 811.58C684.75 811.46 685.57 811.25 686.32 810.94C687.07 810.64 687.77 810.25 688.43 809.78C689.09 809.3 689.75 808.71 690.41 808C690.67 807.79 690.95 807.61 691.22 807.47C691.5 807.32 691.78 807.25 692.07 807.25" />
			<path id="path44" fill-rule="evenodd" class="shp0" d="M750.79 793.68C750.79 797.53 750.19 801.1 748.97 804.38C747.76 807.66 746.04 810.5 743.81 812.9C741.59 815.3 738.9 817.17 735.77 818.52C732.63 819.86 729.15 820.53 725.33 820.53C721.51 820.53 718.03 819.86 714.89 818.52C711.75 817.17 709.06 815.3 706.82 812.9C704.58 810.5 702.85 807.66 701.62 804.38C700.4 801.1 699.78 797.53 699.78 793.68C699.78 789.86 700.4 786.31 701.62 783.03C702.85 779.74 704.58 776.91 706.82 774.52C709.06 772.14 711.75 770.27 714.89 768.91C718.03 767.55 721.51 766.87 725.33 766.87C729.15 766.87 732.63 767.55 735.77 768.91C738.9 770.27 741.59 772.15 743.81 774.54C746.04 776.94 747.76 779.78 748.97 783.05C750.19 786.31 750.79 789.86 750.79 793.68ZM740.2 793.68C740.2 790.89 739.85 788.39 739.17 786.17C738.48 783.96 737.5 782.07 736.22 780.51C734.94 778.96 733.39 777.77 731.56 776.94C729.72 776.11 727.65 775.69 725.33 775.69C723.01 775.69 720.92 776.11 719.08 776.94C717.23 777.77 715.67 778.96 714.39 780.51C713.11 782.07 712.13 783.96 711.45 786.17C710.76 788.39 710.42 790.89 710.42 793.68C710.42 796.5 710.76 799.03 711.45 801.26C712.13 803.48 713.11 805.37 714.39 806.91C715.67 808.45 717.23 809.63 719.08 810.45C720.92 811.27 723.01 811.68 725.33 811.68C727.65 811.68 729.72 811.27 731.56 810.45C733.39 809.63 734.94 808.45 736.22 806.91C737.5 805.37 738.48 803.48 739.17 801.26C739.85 799.03 740.2 796.5 740.2 793.68Z" />
			<path id="path46" class="shp0" d="M752.02 767.47L760.72 767.47C761.64 767.47 762.4 767.68 762.99 768.1C763.59 768.52 763.99 769.07 764.2 769.76L771.95 800.09C772.4 801.67 772.82 803.5 773.22 805.59C773.43 804.56 773.64 803.58 773.85 802.64C774.06 801.71 774.31 800.84 774.6 800.05L783.77 769.76C783.99 769.15 784.39 768.62 785 768.16C785.61 767.7 786.33 767.47 787.18 767.47L790.22 767.47C791.14 767.47 791.89 767.67 792.45 768.08C793.02 768.49 793.42 769.05 793.66 769.76L802.84 800.09C803.1 800.85 803.34 801.69 803.57 802.6C803.79 803.51 804.01 804.47 804.22 805.47C804.4 804.47 804.59 803.52 804.79 802.62C804.99 801.72 805.19 800.89 805.41 800.13L813.16 769.76C813.34 769.15 813.74 768.62 814.36 768.16C814.98 767.7 815.71 767.47 816.56 767.47L824.7 767.47L809.12 819.98L799.71 819.98L789.31 785.06C789.15 784.61 789 784.11 788.86 783.56C788.71 783.01 788.57 782.43 788.44 781.82C788.31 782.43 788.16 783.01 788.01 783.56C787.85 784.11 787.7 784.61 787.57 785.06L776.97 819.98L767.6 819.98L752.02 767.47Z" />
			<path id="path48" class="shp0" d="M836.49 767.53C836.81 767.56 837.09 767.64 837.34 767.76C837.59 767.88 837.83 768.05 838.05 768.26C838.27 768.47 838.53 768.75 838.82 769.09L864.68 803.17C864.53 801.43 864.45 799.79 864.45 798.23L864.45 767.47L873.58 767.47L873.58 819.98L868.24 819.98C867.42 819.98 866.75 819.84 866.21 819.57C865.66 819.29 865.13 818.83 864.6 818.2L838.82 784.31C838.98 785.95 839.06 787.46 839.06 788.86L839.06 819.98L829.88 819.98L829.88 767.47L835.34 767.47C835.79 767.47 836.17 767.49 836.49 767.53Z" />
			<path id="path50" class="shp0" d="M894.42 819.98L883.98 819.98L883.98 767.47L894.42 767.47L894.42 819.98Z" />
			<path id="path52" class="shp0" d="M936.46 807.25C937.01 807.25 937.48 807.46 937.88 807.88L942.03 812.35C940.13 815.01 937.75 817.04 934.89 818.44C932.03 819.84 928.64 820.53 924.71 820.53C921.15 820.53 917.95 819.87 915.1 818.54C912.25 817.21 909.84 815.35 907.85 812.96C905.85 810.58 904.33 807.74 903.26 804.46C902.19 801.18 901.66 797.59 901.66 793.68C901.66 789.76 902.23 786.15 903.38 782.87C904.52 779.59 906.14 776.76 908.22 774.39C910.3 772.01 912.79 770.17 915.69 768.85C918.59 767.53 921.78 766.87 925.26 766.87C928.8 766.87 931.92 767.5 934.64 768.75C937.35 770 939.62 771.66 941.44 773.71L937.96 778.58C937.72 778.87 937.45 779.13 937.15 779.37C936.84 779.61 936.42 779.72 935.86 779.72C935.31 779.72 934.77 779.51 934.26 779.09C933.75 778.67 933.11 778.21 932.36 777.71C931.61 777.21 930.67 776.75 929.53 776.32C928.4 775.9 926.95 775.69 925.19 775.69C923.26 775.69 921.51 776.09 919.93 776.9C918.34 777.7 916.99 778.87 915.85 780.42C914.72 781.96 913.84 783.84 913.22 786.07C912.6 788.3 912.29 790.84 912.29 793.68C912.29 796.56 912.64 799.11 913.32 801.35C914.01 803.6 914.94 805.49 916.11 807.03C917.28 808.57 918.66 809.75 920.24 810.55C921.82 811.35 923.52 811.75 925.34 811.75C926.42 811.75 927.4 811.7 928.27 811.58C929.14 811.46 929.95 811.25 930.7 810.94C931.45 810.64 932.16 810.25 932.82 809.78C933.48 809.3 934.14 808.71 934.79 808C935.06 807.79 935.33 807.61 935.6 807.47C935.88 807.32 936.16 807.25 936.46 807.25" />
			<path id="path54" class="shp0" d="M980.39 767.47L980.39 771.3C980.39 772.43 980.06 773.48 979.4 774.43L956.78 811.72L979.76 811.72L979.76 819.98L944.21 819.98L944.21 815.95C944.21 814.89 944.51 813.94 945.11 813.1L967.73 775.73L945.95 775.73L945.95 767.47L980.39 767.47" />
			<path id="path56" class="shp0" d="M1007.24 799.73L1007.24 819.98L996.96 819.98L996.96 799.65L980.47 767.47L989.68 767.47C990.53 767.47 991.21 767.68 991.74 768.1C992.27 768.52 992.7 769.07 993.04 769.76L999.53 786.72C1000.08 787.78 1000.58 788.77 1001.01 789.69C1001.45 790.61 1001.83 791.53 1002.18 792.46C1002.47 791.53 1002.82 790.61 1003.25 789.69C1003.67 788.77 1004.14 787.79 1004.67 786.76L1011.11 769.76C1011.41 769.21 1011.83 768.69 1012.38 768.2C1012.93 767.71 1013.65 767.47 1014.52 767.47L1023.73 767.47L1007.24 799.73Z" />
			<path id="path58" class="shp0" d="M512.98 460.44C473.78 441.2 437.31 416.59 404.81 387.45C372.3 358.31 343.72 324.84 320.26 288.03C297.56 252.4 277.23 212.35 274.83 169.41C273.72 149.65 276.83 129.52 286.88 112.23C297.76 93.51 315.81 80.12 335.89 72.55C357.02 64.57 381.19 61.55 402.86 69.24C421.39 75.81 437.06 92.31 439.66 112.26C440.25 116.79 440.06 121.43 439.1 125.9C438.58 128.32 439.61 130.84 441.99 131.79C444.12 132.65 447.17 132.04 448.24 129.75C461.23 101.85 479.05 76.38 501.02 54.82C521.53 34.7 546.34 17.52 575 12.01C625.01 2.4 675.61 33.06 701.67 74.51C733.48 125.09 728.82 190.21 708.12 243.98C685.76 302.07 643.51 350 600.63 393.96C556.75 438.96 509.98 481.82 474.03 533.78C469.61 540.17 465.38 546.69 461.34 553.33C457.99 558.84 466.64 563.87 469.98 558.37C503.77 502.79 551.45 457.91 596.88 412.04C641.45 367.04 686.08 319.03 712.05 260.43C736.69 204.81 745.12 137.25 716.94 81.2C693.55 34.69 643.17 -1.41 589.91 0.37C560.22 1.37 533.09 14.88 510.27 33.2C485.95 52.72 465.53 77.6 450.02 104.59C446.25 111.14 442.79 117.85 439.6 124.7C442.65 125.99 445.69 127.27 448.74 128.55C453.38 107 443.32 84.67 426.44 71.13C407.05 55.57 381.17 52.55 357.26 56.44C334.23 60.19 311.47 70.43 294.48 86.6C278.62 101.71 268.89 122.1 265.88 143.7C259.63 188.69 277.28 233.76 299.08 272.21C321.58 311.9 349.86 348.38 382.49 380.25C415.23 412.23 452.48 439.73 492.83 461.34C497.82 464.01 502.85 466.58 507.93 469.07C513.68 471.9 518.76 463.27 512.98 460.44L512.98 460.44" />
			<path id="path60" class="shp0" d="M663.87 454.67C645.44 431.17 632.18 402.95 626.06 373.39C624.44 365.55 623.54 357.76 624.33 349.59C624.64 346.39 625.49 342.53 626.71 339.16C626.82 338.86 626.94 338.56 627.05 338.25C627.58 336.79 626.64 339.09 627.29 337.66C627.59 337 627.9 336.34 628.23 335.69C629 334.18 629.86 332.72 630.81 331.31C630.99 331.05 631.18 330.78 631.37 330.52C631.39 330.49 632.35 329.23 631.75 329.99C632.2 329.42 632.66 328.87 633.14 328.33C634.26 327.09 635.45 325.91 636.73 324.83C636.97 324.63 637.22 324.43 637.47 324.23C636.8 324.76 637.61 324.14 637.78 324.02C638.35 323.61 638.94 323.21 639.55 322.84C640.21 322.43 640.9 322.05 641.59 321.69C641.94 321.51 642.3 321.35 642.65 321.18C642.97 321.03 642.93 321.05 642.53 321.21C642.82 321.09 643.11 320.98 643.41 320.87C650.43 318.27 657.49 319.59 664.68 321.23C668.7 322.15 672.68 323.2 676.54 324.69C679.25 325.73 683 327.93 685.21 330.12C685.44 330.34 685.66 330.57 685.87 330.8C686.09 331.04 686.3 331.28 686.51 331.52C686.84 331.93 686.91 332.02 686.71 331.77C686.31 331.24 687.22 332.51 687.16 332.43C687.43 332.83 687.69 333.23 687.93 333.65C688.13 334 688.32 334.35 688.5 334.71C688.59 334.88 689.2 336.35 688.87 335.48C689.15 336.22 689.4 336.97 689.6 337.74C689.71 338.19 689.8 338.66 689.9 339.12C690.11 340.17 689.93 338.47 689.95 339.64C689.96 340.4 689.97 341.17 689.95 341.94C689.91 343.32 690.23 341.08 689.88 342.42C689.76 342.86 689.68 343.31 689.54 343.75C689.45 344.04 689.35 344.33 689.24 344.61C689.61 343.68 688.82 345.33 688.72 345.51C687.37 347.84 688.18 350.98 690.52 352.35C692.9 353.74 695.94 352.86 697.36 350.55C697.62 350.13 697.88 349.71 698.17 349.3C698.18 349.28 699.14 347.99 698.56 348.73C699.17 347.96 699.83 347.23 700.52 346.53C702.24 344.8 703.19 344.08 704.85 342.98C706.38 341.97 707.98 341.06 709.63 340.24C711.87 339.12 712.61 338.82 714.97 337.96C718.81 336.55 722.76 335.39 726.75 334.47C728.63 334.03 730.53 333.66 732.44 333.36C732.43 333.37 734.15 333.13 733.2 333.25C733.72 333.19 734.24 333.13 734.76 333.08C735.98 332.96 737.19 332.87 738.41 332.83C740.47 332.76 742.52 332.81 744.57 333.02C744.9 333.05 745.24 333.09 745.58 333.13C744.56 333 746.2 333.26 746.24 333.26C747.38 333.47 748.52 333.74 749.64 334.07C752.98 335.05 756.23 336.83 758.73 339.25C760.41 340.87 761.16 341.84 762.25 343.55C763.25 345.11 764.45 347.45 764.86 348.51C765.63 350.51 766.27 352.54 766.75 354.63C766.99 355.64 767.2 356.66 767.37 357.69C767.37 357.71 767.63 359.38 767.49 358.39C767.56 358.89 767.61 359.4 767.66 359.9C767.86 361.92 767.95 363.94 767.92 365.96C767.9 366.97 767.86 367.97 767.79 368.97C767.75 369.48 767.71 369.98 767.66 370.48C767.64 370.65 767.41 372.57 767.54 371.64C766.98 375.64 765.98 379.57 764.65 383.38C764.35 384.27 764.02 385.14 763.68 386.01C763.52 386.41 763.36 386.8 763.2 387.19C763.55 386.35 762.88 387.89 762.89 387.88C761.97 389.92 760.96 391.92 759.87 393.87C757.84 397.51 755.53 401.03 752.96 404.33C753.48 403.67 752.4 405.02 752.44 404.97C752.11 405.38 751.78 405.79 751.44 406.19C750.77 407.01 750.08 407.81 749.37 408.6C747.97 410.17 746.51 411.71 745.01 413.19C743.51 414.68 741.96 416.11 740.37 417.5C739 418.69 736.97 420.36 736.1 421.02C728.82 426.54 720.86 431.13 712.69 435.2C693.74 444.63 673.53 451.15 653.99 459.92C651.53 461.03 650.94 464.61 652.2 466.77C653.68 469.3 656.56 469.67 659.04 468.56C667.8 464.63 676.8 461.13 685.99 457.5C695.45 453.77 704.89 449.97 714.08 445.61C731.23 437.46 747.5 426.98 759.51 412.04C770.84 397.96 778.94 380.35 777.83 361.93C777.24 352.21 774.41 342.59 768.27 334.91C762.21 327.33 753.04 323.65 743.55 322.93C734.5 322.24 725.24 324.18 716.63 326.86C708.1 329.51 699.39 333.25 693.11 339.81C691.45 341.54 689.98 343.47 688.72 345.51C691.6 347.19 694.48 348.87 697.36 350.55C701.44 343.51 700.39 334.73 696.19 327.99C691.72 320.81 684.2 316.62 676.36 314.02C672.53 312.75 668.57 311.82 664.61 310.99C659.91 309.99 655.04 309.17 650.22 309.41C642.2 309.81 634.91 313.07 628.94 318.39C616.41 329.57 612.85 346.99 614.42 363.09C616.09 380.06 621.29 396.87 627.86 412.53C635.28 430.21 644.97 446.66 656.8 461.74C658.47 463.87 662.12 463.49 663.87 461.74C665.97 459.64 665.54 456.8 663.87 454.67L663.87 454.67" />
			<path id="path62" class="shp0" d="M344.86 433.4C316.95 421.18 292.42 403.25 272.69 380.1C270.13 377.09 268.24 374.7 266.04 371.48C263.93 368.39 262 365.17 260.38 361.79C259.54 360.04 259.2 359.25 258.51 357.32C257.89 355.56 257.36 353.77 256.93 351.96C256.74 351.15 256.58 350.34 256.44 349.52C256.42 349.44 256.2 347.87 256.33 348.94C256.3 348.62 256.26 348.3 256.23 347.98C256.06 346.29 256 344.6 256.04 342.9C256.06 342.09 256.11 341.29 256.18 340.48C256.21 340.08 256.25 339.68 256.3 339.28C256.2 340.15 256.29 339.33 256.31 339.17C256.6 337.43 256.97 335.7 257.48 334.01C257.71 333.25 257.97 332.5 258.25 331.76C258.36 331.46 258.47 331.17 258.6 330.87C258.25 331.69 258.67 330.75 258.77 330.55C259.47 329.06 260.29 327.63 261.23 326.27C261.18 326.34 262.08 325.1 261.67 325.64C261.26 326.18 262.22 324.98 262.16 325.05C262.67 324.45 263.21 323.87 263.77 323.32C265.11 322 265.83 321.46 267.13 320.62C270.56 318.42 273.52 317.34 277.4 316.15C285.67 313.61 294.94 310.79 303.24 313.03C303.62 313.13 304 313.24 304.38 313.37C304.56 313.43 306.03 314.02 305.19 313.65C305.99 314 306.78 314.42 307.53 314.87C307.87 315.08 308.21 315.29 308.54 315.52C308.58 315.54 309.76 316.45 309.07 315.88C309.8 316.49 310.5 317.14 311.14 317.84C311.35 318.07 311.56 318.31 311.76 318.54C311.16 317.84 312.12 319.05 312.23 319.22C312.68 319.93 313.1 320.67 313.44 321.44C313.07 320.59 313.43 321.52 313.5 321.74C313.67 322.25 313.79 322.77 313.91 323.29C314.12 324.25 313.94 323.54 313.93 323.32C313.97 323.95 313.98 324.56 313.96 325.19C313.88 327.81 316.33 330.31 318.96 330.19C321.81 330.06 323.8 327.99 323.96 325.19C324 324.65 324.03 324.11 324.09 323.58C323.98 324.49 324.25 322.78 324.24 322.8C324.45 321.75 324.71 320.72 325.03 319.71C325.74 317.45 326.29 316.31 327.57 314.08C329.79 310.2 331.99 307.52 335.07 304.23C341.14 297.73 347.36 292.2 355.38 288.38C356.92 287.64 358.19 287.16 360.21 286.58C362.75 285.86 363.78 285.67 366.19 285.59C369.97 285.48 373.8 286.39 376.95 288.02C384.07 291.69 388.97 297.46 392.82 304.42C393.28 305.26 393.73 306.12 394.15 306.99C394.36 307.43 394.56 307.86 394.76 308.3C394.78 308.35 395.41 309.81 395.02 308.88C395.76 310.66 396.4 312.49 396.95 314.33C397.51 316.19 397.98 318.07 398.36 319.97C398.52 320.77 398.67 321.57 398.8 322.37C398.87 322.85 398.95 323.33 399.02 323.82C398.88 322.82 399.12 324.74 399.14 324.92C399.55 328.86 399.64 332.83 399.44 336.79C399.35 338.79 399.17 340.79 398.94 342.79C398.93 342.83 398.71 344.47 398.85 343.46C398.78 343.95 398.71 344.45 398.63 344.95C398.47 345.95 398.29 346.95 398.1 347.94C394.77 365.15 387 379.5 376.68 393.89C370.81 402.08 364.39 409.76 357.72 417.66C350.87 425.78 343.99 433.89 337.51 442.32C335.86 444.46 337.18 447.92 339.3 449.16C341.88 450.67 344.49 449.51 346.15 447.36C351.68 440.17 358.29 432.43 364.42 425.17C370.9 417.51 377.32 409.79 383.29 401.72C394.27 386.88 403.52 370.55 407.39 352.34C411.04 335.17 410.36 316.71 402.25 300.86C398.1 292.77 391.87 285.34 384.07 280.55C375.53 275.31 365.24 274.25 355.77 277.5C346.37 280.72 338.28 286.95 331.25 293.84C324.38 300.56 317.85 308.4 315.16 317.81C314.47 320.21 314.11 322.71 313.96 325.19C317.3 325.19 320.63 325.19 323.96 325.19C324.23 317.01 318.89 309.75 311.95 305.87C303.61 301.21 293.76 301.81 284.73 303.83C276.54 305.66 267.57 307.96 260.67 312.95C254.27 317.58 249.89 324.25 247.7 331.81C243.13 347.65 248.65 363.89 257.73 377C267.21 390.67 279.47 402.71 292.39 413.11C306.88 424.78 322.76 434.57 339.81 442.03C342.28 443.11 345.18 442.76 346.65 440.24C347.89 438.12 347.35 434.49 344.86 433.4L344.86 433.4" />
			<path id="path64" class="shp0" d="M350.7 539.51C353.53 547.72 357.02 555.89 361.52 563.33C365.89 570.58 371.96 575.95 380.25 578.17C383.99 579.16 387.92 579.57 391.77 579.74C395.56 579.9 399.47 580.02 403.25 579.65C408.16 579.16 412.12 577.25 415.85 574.07C418.71 571.62 421.18 568.69 423.32 565.59C428.33 558.36 431.05 549.6 431.31 540.83C431.4 537.75 428.02 534.92 424.98 536C423.87 536.4 422.73 536.73 421.56 536.96C421.35 537 421.12 537.02 420.91 537.07C420.17 537.26 421.68 537.05 420.92 537.07C420.26 537.08 419.6 537.18 418.93 537.19C418.34 537.2 417.75 537.19 417.16 537.16C416.87 537.14 415.59 537.04 416.06 537.09C416.7 537.15 415.77 537.04 415.62 537.01C415.33 536.97 415.04 536.91 414.75 536.85C414.1 536.72 413.45 536.56 412.81 536.37C412.31 536.23 411.81 536.07 411.32 535.9C411.04 535.8 410.77 535.69 410.49 535.59C409.76 535.31 411.16 535.9 410.45 535.57C409.31 535.04 408.2 534.46 407.14 533.77C406.71 533.49 406.29 533.2 405.87 532.89C405.24 532.45 406.42 533.36 405.83 532.86C405.66 532.72 405.49 532.58 405.33 532.44C404.38 531.61 403.53 530.71 402.71 529.77C402.2 529.19 403.13 530.36 402.68 529.74C402.51 529.5 402.34 529.26 402.17 529.02C401.89 528.59 401.61 528.15 401.36 527.71C400.73 526.6 400.32 525.38 399.65 524.3C397.24 520.43 392.47 519.73 388.77 522.24C386.58 523.72 384.56 525.36 381.71 526.73C380.81 527.16 381.27 526.93 381.48 526.84C381.16 526.97 380.84 527.09 380.51 527.21C379.86 527.46 379.21 527.68 378.54 527.88C377.21 528.3 375.85 528.64 374.48 528.93C373.7 529.09 372.91 529.23 372.13 529.36C371.78 529.42 371.43 529.47 371.07 529.53C370.11 529.66 372.25 529.4 370.55 529.59C368.94 529.77 367.33 529.91 365.72 530C362.5 530.19 359.27 530.23 356.05 530.25C353.44 530.26 350.93 532.53 351.05 535.25C351.17 537.94 353.25 540.26 356.05 540.25C367.72 540.19 380.5 539.83 390.62 533.24C391.13 532.91 391.63 532.56 392.12 532.19C392.6 531.83 393.08 531.46 393.55 531.09C394.33 530.48 393.99 530.73 393.82 530.87C395.21 529.75 394.11 530.8 394.06 530.61C393.89 530.04 390.99 530.42 391.13 529.54C391.08 529.86 391.85 531.05 392 531.38C393.13 533.74 394.73 535.92 396.51 537.83C400.11 541.68 404.9 544.46 409.93 545.95C415.64 547.65 422.02 547.66 427.64 545.65C425.53 544.04 423.42 542.43 421.31 540.83C421.29 541.7 421.24 542.58 421.16 543.46C421.13 543.81 421.09 544.16 421.05 544.51C421.14 543.77 421.03 544.64 421.01 544.75C420.72 546.48 420.35 548.2 419.85 549.89C419.49 551.12 418.84 552.95 418.5 553.76C418.07 554.75 417.13 556.6 416.39 557.88C414.6 560.93 413.25 562.7 410.73 565.19C410.23 565.69 409.71 566.17 409.18 566.64C408.91 566.88 408.64 567.12 408.36 567.35C408.86 566.94 407.98 567.63 407.86 567.71C407.2 568.17 406.51 568.59 405.78 568.95C404.77 569.45 405.31 569.13 405.49 569.07C404.91 569.28 404.32 569.42 403.73 569.55C400.98 570.16 396.84 569.87 393.64 569.8C390.36 569.72 387.52 569.53 384.94 569C378.53 567.69 374.37 564.89 370.9 559.48C366.36 552.43 363.05 544.68 360.34 536.85C359.46 534.3 356.91 532.61 354.19 533.36C351.71 534.04 349.81 536.95 350.7 539.51L350.7 539.51" />
			<path id="path66" class="shp0" d="M347.9 644.17C347.59 631.05 350.88 618.24 357.63 606.91C358.41 605.6 359.23 604.32 360.09 603.06C360.56 602.37 361.05 601.69 361.55 601.02C361.59 600.95 362.25 600.1 361.95 600.47C361.87 600.58 362.55 599.73 362.73 599.53C363.69 598.37 364.71 597.25 365.78 596.2C366.29 595.71 366.8 595.23 367.34 594.77C367.6 594.54 367.87 594.31 368.14 594.09C367.61 594.53 368.82 593.59 368.8 593.61C370.02 592.75 371.3 592.01 372.63 591.37C373.41 591 372.08 591.57 372.88 591.25C373.31 591.08 373.75 590.94 374.19 590.8C374.28 590.77 374.38 590.75 374.48 590.72C374.82 590.63 374.86 590.62 374.6 590.68C374.28 590.57 373.97 590.46 373.64 590.36C373.26 589.98 373.28 589.99 373.7 590.4C373.19 589.62 374.13 591.19 374.22 591.35C374.61 592.07 374.96 592.81 375.34 593.54C376.24 595.31 377.15 597.09 378.05 598.87C379.86 602.42 381.67 605.97 383.48 609.53C385.12 612.74 387.02 616.16 390.73 617.27C395.06 618.57 398.31 615.75 400.86 612.65C403.2 609.81 405.33 606.79 407.1 603.56C407.88 602.13 408.58 600.66 409.22 599.16C409.62 598.24 410.01 597.31 410.38 596.37C410.53 595.97 410.69 595.57 410.83 595.16C411.14 594.29 410.68 595.43 410.93 594.91C411.23 594.29 411.54 593.7 411.9 593.12C412.31 592.46 412.02 593.15 411.91 593.12C411.95 593.07 412 593.02 412.05 592.97C412.31 592.72 412.23 592.77 411.8 593.11C412.76 592.73 411.71 593.13 411.65 593.14C411.56 593.15 410.85 593.1 410.69 593.14C410.6 593.09 410.52 593.05 410.43 593C410.66 593.12 410.88 593.25 411.1 593.39C411.45 593.62 411.79 593.87 412.13 594.11C412.94 594.68 412.48 594.36 412.3 594.23C412.62 594.48 412.94 594.74 413.25 595C413.82 595.47 414.37 595.95 414.91 596.45C415.98 597.44 417.01 598.48 417.99 599.56C418.42 600.05 418.84 600.54 419.25 601.03C419.46 601.28 419.66 601.54 419.86 601.79C419.39 601.19 419.9 601.83 419.97 601.93C420.88 603.18 421.75 604.44 422.56 605.76C423.38 607.08 424.13 608.43 424.83 609.81C425.2 610.54 425.56 611.28 425.89 612.03C426.07 612.4 426.23 612.78 426.39 613.15C426.6 613.62 426.25 612.75 426.55 613.56C427.75 616.66 428.78 619.81 429.55 623.05C429.95 624.67 430.28 626.31 430.57 627.96C430.71 628.79 430.84 629.61 430.95 630.44C430.92 630.22 430.85 629.58 430.97 630.61C431.03 631.11 431.09 631.61 431.14 632.11C431.48 635.42 431.62 638.75 431.59 642.07C431.56 644.69 433.9 647.19 436.59 647.07C439.32 646.95 441.56 644.88 441.59 642.07C441.72 629.02 439.2 615.74 433.13 604.11C430.21 598.52 426.32 593.28 421.62 589.05C418.85 586.56 415.45 583.38 411.52 583.23C407.5 583.07 404.34 585.83 402.59 589.24C400.93 592.49 400.27 595.14 398.6 598.26C396.96 601.31 395.11 604.07 393.05 606.46C392.75 606.81 392.44 607.16 392.12 607.5C392.06 607.56 392.01 607.62 391.95 607.68C391.51 608.09 391.47 608.14 391.83 607.85C392.27 607.94 393.06 607.57 393.58 607.69C393.83 607.75 394.51 608.45 394.19 608.03C394.07 607.85 393.43 607.11 393.95 607.83C393.77 607.58 393.61 607.31 393.45 607.05C392.96 606.21 392.55 605.34 392.11 604.48C390.2 600.73 388.29 596.98 386.38 593.23C384.68 589.88 383.23 585.65 380.44 583.01C376.67 579.44 371.75 580.78 367.59 582.73C361.12 585.77 356.17 591.35 352.11 597.08C342.47 610.66 337.5 627.55 337.9 644.17C337.96 646.78 340.15 649.29 342.9 649.17C345.56 649.05 347.97 646.97 347.9 644.17L347.9 644.17" />
			<path id="path68" class="shp0" d="M346.39 650.47C369.03 647.78 391.8 645.08 414.65 645.72C421.08 645.9 427.49 646.36 433.87 647.13C436.48 647.45 438.99 644.61 438.87 642.13C438.74 639.15 436.67 637.47 433.87 637.13C411.18 634.38 388.27 635.84 365.62 638.26C359.2 638.95 352.79 639.71 346.39 640.47C343.8 640.78 341.26 642.55 341.39 645.47C341.5 647.91 343.61 650.8 346.39 650.47L346.39 650.47" />
			<path id="path70" class="shp0" d="M419.31 572.91C428.39 572.91 437.47 572.91 446.55 572.91C449.16 572.91 451.67 570.61 451.55 567.91C451.43 565.2 449.35 562.91 446.55 562.91C437.47 562.91 428.39 562.91 419.31 562.91C416.7 562.91 414.19 565.21 414.31 567.91C414.43 570.62 416.51 572.91 419.31 572.91L419.31 572.91Z" />
			<path id="path72" class="shp0" d="M338.29 576.31C348.28 576.31 358.26 576.31 368.25 576.31C370.86 576.31 373.37 574.01 373.25 571.31C373.13 568.6 371.05 566.31 368.25 566.31C358.26 566.31 348.28 566.31 338.29 566.31C335.68 566.31 333.17 568.61 333.29 571.31C333.41 574.02 335.49 576.31 338.29 576.31L338.29 576.31Z" />
			<path id="path74" class="shp0" d="M341.62 566.05C340.28 565.78 338.93 565.51 337.59 565.23C338.81 566.84 340.04 568.45 341.26 570.05C340.87 561.5 340.8 552.91 341.46 544.37C342.08 536.35 343.42 528.42 345.97 520.42C348.29 513.11 351.56 506.49 356.22 500.12C356.28 500.04 356.79 499.38 356.36 499.93C356.67 499.54 356.99 499.15 357.31 498.76C357.84 498.11 358.39 497.47 358.94 496.84C360.17 495.46 361.45 494.14 362.8 492.87C364.07 491.66 365.4 490.51 366.77 489.42C367.51 488.83 365.85 490.08 367.14 489.13C367.54 488.83 367.94 488.53 368.35 488.25C369.16 487.67 369.98 487.11 370.82 486.58C372.21 485.69 373.64 484.87 375.1 484.11C376.98 483.15 377.8 482.78 379.28 482.22C380.87 481.62 382.5 481.1 384.15 480.67C385.01 480.45 385.88 480.25 386.75 480.08C387.07 480.01 387.39 479.95 387.71 479.9C388.03 479.84 388.35 479.79 388.67 479.74C388.14 479.81 388.18 479.8 388.79 479.73C390.4 479.55 392.03 479.45 393.66 479.45C394.48 479.45 395.3 479.47 396.12 479.52C396.61 479.55 397.11 479.59 397.6 479.64C397.81 479.66 399.09 479.82 398.21 479.7C401.7 480.2 405.15 481.16 408.41 482.52C407.66 482.21 408.41 482.53 408.54 482.59C408.97 482.79 409.41 482.99 409.84 483.2C410.57 483.55 411.28 483.92 411.98 484.3C413.54 485.16 415.05 486.1 416.51 487.11C418.97 488.82 421.48 490.97 424.04 493.63C425.19 494.81 426.28 496.04 427.33 497.31C427.65 497.69 427.96 498.07 428.26 498.46C427.81 497.89 428.32 498.54 428.39 498.63C429.03 499.49 429.66 500.36 430.26 501.25C432.25 504.17 434.01 507.26 435.51 510.46C443.52 527.51 444.3 547.07 444.33 565.9C444.33 568.52 446.62 571.02 449.33 570.9C452.03 570.78 454.33 568.7 454.33 565.9C454.3 547.55 453.4 528.55 446.65 511.27C440.89 496.53 430.75 483.03 416.61 475.44C409.63 471.69 401.84 469.5 393.9 469.45C385.91 469.39 378.07 471.51 370.93 475.04C356.27 482.27 345.3 495.48 339.05 510.39C331.19 529.14 330.35 549.99 331.26 570.05C331.35 572.13 332.73 574.43 334.93 574.87C336.28 575.15 337.62 575.42 338.97 575.7C341.52 576.22 344.49 574.96 345.12 572.2C345.68 569.71 344.37 566.61 341.62 566.05L341.62 566.05" />
			<path id="path76" class="shp0" d="M654.04 536.11C656.87 544.31 660.36 552.48 664.86 559.93C669.23 567.18 675.3 572.55 683.59 574.76C687.33 575.76 691.25 576.17 695.11 576.33C698.9 576.5 702.81 576.62 706.59 576.24C711.5 575.75 715.46 573.85 719.19 570.67C722.05 568.22 724.52 565.28 726.66 562.19C731.67 554.95 734.39 546.2 734.65 537.42C734.74 534.35 731.36 531.51 728.32 532.6C727.21 533 726.07 533.33 724.9 533.55C724.69 533.59 724.46 533.61 724.25 533.67C723.51 533.85 725.02 533.65 724.26 533.66C723.6 533.67 722.94 533.77 722.27 533.79C721.68 533.8 721.09 533.79 720.5 533.75C720.21 533.74 718.92 533.63 719.4 533.68C720.04 533.74 719.11 533.64 718.96 533.61C718.67 533.56 718.38 533.51 718.09 533.45C717.44 533.31 716.79 533.15 716.15 532.97C715.65 532.83 715.15 532.67 714.66 532.49C714.38 532.39 714.11 532.29 713.83 532.18C713.1 531.91 714.5 532.5 713.79 532.17C712.65 531.64 711.54 531.05 710.48 530.37C710.05 530.09 709.63 529.79 709.2 529.49C708.58 529.04 709.75 529.96 709.17 529.46C709 529.32 708.83 529.18 708.66 529.03C707.72 528.21 706.87 527.31 706.05 526.36C705.54 525.79 706.47 526.96 706.02 526.33C705.85 526.1 705.68 525.86 705.51 525.61C705.22 525.19 704.95 524.75 704.7 524.3C704.07 523.2 703.66 521.97 702.99 520.9C700.58 517.03 695.81 516.33 692.11 518.83C689.92 520.32 687.9 521.95 685.05 523.32C684.15 523.76 684.61 523.52 684.82 523.44C684.5 523.57 684.18 523.69 683.85 523.81C683.2 524.05 682.54 524.27 681.88 524.48C680.54 524.89 679.19 525.24 677.81 525.52C677.04 525.69 676.25 525.83 675.47 525.96C675.12 526.02 674.77 526.07 674.41 526.12C673.44 526.26 675.59 526 673.89 526.19C672.28 526.36 670.67 526.5 669.05 526.6C665.84 526.79 662.61 526.83 659.39 526.84C656.77 526.85 654.27 529.13 654.39 531.84C654.51 534.54 656.59 536.85 659.39 536.84C671.06 536.78 683.84 536.43 693.96 529.83C694.47 529.5 694.97 529.15 695.46 528.79C695.94 528.43 696.42 528.06 696.89 527.69C697.67 527.07 697.33 527.33 697.16 527.47C698.55 526.35 697.45 527.4 697.4 527.21C697.23 526.64 694.33 527.02 694.47 526.13C694.42 526.46 695.19 527.64 695.34 527.97C696.47 530.34 698.07 532.52 699.85 534.42C703.45 538.27 708.24 541.05 713.27 542.55C718.98 544.24 725.36 544.25 730.98 542.24C728.87 540.63 726.76 539.03 724.65 537.42C724.63 538.3 724.58 539.18 724.5 540.05C724.47 540.4 724.43 540.75 724.39 541.1C724.48 540.37 724.37 541.24 724.35 541.34C724.06 543.08 723.69 544.79 723.19 546.48C722.83 547.71 722.18 549.54 721.84 550.35C721.41 551.35 720.47 553.2 719.73 554.47C717.94 557.52 716.59 559.29 714.07 561.79C713.57 562.28 713.05 562.77 712.52 563.24C712.25 563.48 711.98 563.71 711.7 563.94C712.2 563.54 711.32 564.22 711.2 564.3C710.54 564.76 709.85 565.18 709.12 565.54C708.11 566.05 708.65 565.73 708.83 565.67C708.25 565.87 707.66 566.02 707.07 566.15C704.32 566.75 700.18 566.47 696.98 566.4C693.7 566.32 690.86 566.12 688.28 565.59C681.87 564.28 677.71 561.49 674.24 556.08C669.7 549.03 666.38 541.27 663.68 533.45C662.8 530.9 660.25 529.21 657.53 529.95C655.05 530.64 653.15 533.54 654.04 536.11L654.04 536.11" />
			<path id="path78" class="shp0" d="M651.24 640.76C650.93 627.64 654.22 614.83 660.97 603.5C661.75 602.19 662.57 600.91 663.43 599.66C663.9 598.97 664.39 598.29 664.88 597.62C664.93 597.55 665.59 596.69 665.29 597.07C665.21 597.17 665.89 596.33 666.07 596.12C667.03 594.97 668.04 593.85 669.12 592.8C669.63 592.31 670.14 591.83 670.68 591.37C670.94 591.14 671.21 590.91 671.48 590.69C670.95 591.12 672.16 590.19 672.14 590.2C673.36 589.35 674.64 588.61 675.97 587.97C676.75 587.59 675.42 588.17 676.22 587.85C676.65 587.68 677.09 587.53 677.53 587.39C677.62 587.37 677.72 587.34 677.81 587.32C678.16 587.23 678.2 587.22 677.94 587.28C677.62 587.17 677.3 587.06 676.98 586.95C676.6 586.57 676.62 586.59 677.04 587C676.53 586.22 677.47 587.78 677.56 587.94C677.94 588.66 678.3 589.4 678.68 590.13C679.58 591.91 680.48 593.69 681.39 595.46C683.2 599.02 685.01 602.57 686.82 606.12C688.46 609.33 690.36 612.75 694.07 613.87C698.4 615.17 701.65 612.34 704.2 609.25C706.54 606.41 708.67 603.39 710.44 600.15C711.22 598.72 711.92 597.25 712.56 595.76C712.96 594.83 713.35 593.91 713.71 592.97C713.87 592.57 714.03 592.16 714.17 591.76C714.48 590.89 714.02 592.03 714.27 591.5C714.57 590.89 714.88 590.3 715.24 589.72C715.65 589.06 715.36 589.75 715.24 589.71C715.29 589.66 715.34 589.61 715.39 589.57C715.65 589.31 715.57 589.36 715.14 589.71C716.09 589.33 715.05 589.73 714.99 589.73C714.9 589.74 714.19 589.69 714.03 589.73C713.94 589.69 713.86 589.64 713.77 589.6C714 589.71 714.22 589.84 714.44 589.99C714.79 590.21 715.13 590.47 715.47 590.71C716.28 591.28 715.82 590.96 715.64 590.82C715.96 591.07 716.28 591.33 716.59 591.6C717.16 592.07 717.71 592.55 718.25 593.05C719.32 594.03 720.35 595.07 721.32 596.16C721.76 596.64 722.18 597.13 722.59 597.63C722.8 597.88 723 598.13 723.2 598.39C722.73 597.79 723.24 598.43 723.31 598.53C724.22 599.77 725.09 601.04 725.9 602.35C726.71 603.67 727.47 605.03 728.17 606.41C728.54 607.14 728.89 607.88 729.23 608.62C729.41 609 729.57 609.37 729.73 609.75C729.94 610.22 729.58 609.35 729.89 610.15C731.09 613.26 732.11 616.41 732.89 619.64C733.28 621.27 733.62 622.91 733.91 624.56C734.05 625.38 734.18 626.21 734.29 627.04C734.26 626.82 734.19 626.18 734.31 627.2C734.37 627.7 734.43 628.2 734.48 628.7C734.82 632.01 734.96 635.34 734.92 638.67C734.9 641.29 737.24 643.79 739.92 643.67C742.66 643.55 744.89 641.47 744.92 638.67C745.06 625.62 742.54 612.33 736.47 600.71C733.55 595.11 729.66 589.87 724.96 585.65C722.19 583.16 718.78 579.97 714.86 579.82C710.84 579.67 707.68 582.43 705.93 585.84C704.27 589.08 703.61 591.74 701.94 594.85C700.3 597.9 698.45 600.66 696.39 603.05C696.08 603.41 695.78 603.76 695.46 604.1C695.4 604.16 695.35 604.22 695.29 604.28C694.85 604.68 694.81 604.74 695.17 604.45C695.61 604.53 696.4 604.17 696.92 604.29C697.17 604.35 697.85 605.05 697.53 604.62C697.41 604.45 696.77 603.71 697.29 604.42C697.11 604.17 696.94 603.9 696.79 603.64C696.3 602.81 695.89 601.93 695.45 601.07C693.54 597.32 691.63 593.57 689.72 589.82C688.02 586.47 686.57 582.24 683.78 579.61C680.01 576.04 675.09 577.37 670.92 579.33C664.46 582.37 659.51 587.95 655.45 593.67C645.81 607.25 640.84 624.14 641.24 640.76C641.3 643.37 643.49 645.89 646.24 645.76C648.89 645.64 651.31 643.56 651.24 640.76L651.24 640.76" />
			<path id="path80" class="shp0" d="M649.73 647.07C672.37 644.37 695.14 641.67 717.99 642.31C724.42 642.5 730.83 642.95 737.21 643.73C739.82 644.04 742.32 641.2 742.21 638.73C742.08 635.75 740.01 634.07 737.21 633.73C714.52 630.98 691.61 632.44 668.96 634.86C662.54 635.54 656.13 636.3 649.73 637.07C647.14 637.37 644.59 639.14 644.73 642.07C644.84 644.51 646.95 647.4 649.73 647.07L649.73 647.07" />
			<path id="path82" class="shp0" d="M722.65 569.5C731.73 569.5 740.81 569.5 749.89 569.5C752.5 569.5 755.01 567.2 754.89 564.5C754.76 561.79 752.69 559.5 749.89 559.5C740.81 559.5 731.73 559.5 722.65 559.5C720.04 559.5 717.53 561.8 717.65 564.5C717.77 567.21 719.85 569.5 722.65 569.5L722.65 569.5Z" />
			<path id="path84" class="shp0" d="M641.63 572.91C651.62 572.91 661.6 572.91 671.59 572.91C674.2 572.91 676.71 570.61 676.59 567.91C676.47 565.2 674.39 562.91 671.59 562.91C661.6 562.91 651.62 562.91 641.63 562.91C639.02 562.91 636.51 565.21 636.63 567.91C636.75 570.62 638.83 572.91 641.63 572.91L641.63 572.91Z" />
			<path id="path86" class="shp0" d="M644.96 562.65C643.62 562.38 642.27 562.1 640.93 561.83C642.15 563.44 643.37 565.04 644.6 566.65C644.21 558.09 644.13 549.51 644.8 540.96C645.42 532.95 646.75 525.02 649.31 517.01C651.63 509.71 654.9 503.08 659.56 496.72C659.62 496.64 660.13 495.97 659.7 496.53C660.01 496.13 660.33 495.74 660.65 495.35C661.18 494.7 661.73 494.07 662.28 493.44C663.51 492.06 664.79 490.73 666.14 489.47C667.41 488.26 668.74 487.11 670.11 486.01C670.85 485.42 669.19 486.68 670.48 485.72C670.88 485.43 671.28 485.13 671.69 484.84C672.5 484.27 673.32 483.71 674.16 483.18C675.55 482.29 676.98 481.47 678.44 480.71C680.32 479.74 681.14 479.38 682.62 478.82C684.21 478.21 685.84 477.69 687.49 477.27C688.35 477.04 689.22 476.84 690.09 476.67C690.41 476.61 690.73 476.55 691.05 476.5C691.37 476.44 691.69 476.39 692.01 476.34C691.48 476.4 691.52 476.4 692.13 476.33C693.74 476.15 695.37 476.04 697 476.04C697.82 476.04 698.64 476.07 699.46 476.12C699.95 476.15 700.45 476.19 700.94 476.24C701.15 476.26 702.43 476.42 701.55 476.29C705.04 476.79 708.49 477.75 711.75 479.11C711 478.8 711.75 479.12 711.88 479.18C712.31 479.39 712.75 479.58 713.18 479.79C713.91 480.14 714.62 480.51 715.32 480.9C716.88 481.75 718.39 482.69 719.85 483.71C722.31 485.41 724.81 487.57 727.38 490.22C728.53 491.41 729.62 492.63 730.67 493.9C730.99 494.28 731.3 494.67 731.6 495.06C731.15 494.48 731.66 495.14 731.73 495.22C732.37 496.09 733 496.95 733.6 497.84C735.59 500.77 737.35 503.85 738.85 507.06C746.86 524.11 747.63 543.67 747.67 562.5C747.67 565.11 749.96 567.62 752.67 567.5C755.37 567.37 757.67 565.3 757.67 562.5C757.64 544.15 756.74 525.15 749.99 507.87C744.22 493.12 734.09 479.63 719.95 472.03C712.97 468.29 705.18 466.1 697.24 466.04C689.25 465.99 681.41 468.11 674.27 471.63C659.61 478.86 648.64 492.08 642.39 506.98C634.53 525.74 633.69 546.59 634.6 566.65C634.69 568.73 636.07 571.02 638.27 571.47C639.61 571.75 640.96 572.02 642.31 572.29C644.86 572.81 647.83 571.56 648.46 568.8C649.02 566.31 647.7 563.21 644.96 562.65L644.96 562.65" />
			<path id="path88" class="shp0" d="M534.08 520.69C528.42 518.02 522.76 515.35 517.09 512.68C514.36 511.4 510.48 512.27 509.75 515.67C508.19 522.96 507.3 531.08 513.03 536.87C515.68 539.55 518.88 540.51 522.56 540.67C523.13 540.7 522.97 540.95 522.52 540.68C522.28 540.53 520.2 538.75 520.46 538.37C520.23 538.72 520.55 539.94 520.59 540.38C520.77 542.14 521.03 543.91 521.45 545.64C524.59 558.4 534.76 568.17 546.89 572.56C553.02 574.79 559.81 575.61 566.31 575.19C573.13 574.74 580.46 573.35 585.1 567.87C588.98 563.28 590.47 557.46 591.35 551.64C591.54 550.37 591.71 549.09 591.89 547.82C591.99 547.12 592.08 546.42 592.19 545.72C592.31 544.95 592.71 544.51 591.68 545.67C591.46 546.17 591.1 546.46 590.61 546.54C590.75 546.5 590.88 546.45 591.01 546.4C594.06 545.24 596.5 543.69 598.5 541.08C602.3 536.11 603.37 529.13 603.4 523.01C603.42 520.41 602.51 517.9 600.16 516.54C598.07 515.32 595.65 515.61 593.44 516.31C589.45 517.57 585.91 519.67 582.78 522.44C580.76 524.23 580.96 527.68 582.78 529.51C584.79 531.52 587.83 531.31 589.85 529.51C590.75 528.72 591.29 528.31 592.57 527.55C593.88 526.78 594.5 526.49 595.58 526.12C596.15 525.92 597.05 525.84 597.56 525.55C596.87 525.94 593.73 521.68 593.4 522.78C593.33 523.04 593.39 523.38 593.38 523.66C593.33 524.77 593.25 525.88 593.14 526.99C593.11 527.29 593.08 527.59 593.04 527.89C593.06 527.69 593.19 526.93 593.03 527.91C592.94 528.43 592.85 528.95 592.74 529.46C592.51 530.55 592.23 531.62 591.86 532.66C591.76 532.93 591.67 533.2 591.55 533.46C591.64 533.26 591.99 532.65 591.54 533.43C591.3 533.84 591.07 534.27 590.83 534.69C590.75 534.82 590.26 535.54 590.64 535.02C590.99 534.54 590.6 535.07 590.53 535.14C590.34 535.33 590.17 535.54 589.98 535.73C589.88 535.82 589.03 536.53 589.58 536.12C589.99 535.8 588.95 536.47 588.72 536.61C588.53 536.72 587.86 536.96 588.76 536.62C588.56 536.69 588.35 536.76 588.15 536.83C586.25 537.53 584.48 538.48 583.47 540.34C582.19 542.66 582.19 545.68 581.81 548.26C581.47 550.63 581.07 553.01 580.44 555.32C580.29 555.85 580.14 556.37 579.97 556.88C579.9 557.08 579.26 558.72 579.65 557.83C579.2 558.86 578.64 559.8 578.04 560.75C577.64 561.4 578.52 560.22 578.03 560.8C577.88 560.97 577.74 561.14 577.59 561.3C577.19 561.74 576.75 562.15 576.3 562.54C576.94 561.99 575.75 562.89 575.49 563.04C575.25 563.18 575 563.32 574.75 563.45C573.31 564.21 575 563.4 574.13 563.72C572.8 564.22 571.39 564.53 569.99 564.78C569.71 564.83 569.43 564.87 569.15 564.91C568.22 565.06 569.73 564.85 568.82 564.96C568.08 565.05 567.34 565.11 566.59 565.17C560.73 565.58 556.05 565.09 550.59 563.28C546 561.77 541.79 559.2 538.43 555.82C535.17 552.54 532.77 548.68 531.49 544.42C531.3 543.79 531.13 543.14 530.98 542.49C530.91 542.17 530.84 541.84 530.78 541.52C530.75 541.41 530.55 540.15 530.63 540.7C530.7 541.22 530.6 540.4 530.59 540.38C530.56 539.96 530.52 539.55 530.5 539.13C530.44 538.11 530.41 537.04 530.14 536.05C529.49 533.7 527.69 531.84 525.37 531.11C524.54 530.85 523.65 530.75 522.78 530.69C522.48 530.67 522.18 530.66 521.88 530.65C521.6 530.64 520.77 530.43 521.62 530.66C521.4 530.6 521.18 530.55 520.96 530.48C520.63 530.36 520.67 530.38 521.11 530.54C520.98 530.46 520.84 530.39 520.71 530.31C520.59 530.21 519.98 529.73 520.61 530.28C520.37 530.07 520.16 529.85 519.93 529.63C519.28 529.01 519.67 529.33 519.82 529.54C519.59 529.22 519.38 528.87 519.19 528.53C519.08 528.32 518.97 528.11 518.87 527.89C519.21 528.66 518.84 527.69 518.79 527.52C517.94 524.61 518.72 521.45 519.39 518.33C516.94 519.33 514.5 520.32 512.05 521.32C517.71 523.99 523.37 526.65 529.03 529.32C531.48 530.47 534.43 530 535.88 527.53C537.15 525.36 536.54 521.85 534.08 520.69L534.08 520.69" />
			<path id="path90" class="shp0" d="M525.55 517.47C525.56 517.39 525.76 515.8 525.6 516.87C525.65 516.55 525.7 516.23 525.76 515.91C525.9 515.12 526.07 514.33 526.26 513.55C526.69 511.83 527.23 510.12 527.93 508.49C527.61 509.23 527.94 508.47 528 508.35C528.22 507.92 528.41 507.47 528.63 507.04C529 506.32 529.39 505.61 529.8 504.92C530.21 504.22 530.64 503.53 531.09 502.87C531.28 502.6 531.46 502.33 531.65 502.07C531.73 501.96 532.55 500.88 532.04 501.53C533.04 500.26 534.13 499.06 535.29 497.93C535.87 497.37 536.46 496.82 537.08 496.29C537.44 495.98 537.82 495.67 538.2 495.37C537.55 495.88 538.63 495.07 538.74 494.99C540.05 494.05 541.43 493.21 542.86 492.46C543.58 492.08 544.3 491.73 545.04 491.41C544.84 491.5 544.27 491.69 545.2 491.36C545.83 491.13 546.45 490.89 547.09 490.69C554.78 488.19 563 488.11 571.23 488.38C573.01 488.43 574.13 488.56 575.87 489.21C574.85 488.83 576.14 489.36 576.28 489.44C576.53 489.58 576.78 489.72 577.03 489.88C577.15 489.95 578.27 490.8 577.41 490.1C577.75 490.37 578.07 490.66 578.38 490.96C578.91 491.47 579.4 492.01 579.85 492.58C579.29 491.88 579.77 492.48 579.86 492.63C580.11 493.01 580.37 493.38 580.6 493.76C581 494.41 581.36 495.08 581.7 495.76C581.83 496.03 581.96 496.31 582.09 496.59C582.33 497.13 582.35 497.16 582.14 496.68C582.23 496.9 582.32 497.11 582.4 497.33C585.51 505.46 586.23 514.33 586.51 522.93C586.59 525.54 588.75 528.05 591.51 527.93C594.14 527.81 596.6 525.73 596.51 522.93C596.34 517.78 595.84 512.66 595.08 507.57C594.49 503.58 593.77 499.59 592.44 495.77C589.82 488.22 584.83 480.75 576.5 478.97C571.73 477.95 566.56 478.26 561.71 478.43C556.81 478.61 551.83 479.08 547.07 480.29C539.2 482.27 531.98 486.59 526.53 492.61C520.25 499.56 516.45 508.16 515.55 517.47C515.3 520.08 518.03 522.58 520.55 522.47C523.48 522.34 525.28 520.27 525.55 517.47L525.55 517.47" />
			<path id="path92" class="shp0" d="M535.55 526.93C536.04 525.9 536.53 524.87 537.09 523.87C537.33 523.44 537.58 523.01 537.85 522.6C537.95 522.43 539.05 521 538.49 521.65C538.8 521.29 539.14 520.97 539.46 520.62C540.2 519.82 538.97 520.77 539.92 520.26C540.19 520.09 540.46 519.94 540.74 519.8C540.33 519.96 540.31 519.98 540.7 519.85C541.5 519.6 541.24 519.61 541.9 519.61C544.09 519.62 546.18 520.36 548.64 521.07C551.46 521.88 554.33 522.39 557.25 522.64C562.68 523.09 568.36 522.35 573.5 520.53C574 520.35 574.5 520.14 575.01 519.98C575.34 519.87 575.67 519.77 576.01 519.69C575.51 519.7 575.56 519.7 576.15 519.68C575.76 519.57 575.37 519.45 574.98 519.34C574.15 518.35 573.97 518.21 574.42 518.92C574.45 519.29 574.63 519.37 574.82 519.82C576.02 522.67 577.21 525.53 578.41 528.39C579.45 530.88 581.72 532.66 584.56 531.88C586.91 531.24 589.1 528.24 588.05 525.73C586.69 522.47 585.32 519.2 583.95 515.93C582.42 512.28 579.96 509.57 575.67 509.7C572.45 509.79 569.39 511.52 566.27 512.18C563.73 512.71 560.81 512.88 557.84 512.68C552.04 512.29 545.57 508.7 539.16 509.93C532.97 511.12 529.41 516.6 526.92 521.89C525.76 524.33 526.24 527.28 528.71 528.73C530.88 530 534.39 529.39 535.55 526.93L535.55 526.93" />
			<path id="path94" class="shp0" d="M529.51 580.35C519.35 581.29 510.3 586.54 503.72 594.26C496.57 602.67 492.61 613.01 490.43 623.73C489.12 630.2 488.35 636.78 487.59 643.33C487.28 646.03 490.14 648.33 492.59 648.33C526.97 648.4 561.34 648.47 595.72 648.55C605.48 648.57 615.23 648.59 624.99 648.61C627.58 648.61 630.15 646.31 629.99 643.61C629.05 627.86 623.62 612.4 614.25 599.68C609.53 593.29 603.95 586.97 597.25 582.59C593.45 580.11 588.77 578.57 584.25 579.72C579.78 580.86 576.65 584.71 573.85 588.12C567.54 595.81 562.65 604.35 559.16 613.67C562.37 613.67 565.59 613.67 568.8 613.67C568.31 610.17 567.81 606.68 567.31 603.18C567.06 601.43 566.81 599.68 566.56 597.94C566.45 597.2 566.44 597.35 566.4 596.35C566.38 595.97 566.38 595.59 566.4 595.22C566.36 595.53 566.37 595.51 566.46 595.17C566.59 594.74 566.55 594.81 566.33 595.36C566.45 595.12 566.58 594.89 566.72 594.66C567.04 594.2 567.02 594.21 566.66 594.69C566.84 594.48 567.02 594.27 567.2 594.07C567.95 593.25 568.78 592.51 569.54 591.69C571.68 589.41 573.05 586.94 573.24 583.78C573.37 581.52 571.58 579.62 569.57 578.96C563.43 576.93 556.93 576.48 550.56 577.49C547.24 578.01 544.3 579.9 543.57 583.37C542.85 586.77 544.77 589.72 546.93 592.15C547.31 592.58 547.71 592.98 548.11 593.39C548.25 593.54 549.27 594.74 548.7 593.97C549.01 594.4 549.29 594.85 549.53 595.32C549.64 595.51 549.74 595.71 549.84 595.91C549.63 595.4 549.63 595.41 549.83 595.96C550 596.53 550.15 597.11 550.31 597.68C550.59 598.7 550.32 596.97 550.39 598.14C550.46 599.24 550.48 600.32 550.4 601.41C550.38 601.73 550.35 602.05 550.31 602.37C550.39 601.84 550.38 601.88 550.29 602.48C550.2 602.97 550.12 603.45 550.01 603.94C549.77 605.08 549.47 606.21 549.12 607.33C548.37 609.77 547.48 611.95 546.76 613.57C549.64 613.57 552.52 613.57 555.39 613.57C548.44 603.4 541.48 593.22 534.53 583.05C533.01 580.82 530.14 579.82 527.69 581.26C525.48 582.55 524.36 585.86 525.89 588.1C532.85 598.27 539.81 608.45 546.76 618.62C548.65 621.39 553.74 622.33 555.39 618.62C559.16 610.21 562.68 600.24 558.65 591.27C557.71 589.17 556.25 587.46 554.68 585.81C554.33 585.45 553.99 585.08 553.66 584.7C554.18 585.31 553.39 584.27 553.3 584.13C553.02 583.6 553.01 583.6 553.29 584.14C553.53 584.94 553.4 585.65 552.92 586.25C552.7 586.84 552.27 587.24 551.64 587.44C551.96 587.35 552.29 587.28 552.61 587.23C557.16 586.37 562.3 587.07 566.91 588.6C565.69 586.99 564.46 585.39 563.24 583.78C563.26 583.41 563.43 583 563.25 583.59C563.06 584.21 563.14 583.7 563.34 583.45C563.2 583.62 563.04 583.9 562.95 584.1C563.1 583.76 563.41 583.58 563.01 584.02C562.26 584.84 561.48 585.61 560.71 586.4C558.34 588.83 556.7 591.49 556.43 594.94C556.15 598.4 557.13 602.09 557.62 605.51C558.13 609.12 558.65 612.72 559.16 616.33C559.45 618.39 562 620.09 563.98 620C566.33 619.89 568 618.48 568.8 616.33C571.2 609.93 574.9 603.19 579.23 597.35C580.09 596.18 581.08 594.97 582.22 593.65C583.32 592.38 584.95 590.59 585.89 589.83C585.91 589.81 586.73 589.33 586.17 589.59C586.47 589.45 586.84 589.37 587.16 589.3C586.22 589.51 587.72 589.32 587.83 589.32C588.01 589.32 588.74 589.5 588.02 589.33C589.79 589.73 590.52 590.13 592.2 591.23C594.53 592.74 597.11 595.19 599.42 597.55C600.58 598.74 601.71 599.96 602.79 601.22C603.31 601.82 603.81 602.43 604.31 603.04C605.1 604.02 604.92 603.79 605.61 604.73C607.64 607.48 609.48 610.37 611.13 613.36C611.94 614.81 612.7 616.3 613.41 617.8C613.74 618.51 614.07 619.23 614.38 619.96C614.78 620.86 613.96 618.89 614.59 620.46C614.79 620.94 614.99 621.43 615.18 621.92C617.97 629.18 619.57 636.55 619.99 643.61C621.66 641.94 623.33 640.27 624.99 638.61C590.62 638.54 556.24 638.47 521.87 638.39C512.11 638.37 502.35 638.35 492.59 638.33C494.26 640 495.93 641.67 497.59 643.33C498.73 633.51 499.96 623.48 503.59 613.87C504.31 611.95 505.14 610.11 506.24 608.11C507.27 606.21 508.44 604.4 509.71 602.67C510.05 602.21 509.75 602.6 509.69 602.69C509.89 602.42 510.1 602.16 510.31 601.91C510.63 601.52 510.95 601.14 511.28 600.77C511.99 599.96 512.73 599.18 513.5 598.43C514.27 597.68 515.07 596.96 515.89 596.28C516.05 596.15 517 595.42 516.42 595.85C516.88 595.51 517.35 595.18 517.82 594.86C518.83 594.18 519.88 593.55 520.95 592.98C521.45 592.72 521.96 592.47 522.47 592.23C522.69 592.13 522.91 592.03 523.14 591.93C522.64 592.14 522.99 592 523.29 591.89C524.35 591.52 525.41 591.16 526.51 590.88C527.14 590.73 527.78 590.6 528.41 590.48C528.45 590.47 529.24 590.35 528.71 590.42C528.16 590.5 529.54 590.34 529.51 590.35C532.11 590.11 534.64 588.22 534.51 585.35C534.4 582.84 532.3 580.09 529.51 580.35L529.51 580.35" />
			<path id="path96" class="shp0" d="M789.91 520.69C784.25 518.02 778.58 515.35 772.92 512.68C770.19 511.4 766.3 512.27 765.57 515.67C764.01 522.96 763.13 531.08 768.85 536.87C771.5 539.55 774.71 540.51 778.38 540.67C778.95 540.7 778.8 540.95 778.35 540.68C778.1 540.53 776.03 538.75 776.28 538.37C776.05 538.72 776.37 539.94 776.42 540.38C776.6 542.14 776.85 543.91 777.28 545.64C780.42 558.4 790.59 568.17 802.71 572.56C808.85 574.79 815.64 575.61 822.14 575.19C828.95 574.74 836.28 573.35 840.92 567.87C844.81 563.28 846.29 557.46 847.17 551.64C847.37 550.37 847.54 549.09 847.71 547.82C847.81 547.12 847.91 546.42 848.02 545.72C848.14 544.95 848.54 544.51 847.51 545.67C847.29 546.17 846.93 546.46 846.43 546.54C846.57 546.5 846.7 546.45 846.84 546.4C849.88 545.24 852.33 543.69 854.32 541.08C858.13 536.11 859.19 529.13 859.23 523.01C859.24 520.41 858.33 517.9 855.99 516.54C853.89 515.32 851.47 515.61 849.27 516.31C845.27 517.57 841.74 519.67 838.61 522.44C836.59 524.23 836.78 527.68 838.61 529.51C840.62 531.52 843.65 531.31 845.68 529.51C846.57 528.72 847.11 528.31 848.4 527.55C849.71 526.78 850.32 526.49 851.41 526.12C851.98 525.92 852.87 525.84 853.39 525.55C852.7 525.94 849.55 521.68 849.23 522.78C849.15 523.04 849.21 523.38 849.2 523.66C849.16 524.77 849.08 525.88 848.97 526.99C848.93 527.29 848.9 527.59 848.86 527.89C848.89 527.69 849.02 526.93 848.85 527.91C848.76 528.43 848.67 528.95 848.57 529.46C848.34 530.55 848.06 531.62 847.69 532.66C847.59 532.93 847.49 533.2 847.38 533.46C847.47 533.26 847.81 532.65 847.36 533.43C847.12 533.84 846.9 534.27 846.65 534.69C846.58 534.82 846.09 535.54 846.47 535.02C846.81 534.54 846.42 535.07 846.35 535.14C846.17 535.33 846 535.54 845.81 535.73C845.71 535.82 844.86 536.53 845.4 536.12C845.81 535.8 844.77 536.47 844.54 536.61C844.36 536.72 843.69 536.96 844.58 536.62C844.38 536.69 844.18 536.76 843.98 536.83C842.07 537.53 840.3 538.48 839.29 540.34C838.02 542.66 838.01 545.68 837.64 548.26C837.29 550.63 836.9 553.01 836.26 555.32C836.12 555.85 835.96 556.37 835.79 556.88C835.73 557.08 835.09 558.72 835.48 557.83C835.03 558.86 834.46 559.8 833.87 560.75C833.46 561.4 834.34 560.22 833.85 560.8C833.71 560.97 833.57 561.14 833.42 561.3C833.01 561.74 832.58 562.15 832.13 562.54C832.76 561.99 831.57 562.89 831.32 563.04C831.08 563.18 830.83 563.32 830.58 563.45C829.14 564.21 830.82 563.4 829.95 563.72C828.62 564.22 827.22 564.53 825.82 564.78C825.54 564.83 825.26 564.87 824.97 564.91C824.05 565.06 825.56 564.85 824.64 564.96C823.9 565.05 823.16 565.11 822.42 565.17C816.55 565.58 811.87 565.09 806.42 563.28C801.83 561.77 797.62 559.2 794.25 555.82C790.99 552.54 788.6 548.68 787.31 544.42C787.12 543.79 786.95 543.14 786.81 542.49C786.73 542.17 786.66 541.84 786.6 541.52C786.58 541.41 786.37 540.15 786.45 540.7C786.53 541.22 786.42 540.4 786.42 540.38C786.38 539.96 786.35 539.55 786.32 539.13C786.26 538.11 786.24 537.04 785.96 536.05C785.32 533.7 783.52 531.84 781.2 531.11C780.36 530.85 779.48 530.75 778.61 530.69C778.31 530.67 778 530.66 777.7 530.65C777.43 530.64 776.59 530.43 777.45 530.66C777.23 530.6 777.01 530.55 776.79 530.48C776.45 530.36 776.5 530.38 776.93 530.54C776.8 530.46 776.67 530.39 776.53 530.31C776.42 530.21 775.8 529.73 776.43 530.28C776.19 530.07 775.98 529.85 775.76 529.63C775.11 529.01 775.5 529.33 775.65 529.54C775.41 529.22 775.21 528.87 775.02 528.53C774.91 528.32 774.79 528.11 774.69 527.89C775.04 528.66 774.66 527.69 774.61 527.52C773.77 524.61 774.55 521.45 775.22 518.33C772.77 519.33 770.32 520.32 767.87 521.32C773.53 523.99 779.2 526.65 784.86 529.32C787.3 530.47 790.25 530 791.7 527.53C792.97 525.36 792.36 521.85 789.91 520.69L789.91 520.69" />
			<path id="path98" class="shp0" d="M781.38 517.47C781.39 517.39 781.58 515.8 781.43 516.87C781.47 516.55 781.53 516.23 781.58 515.91C781.72 515.12 781.89 514.33 782.09 513.55C782.51 511.83 783.06 510.12 783.75 508.49C783.44 509.23 783.77 508.47 783.83 508.35C784.04 507.92 784.24 507.47 784.46 507.04C784.82 506.32 785.21 505.61 785.62 504.92C786.03 504.22 786.47 503.53 786.92 502.87C787.1 502.6 787.29 502.33 787.48 502.07C787.55 501.96 788.37 500.88 787.86 501.53C788.86 500.26 789.96 499.06 791.11 497.93C791.69 497.37 792.29 496.82 792.9 496.29C793.27 495.98 793.64 495.67 794.02 495.37C793.37 495.88 794.45 495.07 794.56 494.99C795.88 494.05 797.25 493.21 798.69 492.46C799.4 492.08 800.13 491.73 800.87 491.41C800.66 491.5 800.09 491.69 801.02 491.36C801.65 491.13 802.28 490.89 802.92 490.69C810.61 488.19 818.83 488.11 827.05 488.38C828.83 488.43 829.96 488.56 831.7 489.21C830.67 488.83 831.96 489.36 832.1 489.44C832.35 489.58 832.6 489.72 832.85 489.88C832.98 489.95 834.1 490.8 833.24 490.1C833.57 490.37 833.9 490.66 834.21 490.96C834.73 491.47 835.22 492.01 835.67 492.58C835.12 491.88 835.59 492.48 835.69 492.63C835.93 493.01 836.19 493.38 836.42 493.76C836.82 494.41 837.19 495.08 837.52 495.76C837.66 496.03 837.79 496.31 837.92 496.59C838.16 497.13 838.17 497.16 837.97 496.68C838.06 496.9 838.14 497.11 838.22 497.33C841.33 505.46 842.05 514.33 842.33 522.93C842.42 525.54 844.57 528.05 847.33 527.93C849.97 527.81 852.42 525.73 852.33 522.93C852.16 517.78 851.66 512.66 850.9 507.57C850.31 503.58 849.59 499.59 848.27 495.77C845.65 488.22 840.66 480.75 832.33 478.97C827.55 477.95 822.39 478.26 817.54 478.43C812.63 478.61 807.66 479.08 802.89 480.29C795.03 482.27 787.8 486.59 782.36 492.61C776.08 499.56 772.28 508.16 771.38 517.47C771.13 520.08 773.86 522.58 776.38 522.47C779.3 522.34 781.11 520.27 781.38 517.47L781.38 517.47" />
			<path id="path100" class="shp0" d="M791.37 526.93C791.86 525.9 792.36 524.87 792.92 523.87C793.16 523.44 793.41 523.01 793.67 522.6C793.78 522.43 794.88 521 794.31 521.65C794.62 521.29 794.97 520.97 795.29 520.62C796.02 519.82 794.8 520.77 795.75 520.26C796.01 520.09 796.28 519.94 796.56 519.8C796.15 519.96 796.14 519.98 796.52 519.85C797.33 519.6 797.07 519.61 797.73 519.61C799.92 519.62 802.01 520.36 804.47 521.07C807.28 521.88 810.16 522.39 813.08 522.64C818.51 523.09 824.19 522.35 829.32 520.53C829.83 520.35 830.33 520.14 830.84 519.98C831.16 519.87 831.5 519.77 831.83 519.69C831.33 519.7 831.38 519.7 831.98 519.68C831.59 519.57 831.19 519.45 830.8 519.34C829.98 518.35 829.79 518.21 830.25 518.92C830.27 519.29 830.46 519.37 830.65 519.82C831.84 522.67 833.04 525.53 834.23 528.39C835.27 530.88 837.54 532.66 840.38 531.88C842.73 531.24 844.93 528.24 843.88 525.73C842.51 522.47 841.15 519.2 839.78 515.93C838.24 512.28 835.79 509.57 831.49 509.7C828.28 509.79 825.22 511.52 822.09 512.18C819.56 512.71 816.64 512.88 813.67 512.68C807.86 512.29 801.39 508.7 794.98 509.93C788.8 511.12 785.24 516.6 782.74 521.89C781.59 524.33 782.06 527.28 784.53 528.73C786.71 530 790.21 529.39 791.37 526.93L791.37 526.93" />
			<path id="path102" class="shp0" d="M785.33 580.35C775.17 581.29 766.12 586.54 759.54 594.26C752.39 602.67 748.43 613.01 746.26 623.73C744.94 630.2 744.18 636.78 743.42 643.33C743.11 646.03 745.96 648.33 748.42 648.33C782.79 648.4 817.17 648.47 851.54 648.55C861.3 648.57 871.06 648.59 880.82 648.61C883.4 648.61 885.98 646.31 885.82 643.61C884.87 627.86 879.45 612.4 870.07 599.68C865.36 593.29 859.77 586.97 853.07 582.59C849.27 580.11 844.6 578.57 840.08 579.72C835.6 580.86 832.48 584.71 829.68 588.12C823.36 595.81 818.47 604.35 814.99 613.67C818.2 613.67 821.41 613.67 824.63 613.67C824.13 610.17 823.63 606.68 823.13 603.18C822.88 601.43 822.63 599.68 822.38 597.94C822.28 597.2 822.26 597.35 822.22 596.35C822.2 595.97 822.2 595.59 822.23 595.22C822.18 595.53 822.2 595.51 822.28 595.17C822.41 594.74 822.37 594.81 822.16 595.36C822.27 595.12 822.41 594.89 822.55 594.66C822.87 594.2 822.85 594.21 822.49 594.69C822.66 594.48 822.84 594.27 823.03 594.07C823.78 593.25 824.6 592.51 825.36 591.69C827.5 589.41 828.87 586.94 829.06 583.78C829.2 581.52 827.4 579.62 825.39 578.96C819.26 576.93 812.75 576.48 806.39 577.49C803.06 578.01 800.12 579.9 799.39 583.37C798.68 586.77 800.59 589.72 802.75 592.15C803.13 592.58 803.53 592.98 803.93 593.39C804.07 593.54 805.09 594.74 804.52 593.97C804.84 594.4 805.11 594.85 805.36 595.32C805.47 595.51 805.57 595.71 805.66 595.91C805.46 595.4 805.45 595.41 805.66 595.96C805.82 596.53 805.97 597.11 806.13 597.68C806.42 598.7 806.14 596.97 806.21 598.14C806.28 599.24 806.31 600.32 806.23 601.41C806.2 601.73 806.17 602.05 806.14 602.37C806.22 601.84 806.21 601.88 806.12 602.48C806.03 602.97 805.94 603.45 805.84 603.94C805.6 605.08 805.29 606.21 804.95 607.33C804.2 609.77 803.31 611.95 802.59 613.57C805.46 613.57 808.34 613.57 811.22 613.57C804.26 603.4 797.31 593.22 790.35 583.05C788.83 580.82 785.96 579.82 783.51 581.26C781.31 582.55 780.19 585.86 781.72 588.1C788.67 598.27 795.63 608.45 802.59 618.62C804.48 621.39 809.56 622.33 811.22 618.62C814.98 610.21 818.51 600.24 814.48 591.27C813.54 589.17 812.08 587.46 810.5 585.81C810.16 585.45 809.81 585.08 809.49 584.7C810.01 585.31 809.22 584.27 809.12 584.13C808.84 583.6 808.84 583.6 809.12 584.14C809.35 584.94 809.23 585.65 808.75 586.25C808.52 586.84 808.1 587.24 807.47 587.44C807.79 587.35 808.11 587.28 808.44 587.23C812.99 586.37 818.12 587.07 822.73 588.6C821.51 586.99 820.29 585.39 819.06 583.78C819.09 583.41 819.26 583 819.08 583.59C818.89 584.21 818.97 583.7 819.16 583.45C819.03 583.62 818.86 583.9 818.77 584.1C818.93 583.76 819.23 583.58 818.83 584.02C818.09 584.84 817.3 585.61 816.53 586.4C814.16 588.83 812.53 591.49 812.25 594.94C811.98 598.4 812.96 602.09 813.44 605.51C813.96 609.12 814.47 612.72 814.99 616.33C815.28 618.39 817.83 620.09 819.81 620C822.15 619.89 823.82 618.48 824.63 616.33C827.02 609.93 830.73 603.19 835.05 597.35C835.92 596.18 836.91 594.97 838.05 593.65C839.14 592.38 840.78 590.59 841.71 589.83C841.74 589.81 842.56 589.33 842 589.59C842.29 589.45 842.66 589.37 842.98 589.3C842.04 589.51 843.54 589.32 843.65 589.32C843.83 589.32 844.56 589.5 843.84 589.33C845.62 589.73 846.35 590.13 848.03 591.23C850.35 592.74 852.93 595.19 855.24 597.55C856.41 598.74 857.53 599.96 858.62 601.22C859.13 601.82 859.64 602.43 860.13 603.04C860.92 604.02 860.74 603.79 861.43 604.73C863.46 607.48 865.31 610.37 866.96 613.36C867.76 614.81 868.52 616.3 869.23 617.8C869.57 618.51 869.89 619.23 870.21 619.96C870.6 620.86 869.79 618.89 870.42 620.46C870.62 620.94 870.81 621.43 871 621.92C873.79 629.18 875.39 636.55 875.82 643.61C877.48 641.94 879.15 640.27 880.82 638.61C846.44 638.54 812.07 638.47 777.69 638.39C767.93 638.37 758.18 638.35 748.42 638.33C750.09 640 751.75 641.67 753.42 643.33C754.55 633.51 755.78 623.48 759.41 613.87C760.14 611.95 760.97 610.11 762.06 608.11C763.09 606.21 764.26 604.4 765.54 602.67C765.87 602.21 765.58 602.6 765.51 602.69C765.71 602.42 765.92 602.16 766.13 601.91C766.45 601.52 766.77 601.14 767.1 600.77C767.81 599.96 768.56 599.18 769.33 598.43C770.09 597.68 770.89 596.96 771.71 596.28C771.87 596.15 772.82 595.42 772.25 595.85C772.71 595.51 773.17 595.18 773.65 594.86C774.66 594.18 775.7 593.55 776.78 592.98C777.28 592.72 777.79 592.47 778.3 592.23C778.52 592.13 778.74 592.03 778.96 591.93C778.47 592.14 778.81 592 779.11 591.89C780.18 591.52 781.24 591.16 782.34 590.88C782.97 590.73 783.6 590.6 784.24 590.48C784.27 590.47 785.07 590.35 784.54 590.42C783.99 590.5 785.37 590.34 785.33 590.35C787.93 590.11 790.46 588.22 790.33 585.35C790.22 582.84 788.12 580.09 785.33 580.35L785.33 580.35" />
			<path id="path104" class="shp0" d="M223.58 520.69C217.91 518.02 212.25 515.35 206.59 512.68C203.86 511.4 199.97 512.27 199.25 515.67C197.68 522.96 196.8 531.08 202.52 536.87C205.17 539.55 208.38 540.51 212.05 540.67C212.62 540.7 212.47 540.95 212.02 540.68C211.77 540.53 209.7 538.75 209.95 538.37C209.72 538.72 210.05 539.94 210.09 540.38C210.27 542.14 210.52 543.91 210.95 545.64C214.09 558.4 224.26 568.17 236.38 572.56C242.52 574.79 249.31 575.61 255.81 575.19C262.62 574.74 269.95 573.35 274.59 567.87C278.48 563.28 279.96 557.46 280.84 551.64C281.04 550.37 281.21 549.09 281.39 547.82C281.48 547.12 281.58 546.42 281.69 545.72C281.81 544.95 282.21 544.51 281.18 545.67C280.96 546.17 280.6 546.46 280.11 546.54C280.24 546.5 280.37 546.45 280.51 546.4C283.55 545.24 286 543.69 287.99 541.08C291.8 536.11 292.86 529.13 292.9 523.01C292.91 520.41 292 517.9 289.66 516.54C287.56 515.32 285.14 515.61 282.94 516.31C278.94 517.57 275.41 519.67 272.28 522.44C270.25 524.23 270.45 527.68 272.28 529.51C274.29 531.52 277.32 531.31 279.35 529.51C280.24 528.72 280.78 528.31 282.07 527.55C283.38 526.78 283.99 526.49 285.08 526.12C285.65 525.92 286.54 525.84 287.06 525.55C286.37 525.94 283.22 521.68 282.9 522.78C282.82 523.04 282.88 523.38 282.87 523.66C282.83 524.77 282.75 525.88 282.64 526.99C282.6 527.29 282.57 527.59 282.53 527.89C282.56 527.69 282.69 526.93 282.52 527.91C282.43 528.43 282.34 528.95 282.23 529.46C282.01 530.55 281.73 531.62 281.36 532.66C281.26 532.93 281.16 533.2 281.05 533.46C281.13 533.26 281.48 532.65 281.03 533.43C280.79 533.84 280.57 534.27 280.32 534.69C280.25 534.82 279.76 535.54 280.13 535.02C280.48 534.54 280.09 535.07 280.02 535.14C279.84 535.33 279.67 535.54 279.47 535.73C279.38 535.82 278.53 536.53 279.07 536.12C279.48 535.8 278.44 536.47 278.21 536.61C278.03 536.72 277.36 536.96 278.25 536.62C278.05 536.69 277.85 536.76 277.65 536.83C275.74 537.53 273.97 538.48 272.96 540.34C271.69 542.66 271.69 545.68 271.31 548.26C270.96 550.63 270.57 553.01 269.93 555.32C269.79 555.85 269.63 556.37 269.46 556.88C269.4 557.08 268.76 558.72 269.15 557.83C268.7 558.86 268.13 559.8 267.54 560.75C267.13 561.4 268.01 560.22 267.52 560.8C267.38 560.97 267.23 561.14 267.09 561.3C266.68 561.74 266.25 562.15 265.8 562.54C266.43 561.99 265.24 562.89 264.99 563.04C264.75 563.18 264.5 563.32 264.25 563.45C262.81 564.21 264.49 563.4 263.62 563.72C262.29 564.22 260.89 564.53 259.49 564.78C259.21 564.83 258.93 564.87 258.64 564.91C257.72 565.06 259.23 564.85 258.31 564.96C257.57 565.05 256.83 565.11 256.09 565.17C250.22 565.58 245.54 565.09 240.09 563.28C235.5 561.77 231.29 559.2 227.92 555.82C224.66 552.54 222.27 548.68 220.99 544.42C220.79 543.79 220.62 543.14 220.48 542.49C220.4 542.17 220.33 541.84 220.27 541.52C220.25 541.41 220.04 540.15 220.12 540.7C220.19 541.22 220.09 540.4 220.09 540.38C220.05 539.96 220.02 539.55 219.99 539.13C219.93 538.11 219.91 537.04 219.63 536.05C218.99 533.7 217.19 531.84 214.87 531.11C214.03 530.85 213.15 530.75 212.27 530.69C211.97 530.67 211.67 530.66 211.37 530.65C211.1 530.64 210.26 530.43 211.12 530.66C210.9 530.6 210.68 530.55 210.46 530.48C210.12 530.36 210.17 530.38 210.6 530.54C210.47 530.46 210.34 530.39 210.2 530.31C210.09 530.21 209.47 529.73 210.1 530.28C209.86 530.07 209.65 529.85 209.43 529.63C208.78 529.01 209.17 529.33 209.32 529.54C209.08 529.22 208.88 528.87 208.69 528.53C208.57 528.32 208.46 528.11 208.36 527.89C208.71 528.66 208.33 527.69 208.28 527.52C207.44 524.61 208.22 521.45 208.89 518.33C206.44 519.33 203.99 520.32 201.54 521.32C207.21 523.99 212.87 526.65 218.53 529.32C220.97 530.47 223.92 530 225.37 527.53C226.64 525.36 226.03 521.85 223.58 520.69L223.58 520.69" />
			<path id="path106" class="shp0" d="M215.05 517.47C215.06 517.39 215.25 515.8 215.1 516.87C215.14 516.55 215.2 516.23 215.25 515.91C215.39 515.12 215.56 514.33 215.76 513.55C216.18 511.83 216.73 510.12 217.42 508.49C217.11 509.23 217.44 508.47 217.5 508.35C217.71 507.92 217.91 507.47 218.13 507.04C218.49 506.32 218.88 505.61 219.29 504.92C219.7 504.22 220.14 503.53 220.59 502.87C220.77 502.6 220.96 502.33 221.15 502.07C221.22 501.96 222.05 500.88 221.53 501.53C222.53 500.26 223.63 499.06 224.78 497.93C225.36 497.37 225.96 496.82 226.57 496.29C226.94 495.98 227.31 495.67 227.69 495.37C227.04 495.88 228.12 495.07 228.23 494.99C229.55 494.05 230.92 493.21 232.35 492.46C233.07 492.08 233.8 491.73 234.54 491.41C234.33 491.5 233.76 491.69 234.69 491.36C235.32 491.13 235.95 490.89 236.59 490.69C244.28 488.19 252.5 488.11 260.72 488.38C262.5 488.43 263.63 488.56 265.37 489.21C264.34 488.83 265.63 489.36 265.77 489.44C266.03 489.58 266.27 489.72 266.52 489.88C266.65 489.95 267.77 490.8 266.91 490.1C267.24 490.37 267.57 490.66 267.88 490.96C268.4 491.47 268.89 492.01 269.34 492.58C268.79 491.88 269.27 492.48 269.36 492.63C269.6 493.01 269.86 493.38 270.09 493.76C270.49 494.41 270.86 495.08 271.19 495.76C271.33 496.03 271.46 496.31 271.59 496.59C271.83 497.13 271.84 497.16 271.64 496.68C271.73 496.9 271.81 497.11 271.89 497.33C275 505.46 275.72 514.33 276 522.93C276.09 525.54 278.24 528.05 281 527.93C283.64 527.81 286.09 525.73 286 522.93C285.83 517.78 285.33 512.66 284.57 507.57C283.98 503.58 283.26 499.59 281.94 495.77C279.31 488.22 274.33 480.75 266 478.97C261.22 477.95 256.06 478.26 251.21 478.43C246.3 478.61 241.33 479.08 236.56 480.29C228.7 482.27 221.47 486.59 216.03 492.61C209.75 499.56 205.95 508.16 205.05 517.47C204.8 520.08 207.53 522.58 210.05 522.47C212.97 522.34 214.78 520.27 215.05 517.47L215.05 517.47" />
			<path id="path108" class="shp0" d="M225.05 526.93C225.53 525.9 226.03 524.87 226.59 523.87C226.83 523.44 227.08 523.01 227.34 522.6C227.45 522.43 228.55 521 227.98 521.65C228.29 521.29 228.64 520.97 228.96 520.62C229.69 519.82 228.47 520.77 229.42 520.26C229.68 520.09 229.95 519.94 230.23 519.8C229.82 519.96 229.81 519.98 230.19 519.85C231 519.6 230.74 519.61 231.4 519.61C233.59 519.62 235.67 520.36 238.14 521.07C240.95 521.88 243.83 522.39 246.75 522.64C252.18 523.09 257.86 522.35 262.99 520.53C263.5 520.35 264 520.14 264.51 519.98C264.83 519.87 265.17 519.77 265.5 519.69C265 519.7 265.05 519.7 265.65 519.68C265.26 519.57 264.86 519.45 264.47 519.34C263.65 518.35 263.46 518.21 263.92 518.92C263.94 519.29 264.13 519.37 264.32 519.82C265.51 522.67 266.71 525.53 267.9 528.39C268.95 530.88 271.21 532.66 274.05 531.88C276.4 531.24 278.6 528.24 277.55 525.73C276.18 522.47 274.82 519.2 273.45 515.93C271.91 512.28 269.46 509.57 265.17 509.7C261.95 509.79 258.89 511.52 255.76 512.18C253.23 512.71 250.31 512.88 247.34 512.68C241.53 512.29 235.06 508.7 228.65 509.93C222.47 511.12 218.91 516.6 216.41 521.89C215.26 524.33 215.73 527.28 218.2 528.73C220.38 530 223.89 529.39 225.05 526.93L225.05 526.93" />
			<path id="path110" class="shp0" d="M219 580.35C208.84 581.29 199.79 586.54 193.21 594.26C186.06 602.67 182.11 613.01 179.93 623.73C178.61 630.2 177.85 636.78 177.09 643.33C176.78 646.03 179.63 648.33 182.09 648.33C216.46 648.4 250.84 648.47 285.21 648.55C294.97 648.57 304.73 648.59 314.49 648.61C317.07 648.61 319.65 646.31 319.49 643.61C318.54 627.86 313.12 612.4 303.74 599.68C299.03 593.29 293.44 586.97 286.74 582.59C282.94 580.11 278.27 578.57 273.75 579.72C269.27 580.86 266.15 584.71 263.35 588.12C257.03 595.81 252.14 604.35 248.65 613.67C251.87 613.67 255.08 613.67 258.3 613.67C257.8 610.17 257.3 606.68 256.8 603.18C256.55 601.43 256.31 599.68 256.05 597.94C255.95 597.2 255.93 597.35 255.89 596.35C255.87 595.97 255.87 595.59 255.89 595.22C255.85 595.53 255.87 595.51 255.95 595.17C256.08 594.74 256.04 594.81 255.83 595.36C255.94 595.12 256.07 594.89 256.22 594.66C256.54 594.2 256.52 594.21 256.16 594.69C256.33 594.48 256.51 594.27 256.7 594.07C257.45 593.25 258.27 592.51 259.03 591.69C261.17 589.41 262.55 586.94 262.73 583.78C262.87 581.52 261.07 579.62 259.06 578.96C252.93 576.93 246.42 576.48 240.05 577.49C236.73 578.01 233.79 579.9 233.06 583.37C232.35 586.77 234.26 589.72 236.42 592.15C236.8 592.58 237.2 592.98 237.6 593.39C237.74 593.54 238.76 594.74 238.19 593.97C238.51 594.4 238.78 594.85 239.03 595.32C239.14 595.51 239.24 595.71 239.33 595.91C239.13 595.4 239.13 595.41 239.33 595.96C239.49 596.53 239.64 597.11 239.8 597.68C240.09 598.7 239.81 596.97 239.88 598.14C239.95 599.24 239.97 600.32 239.9 601.41C239.87 601.73 239.84 602.05 239.81 602.37C239.89 601.84 239.88 601.88 239.79 602.48C239.7 602.97 239.61 603.45 239.51 603.94C239.27 605.08 238.96 606.21 238.62 607.33C237.87 609.77 236.98 611.95 236.25 613.57C239.13 613.57 242.01 613.57 244.89 613.57C237.93 603.4 230.98 593.22 224.02 583.05C222.5 580.82 219.63 579.82 217.18 581.26C214.98 582.55 213.86 585.86 215.39 588.1C222.34 598.27 229.3 608.45 236.25 618.62C238.15 621.39 243.23 622.33 244.89 618.62C248.65 610.21 252.18 600.24 248.15 591.27C247.21 589.17 245.75 587.46 244.17 585.81C243.83 585.45 243.48 585.08 243.16 584.7C243.68 585.31 242.89 584.27 242.79 584.13C242.51 583.6 242.51 583.6 242.79 584.14C243.02 584.94 242.89 585.65 242.42 586.25C242.19 586.84 241.77 587.24 241.14 587.44C241.46 587.35 241.78 587.28 242.11 587.23C246.66 586.37 251.79 587.07 256.4 588.6C255.18 586.99 253.96 585.39 252.73 583.78C252.75 583.41 252.93 583 252.75 583.59C252.56 584.21 252.64 583.7 252.83 583.45C252.7 583.62 252.53 583.9 252.44 584.1C252.6 583.76 252.9 583.58 252.5 584.02C251.76 584.84 250.97 585.61 250.2 586.4C247.83 588.83 246.2 591.49 245.92 594.94C245.65 598.4 246.63 602.09 247.11 605.51C247.63 609.12 248.14 612.72 248.65 616.33C248.95 618.39 251.5 620.09 253.48 620C255.82 619.89 257.49 618.48 258.3 616.33C260.69 609.93 264.39 603.19 268.72 597.35C269.59 596.18 270.58 594.97 271.72 593.65C272.81 592.38 274.45 590.59 275.38 589.83C275.41 589.81 276.23 589.33 275.67 589.59C275.96 589.45 276.33 589.37 276.65 589.3C275.71 589.51 277.21 589.32 277.33 589.32C277.5 589.32 278.23 589.5 277.51 589.33C279.29 589.73 280.02 590.13 281.7 591.23C284.02 592.74 286.6 595.19 288.91 597.55C290.08 598.74 291.2 599.96 292.29 601.22C292.8 601.82 293.31 602.43 293.8 603.04C294.59 604.02 294.41 603.79 295.11 604.73C297.13 607.48 298.98 610.37 300.63 613.36C301.43 614.81 302.19 616.3 302.9 617.8C303.24 618.51 303.56 619.23 303.88 619.96C304.27 620.86 303.46 618.89 304.09 620.46C304.29 620.94 304.48 621.43 304.67 621.92C307.46 629.18 309.06 636.55 309.49 643.61C311.15 641.94 312.82 640.27 314.49 638.61C280.11 638.54 245.74 638.47 211.36 638.39C201.6 638.37 191.85 638.35 182.09 638.33C183.75 640 185.42 641.67 187.09 643.33C188.22 633.51 189.45 623.48 193.08 613.87C193.81 611.95 194.64 610.11 195.73 608.11C196.76 606.21 197.93 604.4 199.21 602.67C199.54 602.21 199.25 602.6 199.18 602.69C199.38 602.42 199.59 602.16 199.81 601.91C200.12 601.52 200.44 601.14 200.77 600.77C201.49 599.96 202.23 599.18 203 598.43C203.77 597.68 204.56 596.96 205.39 596.28C205.54 596.15 206.49 595.42 205.92 595.85C206.38 595.51 206.84 595.18 207.32 594.86C208.33 594.18 209.37 593.55 210.45 592.98C210.95 592.72 211.45 592.47 211.97 592.23C212.19 592.13 212.41 592.03 212.63 591.93C212.14 592.14 212.48 592 212.78 591.89C213.85 591.52 214.91 591.16 216.01 590.88C216.64 590.73 217.27 590.6 217.91 590.48C217.94 590.47 218.74 590.35 218.21 590.42C217.66 590.5 219.04 590.34 219 590.35C221.6 590.11 224.13 588.22 224 585.35C223.89 582.84 221.79 580.09 219 580.35L219 580.35" />
		</g>
	</g>
</svg>