<svg xmlns="http://www.w3.org/2000/svg" viewBox="0 0 550 758" width="550" height="758">
	<style>
		tspan { white-space:pre }
		.shp0 { fill: #eb1d27 } 
	</style>
	<g id="g10">
		<g id="g12">
			<path id="path14" class="shp0" d="M43.19 704.47L43.19 708.3C43.19 709.43 42.86 710.48 42.2 711.42L19.58 748.72L42.56 748.72L42.56 756.98L7.01 756.98L7.01 752.95C7.01 751.89 7.31 750.94 7.92 750.1L30.53 712.73L8.75 712.73L8.75 704.47L43.19 704.47Z" />
			<path id="path16" fill-rule="evenodd" class="shp0" d="M49.08 756.98L49.08 704.47L66.92 704.47C70.29 704.47 73.18 704.8 75.58 705.45C77.97 706.11 79.93 707.05 81.45 708.26C82.96 709.47 84.07 710.95 84.77 712.67C85.47 714.4 85.82 716.33 85.82 718.46C85.82 719.68 85.65 720.85 85.31 721.98C84.96 723.12 84.43 724.17 83.72 725.15C83.01 726.12 82.09 727.01 80.97 727.82C79.85 728.62 78.52 729.3 76.96 729.85C83.73 731.49 87.12 735.35 87.12 741.44C87.12 743.68 86.71 745.75 85.9 747.65C85.08 749.55 83.89 751.19 82.32 752.57C80.75 753.96 78.81 755.04 76.51 755.81C74.2 756.59 71.55 756.98 68.58 756.98C68.58 756.98 49.08 756.98 49.08 756.98ZM59.48 727.01L66.32 727.01C69.25 727.01 71.5 726.45 73.08 725.33C74.67 724.21 75.46 722.35 75.46 719.77C75.46 717.08 74.77 715.19 73.4 714.09C72.03 713 69.87 712.45 66.92 712.45L59.48 712.45L59.48 727.01ZM59.48 734.16L59.48 748.91L68.38 748.91C70.04 748.91 71.42 748.7 72.53 748.28C73.64 747.86 74.51 747.29 75.16 746.58C75.81 745.87 76.26 745.04 76.53 744.11C76.79 743.17 76.92 742.2 76.92 741.2C76.92 740.12 76.77 739.15 76.47 738.28C76.16 737.41 75.67 736.67 75 736.06C74.33 735.46 73.45 734.99 72.35 734.66C71.26 734.33 69.92 734.16 68.34 734.16L59.48 734.16Z" />
			<path id="path18" class="shp0" d="M105.79 756.98L95.35 756.98L95.35 704.47L105.79 704.47L105.79 756.98Z" />
			<path id="path20" fill-rule="evenodd" class="shp0" d="M154.98 688.96L142.6 699.92C142.08 700.37 141.58 700.65 141.1 700.77C140.63 700.89 140.01 700.95 139.24 700.95L131.97 700.95L139.76 690.59C140.02 690.22 140.28 689.93 140.55 689.72C140.81 689.51 141.1 689.34 141.42 689.22C141.73 689.1 142.08 689.03 142.47 689C142.85 688.98 143.3 688.96 143.83 688.96L154.98 688.96ZM162.46 741.38C161.24 744.66 159.52 747.5 157.29 749.9C155.07 752.3 152.38 754.17 149.25 755.52C146.11 756.86 142.63 757.53 138.81 757.53C134.98 757.53 131.51 756.86 128.37 755.52C125.23 754.17 122.54 752.3 120.3 749.9C118.06 747.5 116.33 744.66 115.1 741.38C113.87 738.1 113.26 734.53 113.26 730.68C113.26 726.86 113.87 723.31 115.1 720.03C116.33 716.75 118.06 713.91 120.3 711.52C122.54 709.14 125.23 707.27 128.37 705.91C131.51 704.55 134.98 703.87 138.81 703.87C142.63 703.87 146.11 704.55 149.25 705.91C152.38 707.27 155.07 709.15 157.29 711.54C159.52 713.94 161.24 716.78 162.46 720.05C163.67 723.31 164.27 726.86 164.27 730.68C164.27 734.53 163.67 738.1 162.46 741.38ZM153.68 730.68C153.68 727.89 153.33 725.39 152.65 723.17C151.96 720.96 150.98 719.07 149.7 717.52C148.42 715.96 146.87 714.77 145.04 713.94C143.2 713.11 141.13 712.69 138.81 712.69C136.49 712.69 134.41 713.11 132.56 713.94C130.71 714.77 129.15 715.96 127.87 717.52C126.59 719.07 125.61 720.96 124.93 723.17C124.24 725.39 123.9 727.89 123.9 730.68C123.9 733.51 124.24 736.03 124.93 738.26C125.61 740.48 126.59 742.37 127.87 743.91C129.15 745.45 130.71 746.63 132.56 747.45C134.41 748.27 136.49 748.68 138.81 748.68C141.13 748.68 143.2 748.27 145.04 747.45C146.87 746.63 148.42 745.45 149.7 743.91C150.98 742.37 151.96 740.48 152.65 738.26C153.33 736.03 153.68 733.51 153.68 730.68Z" />
			<path id="path22" fill-rule="evenodd" class="shp0" d="M181.24 736.77L181.24 756.98L170.8 756.98L170.8 704.47L186.62 704.47C190.12 704.47 193.13 704.84 195.63 705.59C198.14 706.34 200.19 707.39 201.78 708.74C203.38 710.08 204.54 711.69 205.28 713.56C206.02 715.43 206.39 717.49 206.39 719.73C206.39 721.44 206.15 723.07 205.68 724.61C205.2 726.16 204.51 727.57 203.6 728.84C202.69 730.12 201.58 731.26 200.26 732.25C198.94 733.23 197.42 734.03 195.71 734.64C196.37 735.01 196.99 735.45 197.57 735.96C198.15 736.48 198.69 737.1 199.19 737.84L210.94 756.98L201.57 756.98C199.9 756.98 198.63 756.28 197.73 754.89L188.16 738.51C187.76 737.88 187.32 737.43 186.83 737.17C186.35 736.91 185.65 736.77 184.76 736.77C184.76 736.77 181.24 736.77 181.24 736.77ZM181.24 729.38L186.54 729.38C188.22 729.38 189.68 729.15 190.91 728.71C192.13 728.26 193.14 727.64 193.93 726.85C194.72 726.06 195.31 725.11 195.69 724.02C196.07 722.93 196.27 721.73 196.27 720.44C196.27 717.89 195.47 715.91 193.89 714.53C192.31 713.15 189.89 712.45 186.62 712.45L181.24 712.45L181.24 729.38Z" />
			<path id="path24" class="shp0" d="M225.92 726.25L227.58 726.25C229.17 726.25 230.29 725.73 230.95 724.67L241.27 706.6C241.85 705.81 242.49 705.26 243.19 704.94C243.88 704.62 244.73 704.47 245.74 704.47L254.79 704.47L241.27 726.1C240.29 727.49 239.25 728.48 238.14 729.06C238.93 729.35 239.65 729.77 240.28 730.33C240.91 730.88 241.52 731.58 242.1 732.42L255.86 756.98L246.65 756.98C245.48 756.98 244.62 756.8 244.05 756.45C243.49 756.09 243.01 755.62 242.61 755.04L232.13 735.9C231.74 735.27 231.27 734.81 230.73 734.52C230.19 734.23 229.44 734.08 228.49 734.08L225.92 734.08L225.92 756.98L215.52 756.98L215.52 704.47L225.92 704.47L225.92 726.25" />
			<path id="path26" fill-rule="evenodd" class="shp0" d="M305.05 756.98L297.06 756.98C296.14 756.98 295.4 756.76 294.85 756.33C294.3 755.89 293.89 755.35 293.62 754.69L290.3 744.37L270.97 744.37L267.68 754.65C267.47 755.23 267.07 755.76 266.48 756.25C265.88 756.74 265.15 756.98 264.28 756.98L256.17 756.98L275.31 704.47L285.91 704.47C285.91 704.47 305.05 756.98 305.05 756.98ZM273.3 737.09L287.93 737.09L282.59 720.48C282.27 719.66 281.95 718.71 281.6 717.61C281.26 716.52 280.92 715.33 280.57 714.03C280.26 715.33 279.93 716.53 279.59 717.63C279.24 718.74 278.93 719.7 278.64 720.52L273.3 737.09Z" />
			<path id="path28" class="shp0" d="M334.83 704.53C335.15 704.57 335.43 704.64 335.68 704.76C335.93 704.88 336.17 705.05 336.39 705.26C336.61 705.47 336.87 705.75 337.16 706.09L363.02 740.17C362.87 738.43 362.79 736.79 362.79 735.23L362.79 704.47L371.92 704.47L371.92 756.98L366.58 756.98C365.77 756.98 365.09 756.84 364.55 756.57C364.01 756.29 363.47 755.83 362.95 755.2L337.16 721.31C337.32 722.95 337.4 724.46 337.4 725.86L337.4 756.98L328.22 756.98L328.22 704.47L333.68 704.47C334.13 704.47 334.51 704.48 334.83 704.53Z" />
			<path id="path30" fill-rule="evenodd" class="shp0" d="M425.78 756.98L417.79 756.98C416.87 756.98 416.13 756.76 415.58 756.33C415.02 755.89 414.61 755.35 414.35 754.69L411.03 744.37L391.69 744.37L388.41 754.65C388.2 755.23 387.8 755.76 387.21 756.25C386.61 756.74 385.88 756.98 385.01 756.98L376.9 756.98L396.04 704.47L406.64 704.47L425.78 756.98ZM394.03 737.09L408.66 737.09L403.32 720.48C403 719.66 402.67 718.71 402.33 717.61C401.99 716.52 401.64 715.33 401.3 714.03C400.99 715.33 400.66 716.53 400.31 717.63C399.97 718.74 399.65 719.7 399.36 720.52L394.03 737.09Z" />
			<path id="path32" class="shp0" d="M479.32 704.47L479.32 712.73L458.88 712.73L458.88 727.6L476 727.6L476 735.86L458.88 735.86L458.88 756.98L448.44 756.98L448.44 704.47L479.32 704.47Z" />
			<path id="path34" fill-rule="evenodd" class="shp0" d="M486.01 756.98L486.01 704.47L503.84 704.47C507.22 704.47 510.1 704.8 512.5 705.45C514.9 706.11 516.86 707.05 518.37 708.26C519.89 709.47 521 710.95 521.69 712.67C522.39 714.4 522.75 716.33 522.75 718.46C522.75 719.68 522.57 720.85 522.23 721.98C521.89 723.12 521.36 724.17 520.65 725.15C519.94 726.12 519.02 727.01 517.9 727.82C516.78 728.62 515.44 729.3 513.89 729.85C520.66 731.49 524.05 735.35 524.05 741.44C524.05 743.68 523.64 745.75 522.82 747.65C522.01 749.55 520.81 751.19 519.25 752.57C517.67 753.96 515.74 755.04 513.43 755.81C511.13 756.59 508.48 756.98 505.5 756.98C505.5 756.98 486.01 756.98 486.01 756.98ZM496.41 727.01L503.25 727.01C506.17 727.01 508.43 726.45 510.01 725.33C511.59 724.21 512.38 722.35 512.38 719.77C512.38 717.08 511.7 715.19 510.33 714.09C508.96 713 506.79 712.45 503.84 712.45L496.41 712.45L496.41 727.01ZM496.41 734.16L496.41 748.91L505.31 748.91C506.97 748.91 508.35 748.7 509.46 748.28C510.57 747.86 511.44 747.29 512.09 746.58C512.73 745.87 513.19 745.04 513.45 744.11C513.71 743.17 513.85 742.2 513.85 741.2C513.85 740.12 513.69 739.15 513.39 738.28C513.09 737.41 512.6 736.67 511.93 736.06C511.26 735.46 510.37 734.99 509.28 734.66C508.19 734.33 506.85 734.16 505.27 734.16L496.41 734.16Z" />
			<path id="path36" class="shp0" d="M40.08 294.5C28.65 294.54 17.23 294.57 5.8 294.6C3.06 294.61 0.85 296.89 0.8 299.6C0.25 330.08 1.34 360.58 4.08 390.95C4.87 399.65 5.8 408.35 6.85 417.03C7.2 419.88 8.87 421.81 11.85 422.03C24.78 423.01 37.86 421.73 50.38 418.36C48.33 417.19 46.28 416.03 44.23 414.86C53.29 445.97 78.67 470.92 109.22 481.1C117.87 483.99 126.99 485.57 136.1 485.83C134.44 484.17 132.77 482.5 131.1 480.83C133.33 498.4 135.56 515.96 137.79 533.53C138.34 537.89 138.89 542.25 139.44 546.61C139.99 550.89 140.13 555.58 143.19 558.96C145.99 562.04 150.16 562.67 154.11 562.66C158.47 562.64 162.83 562.56 167.19 562.51C177.22 562.4 187.25 562.28 197.29 562.17C200.03 562.14 202.24 559.9 202.29 557.17C202.33 555.12 202.44 553.08 202.65 551.04C202.69 550.6 202.75 550.16 202.8 549.72C203 548.01 202.63 550.65 202.91 548.95C203.09 547.81 203.28 546.68 203.51 545.56C204.31 541.58 205.44 537.67 206.87 533.88C208.1 530.62 209.87 526.91 211.92 523.35C213.78 520.13 216.43 516.19 218.32 513.81C220.87 510.61 223.64 507.59 226.6 504.77C229.62 501.91 232.47 499.57 235.49 497.44C242.22 492.7 249.15 489.16 256.51 486.79C260.38 485.54 264.33 484.64 268.34 484C270.04 483.73 267.4 484.09 269.11 483.9C269.46 483.86 269.81 483.81 270.17 483.78C271.22 483.67 272.28 483.58 273.34 483.51C275.47 483.39 277.61 483.36 279.74 483.42C284.27 483.57 288.96 484.11 293.01 486.38C296.58 488.39 299.48 491.63 301.79 494.99C307.39 503.16 311.81 512.38 315.34 521.62C319.06 531.37 321.82 541.48 323.53 551.78C324.41 557.04 324.02 563.77 328.04 567.83C332.7 572.55 340.48 570.62 346.35 570.19C359.37 569.22 372.39 568.25 385.41 567.28C388.1 567.08 390.41 565.13 390.41 562.28C390.41 559.73 388.11 557.08 385.41 557.28C373.39 558.18 361.37 559.07 349.36 559.96C346.6 560.17 343.85 560.37 341.09 560.58C339.7 560.68 338.3 560.83 336.9 560.87C336.35 560.89 335.65 560.97 335.11 560.85C335.62 560.97 335.18 561.05 334.89 560.65C335.14 560.98 335.3 561.27 335 560.53C335.33 561.34 334.76 559.72 334.77 559.75C334.4 558.35 334.48 558.44 334.32 557.18C333.97 554.26 333.56 551.35 333.06 548.45C331.26 537.94 328.38 527.62 324.49 517.69C320.59 507.76 315.97 497.65 309.73 488.95C306.77 484.84 303.39 481.09 299.08 478.36C294.26 475.31 288.64 474.1 283.03 473.61C274.31 472.86 265.31 473.9 256.89 476.23C240.21 480.85 224.95 490.81 213.63 503.87C200.78 518.69 192.64 537.42 192.29 557.17C193.96 555.5 195.63 553.83 197.29 552.17C189.01 552.26 180.73 552.36 172.45 552.45C168.31 552.5 164.17 552.54 160.03 552.59C158.06 552.61 156.09 552.65 154.11 552.66C153.46 552.66 152.8 552.64 152.15 552.62C151.08 552.57 151.58 552.56 151.81 552.6C151.85 552.6 150.3 552.31 150.95 552.44C150.86 552.42 150.23 551.93 150.65 552.3C150.75 552.39 150.87 553.29 150.42 551.99C150.5 552.21 150.63 552.62 150.28 551.64C150.16 551.29 150.08 550.9 150 550.54C149.69 549.1 149.54 547.41 149.3 545.49C148.78 541.38 148.26 537.27 147.74 533.16C146.69 524.93 145.65 516.71 144.61 508.49C143.44 499.27 142.27 490.05 141.1 480.83C140.75 478.08 139.09 475.92 136.1 475.83C121.79 475.42 107.6 471.11 95.05 463.78C82.65 456.53 71.78 446.32 64.07 434.37C59.39 427.13 56.23 420.28 53.87 412.21C53.12 409.6 50.37 408 47.73 408.71C36 411.87 23.96 412.95 11.85 412.03C13.52 413.7 15.19 415.37 16.85 417.03C13.18 386.77 11.12 356.32 10.73 325.83C10.61 317.09 10.64 308.34 10.8 299.6C9.13 301.27 7.46 302.93 5.8 304.6C17.23 304.57 28.65 304.54 40.08 304.5C46.52 304.49 46.53 294.49 40.08 294.5L40.08 294.5" />
			<path id="path38" class="shp0" d="M48.65 306.35C60.48 301.12 67.99 289.94 75.03 279.62C82.02 269.37 89.26 260.14 97.8 251C115.06 232.53 134.62 217.31 156.74 205.11C180.16 192.2 205.64 183.27 232.38 179.28C261.26 174.96 290.17 178.18 318.07 186.29C345.99 194.41 372.43 206.73 398.49 219.46C401.68 221.01 404.87 222.58 408.05 224.15C410.47 225.34 413.46 224.8 414.89 222.35C416.18 220.15 415.53 216.71 413.1 215.51C386.38 202.37 359.48 189.25 331.16 179.89C302.93 170.56 273.22 165.43 243.46 167.99C215.01 170.44 187.23 178.7 161.64 191.29C138.55 202.65 117.24 217.77 98.79 235.7C89.53 244.7 81.05 254.45 73.33 264.79C65.9 274.74 60.27 285.67 50.71 293.51C50.3 293.84 48.71 294.97 47.74 295.56C46.41 296.38 45.03 297.09 43.6 297.72C41.13 298.81 40.55 302.42 41.81 304.56C43.3 307.11 46.17 307.45 48.65 306.35L48.65 306.35" />
			<path id="path40" class="shp0" d="M396.25 565.94C396.15 550.44 396.04 534.95 395.94 519.45C395.91 515.83 395.73 512.17 395.92 508.55C395.97 507.55 395.97 507.52 396.18 506.67C396.27 506.29 396.38 505.91 396.52 505.54C396.85 504.66 396.23 506.03 396.64 505.31C396.81 505.02 396.97 504.73 397.15 504.45C397.21 504.36 397.83 503.56 397.5 503.95C397.17 504.36 397.86 503.59 397.93 503.51C398.22 503.21 398.52 502.91 398.83 502.63C400.48 501.13 403.04 499.65 405.44 498.09C407.89 496.49 410.29 494.82 412.63 493.08C431.6 478.96 447.15 460.48 457.97 439.46C468.81 418.43 475.1 395.06 475.71 371.39C476.39 344.96 469.36 319.14 458.65 295.18C447.6 270.48 432.66 247.76 417.39 225.52C415.51 222.8 413.64 220.08 411.76 217.36C410.22 215.14 407.37 214.13 404.92 215.57C402.72 216.85 401.58 220.18 403.12 222.41C418.44 244.54 433.73 266.87 445.69 291.04C456.91 313.75 465.08 338.78 465.71 364.18C465.86 369.92 465.65 375.68 465.1 381.41C464.97 382.77 464.82 384.14 464.65 385.5C464.63 385.61 464.5 386.66 464.57 386.11C464.64 385.56 464.5 386.61 464.49 386.72C464.38 387.49 464.26 388.25 464.14 389.01C463.69 391.9 463.15 394.77 462.53 397.62C461.32 403.16 459.8 408.63 457.99 414.01C457.05 416.77 456.04 419.52 454.95 422.23C454.04 424.49 453.03 426.81 451.74 429.55C449.32 434.68 446.61 439.69 443.65 444.52C442.12 447.01 440.52 449.46 438.86 451.86C438.07 452.99 437.27 454.11 436.46 455.22C435.6 456.39 434.8 457.45 434.28 458.11C427.18 467.16 419.05 475.4 410.04 482.56C409.77 482.77 409.5 482.98 409.23 483.19C408.56 483.72 409.7 482.84 409.02 483.36C408.48 483.77 407.93 484.19 407.38 484.6C406.2 485.47 405.02 486.32 403.81 487.15C401.41 488.82 398.91 490.34 396.47 491.97C393.61 493.88 390.97 495.98 388.94 498.79C386.82 501.73 386.06 505.29 385.91 508.85C385.6 516.37 385.97 523.97 386.02 531.5C386.07 539.19 386.12 546.88 386.18 554.57C386.2 558.36 386.23 562.15 386.25 565.94C386.27 568.64 388.54 570.94 391.25 570.94C393.95 570.94 396.27 568.65 396.25 565.94L396.25 565.94" />
			<path id="path42" class="shp0" d="M415.36 244.05C423.6 257.73 432.19 271.55 445.07 281.36C456.48 290.06 473.02 296 487.05 290.29C494.36 287.31 499.4 281.49 501.78 274.01C503.83 267.55 503.87 260.52 503.55 253.82C503.38 250.03 503.17 246.2 501.53 242.71C499.72 238.87 496.15 236.61 492.02 236.12C488.36 235.69 484.67 237.09 481.87 239.39C478.77 241.93 477.25 245.85 477.04 249.78C476.58 258.2 482.53 265.06 489.36 269.11C496.17 273.15 504.58 276.31 512.61 275.8C520.09 275.32 527.73 271.71 531.44 264.93C535.47 257.57 534.36 248.33 534.32 240.27C534.29 231.6 534.25 222.93 534.21 214.26C534.18 206.31 534.25 197.63 529.69 190.73C527.67 187.67 524.95 184.92 521.58 183.37C517.45 181.47 512.06 180.78 508.5 184.25C506 186.67 504.91 190.5 504.37 193.85C503.81 197.33 503.8 200.66 504.29 204.14C506.04 216.52 514.73 227.52 526.39 231.99C529.6 233.23 533.31 234 536.74 233.62C540.99 233.16 544.6 230.75 546.61 226.95C548.28 223.79 548.89 220.33 549.25 216.81C549.7 212.49 549.92 208.13 549.99 203.78C550.06 199.49 549.94 195.21 549.67 190.94C549.51 188.34 547.49 185.82 544.67 185.94C542.1 186.06 539.49 188.15 539.67 190.94C540.14 198.39 540.12 205.87 539.56 213.31C539.49 214.19 539.42 215.06 539.34 215.94C539.3 216.38 539.25 216.82 539.21 217.26C539.13 218.05 539.33 216.48 539.21 217.28C539 218.56 538.75 219.83 538.33 221.06C538.24 221.34 538.14 221.63 538.02 221.9C538.39 221.03 538.07 221.75 537.97 221.9C537.78 222.2 537.61 222.52 537.43 222.83C537.05 223.45 537.95 222.3 537.43 222.81C537.24 223.01 537.05 223.21 536.84 223.4C536.32 223.89 537.49 223.05 536.84 223.36C536.75 223.41 535.96 223.77 536.41 223.61C536.95 223.41 535.54 223.79 536.17 223.69C534.67 223.94 533.85 223.69 532.53 223.4C531.34 223.13 530.2 222.75 529.05 222.35C527.77 221.9 529.62 222.63 528.87 222.28C528.61 222.16 528.36 222.04 528.1 221.92C527.59 221.67 527.09 221.4 526.6 221.12C526.11 220.84 525.63 220.54 525.15 220.23C524.94 220.09 523.44 219.01 524.27 219.64C523.31 218.9 522.41 218.08 521.55 217.23C521.15 216.82 520.76 216.41 520.38 215.98C520.19 215.77 520 215.55 519.81 215.33C519.72 215.22 518.91 214.19 519.26 214.66C519.63 215.15 519.09 214.42 519.01 214.3C518.85 214.07 518.68 213.83 518.52 213.6C518.2 213.12 517.9 212.63 517.6 212.14C516.93 211.03 516.36 209.88 515.82 208.7C515.5 208.01 516.09 209.42 515.82 208.71C515.72 208.44 515.61 208.17 515.51 207.91C515.32 207.37 515.14 206.83 514.97 206.28C514.6 205.05 514.31 203.8 514.09 202.53C514.06 202.37 513.95 201.48 514.02 202.14C514.1 202.81 514.01 201.91 513.99 201.75C513.95 201.18 513.91 200.62 513.89 200.05C513.85 198.77 513.96 197.51 514.05 196.23C514.1 195.48 513.85 197.03 514.05 196.3C514.12 196.03 514.15 195.74 514.2 195.46C514.31 194.9 514.45 194.35 514.6 193.8C514.77 193.17 514.97 192.56 515.19 191.95C515.25 191.76 515.37 191.09 515.24 191.82C515.32 191.68 515.4 191.54 515.47 191.4C515.19 191.71 515.16 191.73 515.4 191.48C515.86 191.28 515.41 191.49 515.24 191.63C515.2 191.65 515.16 191.68 515.12 191.71C514.73 191.76 514.71 191.78 515.07 191.77C515.16 191.77 515.25 191.77 515.33 191.77C514.96 191.69 514.94 191.68 515.27 191.74C515.58 191.79 515.88 191.87 516.19 191.96C516.56 192.06 516.94 192.18 517.3 192.33C517.04 192.22 516.64 191.95 517.37 192.41C517.64 192.58 517.92 192.72 518.18 192.88C518.28 192.94 519.25 193.65 518.82 193.31C518.39 192.97 519.13 193.61 519.22 193.69C519.45 193.9 519.68 194.12 519.9 194.35C520.12 194.58 520.33 194.82 520.54 195.06C521.07 195.67 520.17 194.53 520.65 195.18C521.07 195.77 521.46 196.38 521.81 197.02C521.96 197.3 522.1 197.59 522.25 197.87C522.67 198.65 522.23 197.73 522.42 198.21C523.65 201.44 523.97 204.14 524.12 207.46C524.43 214.76 524.25 222.1 524.28 229.4C524.31 236.71 524.46 244.03 524.35 251.34C524.34 252.19 524.31 253.03 524.26 253.87C524.23 254.25 524.2 254.62 524.17 254.99C524.17 255.05 524.05 255.96 524.14 255.32C523.97 256.55 523.43 258.58 523.18 259.14C522.87 259.83 522.47 260.48 522.05 261.12C521.96 261.24 521.45 261.82 521.95 261.25C521.74 261.49 521.53 261.72 521.31 261.95C520.86 262.41 520.39 262.85 519.88 263.24C520.09 263.09 520.51 262.86 519.73 263.31C519.31 263.56 518.91 263.83 518.48 264.07C518.2 264.23 517.91 264.37 517.62 264.52C517.5 264.58 516.75 264.9 517.47 264.61C516.87 264.85 516.24 265.06 515.61 265.23C514.98 265.42 514.35 265.55 513.7 265.68C513.55 265.71 512.73 265.81 513.58 265.72C513.06 265.78 512.53 265.81 512.01 265.83C508.7 265.95 505.99 265.39 502.69 264.29C499.79 263.32 497.15 262.1 494.4 260.47C493.77 260.1 493.16 259.71 492.56 259.3C492.26 259.09 491.96 258.89 491.67 258.66C491.87 258.81 492.13 259.07 491.41 258.43C490.19 257.33 489.29 256.46 488.63 255.44C488.26 254.88 487.93 254.28 487.65 253.66C487.95 254.33 487.33 252.61 487.29 252.45C487.2 252.13 487.13 251.79 487.06 251.46C487.22 252.23 487.06 251.44 487.05 251.28C487.03 250.95 487.02 250.62 487.02 250.28C487.02 250.17 487.22 248.73 487.04 249.63C487.11 249.31 487.2 248.99 487.28 248.67C487.31 248.55 487.6 247.78 487.3 248.47C487.47 248.09 488.4 246.85 487.73 247.6C487.99 247.31 489.08 246.44 488.27 246.99C488.5 246.84 488.73 246.69 488.97 246.55C489.31 246.36 490.2 246.17 489.3 246.36C489.65 246.29 491.16 245.98 489.99 246.09C490.54 246.04 491.07 246.05 491.62 246.07C490.25 246 492.49 246.55 491.4 246.01C491.63 246.13 491.86 246.3 492.1 246.4C491.36 246.08 492.02 246.33 492.38 246.74C491.73 245.99 492.99 247.95 492.58 247.02C492.84 247.61 493 248.28 493.14 248.92C493.21 249.25 493.27 249.58 493.32 249.91C493.2 249.11 493.31 249.96 493.32 250.09C493.39 250.93 493.45 251.76 493.49 252.59C493.64 255.41 493.74 258.24 493.67 261.06C493.63 262.39 493.56 263.73 493.43 265.05C493.41 265.23 493.16 267.12 493.31 266.17C493.19 266.98 493.05 267.78 492.87 268.57C492.6 269.82 492.26 271.05 491.83 272.25C491.73 272.54 491.62 272.84 491.5 273.13C491.81 272.35 491.51 273.09 491.44 273.23C491.09 273.92 490.75 274.61 490.34 275.28C490.02 275.81 489.67 276.34 489.29 276.83C489.79 276.18 489.29 276.81 489.19 276.91C488.97 277.15 488.77 277.39 488.55 277.61C487.36 278.85 487.05 279.1 485.54 279.98C484.94 280.33 484.32 280.66 483.68 280.94C484.29 280.67 483.49 281 483.42 281.03C483.08 281.14 482.75 281.26 482.42 281.37C481.75 281.58 481.07 281.77 480.38 281.92C480.03 282 479.68 282.07 479.33 282.14C479.34 282.14 477.75 282.35 478.55 282.27C477.14 282.41 475.72 282.47 474.29 282.43C473.58 282.41 472.87 282.37 472.16 282.3C471.8 282.27 471.44 282.24 471.09 282.19C471.87 282.29 470.27 282.06 470.29 282.07C464.09 280.99 459.37 278.94 454.12 275.55C449.18 272.36 444.71 268.21 440.58 263.43C436.4 258.59 432.77 253.21 429.26 247.62C427.47 244.77 425.73 241.88 423.99 239C422.6 236.69 419.51 235.83 417.15 237.21C414.84 238.56 413.96 241.72 415.36 244.05L415.36 244.05" />
			<path id="path44" class="shp0" d="M66.92 165.57C67.03 189.01 71.69 212.46 80.68 234.11C83.31 240.42 86.23 246.59 89.52 252.59C90.82 254.95 94.07 255.72 96.36 254.38C98.75 252.98 99.46 249.91 98.15 247.54C87.57 228.27 80.5 206.33 78.04 184.73C77.32 178.37 76.95 171.97 76.92 165.57C76.9 162.96 74.63 160.45 71.92 160.57C69.22 160.69 66.9 162.77 66.92 165.57L66.92 165.57" />
			<path id="path46" class="shp0" d="M76.87 174.05C82.9 173.55 88.93 173.07 94.99 172.93C100.67 172.8 107.07 172.98 112.21 173.8C117.87 174.71 123.64 176.35 128.37 178.67C130.89 179.91 133.32 181.32 135.67 182.86C137.96 184.37 140.07 185.92 141.93 187.41C146.95 191.45 151.62 195.88 156.27 200.32C158.23 202.18 161.4 202.26 163.35 200.32C165.22 198.44 165.31 195.12 163.35 193.25C154.69 185.01 145.8 176.58 135.17 170.93C123.79 164.9 111.07 162.89 98.31 162.89C91.15 162.89 84 163.46 76.87 164.05C74.27 164.27 71.74 166.2 71.87 169.05C71.98 171.58 74.08 174.29 76.87 174.05L76.87 174.05" />
			<path id="path48" class="shp0" d="M120.8 130.33C119.41 138.32 118.02 146.31 116.64 154.31C116.19 156.87 117.32 159.82 120.13 160.46C122.56 161.01 125.8 159.72 126.28 156.96C127.66 148.97 129.05 140.98 130.44 132.99C130.88 130.42 129.75 127.47 126.95 126.83C124.52 126.28 121.27 127.57 120.8 130.33L120.8 130.33Z" />
			<path id="path50" class="shp0" d="M124.17 143.83C151.41 141.57 179.13 149.47 197.61 169.69C200.25 172.58 201.76 174.5 203.85 177.63C205.87 180.65 207.64 183.82 209.17 187.1C210.32 189.55 213.84 190.17 216.01 188.9C218.52 187.43 218.96 184.51 217.81 182.06C205.55 155.83 178.83 138.94 150.71 134.75C141.91 133.43 133.05 133.09 124.17 133.83C121.57 134.04 119.05 135.97 119.17 138.83C119.29 141.35 121.38 144.06 124.17 143.83L124.17 143.83" />
			<path id="path52" class="shp0" d="M208.03 232.4C222.27 225.83 238.93 221.92 254.35 220.22C262.56 219.32 270.82 218.89 279.08 218.78C287.42 218.68 295.81 218.32 303.7 220.93C308.35 222.47 312.84 224.48 317.36 226.33C322.12 228.28 326.87 230.23 331.63 232.17C334.06 233.17 337.23 231.1 337.78 228.68C338.44 225.77 336.89 223.6 334.29 222.53C325.78 219.05 317.33 215.33 308.71 212.12C300.01 208.88 290.97 208.72 281.79 208.76C264.69 208.83 247.47 210.23 230.79 214.17C221.22 216.44 211.92 219.65 202.99 223.77C200.53 224.9 199.92 228.44 201.19 230.61C202.66 233.13 205.57 233.54 208.03 232.4L208.03 232.4" />
			<path id="path54" class="shp0" d="M200.03 228.54C200.04 234.3 200.05 240.05 200.05 245.8C200.05 248.06 201.61 249.96 203.72 250.62C208.42 252.09 212.72 250.23 217.02 248.48C220.67 246.99 224.39 245.67 228.15 244.51C231.92 243.34 235.74 242.35 239.59 241.51C241.47 241.1 243.36 240.73 245.25 240.41C247.08 240.09 249.52 239.71 250.77 239.56C258.61 238.63 266.5 238.27 274.39 238.6C278.43 238.77 282.46 239.12 286.47 239.62C287.54 239.76 289.54 240.07 291.13 240.34C293.12 240.68 295.11 241.06 297.08 241.49C301.4 242.42 305.68 243.56 309.9 244.9C314.08 246.23 318.57 247.91 322.19 249.5C324.66 250.58 327.56 250.22 329.03 247.7C330.27 245.58 329.72 241.95 327.24 240.86C297.02 227.62 262.69 224.88 230.76 233.35C226.49 234.49 222.27 235.83 218.12 237.37C215.95 238.18 213.81 239.09 211.66 239.96C210.55 240.41 209.43 240.81 208.26 241.1C207.5 241.28 207.07 241.19 206.38 240.98C207.61 242.59 208.83 244.19 210.05 245.8C210.05 240.05 210.04 234.3 210.03 228.54C210.03 225.93 207.73 223.42 205.03 223.54C202.33 223.67 200.03 225.74 200.03 228.54L200.03 228.54" />
			<path id="path56" class="shp0" d="M329.49 226.67C329.46 227.47 329.4 228.28 329.33 229.07C329.3 229.42 329.27 229.76 329.23 230.1C329.2 230.33 329.18 230.56 329.15 230.78C329.08 231.34 329.09 231.24 329.19 230.47C329.27 230.7 329.07 231.27 329.03 231.49C328.98 231.83 328.92 232.17 328.86 232.51C328.71 233.3 328.55 234.08 328.37 234.87C328.03 236.32 327.64 237.75 327.18 239.17C326.94 239.93 326.67 240.69 326.39 241.44C326.27 241.77 326.15 242.09 326.02 242.41C325.94 242.62 325.85 242.83 325.77 243.04C326.05 242.38 326.08 242.3 325.87 242.8C325.32 244.08 324.98 245.24 325.36 246.65C325.68 247.81 326.58 249.07 327.66 249.64C328.82 250.25 330.23 250.56 331.52 250.14C332.67 249.77 334 249.01 334.5 247.85C337.41 241.08 339.14 234.05 339.49 226.67C339.62 224.06 337.1 221.56 334.49 221.67C331.68 221.8 329.63 223.87 329.49 226.67L329.49 226.67" />
			<path id="path58" class="shp0" d="M112.84 288.84C107.35 287.77 101.27 288 96.43 291.12C91.86 294.07 88.57 299.17 88.76 304.73C88.85 307.34 90.99 309.85 93.76 309.73C96.39 309.61 98.86 307.53 98.76 304.73C98.74 304.2 98.76 303.69 98.82 303.17C98.76 303.61 98.7 304.05 98.64 304.5C98.73 303.9 98.86 303.31 99.05 302.73C99.1 302.57 99.16 302.41 99.23 302.24C99.12 302.48 99.02 302.72 98.92 302.96C98.98 302.65 99.24 302.3 99.4 302.03C99.53 301.8 99.66 301.58 99.81 301.36C99.91 301.21 100.01 301.07 100.11 300.93C99.96 301.13 99.81 301.33 99.65 301.52C99.92 301.03 100.51 300.56 100.92 300.18C101.12 300 101.33 299.84 101.53 299.67C100.4 300.67 101.14 299.98 101.48 299.76C101.99 299.43 102.57 299.2 103.08 298.89C102.35 299.19 102.22 299.24 102.72 299.05C102.86 298.99 103 298.94 103.14 298.89C103.47 298.78 103.81 298.68 104.15 298.59C104.82 298.41 105.51 298.28 106.21 298.19C105.77 298.25 105.32 298.31 104.88 298.37C106.59 298.16 108.31 298.19 110.02 298.41C109.58 298.35 109.13 298.29 108.69 298.23C109.19 298.3 109.69 298.38 110.18 298.48C111.52 298.74 112.83 298.68 114.04 297.97C115.07 297.37 116.06 296.18 116.33 294.99C116.9 292.51 115.59 289.37 112.84 288.84L112.84 288.84Z" />
			<path id="path60" class="shp0" d="M297.38 304.38C295.18 312.99 292.83 321.57 290.33 330.1C289.6 332.61 291.22 335.66 293.82 336.25C296.5 336.86 299.19 335.45 299.97 332.76C302.47 324.22 304.82 315.65 307.02 307.03C307.67 304.5 306.19 301.49 303.53 300.88C300.93 300.29 298.07 301.67 297.38 304.38L297.38 304.38Z" />
			<path id="path62" class="shp0" d="M302.86 298.93C295.14 297.53 287.31 296.65 279.46 296.43C275.62 296.32 271.69 296.23 267.86 296.59C263.78 296.97 260.47 298.61 257.54 301.47C246.65 312.06 247.45 328.03 247.55 341.98C247.55 342.52 247.56 343.06 247.55 343.6C247.53 346.24 249.66 341.11 250.54 341.49C249.79 341.16 248.21 341.5 247.39 341.5C245.19 341.5 242.99 341.5 240.79 341.5C236.39 341.5 231.99 341.5 227.59 341.5C224.97 341.5 222.47 343.8 222.59 346.5C222.71 349.21 224.79 351.5 227.59 351.5C231.44 351.5 235.29 351.5 239.14 351.5C242.92 351.5 246.77 351.7 250.54 351.49C252.94 351.35 255.29 350.36 256.54 348.2C257.64 346.31 257.57 344.09 257.55 341.98C257.52 338.18 257.38 334.39 257.46 330.6C257.53 327 257.72 324.05 258.44 320.79C258.75 319.39 259.13 318.01 259.6 316.65C259.65 316.51 260.31 314.8 260.07 315.36C260.42 314.55 260.82 313.75 261.25 312.98C261.6 312.37 261.96 311.77 262.36 311.18C262.55 310.89 262.75 310.6 262.96 310.32C262.55 310.86 263.24 310 263.34 309.89C263.8 309.35 264.29 308.84 264.8 308.35C265.06 308.11 265.33 307.86 265.6 307.63C265.86 307.42 265.88 307.4 265.66 307.59C265.88 307.44 266.11 307.29 266.34 307.16C266.42 307.11 267.39 306.65 266.95 306.82C266.48 307 267.63 306.66 267.71 306.64C268.03 306.57 268.91 306.51 269.66 306.48C271.62 306.39 273.58 306.36 275.54 306.37C283.86 306.38 292.09 307.1 300.2 308.57C302.77 309.03 305.72 307.87 306.36 305.08C306.91 302.63 305.62 299.42 302.86 298.93L302.86 298.93" />
			<path id="path64" class="shp0" d="M226.65 374.57C233.55 374.3 240.45 374.44 247.33 374.98C249.94 375.19 252.44 372.54 252.33 369.98C252.2 367.1 250.13 365.21 247.33 364.98C240.45 364.44 233.55 364.3 226.65 364.57C224.04 364.68 221.53 366.8 221.65 369.57C221.77 372.19 223.85 374.68 226.65 374.57L226.65 374.57Z" />
			<path id="path66" class="shp0" d="M241.86 372.35C241.86 384.44 241.86 396.53 241.85 408.62C241.85 414.66 241.85 420.71 241.85 426.75C241.85 430.28 241.46 434.18 245.08 436.15C246.94 437.17 248.85 436.79 250.83 436.52C252.45 436.29 254.08 436.06 255.71 435.83C262.43 434.9 269.15 433.96 275.87 433.02C278.54 432.64 280.01 429.23 279.36 426.87C278.57 423.99 275.89 423 273.21 423.37C268.76 424 264.32 424.62 259.88 425.24C257.71 425.54 255.54 425.84 253.37 426.15C252.29 426.3 251.2 426.45 250.12 426.6C249.58 426.68 249.04 426.76 248.49 426.83C248.28 426.86 248.06 426.89 247.85 426.92C248.21 426.87 248.13 426.84 247.6 426.84C248.45 427.07 249.29 427.29 250.13 427.52C250 427.45 249.87 427.39 249.74 427.32C250.33 427.92 250.93 428.52 251.53 429.12C251.77 430.5 251.88 430.81 251.85 430.05C251.85 429.72 251.85 429.39 251.85 429.06C251.85 428.4 251.85 427.74 251.85 427.08C251.85 425.98 251.85 424.89 251.85 423.79C251.85 421.37 251.85 418.95 251.85 416.53C251.85 411.59 251.85 406.64 251.85 401.69C251.86 391.91 251.86 382.13 251.86 372.35C251.86 369.73 249.56 367.22 246.86 367.35C244.15 367.47 241.86 369.54 241.86 372.35L241.86 372.35" />
			<path id="path68" class="shp0" d="M272.06 369.56C270.14 378.45 270.22 387.72 269.84 396.78C269.45 405.86 269.07 414.95 268.68 424.04C268.57 426.65 271.06 429.15 273.68 429.04C276.49 428.91 278.57 426.84 278.68 424.04C279.06 415.17 279.43 406.31 279.81 397.44C280.17 389.06 279.96 380.27 281.71 372.21C282.26 369.66 280.95 366.69 278.21 366.06C275.69 365.49 272.65 366.82 272.06 369.56L272.06 369.56Z" />
			<path id="path70" class="shp0" d="M294.39 326.11C294.25 326.14 293.95 326.16 293.81 326.23C294.59 325.86 294.79 326.13 294.27 326.13C293.94 326.13 293.42 326.02 293.11 326.1C293.74 325.93 294.15 326.27 293.58 326.16C293.39 326.12 293.2 326.08 293.01 326.04C292.52 325.93 292.05 325.79 291.57 325.64C289.97 325.13 288.43 324.45 286.83 323.92C284.92 323.29 282.79 322.84 280.77 322.99C277.63 323.24 275.06 324.49 273.23 327.1C270.86 330.47 271.2 335.29 271 339.22C270.95 340.25 270.9 341.27 270.85 342.3C270.79 343.55 270.61 344.88 270.98 346.11C271.57 348.14 273.1 349.69 275.12 350.31C276.42 350.7 277.91 350.57 279.25 350.57C284.27 350.56 289.3 350.56 294.32 350.55C296.93 350.55 299.44 348.25 299.32 345.55C299.2 342.85 297.12 340.55 294.32 340.55C290.49 340.56 286.65 340.56 282.82 340.57C281.89 340.57 280.97 340.57 280.04 340.57C279.07 340.57 277.95 340.42 276.99 340.57C277.6 341.05 278.2 341.53 278.81 342.01C280 342.3 280.63 342.92 280.69 343.87C280.83 344.74 280.76 344.07 280.77 343.84C280.79 343.39 280.82 342.94 280.84 342.49C280.89 341.53 280.94 340.57 280.98 339.6C281.07 337.82 281.14 336.03 281.26 334.25C281.28 333.93 281.31 333.61 281.35 333.28C281.41 332.64 281.14 334.41 281.29 333.79C281.31 333.65 281.33 333.51 281.36 333.38C281.43 333.07 281.54 332.77 281.61 332.46C281.76 331.87 281.08 333.43 281.41 332.92C281.49 332.79 281.6 332.61 281.65 332.46C281.85 331.92 280.92 333.28 281.32 332.86C281.38 332.8 281.57 332.66 281.59 332.59C281.36 333.25 280.68 333.13 281.21 332.9C281.19 332.91 280.25 333.18 280.78 333.07C281 333.02 281.68 332.95 280.94 332.97C280.2 332.99 280.8 332.99 280.94 332.98C281.34 332.97 281.73 332.98 282.13 333C282.97 333.04 281.77 332.98 281.69 332.93C281.8 333 282.18 333.02 282.28 333.04C282.57 333.1 282.86 333.18 283.15 333.26C283.94 333.47 284.71 333.74 285.47 334.03C289.29 335.44 292.91 336.66 297.05 335.75C299.6 335.19 301.34 332.08 300.54 329.6C299.67 326.91 297.13 325.51 294.39 326.11L294.39 326.11" />
			<path id="path72" class="shp0" d="M274.58 374.05C281.16 374.05 287.74 374.05 294.32 374.05C296.94 374.05 299.44 371.75 299.32 369.05C299.2 366.35 297.12 364.05 294.32 364.05C287.74 364.05 281.16 364.05 274.58 364.05C271.97 364.05 269.46 366.35 269.58 369.05C269.7 371.76 271.78 374.05 274.58 374.05L274.58 374.05" />
			<path id="path74" class="shp0" d="M292.14 348.38C292.14 355.11 292.14 361.85 292.14 368.58C292.14 371.2 294.44 373.71 297.14 373.58C299.85 373.46 302.14 371.39 302.14 368.58C302.14 361.85 302.14 355.11 302.14 348.38C302.14 345.76 299.84 343.26 297.14 343.38C294.43 343.5 292.14 345.57 292.14 348.38L292.14 348.38Z" />
			<path id="path76" class="shp0" d="M219.77 346.97C219.77 355.43 219.77 363.89 219.77 372.34C219.77 374.96 222.07 377.47 224.77 377.34C227.48 377.22 229.77 375.15 229.77 372.34C229.77 363.89 229.77 355.43 229.77 346.97C229.77 344.35 227.47 341.85 224.77 341.97C222.06 342.09 219.77 344.16 219.77 346.97L219.77 346.97Z" />
			<path id="path78" class="shp0" d="M207.89 23.28C195.81 48.28 190.95 80.53 208.78 104.17C216.84 114.85 227.91 122.44 240.28 127.33C252.21 132.06 265.69 134.22 278.47 132.68C285.37 131.85 292.02 130.12 298.24 126.96C304.42 123.82 309.63 119.23 313.8 113.72C322.02 102.86 325 88.91 326.28 75.62C327.64 61.56 326.83 46.24 318.06 34.51C309.59 23.19 296.53 16.34 284.02 10.36C270.29 3.8 255.24 -1.28 239.85 1.1C227.93 2.94 215.86 10.1 210.1 20.96C208.66 23.68 207.57 26.61 207 29.64C206.52 32.2 207.71 35.16 210.49 35.79C212.95 36.35 216.13 35.05 216.64 32.3C216.88 31.02 217.2 29.76 217.62 28.53C217.75 28.17 217.88 27.82 218.01 27.47C217.94 27.66 217.62 28.29 218.04 27.42C218.36 26.74 218.69 26.07 219.06 25.41C219.65 24.36 220.31 23.36 221.03 22.39C220.5 23.1 221.46 21.88 221.67 21.65C222.16 21.07 222.68 20.52 223.22 19.99C223.65 19.56 224.1 19.14 224.56 18.73C224.84 18.48 225.13 18.23 225.43 17.98C225.52 17.9 226.27 17.3 225.82 17.65C225.37 18 226.14 17.42 226.24 17.35C226.55 17.12 226.87 16.9 227.19 16.68C227.77 16.29 228.36 15.91 228.96 15.55C230.1 14.87 231.27 14.24 232.47 13.67C232.64 13.59 234.31 12.89 233.44 13.24C234.17 12.95 234.91 12.67 235.65 12.42C236.92 11.99 238.21 11.62 239.51 11.32C240.12 11.18 240.74 11.05 241.35 10.94C241.74 10.87 242.13 10.81 242.51 10.74C243.46 10.58 242.22 10.76 242.81 10.7C246.03 10.38 249.26 10.38 252.49 10.67C255.38 10.94 258.74 11.62 261.94 12.49C265.32 13.4 268.63 14.55 271.88 15.84C277.73 18.18 283.95 21.35 289.73 24.5C295.13 27.45 300.38 30.69 304.54 34.44C309.01 38.48 312.41 43.03 314.29 48.43C316.48 54.69 316.93 60.21 316.81 66.87C316.75 70.14 316.52 73.41 316.18 76.66C316.11 77.35 316.03 78.05 315.94 78.74C315.96 78.59 315.74 80.29 315.83 79.63C315.91 79.09 315.75 80.17 315.74 80.27C315.51 81.83 315.25 83.39 314.94 84.94C314.36 87.95 313.62 90.93 312.69 93.84C311.69 97 310.99 98.81 309.61 101.52C306.91 106.86 303.68 111.11 299.27 114.55C294.94 117.92 290.14 120.03 284.7 121.44C283.21 121.83 281.71 122.15 280.2 122.41C279.86 122.47 279.52 122.52 279.19 122.58C279.07 122.6 278.21 122.72 278.98 122.61C278.13 122.73 277.27 122.82 276.42 122.89C273.49 123.15 270.55 123.2 267.61 123.08C261.63 122.84 256.94 122.06 250.85 120.35C248 119.56 245.2 118.61 242.47 117.5C242.29 117.43 241.3 117.02 242.02 117.33C241.71 117.19 241.41 117.06 241.1 116.92C240.48 116.65 239.87 116.36 239.26 116.07C237.9 115.42 236.55 114.73 235.23 113.99C232.67 112.57 230.2 111 227.84 109.26C227.51 109.01 227.17 108.77 226.84 108.51C227.02 108.65 227.44 109 226.68 108.37C226.17 107.95 225.65 107.53 225.15 107.1C224.01 106.13 222.92 105.12 221.86 104.07C220.86 103.08 219.9 102.05 218.98 100.99C218.54 100.5 218.12 99.99 217.7 99.48C217.59 99.33 216.94 98.5 217.42 99.12C217.16 98.79 216.92 98.46 216.68 98.12C214.94 95.72 213.41 93.18 212.1 90.52C210.81 87.89 209.91 85.45 209.03 82.28C208.62 80.8 208.27 79.3 207.97 77.79C207.84 77.08 207.72 76.36 207.6 75.65C207.52 75.15 207.46 74.74 207.36 73.74C206 60.72 208.39 48.63 213.05 36.35C214.13 33.48 215.09 31.3 216.53 28.33C217.7 25.9 217.19 22.92 214.73 21.49C212.54 20.21 209.07 20.84 207.89 23.28L207.89 23.28" />
			<path id="path80" class="shp0" d="M230.11 67.2C233.56 67.53 237.03 67.6 240.49 67.36C242.36 67.22 244.22 66.99 246.07 66.72C246.98 66.59 247.89 66.44 248.79 66.27C249.07 66.21 250.07 66.24 249.38 66.15C249.18 66.12 248.03 65.96 248.73 66.25C247.99 65.82 247.26 65.39 246.53 64.96C246.39 64.76 246.25 64.56 246.11 64.36C245.88 63.52 245.65 62.68 245.43 61.84C245.43 61.64 245.44 61.45 245.45 61.25C245.88 60.52 246.31 59.78 246.74 59.05C244.46 61.54 241.83 63.79 239.36 66.09C236.76 68.5 234.13 70.88 231.48 73.24C226.71 77.49 221.37 81.49 218.3 87.23C216.5 90.59 218.73 94.69 222.61 94.76C233.46 94.95 244.31 94.99 255.16 94.89C257.77 94.86 260.28 92.6 260.16 89.89C260.04 87.2 257.96 84.86 255.16 84.89C244.31 84.99 233.46 84.95 222.61 84.76C224.05 87.26 225.49 89.77 226.93 92.28C228.17 89.96 229.1 88.9 231.04 87.01C232.92 85.18 234.95 83.5 236.92 81.76C241.38 77.83 245.76 73.82 250.08 69.73C252.57 67.37 255.86 65.02 255.34 61.17C254.75 56.83 250.34 55.85 246.73 56.51C241.44 57.47 235.79 57.75 230.11 57.2C227.5 56.94 225 59.68 225.11 62.2C225.25 65.12 227.32 66.92 230.11 67.2L230.11 67.2Z" />
			<path id="path82" class="shp0" d="M263.32 57.33C263.32 63.21 263.32 69.09 263.31 74.97C263.31 78.02 263.31 81.07 263.31 84.12C263.31 87.05 262.81 90.58 264.34 93.23C266.29 96.61 269.95 96.8 273.43 96.85C276.2 96.89 278.98 96.75 281.75 96.44C287.64 95.78 293.38 94.52 298.95 92.46C301.48 91.52 303.2 89.07 302.44 86.31C301.77 83.87 298.83 81.87 296.29 82.82C291.95 84.43 286.9 85.75 282.67 86.33C280.32 86.65 277.95 86.8 275.59 86.84C274.35 86.87 273.12 86.85 271.88 86.81C271.57 86.8 271.27 86.78 270.96 86.77C271.54 86.82 271.97 87.16 272.26 87.79C272.93 88.07 273.28 88.53 273.31 89.15C273.31 88.89 273.3 88.63 273.31 88.36C273.26 78.02 273.32 67.67 273.32 57.33C273.32 54.72 271.02 52.21 268.32 52.33C265.61 52.45 263.32 54.53 263.32 57.33L263.32 57.33" />
			<path id="path84" class="shp0" d="M256.47 86.17C267.67 80.96 278.53 75.06 288.99 68.51C291.28 67.08 292.18 64.05 290.79 61.67C289.45 59.39 286.25 58.44 283.95 59.88C273.48 66.43 262.62 72.32 251.42 77.54C248.98 78.68 248.36 82.21 249.63 84.38C251.1 86.89 254.01 87.32 256.47 86.17L256.47 86.17Z" />
		</g>
	</g>
</svg>