<svg xmlns="http://www.w3.org/2000/svg" viewBox="0 0 823 706" width="823" height="706">
	<style>
		tspan { white-space:pre }
		.shp0 { fill: #eb1d27 } 
	</style>
	<g id="g10">
		<g id="g12">
			<path id="path14" fill-rule="evenodd" class="shp0" d="M45.17 678.68C45.17 682.53 44.56 686.07 43.35 689.3C42.14 692.53 40.42 695.31 38.19 697.63C35.96 699.95 33.28 701.75 30.14 703.04C27.01 704.33 23.53 704.98 19.7 704.98L0.56 704.98L0.56 652.47L19.7 652.47C23.53 652.47 27.01 653.11 30.14 654.4C33.28 655.69 35.96 657.5 38.19 659.82C40.42 662.14 42.14 664.91 43.35 668.13C44.56 671.34 45.17 674.86 45.17 678.68ZM34.61 678.68C34.61 675.89 34.27 673.39 33.58 671.17C32.9 668.96 31.92 667.07 30.64 665.52C29.36 663.96 27.8 662.77 25.95 661.94C24.11 661.11 22.02 660.69 19.7 660.69L11 660.69L11 696.72L19.7 696.72C22.02 696.72 24.11 696.31 25.95 695.49C27.8 694.67 29.36 693.49 30.64 691.93C31.92 690.37 32.9 688.48 33.58 686.26C34.27 684.03 34.61 681.51 34.61 678.68Z" />
			<path id="path16" fill-rule="evenodd" class="shp0" d="M94.17 704.98L86.18 704.98C85.25 704.98 84.52 704.76 83.96 704.33C83.41 703.89 83 703.35 82.74 702.69L79.42 692.37L60.08 692.37L56.8 702.65C56.58 703.23 56.18 703.76 55.59 704.25C55 704.74 54.27 704.98 53.39 704.98L45.29 704.98L64.43 652.47L75.03 652.47L94.17 704.98ZM62.41 685.09L77.04 685.09L71.7 668.48C71.39 667.66 71.06 666.71 70.72 665.61C70.37 664.52 70.03 663.33 69.69 662.03C69.37 663.33 69.04 664.53 68.7 665.63C68.36 666.74 68.04 667.7 67.75 668.52L62.41 685.09Z" />
			<path id="path18" fill-rule="evenodd" class="shp0" d="M109.31 684.77L109.31 704.98L98.87 704.98L98.87 652.47L114.69 652.47C118.19 652.47 121.2 652.84 123.7 653.59C126.21 654.34 128.26 655.39 129.85 656.74C131.45 658.08 132.61 659.69 133.35 661.56C134.09 663.43 134.46 665.49 134.46 667.73C134.46 669.44 134.22 671.07 133.75 672.61C133.27 674.16 132.58 675.57 131.67 676.84C130.76 678.12 129.65 679.26 128.33 680.25C127.01 681.23 125.5 682.03 123.78 682.64C124.44 683.01 125.06 683.45 125.64 683.96C126.22 684.48 126.76 685.1 127.26 685.84L139.01 704.98L129.64 704.98C127.97 704.98 126.7 704.28 125.8 702.89L116.23 686.51C115.83 685.88 115.39 685.43 114.91 685.17C114.42 684.91 113.73 684.77 112.83 684.77L109.31 684.77ZM109.31 677.38L114.61 677.38C116.3 677.38 117.75 677.15 118.98 676.71C120.21 676.26 121.21 675.64 122 674.85C122.79 674.06 123.38 673.11 123.76 672.02C124.15 670.93 124.34 669.73 124.34 668.44C124.34 665.89 123.55 663.91 121.97 662.53C120.38 661.15 117.96 660.45 114.69 660.45L109.31 660.45L109.31 677.38Z" />
			<path id="path20" fill-rule="evenodd" class="shp0" d="M191.92 678.68C191.92 682.53 191.31 686.1 190.1 689.38C188.89 692.66 187.17 695.5 184.94 697.9C182.71 700.3 180.03 702.17 176.89 703.52C173.75 704.86 170.27 705.53 166.45 705.53C162.63 705.53 159.15 704.86 156.01 703.52C152.87 702.17 150.19 700.3 147.95 697.9C145.7 695.5 143.97 692.66 142.75 689.38C141.52 686.1 140.91 682.53 140.91 678.68C140.91 674.86 141.52 671.31 142.75 668.03C143.97 664.75 145.7 661.91 147.95 659.52C150.19 657.14 152.87 655.27 156.01 653.91C159.15 652.55 162.63 651.87 166.45 651.87C170.27 651.87 173.75 652.55 176.89 653.91C180.03 655.27 182.71 657.15 184.94 659.54C187.17 661.94 188.89 664.78 190.1 668.05C191.31 671.31 191.92 674.86 191.92 678.68ZM181.32 678.68C181.32 675.89 180.98 673.39 180.29 671.17C179.61 668.96 178.63 667.07 177.35 665.52C176.07 663.96 174.51 662.77 172.68 661.94C170.85 661.11 168.77 660.69 166.45 660.69C164.13 660.69 162.05 661.11 160.2 661.94C158.36 662.77 156.8 663.96 155.52 665.52C154.24 667.07 153.26 668.96 152.57 671.17C151.89 673.39 151.54 675.89 151.54 678.68C151.54 681.51 151.89 684.03 152.57 686.26C153.26 688.48 154.24 690.37 155.52 691.91C156.8 693.45 158.36 694.63 160.2 695.45C162.05 696.27 164.13 696.68 166.45 696.68C168.77 696.68 170.85 696.27 172.68 695.45C174.51 694.63 176.07 693.45 177.35 691.91C178.63 690.37 179.61 688.48 180.29 686.26C180.98 684.03 181.32 681.51 181.32 678.68Z" />
			<path id="path22" class="shp0" d="M193.14 652.47L201.84 652.47C202.77 652.47 203.53 652.68 204.12 653.1C204.71 653.52 205.11 654.07 205.32 654.76L213.07 685.09C213.52 686.67 213.94 688.5 214.34 690.59C214.55 689.56 214.76 688.58 214.97 687.64C215.18 686.71 215.43 685.84 215.72 685.05L224.9 654.76C225.11 654.15 225.52 653.62 226.12 653.16C226.73 652.7 227.45 652.47 228.3 652.47L231.34 652.47C232.27 652.47 233.01 652.67 233.58 653.08C234.15 653.49 234.55 654.05 234.78 654.76L243.96 685.09C244.22 685.85 244.47 686.69 244.69 687.6C244.91 688.51 245.13 689.47 245.34 690.47C245.53 689.47 245.72 688.52 245.92 687.62C246.11 686.72 246.32 685.89 246.53 685.13L254.28 654.76C254.46 654.15 254.87 653.62 255.49 653.16C256.11 652.7 256.84 652.47 257.68 652.47L265.83 652.47L250.25 704.98L240.83 704.98L230.43 670.06C230.28 669.61 230.12 669.11 229.98 668.56C229.83 668.01 229.7 667.43 229.56 666.82C229.43 667.43 229.29 668.01 229.13 668.56C228.97 669.11 228.83 669.61 228.69 670.06L218.1 704.98L208.72 704.98L193.14 652.47Z" />
			<path id="path24" class="shp0" d="M282.2 704.98L271.76 704.98L271.76 652.47L282.2 652.47L282.2 704.98Z" />
			<path id="path26" class="shp0" d="M325.3 652.47L325.3 656.3C325.3 657.43 324.97 658.48 324.31 659.42L301.69 696.72L324.67 696.72L324.67 704.98L289.12 704.98L289.12 700.95C289.12 699.89 289.42 698.94 290.03 698.1L312.65 660.73L290.86 660.73L290.86 652.47L325.3 652.47Z" />
			<path id="path28" class="shp0" d="M337.92 652.53C338.23 652.57 338.52 652.64 338.77 652.76C339.02 652.88 339.25 653.05 339.48 653.26C339.7 653.47 339.96 653.75 340.25 654.09L366.11 688.17C365.95 686.43 365.87 684.79 365.87 683.23L365.87 652.47L375.01 652.47L375.01 704.98L369.67 704.98C368.85 704.98 368.17 704.84 367.63 704.57C367.09 704.29 366.56 703.83 366.03 703.2L340.25 669.31C340.41 670.95 340.49 672.46 340.49 673.86L340.49 704.98L331.31 704.98L331.31 652.47L336.77 652.47C337.22 652.47 337.6 652.48 337.92 652.53Z" />
			<path id="path30" fill-rule="evenodd" class="shp0" d="M428.87 704.98L420.88 704.98C419.96 704.98 419.22 704.76 418.67 704.33C418.11 703.89 417.7 703.35 417.44 702.69L414.12 692.37L394.78 692.37L391.5 702.65C391.29 703.23 390.89 703.76 390.29 704.25C389.7 704.74 388.97 704.98 388.1 704.98L379.99 704.98L399.13 652.47L409.73 652.47L428.87 704.98ZM397.11 685.09L411.75 685.09L406.41 668.48C406.09 667.66 405.76 666.71 405.42 665.61C405.08 664.52 404.73 663.33 404.39 662.03C404.07 663.33 403.74 664.53 403.4 665.63C403.06 666.74 402.74 667.7 402.45 668.52L397.11 685.09Z" />
			<path id="path32" fill-rule="evenodd" class="shp0" d="M462.32 684.77L462.32 704.98L451.88 704.98L451.88 652.47L467.7 652.47C471.21 652.47 474.21 652.84 476.72 653.59C479.22 654.34 481.27 655.39 482.87 656.74C484.46 658.08 485.63 659.69 486.37 661.56C487.1 663.43 487.47 665.49 487.47 667.73C487.47 669.44 487.24 671.07 486.76 672.61C486.29 674.16 485.59 675.57 484.69 676.84C483.78 678.12 482.66 679.26 481.34 680.25C480.03 681.23 478.51 682.03 476.8 682.64C477.45 683.01 478.07 683.45 478.65 683.96C479.23 684.48 479.78 685.1 480.28 685.84L492.02 704.98L482.65 704.98C480.99 704.98 479.71 704.28 478.81 702.89L469.24 686.51C468.85 685.88 468.41 685.43 467.92 685.17C467.43 684.91 466.74 684.77 465.84 684.77C465.84 684.77 462.32 684.77 462.32 684.77ZM462.32 677.38L467.62 677.38C469.31 677.38 470.77 677.15 471.99 676.71C473.22 676.26 474.23 675.64 475.02 674.85C475.81 674.06 476.39 673.11 476.78 672.02C477.16 670.93 477.35 669.73 477.35 668.44C477.35 665.89 476.56 663.91 474.98 662.53C473.4 661.15 470.97 660.45 467.7 660.45L462.32 660.45L462.32 677.38Z" />
			<path id="path34" class="shp0" d="M530.34 652.47L530.34 656.3C530.34 657.43 530.01 658.48 529.35 659.42L506.73 696.72L529.71 696.72L529.71 704.98L494.16 704.98L494.16 700.95C494.16 699.89 494.46 698.94 495.07 698.1L517.69 660.73L495.9 660.73L495.9 652.47L530.34 652.47" />
			<path id="path36" class="shp0" d="M568.22 652.47L568.22 660.73L546.63 660.73L546.63 674.61L563.44 674.61L563.44 682.56L546.63 682.56L546.63 696.72L568.26 696.72L568.22 704.98L536.19 704.98L536.19 652.47L568.22 652.47" />
			<path id="path38" class="shp0" d="M606.3 692.25C606.86 692.25 607.33 692.46 607.73 692.88L611.88 697.35C609.98 700.01 607.6 702.04 604.74 703.44C601.88 704.84 598.49 705.53 594.56 705.53C591 705.53 587.8 704.87 584.95 703.54C582.1 702.21 579.68 700.35 577.69 697.96C575.7 695.58 574.17 692.74 573.11 689.46C572.04 686.18 571.51 682.59 571.51 678.68C571.51 674.75 572.08 671.15 573.23 667.87C574.37 664.59 575.99 661.76 578.07 659.39C580.15 657.01 582.64 655.17 585.54 653.85C588.44 652.53 591.63 651.87 595.11 651.87C598.65 651.87 601.77 652.5 604.49 653.75C607.2 655 609.47 656.66 611.29 658.71L607.81 663.58C607.57 663.87 607.3 664.13 607 664.37C606.69 664.61 606.27 664.72 605.71 664.72C605.16 664.72 604.62 664.51 604.11 664.09C603.6 663.67 602.96 663.21 602.21 662.71C601.46 662.21 600.52 661.75 599.38 661.32C598.25 660.9 596.8 660.69 595.03 660.69C593.11 660.69 591.36 661.09 589.77 661.9C588.19 662.7 586.83 663.87 585.7 665.42C584.57 666.96 583.69 668.84 583.07 671.07C582.45 673.3 582.14 675.84 582.14 678.68C582.14 681.56 582.49 684.11 583.17 686.35C583.86 688.6 584.79 690.49 585.96 692.03C587.13 693.57 588.51 694.75 590.09 695.55C591.67 696.35 593.37 696.75 595.19 696.75C596.27 696.75 597.25 696.69 598.12 696.58C598.99 696.46 599.8 696.25 600.55 695.95C601.3 695.64 602.01 695.25 602.67 694.78C603.33 694.3 603.98 693.71 604.64 693C604.91 692.79 605.18 692.61 605.45 692.47C605.73 692.32 606.01 692.25 606.3 692.25" />
			<path id="path40" class="shp0" d="M650.24 652.47L650.24 656.3C650.24 657.43 649.91 658.48 649.25 659.42L626.63 696.72L649.61 696.72L649.61 704.98L614.05 704.98L614.05 700.95C614.05 699.89 614.36 698.94 614.96 698.1L637.58 660.73L615.79 660.73L615.79 652.47L650.24 652.47" />
			<path id="path42" fill-rule="evenodd" class="shp0" d="M703.15 678.68C703.15 682.53 702.54 686.1 701.33 689.38C700.12 692.66 698.4 695.5 696.17 697.9C693.94 700.3 691.26 702.17 688.12 703.52C684.98 704.86 681.5 705.53 677.68 705.53C673.86 705.53 670.38 704.86 667.24 703.52C664.11 702.17 661.42 700.3 659.17 697.9C656.93 695.5 655.2 692.66 653.97 689.38C652.75 686.1 652.14 682.53 652.14 678.68C652.14 674.86 652.75 671.31 653.97 668.03C655.2 664.75 656.93 661.91 659.17 659.52C661.42 657.14 664.11 655.27 667.24 653.91C670.38 652.55 673.86 651.87 677.68 651.87C681.5 651.87 684.98 652.55 688.12 653.91C691.26 655.27 693.94 657.15 696.17 659.54C698.4 661.94 700.12 664.78 701.33 668.05C702.54 671.31 703.15 674.86 703.15 678.68ZM692.55 678.68C692.55 675.89 692.21 673.39 691.52 671.17C690.84 668.96 689.85 667.07 688.58 665.52C687.3 663.96 685.74 662.77 683.91 661.94C682.08 661.11 680 660.69 677.68 660.69C675.36 660.69 673.28 661.11 671.43 661.94C669.59 662.77 668.03 663.96 666.75 665.52C665.47 667.07 664.49 668.96 663.8 671.17C663.12 673.39 662.77 675.89 662.77 678.68C662.77 681.51 663.12 684.03 663.8 686.26C664.49 688.48 665.47 690.37 666.75 691.91C668.03 693.45 669.59 694.63 671.43 695.45C673.28 696.27 675.36 696.68 677.68 696.68C680 696.68 682.08 696.27 683.91 695.45C685.74 694.63 687.3 693.45 688.58 691.91C689.85 690.37 690.84 688.48 691.52 686.26C692.21 684.03 692.55 681.51 692.55 678.68Z" />
			<path id="path44" class="shp0" d="M704.37 652.47L713.07 652.47C714 652.47 714.75 652.68 715.35 653.1C715.94 653.52 716.34 654.07 716.55 654.76L724.31 685.09C724.75 686.67 725.17 688.5 725.57 690.59C725.78 689.56 725.99 688.58 726.2 687.64C726.41 686.71 726.66 685.84 726.95 685.05L736.13 654.76C736.34 654.15 736.75 653.62 737.35 653.16C737.96 652.7 738.69 652.47 739.53 652.47L742.57 652.47C743.5 652.47 744.24 652.67 744.81 653.08C745.37 653.49 745.78 654.05 746.01 654.76L755.19 685.09C755.45 685.85 755.7 686.69 755.92 687.6C756.14 688.51 756.36 689.47 756.57 690.47C756.76 689.47 756.95 688.52 757.15 687.62C757.34 686.72 757.55 685.89 757.76 685.13L765.51 654.76C765.69 654.15 766.1 653.62 766.72 653.16C767.33 652.7 768.07 652.47 768.91 652.47L777.06 652.47L761.48 704.98L752.06 704.98L741.67 670.06C741.51 669.61 741.35 669.11 741.21 668.56C741.06 668.01 740.93 667.43 740.79 666.82C740.66 667.43 740.52 668.01 740.36 668.56C740.2 669.11 740.06 669.61 739.92 670.06L729.33 704.98L719.95 704.98L704.37 652.47Z" />
			<path id="path46" fill-rule="evenodd" class="shp0" d="M822.65 704.98L814.66 704.98C813.74 704.98 813 704.76 812.45 704.33C811.89 703.89 811.49 703.35 811.22 702.69L807.9 692.37L788.56 692.37L785.28 702.65C785.07 703.23 784.67 703.76 784.08 704.25C783.48 704.74 782.75 704.98 781.88 704.98L773.77 704.98L792.91 652.47L803.51 652.47C803.51 652.47 822.65 704.98 822.65 704.98ZM790.9 685.09L805.53 685.09L800.19 668.48C799.87 667.66 799.54 666.71 799.2 665.61C798.86 664.52 798.52 663.33 798.17 662.03C797.86 663.33 797.53 664.53 797.19 665.63C796.84 666.74 796.53 667.7 796.24 668.52L790.9 685.09Z" />
			<path id="path48" class="shp0" d="M174.68 195.59C174.68 222.36 174.68 249.13 174.68 275.9C174.68 283.42 174.68 290.94 174.68 298.46C174.68 301.08 176.98 303.58 179.68 303.46C182.39 303.34 184.68 301.26 184.68 298.46C184.68 271.69 184.68 244.93 184.68 218.16C184.68 210.64 184.68 203.11 184.68 195.59C184.68 192.98 182.38 190.47 179.68 190.59C176.97 190.71 174.68 192.79 174.68 195.59L174.68 195.59" />
			<path id="path50" class="shp0" d="M176.3 288.1C231.19 287.19 286.09 287.04 340.98 287.67C395.87 288.29 450.75 289.69 505.6 291.85C536.38 293.07 567.16 294.53 597.92 296.23C600.62 296.37 602.92 293.82 602.92 291.23C602.92 288.39 600.63 286.37 597.92 286.23C543.11 283.2 488.26 280.94 433.38 279.45C378.51 277.96 323.61 277.24 268.72 277.29C237.91 277.32 207.1 277.59 176.3 278.1C169.87 278.21 169.85 288.21 176.3 288.1L176.3 288.1" />
			<path id="path52" class="shp0" d="M181.36 202.28C232.82 202.28 284.28 202.28 335.74 202.28C386.94 202.28 438.13 202.28 489.33 202.28C518.21 202.28 547.09 202.28 575.97 202.28C582.4 202.28 582.41 192.28 575.97 192.28C524.51 192.28 473.05 192.28 421.59 192.28C370.4 192.28 319.2 192.28 268 192.28C239.12 192.28 210.24 192.28 181.36 192.28C174.93 192.28 174.92 202.28 181.36 202.28L181.36 202.28" />
			<path id="path54" class="shp0" d="M577.71 207.4C577.71 234.94 577.71 262.49 577.71 290.03C577.71 292.64 580.01 295.15 582.71 295.03C585.42 294.91 587.71 292.83 587.71 290.03C587.71 262.49 587.71 234.94 587.71 207.4C587.71 204.78 585.42 202.28 582.71 202.4C580.01 202.52 577.71 204.59 577.71 207.4L577.71 207.4Z" />
			<path id="path56" class="shp0" d="M365.23 131.51C365.23 151.19 365.23 170.86 365.23 190.53C365.23 193.15 367.53 195.66 370.23 195.53C372.94 195.41 375.23 193.34 375.23 190.53C375.23 170.86 375.23 151.19 375.23 131.51C375.23 128.9 372.93 126.39 370.23 126.51C367.53 126.63 365.23 128.71 365.23 131.51L365.23 131.51Z" />
			<path id="path58" class="shp0" d="M373.63 147.04C386.5 146.65 399.36 146.25 412.23 145.86C413.77 145.81 415.31 145.76 416.84 145.72C417.55 145.69 418.26 145.66 418.97 145.65C419.21 145.65 419.44 145.65 419.68 145.66C419.92 145.66 420.16 145.68 420.4 145.7C420.27 145.69 420.13 145.69 420 145.68C419.71 145.45 419.38 144.86 419.13 144.7C418.82 144.51 419.17 144.85 419.25 145.17C419.39 145.74 419.24 145.1 419.23 145.01C419.34 146.46 419.27 147.93 419.26 149.38C419.25 155.86 419.23 162.33 419.22 168.8C419.2 176.04 419.18 183.28 419.16 190.52C419.15 193.14 421.47 195.64 424.16 195.52C426.88 195.4 429.15 193.33 429.16 190.52C429.19 176.7 429.23 162.88 429.27 149.05C429.27 145.83 429.51 142.27 427.57 139.49C425.36 136.32 421.82 135.57 418.16 135.68C411.24 135.87 404.31 136.1 397.38 136.31C389.47 136.56 381.55 136.8 373.63 137.04C371.02 137.12 368.51 139.28 368.63 142.04C368.75 144.68 370.83 147.13 373.63 147.04L373.63 147.04" />
			<path id="path60" class="shp0" d="M361.15 132.92C339.21 100.88 315.89 69.81 292.28 38.99C285.59 30.25 278.87 21.53 272.16 12.82C270.89 11.17 269.37 10.13 267.17 10.43C265.32 10.68 263.43 12.08 263.02 14.01C257.84 38.09 253.71 62.38 250.57 86.81C247.48 110.89 245.41 135.11 244.37 159.38C243.78 173.13 243.53 186.9 243.59 200.67C243.61 203.29 245.89 205.79 248.59 205.67C251.29 205.55 253.61 203.47 253.59 200.67C253.47 176.49 254.36 152.31 256.27 128.21C258.17 104.25 261.06 80.58 264.99 56.92C267.22 43.45 269.79 30.03 272.66 16.67C269.61 17.07 266.57 17.47 263.52 17.86C287.22 48.63 310.92 79.4 333.56 110.95C339.98 119.89 346.3 128.89 352.52 137.97C354.04 140.19 356.91 141.19 359.36 139.76C361.57 138.47 362.69 135.16 361.15 132.92L361.15 132.92" />
			<path id="path62" class="shp0" d="M289.3 141.18C311.7 141.57 333.63 144.55 355.33 150.15C357.86 150.8 360.87 149.32 361.48 146.65C362.07 144.05 360.7 141.2 357.99 140.5C335.57 134.72 312.45 131.58 289.3 131.18C286.68 131.13 284.18 133.51 284.3 136.18C284.42 138.93 286.49 141.13 289.3 141.18L289.3 141.18" />
			<path id="path64" class="shp0" d="M307.84 170.24C319.64 170.24 331.45 170.24 343.25 170.24C345.87 170.24 348.37 167.94 348.25 165.24C348.13 162.53 346.06 160.24 343.25 160.24C331.45 160.24 319.64 160.24 307.84 160.24C305.22 160.24 302.72 162.54 302.84 165.24C302.96 167.95 305.04 170.24 307.84 170.24L307.84 170.24Z" />
			<path id="path66" class="shp0" d="M446.55 133.56C460.9 118.41 474.6 102.65 487.59 86.33C494.12 78.13 500.54 69.82 506.66 61.31C512.25 53.54 517.53 45.46 521.52 36.73C526.09 26.72 529.06 15.99 528.65 4.91C528.55 2.29 526.41 -0.22 523.65 -0.09C520.93 0.03 518.65 2.1 518.65 4.91C518.64 18.52 523.63 31.2 529 43.48C534.19 55.32 539.01 66.85 542.49 79.52C549.49 105.03 551.68 130.88 552.29 157.35C552.64 172.34 552.46 187.34 552.24 202.33C552.21 204.95 554.57 207.45 557.24 207.33C559.98 207.21 562.2 205.13 562.24 202.33C562.62 175.72 562.94 149.03 560.27 122.52C558.93 109.22 556.89 95.95 553.71 82.95C550.51 69.87 545.97 57.3 540.53 44.98C537.58 38.28 534.77 32.21 532.43 25.3C530.08 18.38 528.64 11.96 528.65 4.91C525.31 4.91 521.98 4.91 518.65 4.91C518.97 13.59 516.96 22.37 513.58 30.13C509.82 38.75 504.77 46.73 499.36 54.39C487.94 70.55 475.49 85.94 462.56 100.95C455.07 109.64 447.37 118.16 439.48 126.49C437.63 128.45 437.54 131.61 439.48 133.56C441.36 135.44 444.69 135.53 446.55 133.56L446.55 133.56Z" />
			<path id="path68" class="shp0" d="M454.64 155.93C473.63 154 492 148.86 509.21 140.59C511.64 139.42 512.29 135.94 511 133.75C509.55 131.26 506.6 130.78 504.16 131.95C488.82 139.32 471.41 144.22 454.64 145.93C452.04 146.19 449.51 148.04 449.64 150.93C449.75 153.41 451.85 156.21 454.64 155.93L454.64 155.93" />
			<path id="path70" class="shp0" d="M457.92 168.55C469.73 168.55 481.53 168.55 493.34 168.55C495.95 168.55 498.46 166.25 498.34 163.55C498.22 160.84 496.14 158.55 493.34 158.55C481.53 158.55 469.73 158.55 457.92 158.55C455.31 158.55 452.8 160.85 452.92 163.55C453.05 166.26 455.12 168.55 457.92 168.55L457.92 168.55Z" />
			<path id="path72" class="shp0" d="M350.06 198.97C350.06 222.14 350.06 245.31 350.06 268.48C350.06 275.1 350.06 281.72 350.06 288.34C350.06 290.96 352.36 293.46 355.06 293.34C357.77 293.22 360.06 291.15 360.06 288.34C360.06 265.17 360.06 242 360.06 218.83C360.06 212.21 360.06 205.59 360.06 198.97C360.06 196.35 357.76 193.85 355.06 193.97C352.35 194.09 350.06 196.16 350.06 198.97L350.06 198.97Z" />
			<path id="path74" class="shp0" d="M432.69 198.97C432.69 221.24 432.69 243.51 432.69 265.78C432.69 272.18 432.69 278.57 432.69 284.97C432.69 287.59 434.99 290.09 437.69 289.97C440.4 289.85 442.69 287.77 442.69 284.97C442.69 262.7 442.69 240.42 442.69 218.15C442.69 211.76 442.69 205.36 442.69 198.97C442.69 196.35 440.39 193.85 437.69 193.97C434.98 194.09 432.69 196.16 432.69 198.97L432.69 198.97Z" />
			<path id="path76" class="shp0" d="M361.85 291.72C361.53 319.2 361.54 346.69 361.89 374.18C362.25 401.45 362.93 428.71 363.95 455.96C364.53 471.47 365.22 486.97 366.02 502.47C366.15 505.08 368.22 507.59 371.02 507.47C373.61 507.35 376.16 505.27 376.02 502.47C374.61 475.02 373.53 447.55 372.8 420.07C372.07 392.81 371.68 365.54 371.62 338.27C371.59 322.75 371.67 307.23 371.85 291.72C371.88 289.1 369.53 286.59 366.85 286.72C364.11 286.84 361.88 288.91 361.85 291.72L361.85 291.72" />
			<path id="path78" class="shp0" d="M422.73 290.04C420.93 318.07 419.95 346.15 419.83 374.24C419.7 402.33 420.42 430.42 421.98 458.47C422.86 474.31 424.02 490.13 425.43 505.93C425.66 508.53 427.56 511.06 430.43 510.93C432.94 510.82 435.68 508.72 435.43 505.93C432.93 477.95 431.25 449.9 430.42 421.82C429.59 393.75 429.61 365.65 430.47 337.57C430.95 321.71 431.71 305.87 432.73 290.04C432.9 287.42 430.31 284.92 427.73 285.04C424.88 285.17 422.91 287.24 422.73 290.04L422.73 290.04" />
			<path id="path80" class="shp0" d="M205.03 286.66C205.03 311.87 205.03 337.08 205.03 362.3C205.03 387.51 205.03 412.72 205.03 437.94C205.03 452.15 205.03 466.37 205.03 480.59C205.03 483.2 207.33 485.71 210.03 485.59C212.74 485.47 215.03 483.39 215.03 480.59C215.03 455.37 215.03 430.16 215.03 404.95C215.03 379.73 215.03 354.52 215.03 329.31C215.03 315.09 215.03 300.87 215.03 286.66C215.03 284.04 212.73 281.54 210.03 281.66C207.32 281.78 205.03 283.85 205.03 286.66L205.03 286.66" />
			<path id="path82" class="shp0" d="M562.06 290.02C561.39 316.15 560.93 342.29 560.69 368.42C560.44 394.45 560.41 420.48 560.59 446.51C560.69 461.24 560.86 475.97 561.09 490.7C561.13 493.31 563.36 495.82 566.09 495.7C568.77 495.58 571.14 493.5 571.09 490.7C570.67 464.57 570.47 438.43 570.47 412.29C570.48 386.26 570.7 360.23 571.13 334.2C571.37 319.47 571.68 304.74 572.06 290.02C572.13 287.4 569.71 284.9 567.06 285.02C564.3 285.14 562.13 287.21 562.06 290.02L562.06 290.02" />
			<path id="path84" class="shp0" d="M240.6 519.32C281.82 514.01 323.19 509.92 364.64 507.04C406.1 504.17 447.64 502.52 489.19 502.1C512.5 501.86 535.8 502.01 559.1 502.54C561.72 502.6 564.22 500.19 564.1 497.54C563.98 494.78 561.91 492.6 559.1 492.54C517.56 491.59 475.99 491.87 434.46 493.37C392.93 494.87 351.45 497.59 310.08 501.53C286.88 503.75 263.72 506.34 240.6 509.32C238.02 509.65 235.47 511.38 235.6 514.32C235.71 516.74 237.82 519.67 240.6 519.32L240.6 519.32" />
		</g>
	</g>
</svg>