<svg xmlns="http://www.w3.org/2000/svg" viewBox="0 0 873 690" width="873" height="690">
	<style>
		tspan { white-space:pre }
		.shp0 { fill: #eb1d27 } 
	</style>
	<g id="g10">
		<g id="g12">
			<path id="path14" fill-rule="evenodd" class="shp0" d="M45.12 662.68C45.12 666.53 44.52 670.07 43.3 673.3C42.09 676.53 40.37 679.31 38.14 681.63C35.91 683.95 33.23 685.75 30.1 687.04C26.96 688.33 23.48 688.98 19.66 688.98L0.52 688.98L0.52 636.47L19.66 636.47C23.48 636.47 26.96 637.11 30.1 638.4C33.23 639.69 35.91 641.5 38.14 643.82C40.37 646.14 42.09 648.91 43.3 652.13C44.52 655.34 45.12 658.86 45.12 662.68ZM34.56 662.68C34.56 659.89 34.22 657.39 33.54 655.17C32.85 652.96 31.87 651.07 30.59 649.51C29.31 647.96 27.75 646.77 25.9 645.94C24.06 645.11 21.98 644.69 19.66 644.69L10.96 644.69L10.96 680.72L19.66 680.72C21.98 680.72 24.06 680.31 25.9 679.49C27.75 678.67 29.31 677.49 30.59 675.93C31.87 674.38 32.85 672.48 33.54 670.26C34.22 668.03 34.56 665.5 34.56 662.68Z" />
			<path id="path16" fill-rule="evenodd" class="shp0" d="M94.12 688.98L86.13 688.98C85.21 688.98 84.47 688.76 83.91 688.33C83.36 687.89 82.95 687.35 82.69 686.69L79.37 676.37L60.03 676.37L56.75 686.65C56.54 687.23 56.13 687.76 55.54 688.25C54.95 688.74 54.22 688.98 53.35 688.98L45.24 688.98L64.38 636.47L74.98 636.47L94.12 688.98ZM62.36 669.09L76.99 669.09L71.66 652.48C71.34 651.66 71.01 650.71 70.67 649.61C70.32 648.52 69.98 647.33 69.64 646.03C69.32 647.33 68.99 648.53 68.65 649.63C68.31 650.74 67.99 651.7 67.7 652.52L62.36 669.09Z" />
			<path id="path18" fill-rule="evenodd" class="shp0" d="M109.26 668.77L109.26 688.98L98.82 688.98L98.82 636.47L114.64 636.47C118.15 636.47 121.15 636.84 123.66 637.59C126.16 638.34 128.21 639.39 129.81 640.74C131.4 642.08 132.57 643.69 133.31 645.56C134.04 647.43 134.41 649.49 134.41 651.73C134.41 653.44 134.17 655.07 133.7 656.61C133.23 658.16 132.53 659.57 131.62 660.84C130.71 662.12 129.6 663.26 128.28 664.25C126.96 665.23 125.45 666.03 123.74 666.64C124.39 667.01 125.01 667.45 125.59 667.96C126.17 668.48 126.71 669.1 127.22 669.84L138.96 688.98L129.59 688.98C127.93 688.98 126.65 688.28 125.75 686.89L116.18 670.51C115.79 669.88 115.35 669.43 114.86 669.17C114.37 668.91 113.68 668.77 112.78 668.77C112.78 668.77 109.26 668.77 109.26 668.77ZM109.26 661.38L114.56 661.38C116.25 661.38 117.71 661.15 118.93 660.71C120.16 660.26 121.17 659.64 121.96 658.85C122.75 658.06 123.33 657.11 123.72 656.02C124.1 654.93 124.29 653.73 124.29 652.44C124.29 649.89 123.5 647.91 121.92 646.53C120.33 645.15 117.91 644.45 114.64 644.45L109.26 644.45L109.26 661.38Z" />
			<path id="path20" fill-rule="evenodd" class="shp0" d="M191.87 662.68C191.87 666.53 191.26 670.1 190.05 673.38C188.84 676.66 187.12 679.5 184.89 681.9C182.66 684.3 179.98 686.17 176.84 687.52C173.71 688.86 170.23 689.53 166.4 689.53C162.58 689.53 159.1 688.86 155.96 687.52C152.83 686.17 150.14 684.3 147.9 681.9C145.66 679.5 143.92 676.66 142.7 673.38C141.47 670.1 140.86 666.53 140.86 662.68C140.86 658.86 141.47 655.31 142.7 652.03C143.92 648.74 145.66 645.91 147.9 643.52C150.14 641.14 152.83 639.27 155.96 637.91C159.1 636.55 162.58 635.87 166.4 635.87C170.23 635.87 173.71 636.55 176.84 637.91C179.98 639.27 182.66 641.15 184.89 643.54C187.12 645.94 188.84 648.78 190.05 652.05C191.26 655.31 191.87 658.86 191.87 662.68ZM181.27 662.68C181.27 659.89 180.93 657.39 180.25 655.17C179.56 652.96 178.58 651.07 177.3 649.51C176.02 647.96 174.46 646.77 172.63 645.94C170.8 645.11 168.72 644.69 166.4 644.69C164.08 644.69 162 645.11 160.16 645.94C158.31 646.77 156.75 647.96 155.47 649.51C154.19 651.07 153.21 652.96 152.52 655.17C151.84 657.39 151.5 659.89 151.5 662.68C151.5 665.5 151.84 668.03 152.52 670.26C153.21 672.48 154.19 674.37 155.47 675.91C156.75 677.45 158.31 678.63 160.16 679.45C162 680.27 164.08 680.68 166.4 680.68C168.72 680.68 170.8 680.27 172.63 679.45C174.46 678.63 176.02 677.45 177.3 675.91C178.58 674.37 179.56 672.48 180.25 670.26C180.93 668.03 181.27 665.5 181.27 662.68Z" />
			<path id="path22" class="shp0" d="M193.1 636.47L201.8 636.47C202.72 636.47 203.48 636.68 204.07 637.1C204.66 637.52 205.06 638.07 205.28 638.76L213.03 669.09C213.47 670.67 213.9 672.5 214.29 674.59C214.5 673.56 214.71 672.58 214.92 671.64C215.14 670.71 215.39 669.84 215.68 669.05L224.85 638.76C225.06 638.15 225.47 637.62 226.08 637.16C226.68 636.7 227.41 636.47 228.25 636.47L231.3 636.47C232.22 636.47 232.96 636.67 233.53 637.08C234.1 637.49 234.5 638.05 234.74 638.76L243.91 669.09C244.17 669.85 244.42 670.69 244.64 671.6C244.87 672.51 245.08 673.47 245.29 674.47C245.48 673.47 245.67 672.52 245.87 671.62C246.07 670.72 246.27 669.89 246.48 669.13L254.23 638.76C254.42 638.15 254.82 637.62 255.44 637.16C256.06 636.7 256.79 636.47 257.63 636.47L265.78 636.47L250.2 688.98L240.79 688.98L230.39 654.06C230.23 653.61 230.08 653.11 229.93 652.56C229.79 652.01 229.65 651.43 229.52 650.82C229.38 651.43 229.24 652.01 229.08 652.56C228.92 653.11 228.78 653.61 228.65 654.06L218.05 688.98L208.68 688.98L193.1 636.47Z" />
			<path id="path24" class="shp0" d="M282.15 688.98L271.71 688.98L271.71 636.47L282.15 636.47L282.15 688.98Z" />
			<path id="path26" class="shp0" d="M325.25 636.47L325.25 640.3C325.25 641.43 324.92 642.48 324.27 643.43L301.65 680.72L324.62 680.72L324.62 688.98L289.07 688.98L289.07 684.95C289.07 683.89 289.37 682.94 289.98 682.1L312.6 644.73L290.81 644.73L290.81 636.47L325.25 636.47" />
			<path id="path28" class="shp0" d="M337.87 636.53C338.19 636.56 338.47 636.64 338.72 636.76C338.97 636.88 339.21 637.05 339.43 637.26C339.65 637.47 339.91 637.75 340.2 638.09L366.06 672.17C365.91 670.43 365.83 668.79 365.83 667.23L365.83 636.47L374.96 636.47L374.96 688.98L369.62 688.98C368.81 688.98 368.13 688.84 367.59 688.57C367.05 688.29 366.51 687.83 365.98 687.2L340.2 653.31C340.36 654.95 340.44 656.46 340.44 657.86L340.44 688.98L331.26 688.98L331.26 636.47L336.72 636.47C337.17 636.47 337.55 636.49 337.87 636.53Z" />
			<path id="path30" fill-rule="evenodd" class="shp0" d="M428.82 688.98L420.83 688.98C419.91 688.98 419.17 688.76 418.62 688.33C418.06 687.89 417.65 687.35 417.39 686.69L414.07 676.37L394.73 676.37L391.45 686.65C391.24 687.23 390.84 687.76 390.25 688.25C389.65 688.74 388.92 688.98 388.05 688.98L379.94 688.98L399.08 636.47L409.68 636.47L428.82 688.98ZM397.07 669.09L411.7 669.09L406.36 652.48C406.04 651.66 405.71 650.71 405.37 649.61C405.03 648.52 404.68 647.33 404.34 646.03C404.03 647.33 403.7 648.53 403.35 649.63C403.01 650.74 402.69 651.7 402.4 652.52L397.07 669.09Z" />
			<path id="path32" class="shp0" d="M482.36 636.47L482.36 644.73L461.92 644.73L461.92 659.6L479.04 659.6L479.04 667.86L461.92 667.86L461.92 688.98L451.48 688.98L451.48 636.47L482.36 636.47" />
			<path id="path34" class="shp0" d="M500.36 688.98L489.92 688.98L489.92 636.47L500.36 636.47L500.36 688.98Z" />
			<path id="path36" class="shp0" d="M517.36 636.53C517.68 636.56 517.96 636.64 518.21 636.76C518.46 636.88 518.7 637.05 518.92 637.26C519.15 637.47 519.4 637.75 519.69 638.09L545.56 672.17C545.4 670.43 545.32 668.79 545.32 667.23L545.32 636.47L554.45 636.47L554.45 688.98L549.11 688.98C548.3 688.98 547.62 688.84 547.08 688.57C546.54 688.29 546 687.83 545.48 687.2L519.69 653.31C519.85 654.95 519.93 656.46 519.93 657.86L519.93 688.98L510.76 688.98L510.76 636.47L516.21 636.47C516.66 636.47 517.04 636.49 517.36 636.53Z" />
			<path id="path38" fill-rule="evenodd" class="shp0" d="M608.31 688.98L600.32 688.98C599.4 688.98 598.66 688.76 598.11 688.33C597.56 687.89 597.15 687.35 596.88 686.69L593.56 676.37L574.23 676.37L570.94 686.65C570.73 687.23 570.33 687.76 569.74 688.25C569.14 688.74 568.41 688.98 567.54 688.98L559.44 688.98L578.57 636.47L589.17 636.47L608.31 688.98ZM576.56 669.09L591.19 669.09L585.85 652.48C585.53 651.66 585.21 650.71 584.86 649.61C584.52 648.52 584.18 647.33 583.83 646.03C583.52 647.33 583.19 648.53 582.85 649.63C582.5 650.74 582.19 651.7 581.9 652.52L576.56 669.09Z" />
			<path id="path40" class="shp0" d="M619.78 636.53C620.1 636.56 620.38 636.64 620.63 636.76C620.88 636.88 621.12 637.05 621.34 637.26C621.57 637.47 621.82 637.75 622.11 638.09L647.98 672.17C647.82 670.43 647.74 668.79 647.74 667.23L647.74 636.47L656.87 636.47L656.87 688.98L651.53 688.98C650.72 688.98 650.04 688.84 649.5 688.57C648.96 688.29 648.42 687.83 647.9 687.2L622.11 653.31C622.27 654.95 622.35 656.46 622.35 657.86L622.35 688.98L613.18 688.98L613.18 636.47L618.63 636.47C619.08 636.47 619.46 636.49 619.78 636.53Z" />
			<path id="path42" class="shp0" d="M694.16 646.35C693.9 646.88 693.59 647.25 693.23 647.48C692.88 647.7 692.44 647.81 691.91 647.81C691.41 647.81 690.87 647.63 690.29 647.26C689.71 646.89 689.03 646.49 688.25 646.06C687.47 645.62 686.57 645.22 685.54 644.85C684.51 644.48 683.33 644.3 681.98 644.3C679.61 644.3 677.83 644.88 676.63 646.03C675.43 647.2 674.83 648.71 674.83 650.58C674.83 651.77 675.15 652.75 675.79 653.53C676.44 654.31 677.3 654.98 678.37 655.55C679.43 656.11 680.65 656.62 682 657.07C683.36 657.52 684.75 658 686.17 658.51C687.6 659.03 688.99 659.63 690.35 660.33C691.7 661.03 692.92 661.91 693.99 662.96C695.05 664.01 695.91 665.31 696.56 666.84C697.2 668.36 697.53 670.22 697.53 672.41C697.53 674.78 697.14 677.01 696.36 679.09C695.58 681.18 694.44 682.99 692.94 684.53C691.43 686.07 689.6 687.29 687.42 688.19C685.25 689.09 682.76 689.53 679.97 689.53C678.39 689.53 676.81 689.37 675.24 689.04C673.67 688.71 672.16 688.24 670.71 687.64C669.26 687.03 667.89 686.31 666.6 685.46C665.31 684.62 664.17 683.67 663.2 682.61L666.28 677.67C666.52 677.28 666.84 676.96 667.25 676.72C667.66 676.48 668.1 676.37 668.58 676.37C669.21 676.37 669.86 676.61 670.53 677.1C671.21 677.59 671.99 678.13 672.89 678.72C673.78 679.31 674.83 679.85 676.01 680.34C677.2 680.83 678.61 681.07 680.24 681.07C682.62 681.07 684.46 680.47 685.78 679.25C687.1 678.04 687.76 676.25 687.76 673.87C687.76 672.53 687.43 671.44 686.79 670.59C686.14 669.75 685.29 669.04 684.24 668.48C683.18 667.91 681.98 667.42 680.62 667.01C679.26 666.61 677.88 666.16 676.47 665.69C675.06 665.21 673.67 664.64 672.31 663.97C670.96 663.3 669.75 662.41 668.7 661.3C667.64 660.19 666.79 658.82 666.15 657.19C665.5 655.55 665.18 653.52 665.18 651.1C665.18 649.17 665.55 647.29 666.28 645.46C667.02 643.63 668.1 642 669.53 640.58C670.95 639.15 672.7 638.01 674.77 637.16C676.84 636.3 679.2 635.87 681.86 635.87C684.87 635.87 687.66 636.36 690.23 637.33C692.8 638.31 694.99 639.68 696.81 641.45L694.16 646.35" />
			<path id="path44" fill-rule="evenodd" class="shp0" d="M752.89 662.68C752.89 666.53 752.28 670.1 751.07 673.38C749.85 676.66 748.13 679.5 745.91 681.9C743.68 684.3 741 686.17 737.86 687.52C734.72 688.86 731.24 689.53 727.42 689.53C723.6 689.53 720.12 688.86 716.98 687.52C713.84 686.17 711.15 684.3 708.91 681.9C706.67 679.5 704.94 676.66 703.71 673.38C702.49 670.1 701.87 666.53 701.87 662.68C701.87 658.86 702.49 655.31 703.71 652.03C704.94 648.74 706.67 645.91 708.91 643.52C711.15 641.14 713.84 639.27 716.98 637.91C720.12 636.55 723.6 635.87 727.42 635.87C731.24 635.87 734.72 636.55 737.86 637.91C741 639.27 743.68 641.15 745.91 643.54C748.13 645.94 749.85 648.78 751.07 652.05C752.28 655.31 752.89 658.86 752.89 662.68ZM742.29 662.68C742.29 659.89 741.95 657.39 741.26 655.17C740.57 652.96 739.59 651.07 738.31 649.51C737.03 647.96 735.48 646.77 733.65 645.94C731.81 645.11 729.74 644.69 727.42 644.69C725.1 644.69 723.02 645.11 721.17 645.94C719.33 646.77 717.76 647.96 716.49 649.51C715.21 651.07 714.22 652.96 713.54 655.17C712.85 657.39 712.51 659.89 712.51 662.68C712.51 665.5 712.85 668.03 713.54 670.26C714.22 672.48 715.21 674.37 716.49 675.91C717.76 677.45 719.33 678.63 721.17 679.45C723.02 680.27 725.1 680.68 727.42 680.68C729.74 680.68 731.81 680.27 733.65 679.45C735.48 678.63 737.03 677.45 738.31 675.91C739.59 674.37 740.57 672.48 741.26 670.26C741.95 668.03 742.29 665.5 742.29 662.68Z" />
			<path id="path46" class="shp0" d="M754.11 636.47L762.81 636.47C763.73 636.47 764.49 636.68 765.09 637.1C765.68 637.52 766.08 638.07 766.29 638.76L774.04 669.09C774.49 670.67 774.91 672.5 775.31 674.59C775.52 673.56 775.73 672.58 775.94 671.64C776.15 670.71 776.4 669.84 776.69 669.05L785.87 638.76C786.08 638.15 786.49 637.62 787.09 637.16C787.7 636.7 788.42 636.47 789.27 636.47L792.31 636.47C793.23 636.47 793.98 636.67 794.55 637.08C795.11 637.49 795.52 638.05 795.75 638.76L804.93 669.09C805.19 669.85 805.43 670.69 805.66 671.6C805.88 672.51 806.1 673.47 806.31 674.47C806.49 673.47 806.69 672.52 806.88 671.62C807.08 670.72 807.29 669.89 807.5 669.13L815.25 638.76C815.43 638.15 815.83 637.62 816.45 637.16C817.07 636.7 817.81 636.47 818.65 636.47L826.79 636.47L811.21 688.98L801.8 688.98L791.4 654.06C791.25 653.61 791.09 653.11 790.95 652.56C790.8 652.01 790.66 651.43 790.53 650.82C790.4 651.43 790.26 652.01 790.1 652.56C789.94 653.11 789.79 653.61 789.66 654.06L779.07 688.98L769.69 688.98L754.11 636.47Z" />
			<path id="path48" fill-rule="evenodd" class="shp0" d="M872.39 688.98L864.4 688.98C863.48 688.98 862.74 688.76 862.19 688.33C861.63 687.89 861.22 687.35 860.96 686.69L857.64 676.37L838.3 676.37L835.02 686.65C834.81 687.23 834.41 687.76 833.81 688.25C833.22 688.74 832.49 688.98 831.62 688.98L823.51 688.98L842.65 636.47L853.25 636.47L872.39 688.98ZM840.64 669.09L855.27 669.09L849.93 652.48C849.61 651.66 849.28 650.71 848.94 649.61C848.6 648.52 848.25 647.33 847.91 646.03C847.6 647.33 847.27 648.53 846.92 649.63C846.58 650.74 846.26 651.7 845.97 652.52L840.64 669.09Z" />
			<path id="path50" class="shp0" d="M155.04 146.31C152.6 181.38 150.71 216.49 149.37 251.62C148.04 286.75 147.26 321.89 147.04 357.05C146.92 376.73 146.97 396.4 147.19 416.08C147.22 418.69 149.47 421.2 152.19 421.08C154.88 420.96 157.23 418.88 157.19 416.08C156.8 380.93 156.95 345.77 157.66 310.62C158.37 275.48 159.64 240.34 161.46 205.23C162.48 185.58 163.67 165.94 165.04 146.31C165.22 143.7 162.61 141.2 160.04 141.31C157.17 141.44 155.23 143.51 155.04 146.31L155.04 146.31Z" />
			<path id="path52" class="shp0" d="M165.64 156.73C184.24 150.27 202.24 142 221.37 137.13C240.19 132.35 259.64 130.84 279.01 131.56C318.45 133.01 356.79 143.61 394.19 155.5C431.78 167.46 469.1 180.86 507.97 188.18C545.91 195.33 584.71 195.93 622.86 190.02C641.71 187.1 660.31 182.55 678.37 176.42C694.97 170.79 712.46 164.47 725.95 152.9C729.27 150.05 732.12 146.83 734.75 143.34C736.38 141.19 735.09 137.75 732.96 136.5C730.39 135 727.75 136.14 726.11 138.3C716.04 151.63 699.13 158.25 683.97 163.85C666.24 170.41 647.94 175.41 629.35 178.83C592.35 185.62 554.01 185.97 516.92 179.67C478.46 173.13 441.5 160.25 404.48 148.31C367.2 136.28 329.33 125.29 290.1 122.2C270.75 120.68 251.25 121.25 232.11 124.62C212.79 128.02 194.72 135.17 176.49 142.13C172.01 143.84 167.51 145.51 162.98 147.09C156.94 149.19 159.54 158.85 165.64 156.73L165.64 156.73" />
			<path id="path54" class="shp0" d="M731.39 145.89C726.51 178.35 722.35 210.92 718.97 243.58C715.62 275.89 713.02 308.29 711.17 340.72C710.13 359.02 709.34 377.34 708.78 395.66C708.69 398.28 711.13 400.78 713.78 400.66C716.55 400.53 718.69 398.46 718.78 395.66C719.77 363.29 721.5 330.95 723.99 298.67C726.48 266.39 729.71 234.16 733.69 202.03C735.91 184.14 738.35 166.39 741.04 148.55C741.43 145.97 740.39 143.05 737.55 142.4C735.17 141.86 731.81 143.13 731.39 145.89L731.39 145.89" />
			<path id="path56" class="shp0" d="M153.99 441.63C167.3 428.41 185.29 421.46 202.78 415.67C222.06 409.29 241.92 404.68 262.03 401.86C301.97 396.25 342.4 398.58 381.79 406.81C420.73 414.94 458.45 427.73 496.47 439.22C515.41 444.94 534.45 450.36 553.76 454.72C573.54 459.19 593.78 462.88 614.07 463.79C633.59 464.66 653.41 462.46 671.41 454.54C686.45 447.92 700.07 437.06 708.61 422.88C710.74 419.34 712.46 415.59 713.93 411.74C714.89 409.21 712.86 406.25 710.43 405.59C707.62 404.81 705.25 406.55 704.28 409.08C698.67 423.8 686.72 435.19 673.09 442.6C656.68 451.53 637.81 454.25 619.33 453.95C599.48 453.63 579.72 450.17 560.37 445.95C541.04 441.75 521.97 436.42 503.02 430.75C465.29 419.45 427.91 406.67 389.39 398.22C349.96 389.57 309.68 386.35 269.48 390.92C249.37 393.21 229.47 397.16 210.06 402.91C191.99 408.28 173.1 414.57 157.61 425.61C153.81 428.32 150.22 431.28 146.91 434.56C142.34 439.1 149.41 446.17 153.99 441.63L153.99 441.63" />
			<path id="path58" class="shp0" d="M72.86 88.83C75.24 123.95 78.18 159.03 81.67 194.06C85.17 229.09 89.21 264.06 93.81 298.96C96.43 318.82 99.22 338.65 102.18 358.46C102.58 361.13 105.95 362.61 108.33 361.95C111.19 361.17 112.23 358.48 111.83 355.8C106.67 321.39 102.08 287.02 98.02 252.46C93.92 217.61 90.37 182.69 87.38 147.73C85.7 128.11 84.19 108.47 82.86 88.83C82.68 86.22 80.68 83.7 77.86 83.83C75.3 83.94 72.67 86.03 72.86 88.83L72.86 88.83" />
			<path id="path60" class="shp0" d="M85.38 98.1C102.9 89.17 119.57 78.38 137.89 71.09C155.3 64.17 173.75 59.96 192.37 58.04C230.69 54.09 269.21 58.75 307 65.17C347.57 72.07 388.04 80.77 429.27 82.75C467.33 84.56 505.7 79.85 542.19 68.85C560.39 63.37 578.15 56.32 595.17 47.85C610.71 40.11 627.42 31.49 639.04 18.25C641.86 15.04 644.37 11.57 646.45 7.85C649.59 2.23 640.96 -2.82 637.82 2.8C629.48 17.71 613.97 26.56 599.4 34.41C582.97 43.26 565.79 50.64 548.08 56.51C512.43 68.31 474.91 73.98 437.36 73.04C396.62 72.02 356.61 63.7 316.6 56.72C278.59 50.1 239.97 44.61 201.3 47.28C182.56 48.57 163.85 51.7 145.98 57.56C127.34 63.67 110.37 73.19 93.25 82.59C88.98 84.94 84.68 87.25 80.33 89.47C74.6 92.39 79.65 101.03 85.38 98.1L85.38 98.1" />
			<path id="path62" class="shp0" d="M658.39 178.64C655.44 135.17 653.84 91.61 653.6 48.03C653.54 35.65 653.58 23.26 653.73 10.88C653.77 8.26 651.41 5.76 648.73 5.88C646 6 643.77 8.08 643.73 10.88C643.2 54.45 644.02 98.03 646.2 141.55C646.82 153.92 647.55 166.28 648.39 178.64C648.56 181.24 650.56 183.77 653.39 183.64C655.94 183.53 658.58 181.43 658.39 178.64L658.39 178.64Z" />
			<path id="path64" class="shp0" d="M112.61 381.7C117.37 375.43 124.46 369.22 130.99 364.68C138.47 359.48 146.51 355.06 154.66 351C157.07 349.79 157.75 346.38 156.45 344.16C155.01 341.69 152.03 341.15 149.61 342.36C132.46 350.91 115.72 361.18 103.98 376.65C102.34 378.8 103.64 382.24 105.77 383.49C108.34 384.99 110.97 383.85 112.61 381.7L112.61 381.7Z" />
			<path id="path66" class="shp0" d="M180.98 205.88C191.12 210.14 202.51 202.95 209.6 196.11C216.39 189.55 221.36 181.29 225.78 173.02C228.64 167.66 232.41 161.83 232 155.51C231.83 152.91 229.82 150.39 227 150.51C224.44 150.63 221.82 152.72 222 155.51C222.11 157.14 221.95 157.74 221.43 159.4C221.08 160.48 220.33 161.88 219.69 163.12C218.49 165.44 217.28 167.76 216.02 170.05C213.57 174.53 210.6 179.48 207.74 183.21C206.5 184.83 204.46 187.15 202.71 188.86C200.7 190.82 199.46 191.85 197.41 193.22C195.12 194.74 193.12 195.84 190.75 196.53C189.1 197 188.67 197.09 187.11 197.07C186.75 197.07 186.38 197.05 186.02 197.02C186.45 197.08 186.35 197.05 185.73 196.94C185.01 196.73 184.33 196.53 183.64 196.23C181.22 195.22 178.03 197.33 177.49 199.73C176.82 202.65 178.39 204.79 180.98 205.88L180.98 205.88Z" />
			<path id="path68" class="shp0" d="M182.54 353.94C183.12 353.76 183.7 353.6 184.3 353.47C184.48 353.43 186.12 353.15 185.26 353.26C186.28 353.13 187.32 353.1 188.35 353.11C188.87 353.12 189.38 353.15 189.9 353.19C190.24 353.22 190.58 353.25 190.93 353.29C190.54 353.25 190.52 353.25 190.88 353.31C191.99 353.5 193.09 353.75 194.18 354.07C197.89 355.18 201.74 357.36 204.55 359.83C211.66 366.08 216 374.55 220.02 383.31C221.15 385.77 224.69 386.37 226.86 385.1C229.38 383.63 229.78 380.73 228.65 378.26C224.2 368.56 218.89 358.55 210.41 351.75C201.92 344.93 190.65 341.06 179.88 344.3C177.29 345.07 175.66 347.8 176.39 350.45C177.09 353.01 179.94 354.72 182.54 353.94L182.54 353.94" />
			<path id="path70" class="shp0" d="M177.35 221.36C178.24 246.03 177.38 270.76 174.72 295.3C173.98 302.09 173.13 308.7 172.11 315.42C171.73 317.99 172.76 320.92 175.61 321.57C177.99 322.11 181.34 320.84 181.76 318.08C185.52 293.11 187.57 267.91 187.69 242.65C187.72 235.55 187.61 228.45 187.35 221.36C187.25 218.75 185.12 216.24 182.35 216.36C179.72 216.48 177.25 218.56 177.35 221.36L177.35 221.36Z" />
			<path id="path72" class="shp0" d="M245.33 155.82C274.21 155.67 303.27 157.19 331.52 163.54C345.48 166.68 359.08 171.06 372.3 176.54C384.84 181.73 397 187.82 409.09 193.98C433.72 206.53 458.28 219.66 484.79 227.89C510.76 235.95 538.22 239.49 565.39 238.55C592.7 237.6 619.94 232.21 645.41 222.28C648.68 221 651.93 219.65 655.15 218.25C657.62 217.17 658.19 213.54 656.94 211.41C655.45 208.85 652.59 208.53 650.1 209.61C625.84 220.17 599.59 226.38 573.2 228.15C546.54 229.93 519.67 227.33 493.92 220.15C467.79 212.87 443.67 200.47 419.63 188.16C394.84 175.47 369.78 163.04 342.71 155.97C314.49 148.59 285.15 146.16 256.06 145.85C252.48 145.81 248.91 145.81 245.33 145.82C238.9 145.86 238.89 155.86 245.33 155.82L245.33 155.82" />
			<path id="path74" class="shp0" d="M667.24 207.45C665.44 211.39 665.55 215.42 667.49 219.31C669.35 223.02 672.72 225.51 676.52 226.96C680.03 228.31 683.97 228.52 687.69 228.4C689.73 228.33 691.76 228.17 693.8 228.11C694.82 228.08 695.84 228.08 696.86 228.12C697.41 228.15 697.97 228.18 698.52 228.25C697.74 228.15 699.39 228.43 699.38 228.43C701.94 228.95 704.91 227.69 705.53 224.94C706.1 222.44 704.78 219.34 702.04 218.79C698.37 218.04 694.73 218.03 691 218.24C689.34 218.33 687.68 218.43 686.02 218.43C685.3 218.43 684.58 218.41 683.86 218.36C683.46 218.34 683.06 218.3 682.67 218.26C683.4 218.34 682.7 218.27 682.35 218.2C681.65 218.08 680.96 217.92 680.28 217.71C679.98 217.61 679.69 217.5 679.39 217.41C680.21 217.67 679.27 217.34 679.09 217.25C678.74 217.07 678.41 216.85 678.06 216.66C677.61 216.41 677.77 216.45 678.1 216.73C677.58 216.28 677.11 215.81 676.67 215.29C676.95 215.63 676.99 215.76 676.73 215.32C676.56 215.04 676.41 214.71 676.22 214.44C675.9 213.99 676.43 215.22 676.17 214.35C676.09 214.09 676.02 213.84 675.94 213.59C675.62 212.58 675.83 214.09 675.9 213.57C675.94 213.28 675.88 212.89 675.88 212.6C675.88 211.93 676 212.48 675.86 212.78C675.93 212.63 676.39 211.37 675.88 212.49C676.96 210.12 676.63 207 674.08 205.65C671.89 204.49 668.4 204.91 667.24 207.45L667.24 207.45" />
			<path id="path76" class="shp0" d="M692.53 246.42C690.93 279.65 688.57 312.84 685.44 345.97C684.55 355.4 683.6 364.82 682.58 374.24C682.3 376.85 685.08 379.35 687.58 379.24C690.53 379.11 692.28 377.04 692.58 374.24C696.14 341.17 698.95 308.01 700.98 274.8C701.56 265.34 702.07 255.88 702.53 246.42C702.65 243.81 700.14 241.3 697.53 241.42C694.71 241.55 692.66 243.62 692.53 246.42L692.53 246.42Z" />
			<path id="path78" class="shp0" d="M672.94 378.35C667.98 378.55 664.02 381.38 661.03 385.17C658.29 388.64 655.97 392.39 654.18 396.43C650.53 404.66 648.67 413.56 649.11 422.57C649.24 425.18 651.32 427.7 654.11 427.57C656.71 427.46 659.25 425.37 659.11 422.57C659.02 420.72 659.01 418.86 659.12 417C659.23 414.99 659.37 413.87 659.66 412.25C660.29 408.69 661.29 405.17 662.67 401.83C663.05 400.88 662.18 402.85 662.93 401.23C663.08 400.89 663.24 400.55 663.39 400.21C663.79 399.38 664.22 398.55 664.66 397.73C665.55 396.1 666.53 394.52 667.59 392.99C667.85 392.61 668.12 392.23 668.4 391.86C668.99 391.08 667.67 392.66 668.76 391.42C669.34 390.76 669.94 390.13 670.58 389.52C670.71 389.39 671.2 389.01 670.78 389.32C671.13 389.07 671.49 388.86 671.86 388.65C672.31 388.39 671.5 388.81 672.28 388.47C672.44 388.43 672.6 388.39 672.76 388.35C672.25 388.38 672.31 388.39 672.94 388.35C675.55 388.25 678.06 386.13 677.94 383.35C677.82 380.73 675.73 378.25 672.94 378.35L672.94 378.35" />
			<path id="path80" class="shp0" d="M261.16 381.19C285.09 380.45 309.08 382.03 332.77 385.45C356.66 388.91 380.29 394.06 403.64 400.14C427.26 406.28 450.63 413.38 473.9 420.71C496.86 427.95 519.68 436.05 543.1 441.72C566.23 447.32 590.61 450.27 614.06 444.78C616.85 444.13 619.6 443.35 622.31 442.46C624.88 441.62 626.55 439 625.81 436.31C625.11 433.79 622.23 431.97 619.66 432.82C597.68 440 574.33 438.37 552 433.51C528.6 428.43 505.91 420.37 483.11 413.14C459.96 405.8 436.73 398.63 413.27 392.33C389.94 386.07 366.36 380.67 342.49 376.88C318.54 373.08 294.31 370.83 270.04 371.01C267.08 371.03 264.12 371.1 261.16 371.19C258.46 371.27 256.16 373.43 256.16 376.19C256.16 378.83 258.45 381.27 261.16 381.19L261.16 381.19" />
			<path id="path82" class="shp0" d="M365.03 265.26C389.78 265.31 414.53 265.35 439.29 265.4C438.44 262.29 437.6 259.18 436.76 256.08C414.41 271.89 392.01 287.64 369.56 303.31C363.22 307.74 356.88 312.16 350.54 316.57C347.52 318.67 347.11 323.19 350.54 325.21C367.47 335.15 387.14 340.39 406.78 340.21C412.47 340.15 418.13 339.59 423.74 338.68C426.41 338.24 427.9 334.93 427.24 332.53C426.46 329.69 423.76 328.6 421.09 329.03C416.06 329.85 409.89 330.29 404.21 330.2C398.34 330.11 393.04 329.57 387.65 328.55C376.05 326.35 365.63 322.47 355.59 316.57C355.59 319.45 355.59 322.33 355.59 325.21C378.06 309.57 400.49 293.86 422.87 278.09C429.19 273.63 435.5 269.18 441.81 264.71C443.64 263.42 444.73 261.34 444.11 259.07C443.52 256.95 441.48 255.4 439.29 255.4C414.53 255.35 389.78 255.31 365.03 255.26C362.41 255.26 359.91 257.57 360.03 260.26C360.15 262.98 362.23 265.26 365.03 265.26L365.03 265.26Z" />
			<path id="path84" class="shp0" d="M450.94 271.43C450.91 284.24 450.89 297.05 450.85 309.86C450.84 316.24 450.76 322.62 450.81 328.99C450.84 332.31 451.37 335.57 453.44 338.25C455.19 340.51 457.63 341.97 460.35 342.8C463.07 343.63 466.01 343.71 468.81 343.42C472.09 343.07 475.72 342.31 478.64 343.12C481.15 343.83 484.19 342.26 484.79 339.63C485.39 336.98 483.99 334.23 481.29 333.48C475.73 331.93 470.42 333.8 464.83 333.54C464.77 333.54 464 333.46 464.58 333.53C465.2 333.6 464.25 333.46 464.11 333.43C463.67 333.34 463.23 333.23 462.79 333.09C462.58 333.02 462.37 332.95 462.16 332.87C463.03 333.22 462.32 332.92 462.17 332.81C461.99 332.69 461.79 332.59 461.61 332.48C460.97 332.09 462.19 332.94 461.62 332.47C461.46 332.34 461.31 332.17 461.17 332.01C461.79 332.69 461.26 332.19 461.2 331.98C461.05 331.45 461.04 331.81 460.93 331.15C460.8 330.34 460.81 329.02 460.81 327.75C460.84 315.82 460.87 303.9 460.9 291.97C460.91 285.13 460.93 278.28 460.94 271.43C460.95 268.82 458.64 266.31 455.94 266.43C453.23 266.55 450.95 268.63 450.94 271.43L450.94 271.43" />
			<path id="path86" class="shp0" d="M432.78 319.86C458.56 310.15 483.92 299.34 508.77 287.46C511.21 286.29 511.85 282.81 510.57 280.61C509.11 278.12 506.17 277.65 503.73 278.82C479.64 290.34 455.11 300.81 430.12 310.22C427.6 311.17 425.87 313.59 426.63 316.37C427.3 318.79 430.24 320.82 432.78 319.86L432.78 319.86" />
			<path id="path88" class="shp0" d="M111.44 135.29C109.37 175.18 110.87 215.24 115.96 254.85C117.43 266.28 119.17 277.67 121.2 289C121.67 291.66 124.92 293.16 127.35 292.49C130.15 291.72 131.32 289.01 130.84 286.34C123.89 247.62 120.46 208.24 120.53 168.81C120.55 157.63 120.86 146.45 121.44 135.29C121.58 132.67 119.05 130.17 116.44 130.29C113.62 130.42 111.59 132.49 111.44 135.29L111.44 135.29" />
			<path id="path90" class="shp0" d="M132.41 135.24C147.88 130.66 157.57 114.28 154.74 98.54C154.28 95.96 151 94.27 148.59 95.05C145.82 95.94 144.6 98.43 145.1 101.2C145.13 101.38 145.28 102.75 145.17 101.54C145.2 101.89 145.25 102.23 145.27 102.59C145.33 103.35 145.34 104.12 145.33 104.89C145.31 105.67 145.23 106.43 145.17 107.19C145.11 107.81 145.33 106.35 145.13 107.32C145.05 107.73 144.98 108.14 144.89 108.55C144.57 110 144.09 111.38 143.59 112.77C143.4 113.33 143.93 112.08 143.52 112.94C143.34 113.32 143.16 113.7 142.97 114.08C142.62 114.77 142.24 115.44 141.83 116.1C141.42 116.76 140.98 117.4 140.53 118.03C139.99 118.79 140.8 117.75 140.41 118.19C140.18 118.45 139.96 118.73 139.73 118.99C138.71 120.15 137.59 121.21 136.4 122.2C135.68 122.8 136.73 122 136.25 122.32C135.96 122.51 135.68 122.72 135.39 122.92C134.69 123.38 133.97 123.81 133.23 124.21C132.92 124.37 132.61 124.53 132.29 124.68C131.88 124.88 131.49 125.04 132.14 124.77C131.36 125.09 130.56 125.36 129.75 125.6C127.25 126.34 125.42 129.15 126.26 131.75C127.08 134.29 129.73 136.04 132.41 135.24L132.41 135.24" />
			<path id="path92" class="shp0" d="M189.47 88.57C215.33 78.4 243.78 75.92 270.96 81.81C285.39 84.94 299.31 89.91 313.3 94.54C327.17 99.13 341.15 103.42 355.27 107.2C383.58 114.78 412.58 120.3 441.88 121.93C468.43 123.4 495.25 121.45 521.12 115.17C546 109.14 570.15 98.98 591.11 84.18C593.85 82.24 596.53 80.21 599.17 78.14C601.3 76.47 600.92 72.81 599.17 71.07C597.07 68.97 594.24 69.4 592.1 71.07C572.44 86.44 549.36 97.13 525.37 103.74C500.59 110.57 474.87 113.08 449.22 112.25C420.5 111.33 392.11 106.33 364.31 99.23C350.15 95.61 336.13 91.44 322.22 86.95C308.44 82.49 294.81 77.5 280.78 73.88C253.1 66.74 223.97 66.87 196.61 75.45C193.3 76.49 190.04 77.66 186.81 78.93C184.3 79.91 182.55 82.28 183.32 85.08C183.98 87.47 186.94 89.56 189.47 88.57L189.47 88.57" />
			<path id="path94" class="shp0" d="M604.17 63.05C603.34 71.14 602.86 80.3 607.55 87.42C611.84 93.93 619.96 98.57 627.83 96C630.31 95.19 632.18 92.51 631.32 89.85C630.51 87.37 627.83 85.49 625.17 86.36C624.79 86.48 624.42 86.58 624.04 86.68C623.19 86.9 624.22 86.62 624.22 86.68C624.23 86.71 623.13 86.72 623.08 86.72C622.92 86.72 621.83 86.67 622.61 86.72C623.38 86.78 622.31 86.65 622.14 86.62C621.83 86.54 621.52 86.46 621.22 86.36C620.91 86.26 620.61 86.15 620.3 86.03C621.45 86.49 620.26 85.96 620.08 85.86C619.5 85.54 618.95 85.17 618.4 84.8C618.96 85.18 618.69 85.03 618.32 84.7C618.06 84.48 617.82 84.25 617.58 84.01C617.34 83.77 617.11 83.53 616.88 83.28C616.56 82.92 616.35 82.65 616.76 83.19C616.32 82.61 615.91 81.98 615.56 81.34C615.39 81.05 615.25 80.75 615.1 80.45C614.74 79.73 615.17 80.7 614.98 80.14C614.71 79.36 614.46 78.59 614.26 77.79C614.16 77.4 614.07 77 613.99 76.6C613.99 76.55 613.73 75 613.87 75.99C613.75 75.17 613.7 74.35 613.66 73.53C613.49 70.03 613.82 66.53 614.17 63.05C614.44 60.44 611.68 57.94 609.17 58.05C606.24 58.19 604.46 60.26 604.17 63.05L604.17 63.05" />
			<path id="path96" class="shp0" d="M625.37 117.58C626.6 132.98 627.17 148.42 627.09 163.86C627.07 166.47 629.4 168.98 632.09 168.86C634.81 168.74 637.07 166.66 637.09 163.86C637.17 148.42 636.6 132.98 635.37 117.58C635.17 114.98 633.22 112.45 630.37 112.58C627.84 112.7 625.15 114.79 625.37 117.58L625.37 117.58Z" />
		</g>
	</g>
</svg>