<svg xmlns="http://www.w3.org/2000/svg" viewBox="0 0 569 756" width="569" height="756">
	<style>
		tspan { white-space:pre }
		.shp0 { fill: #eb1d27 } 
	</style>
	<g id="g10">
		<g id="g12">
			<path id="path14" class="shp0" d="M34.22 702.47L42.92 702.47C43.84 702.47 44.6 702.68 45.19 703.1C45.78 703.52 46.19 704.07 46.4 704.76L54.15 735.09C54.59 736.67 55.02 738.5 55.41 740.59C55.62 739.56 55.83 738.58 56.04 737.64C56.25 736.71 56.51 735.84 56.8 735.05L65.97 704.76C66.18 704.15 66.59 703.62 67.19 703.16C67.8 702.7 68.53 702.47 69.37 702.47L72.42 702.47C73.34 702.47 74.08 702.67 74.65 703.08C75.22 703.49 75.62 704.05 75.86 704.76L85.03 735.09C85.29 735.85 85.54 736.69 85.76 737.6C85.99 738.51 86.2 739.47 86.41 740.47C86.6 739.47 86.79 738.52 86.99 737.62C87.19 736.72 87.39 735.89 87.6 735.13L95.35 704.76C95.54 704.15 95.94 703.62 96.56 703.16C97.18 702.7 97.91 702.47 98.75 702.47L106.9 702.47L91.32 754.98L81.91 754.98L71.51 720.06C71.35 719.61 71.19 719.11 71.05 718.56C70.91 718.01 70.77 717.43 70.64 716.82C70.5 717.43 70.36 718.01 70.2 718.56C70.04 719.11 69.9 719.61 69.77 720.06L59.17 754.98L49.8 754.98L34.22 702.47" />
			<path id="path16" fill-rule="evenodd" class="shp0" d="M159.18 728.68C159.18 732.53 158.57 736.1 157.36 739.38C156.14 742.66 154.42 745.5 152.2 747.9C149.97 750.3 147.29 752.17 144.15 753.52C141.01 754.86 137.53 755.53 133.71 755.53C129.89 755.53 126.41 754.86 123.27 753.52C120.13 752.17 117.44 750.3 115.2 747.9C112.96 745.5 111.23 742.66 110 739.38C108.78 736.1 108.16 732.53 108.16 728.68C108.16 724.86 108.78 721.31 110 718.03C111.23 714.74 112.96 711.91 115.2 709.52C117.44 707.14 120.13 705.27 123.27 703.91C126.41 702.55 129.89 701.87 133.71 701.87C137.53 701.87 141.01 702.55 144.15 703.91C147.29 705.27 149.97 707.15 152.2 709.54C154.42 711.94 156.14 714.78 157.36 718.05C158.57 721.31 159.18 724.86 159.18 728.68ZM148.58 728.68C148.58 725.89 148.23 723.39 147.55 721.17C146.86 718.96 145.88 717.07 144.6 715.51C143.33 713.96 141.77 712.77 139.94 711.94C138.1 711.11 136.03 710.69 133.71 710.69C131.39 710.69 129.31 711.11 127.46 711.94C125.62 712.77 124.05 713.96 122.78 715.51C121.5 717.07 120.51 718.96 119.83 721.17C119.14 723.39 118.8 725.89 118.8 728.68C118.8 731.5 119.14 734.03 119.83 736.26C120.51 738.48 121.5 740.37 122.78 741.91C124.05 743.45 125.62 744.63 127.46 745.45C129.31 746.27 131.39 746.68 133.71 746.68C136.03 746.68 138.1 746.27 139.94 745.45C141.77 744.63 143.33 743.45 144.6 741.91C145.88 740.37 146.86 738.48 147.55 736.26C148.23 734.03 148.58 731.5 148.58 728.68Z" />
			<path id="path18" class="shp0" d="M175.71 746.44L193.94 746.44L193.94 754.98L165.31 754.98L165.31 702.47L175.71 702.47L175.71 746.44Z" />
			<path id="path20" fill-rule="evenodd" class="shp0" d="M246.77 728.68C246.77 732.53 246.16 736.1 244.95 739.38C243.73 742.66 242.02 745.5 239.79 747.9C237.56 750.3 234.88 752.17 231.74 753.52C228.6 754.86 225.12 755.53 221.3 755.53C217.48 755.53 214 754.86 210.86 753.52C207.72 752.17 205.03 750.3 202.79 747.9C200.55 745.5 198.82 742.66 197.59 739.38C196.37 736.1 195.75 732.53 195.75 728.68C195.75 724.86 196.37 721.31 197.59 718.03C198.82 714.74 200.55 711.91 202.79 709.52C205.03 707.14 207.72 705.27 210.86 703.91C214 702.55 217.48 701.87 221.3 701.87C225.12 701.87 228.6 702.55 231.74 703.91C234.88 705.27 237.56 707.15 239.79 709.54C242.02 711.94 243.73 714.78 244.95 718.05C246.16 721.31 246.77 724.86 246.77 728.68ZM236.17 728.68C236.17 725.89 235.83 723.39 235.14 721.17C234.46 718.96 233.47 717.07 232.19 715.51C230.92 713.96 229.36 712.77 227.53 711.94C225.69 711.11 223.62 710.69 221.3 710.69C218.98 710.69 216.9 711.11 215.05 711.94C213.21 712.77 211.65 713.96 210.37 715.51C209.09 717.07 208.11 718.96 207.42 721.17C206.73 723.39 206.39 725.89 206.39 728.68C206.39 731.5 206.73 734.03 207.42 736.26C208.11 738.48 209.09 740.37 210.37 741.91C211.65 743.45 213.21 744.63 215.05 745.45C216.9 746.27 218.98 746.68 221.3 746.68C223.62 746.68 225.69 746.27 227.53 745.45C229.36 744.63 230.92 743.45 232.19 741.91C233.47 740.37 234.46 738.48 235.14 736.26C235.83 734.03 236.17 731.5 236.17 728.68Z" />
			<path id="path22" class="shp0" d="M260.05 702.53C260.37 702.56 260.65 702.64 260.9 702.76C261.15 702.88 261.39 703.05 261.62 703.26C261.84 703.47 262.1 703.75 262.39 704.09L288.25 738.17C288.09 736.43 288.01 734.79 288.01 733.23L288.01 702.47L297.15 702.47L297.15 754.98L291.81 754.98C290.99 754.98 290.31 754.84 289.77 754.57C289.23 754.29 288.7 753.83 288.17 753.2L262.39 719.31C262.55 720.95 262.63 722.46 262.63 723.86L262.63 754.98L253.45 754.98L253.45 702.47L258.91 702.47C259.36 702.47 259.74 702.49 260.05 702.53" />
			<path id="path24" class="shp0" d="M341.36 702.47L341.36 710.93L327.2 710.93L327.2 754.98L316.84 754.98L316.84 710.93L302.68 710.93L302.68 702.47L341.36 702.47Z" />
			<path id="path26" fill-rule="evenodd" class="shp0" d="M384.74 754.98L376.75 754.98C375.83 754.98 375.09 754.76 374.53 754.33C373.98 753.89 373.57 753.35 373.31 752.69L369.99 742.37L350.65 742.37L347.37 752.65C347.16 753.23 346.75 753.76 346.16 754.25C345.57 754.74 344.84 754.98 343.97 754.98L335.86 754.98L355 702.47L365.6 702.47L384.74 754.98ZM352.98 735.09L367.61 735.09L362.28 718.48C361.96 717.66 361.63 716.71 361.29 715.61C360.94 714.52 360.6 713.33 360.26 712.03C359.94 713.33 359.61 714.53 359.27 715.63C358.93 716.74 358.61 717.7 358.32 718.52L352.98 735.09Z" />
			<path id="path28" fill-rule="evenodd" class="shp0" d="M399.88 734.77L399.88 754.98L389.44 754.98L389.44 702.47L405.26 702.47C408.77 702.47 411.77 702.84 414.28 703.59C416.78 704.34 418.83 705.39 420.42 706.74C422.02 708.08 423.19 709.69 423.92 711.56C424.66 713.43 425.03 715.49 425.03 717.73C425.03 719.44 424.79 721.07 424.32 722.61C423.85 724.16 423.15 725.57 422.25 726.84C421.33 728.12 420.22 729.26 418.9 730.25C417.58 731.23 416.07 732.03 414.36 732.64C415.01 733.01 415.63 733.45 416.21 733.96C416.79 734.48 417.33 735.1 417.84 735.84L429.58 754.98L420.21 754.98C418.55 754.98 417.27 754.28 416.37 752.89L406.8 736.51C406.41 735.88 405.97 735.43 405.48 735.17C404.99 734.91 404.3 734.77 403.4 734.77C403.4 734.77 399.88 734.77 399.88 734.77ZM399.88 727.38L405.18 727.38C406.87 727.38 408.33 727.15 409.55 726.71C410.78 726.26 411.79 725.64 412.58 724.85C413.37 724.06 413.95 723.11 414.34 722.02C414.72 720.93 414.91 719.73 414.91 718.44C414.91 715.89 414.12 713.91 412.54 712.53C410.95 711.15 408.53 710.45 405.26 710.45L399.88 710.45L399.88 727.38Z" />
			<path id="path30" class="shp0" d="M446.39 754.98L435.95 754.98L435.95 702.47L446.39 702.47L446.39 754.98Z" />
			<path id="path32" fill-rule="evenodd" class="shp0" d="M501 754.98L493.01 754.98C492.09 754.98 491.35 754.76 490.79 754.33C490.24 753.89 489.83 753.35 489.57 752.69L486.25 742.37L466.91 742.37L463.63 752.65C463.42 753.23 463.01 753.76 462.42 754.25C461.83 754.74 461.1 754.98 460.23 754.98L452.12 754.98L471.26 702.47L481.86 702.47L501 754.98ZM469.24 735.09L483.87 735.09L478.53 718.48C478.22 717.66 477.89 716.71 477.55 715.61C477.2 714.52 476.86 713.33 476.52 712.03C476.2 713.33 475.87 714.53 475.53 715.63C475.19 716.74 474.87 717.7 474.58 718.52L469.24 735.09Z" />
			<path id="path34" class="shp0" d="M534.09 702.47L534.09 710.93L519.94 710.93L519.94 754.98L509.58 754.98L509.58 710.93L495.42 710.93L495.42 702.47L534.09 702.47" />
			<path id="path36" class="shp0" d="M289.31 298.4C283.2 294.48 277.23 290.35 271.41 286.01C268.34 283.72 266.25 282.1 263.18 279.63C260.36 277.35 257.57 275.03 254.83 272.65C243.78 263.1 233.39 252.78 223.76 241.79C214.09 230.78 205.94 220.08 197.83 207.77C189.85 195.64 182.7 182.96 176.47 169.85C173.17 162.9 170.61 156.98 167.93 150.05C164.85 142.08 162.14 133.96 160.04 125.67C157.96 117.47 156.57 109.53 156.07 101.23C155.82 97.18 155.78 93.13 155.99 89.08C156.08 87.33 156.22 85.59 156.4 83.84C156.47 83.16 156.63 81.78 156.67 81.49C156.73 81.09 156.94 79.67 157.08 78.88C157.73 75.07 158.6 71.3 159.72 67.61C160.25 65.85 160.84 64.12 161.48 62.4C162.2 60.5 162.52 59.74 163.31 58.04C166.46 51.24 170.35 45.29 175.21 40.1C177.77 37.37 180.54 34.86 183.47 32.53C183.88 32.2 184.22 31.95 185 31.38C185.72 30.85 186.45 30.34 187.19 29.84C188.73 28.78 190.31 27.77 191.92 26.81C195.09 24.92 198.35 23.22 201.69 21.67C202.51 21.3 203.34 20.93 204.17 20.57C204.66 20.35 205.06 20.19 205.97 19.82C207.73 19.11 209.51 18.44 211.29 17.81C218.75 15.16 226.46 13.06 234.25 11.64C242.06 10.22 250.81 9.65 258.63 11.11C262.03 11.74 265.39 12.7 268.59 14.03C267.77 13.69 269.32 14.37 269.3 14.35C269.61 14.5 269.92 14.65 270.23 14.8C271.01 15.18 271.77 15.58 272.53 16C274.17 16.92 275.77 17.94 277.27 19.09C277.09 18.95 276.71 18.61 277.47 19.25C277.86 19.58 278.26 19.91 278.64 20.25C279.22 20.76 279.77 21.29 280.32 21.83C280.92 22.43 281.5 23.06 282.06 23.7C282.87 24.63 282.72 24.43 283.35 25.32C285.68 28.61 287.2 31.87 288.42 35.42C289.67 39.09 290.59 42.87 291.44 46.65C292.26 50.3 297.28 51.51 299.8 48.85C302.2 46.32 304.71 43.89 307.34 41.59C310.11 39.16 312.15 37.55 314.96 35.55C320.5 31.59 326.39 28.14 332.55 25.24C344.07 19.8 358.19 16.1 370.85 15.29C378.36 14.8 385.61 14.85 392.68 17.22C394.48 17.82 395.28 18.16 396.83 18.93C398.48 19.75 400.08 20.67 401.63 21.67C404.49 23.53 406.62 25.29 409.22 27.8C410.33 28.88 411.4 29.99 412.43 31.15C412.91 31.69 413.39 32.24 413.85 32.8C414.11 33.11 414.37 33.42 414.62 33.73C414.73 33.87 415.56 34.95 415.03 34.24C416.86 36.67 418.53 39.23 420.03 41.88C420.74 43.13 421.42 44.41 422.05 45.7C422.4 46.42 422.74 47.15 423.07 47.88C423.2 48.17 423.33 48.47 423.46 48.76C423.92 49.81 423.32 48.36 423.7 49.34C424.84 52.28 425.88 55.24 426.71 58.28C427.53 61.27 428.19 64.29 428.69 67.35C428.81 68.07 428.92 68.8 429.02 69.53C428.9 68.63 429.04 69.69 429.07 69.91C429.12 70.32 429.17 70.73 429.21 71.14C429.39 72.77 429.53 74.42 429.62 76.06C429.99 82.35 429.78 88.67 429.03 94.92C429.04 94.82 428.84 96.44 428.93 95.74C429.02 95.04 428.8 96.66 428.81 96.55C428.7 97.29 428.59 98.03 428.47 98.77C428.21 100.32 427.91 101.86 427.59 103.4C426.92 106.54 426.13 109.65 425.19 112.72C423.02 119.86 420.47 126.23 417.33 132.77C404.09 160.29 384.14 184.03 365.7 208.15C345.25 234.92 324.99 261.84 304.95 288.92C302.47 292.27 299.99 295.62 297.51 298.97C295.91 301.15 297.15 304.56 299.31 305.82C301.85 307.3 304.54 306.2 306.15 304.02C326.73 276.12 347.53 248.37 368.55 220.79C378.49 207.74 388.63 194.83 398.39 181.65C407.53 169.33 416.26 156.62 423.37 142.99C430.13 130.01 435.61 116.14 438.07 101.67C440.35 88.22 440.43 74.47 437.66 61.08C434.97 48.07 429.34 35.73 420.77 25.54C416.21 20.11 410.7 15.3 404.56 11.73C397.26 7.5 389.2 5.51 380.81 5.13C366.25 4.49 351.24 7.26 337.6 12.34C323.92 17.44 311.27 24.9 300.27 34.52C297.64 36.82 295.13 39.25 292.73 41.78C295.51 42.52 298.3 43.25 301.09 43.99C299.23 35.76 296.93 27.25 291.98 20.27C287.5 13.96 281.37 8.96 274.35 5.72C257.82 -1.9 239.43 -0.31 222.23 4.06C207.23 7.87 192.29 13.68 179.74 22.9C166.45 32.67 156.77 45.73 151.28 61.29C139.68 94.13 148.48 129.62 161.48 160.61C173.34 188.91 189.17 215.27 208.47 239.12C227.57 262.72 250.04 283.54 274.98 300.85C278.03 302.97 281.13 305.03 284.26 307.04C286.53 308.5 289.78 307.51 291.1 305.25C292.52 302.83 291.58 299.87 289.31 298.4L289.31 298.4" />
			<path id="path38" class="shp0" d="M355.82 368.9C378.05 337.41 400.28 305.91 422.51 274.41C425.32 270.44 428.13 266.46 430.93 262.48C432.3 260.55 433.66 258.61 435.03 256.68C435.84 255.53 436.74 254.14 437.54 253.52C437.83 253.3 438.18 253.09 438.51 252.93C437.95 253.21 439.32 252.69 438.69 252.91C438.14 253.1 439.71 253.04 438.6 252.86C438.9 252.91 439.23 253 439.51 253.11C438.5 252.72 440.52 253.9 439.79 253.32C440.7 254.04 440.8 254.24 441.21 254.89C442.16 256.36 442.19 256.71 442.72 258.44C443.17 259.94 442.71 257.93 442.84 259.01C442.89 259.47 442.92 259.92 442.93 260.38C442.99 261.61 442.97 262.86 442.85 264.09C442.03 271.91 437.6 279.05 433.47 285.53C428.29 293.65 422.98 301.69 417.73 309.76C412.6 317.66 407.18 325.44 402.35 333.53C398.08 340.68 394.62 350.32 399.99 357.89C404.86 364.77 413.76 366.73 421.65 364.91C430.22 362.94 437.88 357.16 445.29 352.67C461.79 342.67 478.3 332.66 494.8 322.65C502.19 318.17 509.43 313.57 512.66 305.15C515.59 297.49 514.1 288.75 511.82 281.13C509.22 272.44 505.81 263.95 502.74 255.41C499.45 246.27 496.16 237.13 492.88 227.99C486.68 210.75 479.39 193.39 476.63 175.17C476 170.97 475.77 166.7 475.81 162.46C473.7 164.07 471.59 165.67 469.48 167.28C471.13 167.51 472.75 167.83 474.35 168.27C475.05 168.46 475.74 168.67 476.42 168.91C476.85 169.05 477.27 169.2 477.69 169.36C477.86 169.43 478.8 169.82 478.23 169.58C481.11 170.82 484.23 172.72 486.46 174.43C491.29 178.15 495.92 183.52 499.39 188.47C508.62 201.61 515.27 216.56 522.54 230.83C531.17 247.75 539.8 264.67 548.42 281.58C550.58 285.81 552.74 290.04 554.89 294.27C556.41 297.25 559.16 300.81 558.3 304.16C557.82 306.03 556.67 307.71 555.71 309.37C554.58 311.33 553.46 313.3 552.34 315.27C550.04 319.32 547.77 323.39 545.53 327.47C536.75 343.48 528.41 359.73 520.51 376.19C516.59 384.36 512.78 392.59 509.09 400.87C505.99 407.79 503.08 414.81 499.58 421.55C496.36 427.74 492.81 433.51 488.04 438.32C483.36 443.04 478 445.97 471.82 447.97C465.05 450.15 458.1 451.62 451.54 454.43C444.77 457.33 439.03 462.07 435.64 468.7C432.22 475.39 430.31 483.04 428.62 490.33C427.27 496.16 426.34 502.11 425.81 508.07C424.71 520.57 425.38 533.18 425.54 545.71C425.59 549.97 425.62 554.24 425.61 558.51C425.59 564.94 435.59 564.95 435.61 558.51C435.64 544.23 434.86 529.91 435.36 515.64C435.46 512.81 435.63 509.98 435.9 507.17C436.02 505.87 436.17 504.58 436.33 503.29C436.45 502.4 436.15 504.49 436.37 503.01C436.42 502.7 436.46 502.39 436.51 502.09C436.63 501.31 436.75 500.53 436.89 499.75C438.03 493.12 439.77 486.6 441.79 480.18C442.9 476.67 444.19 473.09 446.47 470.14C448.5 467.51 450.39 466.21 453.18 464.7C456.06 463.13 458.52 462.29 461.92 461.25C465.18 460.26 468.49 459.41 471.76 458.45C479.06 456.29 485.8 453.34 491.72 448.48C497.28 443.92 501.69 437.97 505.33 431.81C509.08 425.47 512.08 418.72 515.04 411.98C518.71 403.61 522.49 395.3 526.39 387.03C534.28 370.29 542.64 353.77 551.46 337.5C555.83 329.42 560.34 321.43 564.9 313.45C567.37 309.14 569.3 304.51 568.15 299.46C567.16 295.14 564.45 291.02 562.45 287.11C553.64 269.84 544.84 252.57 536.03 235.3C531.66 226.72 527.28 218.14 522.91 209.57C519.45 202.78 516.02 195.98 512.01 189.5C504.55 177.4 495.03 165.79 481.59 160.22C478.55 158.96 475.41 158.09 472.14 157.64C468.96 157.19 465.85 158.88 465.81 162.46C465.62 180.98 471.72 198.62 477.9 215.82C484.39 233.86 490.87 251.89 497.36 269.93C500.01 277.29 503.5 285.24 504.15 292.92C504.44 296.41 504.3 299.73 502.9 302.7C501.43 305.83 498.9 308.13 496.08 310.06C488.52 315.23 480.4 319.69 472.58 324.43C464.49 329.33 456.41 334.23 448.32 339.13C444.17 341.65 440.01 344.17 435.86 346.69C432.04 349.01 428.26 351.48 424.23 353.42C421 354.98 417.92 355.82 414.49 355.55C413.39 355.47 413.98 355.47 414.19 355.51C413.84 355.45 413.48 355.37 413.13 355.29C412.16 355.05 411.7 354.89 411.28 354.69C410.65 354.39 410.02 354.03 409.45 353.61C409.98 354 408.18 352.28 408.63 352.85C406.58 350.24 407.08 347.34 408.12 344.33C409.44 340.51 411.89 337.09 414.08 333.73C419.32 325.65 424.57 317.57 429.82 309.5C434.8 301.83 440.02 294.27 444.69 286.4C449.18 278.84 453.02 270.37 452.96 261.4C452.92 254.1 449.24 244.93 441.26 243.22C431.48 241.11 426.27 251.81 421.61 258.4C399.54 289.68 377.46 320.97 355.38 352.25C352.65 356.11 349.92 359.99 347.19 363.85C345.63 366.06 346.79 369.41 348.98 370.69C351.48 372.16 354.26 371.11 355.82 368.9L355.82 368.9" />
			<path id="path40" class="shp0" d="M346.51 366.38C347.94 377.03 348.22 387.83 348.08 398.57C347.91 410.63 347.14 422.68 345.83 434.66C345.17 440.75 344.65 444.7 343.69 450.68C342.87 455.76 341.93 460.82 340.78 465.84C337.5 480.07 332.76 493.92 328.94 508C324.55 524.17 321.21 540.6 318.89 557.18C318.53 559.76 319.51 562.68 322.38 563.33C324.74 563.87 328.14 562.61 328.53 559.84C330.61 544.97 333.51 530.22 337.25 515.67C340.97 501.26 345.77 487.15 349.4 472.72C355.08 450.13 357.35 426.46 357.98 403.22C358.31 390.95 358.14 378.56 356.51 366.38C356.16 363.8 354.46 361.25 351.51 361.38C349.1 361.49 346.13 363.6 346.51 366.38L346.51 366.38" />
			<path id="path42" class="shp0" d="M221.48 363.85C199.33 332.47 177.17 301.08 155.02 269.69C152.29 265.82 149.56 261.95 146.83 258.08C144.27 254.46 141.9 250.47 138.89 247.2C135.92 243.99 131.53 242.14 127.18 243.27C123.45 244.24 120.46 247.04 118.53 250.3C114.22 257.59 115.35 267.01 118.21 274.61C121.33 282.89 126.3 290.18 131.08 297.55C136.4 305.74 141.72 313.92 147.04 322.11C149.63 326.09 152.22 330.07 154.81 334.06C156.92 337.31 159.28 340.63 160.55 344.33C161.58 347.32 162.11 350.28 160.04 352.85C160.51 352.27 158.62 354.06 159.22 353.61C158.66 354.03 158.02 354.38 157.39 354.69C156.65 355.05 154.69 355.52 153.9 355.57C146.29 356.1 138.91 350.39 132.47 346.49C116.08 336.55 99.69 326.61 83.29 316.67C79.62 314.45 75.86 312.33 72.33 309.88C69.53 307.94 67.02 305.57 65.63 302.42C62.93 296.29 64.97 288.45 67.07 281.92C69.9 273.15 73.25 264.52 76.37 255.85C79.57 246.95 82.77 238.06 85.97 229.16C92.16 211.93 99.36 194.61 101.89 176.36C102.53 171.75 102.91 167.12 102.86 162.46C102.82 158.88 99.71 157.19 96.53 157.64C82.01 159.66 70.8 169.75 62.33 181.08C52.77 193.89 46.15 208.79 38.93 222.96C30.18 240.11 21.43 257.27 12.69 274.42C10.53 278.65 8.37 282.88 6.22 287.11C4.14 291.18 1.21 295.54 0.4 300.09C-0.48 305.09 1.51 309.52 3.94 313.76C6.2 317.69 8.45 321.63 10.66 325.58C19.69 341.74 28.27 358.14 36.39 374.77C40.43 383.03 44.35 391.35 48.15 399.71C51.57 407.23 54.74 414.86 58.31 422.3C64.57 435.33 73.06 448.52 86.69 454.71C93.31 457.72 100.37 459.27 107.29 461.42C113.07 463.22 118.68 465.39 122.39 470.41C124.68 473.51 125.95 477.17 127.07 480.81C128.11 484.17 129.08 487.55 129.92 490.96C130.64 493.87 131.27 496.8 131.78 499.75C131.91 500.53 132.04 501.31 132.16 502.09C132.21 502.41 132.44 504.06 132.31 503.06C132.51 504.58 132.67 506.1 132.81 507.62C133.97 520.27 133.29 533.03 133.13 545.71C133.08 549.97 133.05 554.24 133.06 558.51C133.08 564.94 143.08 564.95 143.06 558.51C143.03 544.38 143.78 530.23 143.32 516.11C142.93 503.8 140.77 491.85 137.29 480.05C135.04 472.45 132.14 464.77 125.78 459.63C120.21 455.13 113.51 452.76 106.7 450.82C103.41 449.88 100.1 449.02 96.85 447.97C93.49 446.88 91.21 446.01 88.2 444.25C82.54 440.95 77.95 435.96 74.33 430.52C70.36 424.56 67.24 418.07 64.31 411.54C60.75 403.63 57.29 395.67 53.63 387.8C46.01 371.35 37.93 355.11 29.42 339.11C25.16 331.1 20.8 323.16 16.33 315.27C15.21 313.3 14.08 311.33 12.95 309.37C12 307.71 10.87 306.03 10.37 304.16C9.48 300.83 12.27 297.23 13.77 294.27C22.46 277.24 31.15 260.2 39.83 243.17C44.21 234.59 48.58 226.01 52.95 217.43C56.45 210.58 59.87 203.67 63.78 197.04C70.38 185.86 78.41 174.79 90.44 169.58C89.86 169.83 90.67 169.48 90.73 169.46C91.15 169.3 91.57 169.14 91.99 168.99C92.76 168.73 93.53 168.48 94.32 168.27C95.92 167.82 97.54 167.51 99.19 167.28C97.07 165.67 94.97 164.07 92.86 162.46C93.05 180.72 86.55 198.07 80.46 215.01C73.97 233.05 67.48 251.09 61 269.13C58.14 277.07 55.03 285.04 54.47 293.55C53.92 302.13 57 310.29 63.69 315.81C70.55 321.45 78.76 325.62 86.33 330.21C94.64 335.25 102.95 340.28 111.25 345.32C119.3 350.19 127.27 355.23 135.42 359.93C142.57 364.05 150.98 367.29 159.25 364.63C167.98 361.81 172.69 353.81 171.02 344.79C169.44 336.27 163.3 328.8 158.7 321.71C153.38 313.52 148.06 305.34 142.74 297.15C137.89 289.7 132.57 282.35 128.82 274.26C127.27 270.89 126.02 267.14 125.77 263.42C125.52 259.71 125.71 257.44 127.6 254.66C128.21 253.75 127.92 254.25 127.79 254.41C128.06 254.08 128.37 253.77 128.69 253.49C129.32 252.92 128.22 253.88 128.86 253.36C129.03 253.21 129.98 252.79 129.16 253.11C129.44 253 129.77 252.91 130.07 252.86C129.09 253.02 130.04 252.86 130.15 252.93C129.26 252.36 130.61 253.19 130.23 252.97C130.08 252.88 130.98 253.4 131.12 253.52C131.9 254.13 132.84 255.55 133.64 256.68C135.08 258.72 136.52 260.76 137.96 262.81C160.19 294.3 182.42 325.8 204.65 357.29C207.38 361.16 210.11 365.03 212.84 368.9C214.4 371.11 217.21 372.14 219.69 370.69C221.86 369.42 223.04 366.07 221.48 363.85L221.48 363.85" />
			<path id="path44" class="shp0" d="M212.16 366.38C210.72 377.12 210.44 388.01 210.6 398.83C210.77 410.88 211.55 422.94 212.86 434.92C214.09 446.11 215.69 457.31 218.2 468.3C221.45 482.5 226.18 496.31 230 510.35C234.43 526.61 237.8 543.15 240.14 559.84C240.51 562.51 243.93 563.98 246.29 563.33C249.17 562.54 250.16 559.87 249.78 557.18C247.72 542.42 244.84 527.77 241.14 513.33C237.44 498.91 232.64 484.8 228.99 470.37C227.69 465.24 226.6 460.07 225.68 454.86C225.19 452.11 224.75 449.36 224.35 446.61C224.25 445.96 224.16 445.31 224.07 444.66C224.02 444.33 223.97 444 223.93 443.67C223.9 443.46 223.76 442.39 223.87 443.27C223.68 441.85 223.51 440.43 223.33 439C221.89 427.04 221 415.01 220.68 402.96C220.36 390.77 220.53 378.48 222.16 366.38C222.51 363.77 219.61 361.27 217.16 361.38C214.15 361.51 212.54 363.59 212.16 366.38L212.16 366.38Z" />
		</g>
	</g>
</svg>