<svg xmlns="http://www.w3.org/2000/svg" viewBox="0 0 683 545" width="683" height="545">
	<style>
		tspan { white-space:pre }
		.shp0 { fill: #eb1d27 } 
	</style>
	<g id="g10">
		<g id="g12">
			<path id="path14" class="shp0" d="M20.23 512.89L21.89 512.89C23.48 512.89 24.6 512.36 25.26 511.31L35.58 493.23C36.16 492.44 36.8 491.89 37.49 491.57C38.19 491.26 39.04 491.1 40.05 491.1L49.1 491.1L35.58 512.73C34.6 514.13 33.56 515.11 32.45 515.69C33.24 515.99 33.96 516.41 34.59 516.96C35.22 517.51 35.83 518.21 36.41 519.06L50.17 543.61L40.96 543.61C39.79 543.61 38.93 543.44 38.36 543.08C37.8 542.72 37.32 542.26 36.92 541.68L26.44 522.54C26.05 521.9 25.58 521.44 25.04 521.15C24.5 520.86 23.75 520.72 22.81 520.72L20.23 520.72L20.23 543.61L9.83 543.61L9.83 491.1L20.23 491.1L20.23 512.89" />
			<path id="path16" fill-rule="evenodd" class="shp0" d="M99.68 517.32C99.68 521.17 99.07 524.73 97.86 528.01C96.65 531.29 94.93 534.14 92.7 536.53C90.47 538.93 87.79 540.81 84.65 542.15C81.51 543.49 78.03 544.17 74.21 544.17C70.39 544.17 66.91 543.49 63.77 542.15C60.63 540.81 57.95 538.93 55.7 536.53C53.46 534.14 51.73 531.29 50.51 528.01C49.28 524.73 48.67 521.17 48.67 517.32C48.67 513.49 49.28 509.94 50.51 506.66C51.73 503.38 53.46 500.54 55.7 498.16C57.95 495.77 60.63 493.9 63.77 492.54C66.91 491.18 70.39 490.51 74.21 490.51C78.03 490.51 81.51 491.18 84.65 492.54C87.79 493.9 90.47 495.78 92.7 498.18C94.93 500.58 96.65 503.41 97.86 506.68C99.07 509.95 99.68 513.49 99.68 517.32ZM89.08 517.32C89.08 514.52 88.74 512.02 88.05 509.8C87.37 507.59 86.38 505.7 85.11 504.15C83.83 502.59 82.27 501.4 80.44 500.57C78.61 499.74 76.53 499.32 74.21 499.32C71.89 499.32 69.81 499.74 67.96 500.57C66.12 501.4 64.56 502.59 63.28 504.15C62 505.7 61.02 507.59 60.33 509.8C59.65 512.02 59.3 514.52 59.3 517.32C59.3 520.14 59.65 522.66 60.33 524.89C61.02 527.12 62 529 63.28 530.54C64.56 532.09 66.12 533.27 67.96 534.08C69.81 534.9 71.89 535.31 74.21 535.31C76.53 535.31 78.61 534.9 80.44 534.08C82.27 533.27 83.83 532.09 85.11 530.54C86.38 529 87.37 527.12 88.05 524.89C88.74 522.66 89.08 520.14 89.08 517.32Z" />
			<path id="path18" class="shp0" d="M144.48 475.6L132.1 486.55C131.58 487 131.08 487.28 130.6 487.4C130.13 487.52 129.51 487.58 128.74 487.58L121.47 487.58L129.26 477.22C129.52 476.85 129.78 476.56 130.05 476.35C130.31 476.14 130.6 475.97 130.92 475.85C131.23 475.74 131.58 475.66 131.97 475.64C132.35 475.61 132.8 475.6 133.33 475.6L144.48 475.6ZM112.97 491.16C113.28 491.2 113.56 491.28 113.81 491.39C114.07 491.51 114.3 491.68 114.53 491.89C114.75 492.1 115.01 492.38 115.3 492.72L141.16 526.81C141 525.07 140.92 523.42 140.92 521.86L140.92 491.1L150.06 491.1L150.06 543.61L144.72 543.61C143.9 543.61 143.22 543.47 142.68 543.2C142.14 542.92 141.61 542.47 141.08 541.83L115.3 507.94C115.46 509.58 115.53 511.09 115.53 512.49L115.53 543.61L106.36 543.61L106.36 491.1L111.82 491.1C112.27 491.1 112.65 491.12 112.97 491.16" />
			<path id="path20" class="shp0" d="M191.34 530.88C191.9 530.88 192.37 531.09 192.77 531.51L196.92 535.98C195.02 538.64 192.64 540.67 189.78 542.07C186.92 543.47 183.53 544.17 179.6 544.17C176.04 544.17 172.83 543.5 169.99 542.17C167.14 540.84 164.72 538.98 162.73 536.59C160.74 534.21 159.21 531.37 158.14 528.09C157.08 524.81 156.54 521.22 156.54 517.32C156.54 513.39 157.12 509.78 158.26 506.5C159.41 503.22 161.03 500.39 163.11 498.02C165.19 495.65 167.68 493.8 170.58 492.48C173.48 491.17 176.67 490.51 180.15 490.51C183.68 490.51 186.81 491.13 189.52 492.38C192.24 493.64 194.51 495.29 196.32 497.35L192.85 502.21C192.61 502.5 192.34 502.76 192.03 503C191.73 503.24 191.3 503.36 190.75 503.36C190.19 503.36 189.66 503.15 189.15 502.72C188.63 502.3 188 501.84 187.25 501.34C186.5 500.84 185.55 500.38 184.42 499.96C183.29 499.53 181.84 499.32 180.07 499.32C178.15 499.32 176.39 499.73 174.81 500.53C173.23 501.33 171.87 502.51 170.74 504.05C169.61 505.59 168.73 507.48 168.11 509.7C167.49 511.93 167.18 514.47 167.18 517.32C167.18 520.19 167.52 522.75 168.21 524.99C168.89 527.23 169.82 529.12 171 530.66C172.17 532.2 173.55 533.38 175.13 534.18C176.71 534.99 178.41 535.39 180.23 535.39C181.31 535.39 182.29 535.33 183.16 535.21C184.03 535.09 184.84 534.88 185.59 534.58C186.34 534.27 187.04 533.89 187.7 533.41C188.36 532.94 189.02 532.34 189.68 531.63C189.94 531.42 190.21 531.24 190.49 531.1C190.77 530.95 191.05 530.88 191.34 530.88" />
			<path id="path22" fill-rule="evenodd" class="shp0" d="M240.77 475.6L228.39 486.55C227.87 487 227.37 487.28 226.89 487.4C226.42 487.52 225.8 487.58 225.03 487.58L217.76 487.58L225.55 477.22C225.81 476.85 226.07 476.56 226.34 476.35C226.6 476.14 226.89 475.97 227.21 475.85C227.53 475.74 227.87 475.66 228.26 475.64C228.64 475.61 229.09 475.6 229.62 475.6L240.77 475.6ZM250.07 517.32C250.07 521.17 249.46 524.73 248.25 528.01C247.03 531.29 245.31 534.14 243.09 536.53C240.86 538.93 238.17 540.81 235.04 542.15C231.9 543.49 228.42 544.17 224.6 544.17C220.78 544.17 217.3 543.49 214.16 542.15C211.02 540.81 208.33 538.93 206.09 536.53C203.85 534.14 202.12 531.29 200.89 528.01C199.67 524.73 199.05 521.17 199.05 517.32C199.05 513.49 199.67 509.94 200.89 506.66C202.12 503.38 203.85 500.54 206.09 498.16C208.33 495.77 211.02 493.9 214.16 492.54C217.3 491.18 220.78 490.51 224.6 490.51C228.42 490.51 231.9 491.18 235.04 492.54C238.17 493.9 240.86 495.78 243.09 498.18C245.31 500.58 247.03 503.41 248.25 506.68C249.46 509.95 250.07 513.49 250.07 517.32ZM239.47 517.32C239.47 514.52 239.12 512.02 238.44 509.8C237.75 507.59 236.77 505.7 235.49 504.15C234.21 502.59 232.66 501.4 230.83 500.57C228.99 499.74 226.92 499.32 224.6 499.32C222.28 499.32 220.19 499.74 218.35 500.57C216.51 501.4 214.94 502.59 213.66 504.15C212.39 505.7 211.4 507.59 210.72 509.8C210.03 512.02 209.69 514.52 209.69 517.32C209.69 520.14 210.03 522.66 210.72 524.89C211.4 527.12 212.39 529 213.66 530.54C214.94 532.09 216.51 533.27 218.35 534.08C220.19 534.9 222.28 535.31 224.6 535.31C226.92 535.31 228.99 534.9 230.83 534.08C232.66 533.27 234.21 532.09 235.49 530.54C236.77 529 237.75 527.12 238.44 524.89C239.12 522.66 239.47 520.14 239.47 517.32Z" />
			<path id="path24" class="shp0" d="M251.29 491.1L259.99 491.1C260.91 491.1 261.67 491.31 262.26 491.73C262.86 492.15 263.26 492.71 263.47 493.39L271.22 523.72C271.67 525.3 272.09 527.14 272.49 529.22C272.7 528.19 272.91 527.21 273.12 526.27C273.33 525.34 273.58 524.47 273.87 523.68L283.05 493.39C283.26 492.79 283.66 492.25 284.27 491.79C284.88 491.33 285.6 491.1 286.45 491.1L289.49 491.1C290.41 491.1 291.16 491.3 291.73 491.71C292.29 492.12 292.69 492.68 292.93 493.39L302.11 523.72C302.37 524.49 302.61 525.32 302.84 526.23C303.06 527.14 303.28 528.1 303.49 529.1C303.67 528.1 303.87 527.15 304.06 526.25C304.26 525.36 304.47 524.53 304.68 523.76L312.43 493.39C312.61 492.79 313.01 492.25 313.63 491.79C314.25 491.33 314.98 491.1 315.83 491.1L323.97 491.1L308.39 543.61L298.98 543.61L288.58 508.69C288.42 508.25 288.27 507.75 288.13 507.19C287.98 506.64 287.84 506.06 287.71 505.45C287.58 506.06 287.43 506.64 287.28 507.19C287.12 507.75 286.97 508.25 286.84 508.69L276.24 543.61L266.87 543.61L251.29 491.1" />
			<path id="path26" class="shp0" d="M338.53 512.89L340.19 512.89C341.77 512.89 342.89 512.36 343.55 511.31L353.87 493.23C354.45 492.44 355.09 491.89 355.79 491.57C356.49 491.26 357.34 491.1 358.34 491.1L367.39 491.1L353.87 512.73C352.89 514.13 351.85 515.11 350.75 515.69C351.54 515.99 352.25 516.41 352.88 516.96C353.51 517.51 354.12 518.21 354.7 519.06L368.46 543.61L359.25 543.61C358.09 543.61 357.22 543.44 356.66 543.08C356.09 542.72 355.61 542.26 355.21 541.68L344.73 522.54C344.34 521.9 343.87 521.44 343.33 521.15C342.79 520.86 342.05 520.72 341.1 520.72L338.53 520.72L338.53 543.61L328.13 543.61L328.13 491.1L338.53 491.1L338.53 512.89Z" />
			<path id="path28" fill-rule="evenodd" class="shp0" d="M417.65 543.61L409.67 543.61C408.74 543.61 408.01 543.4 407.45 542.96C406.9 542.53 406.49 541.98 406.23 541.32L402.91 531L383.57 531L380.29 541.28C380.07 541.86 379.67 542.39 379.08 542.88C378.49 543.37 377.75 543.61 376.88 543.61L368.78 543.61L387.92 491.1L398.52 491.1C398.52 491.1 417.65 543.61 417.65 543.61ZM385.9 523.72L400.53 523.72L395.19 507.11C394.88 506.3 394.55 505.34 394.2 504.25C393.86 503.15 393.52 501.96 393.18 500.67C392.86 501.96 392.53 503.16 392.19 504.27C391.85 505.37 391.53 506.34 391.24 507.15L385.9 523.72Z" />
			<path id="path30" fill-rule="evenodd" class="shp0" d="M450.95 525.38L450.95 543.61L440.55 543.61L440.55 491.1L457.44 491.1C460.84 491.1 463.76 491.52 466.21 492.36C468.67 493.21 470.7 494.37 472.31 495.86C473.91 497.35 475.1 499.13 475.86 501.18C476.63 503.24 477.01 505.49 477.01 507.94C477.01 510.53 476.61 512.89 475.81 515.02C475 517.16 473.79 518.99 472.17 520.52C470.54 522.05 468.51 523.24 466.06 524.1C463.61 524.95 460.73 525.38 457.44 525.38C457.44 525.38 450.95 525.38 450.95 525.38ZM450.95 517.32L457.44 517.32C460.6 517.32 462.92 516.48 464.4 514.81C465.87 513.13 466.61 510.84 466.61 507.94C466.61 505.23 465.86 503.07 464.36 501.48C462.85 499.88 460.55 499.09 457.44 499.09L450.95 499.09L450.95 517.32Z" />
			<path id="path32" class="shp0" d="M515.8 491.1L515.8 499.36L494.21 499.36L494.21 513.24L511.02 513.24L511.02 521.19L494.21 521.19L494.21 535.35L515.84 535.35L515.8 543.61L483.77 543.61L483.77 491.1L515.8 491.1Z" />
			<path id="path34" class="shp0" d="M530.04 491.16C530.36 491.2 530.64 491.28 530.89 491.39C531.14 491.51 531.38 491.68 531.6 491.89C531.83 492.1 532.08 492.38 532.37 492.72L558.23 526.81C558.08 525.07 558 523.42 558 521.86L558 491.1L567.13 491.1L567.13 543.61L561.79 543.61C560.98 543.61 560.3 543.47 559.76 543.2C559.22 542.92 558.68 542.47 558.15 541.83L532.37 507.94C532.53 509.58 532.61 511.09 532.61 512.49L532.61 543.61L523.43 543.61L523.43 491.1L528.89 491.1C529.34 491.1 529.72 491.12 530.04 491.16" />
			<path id="path36" class="shp0" d="M604.42 500.98C604.16 501.51 603.85 501.89 603.49 502.11C603.14 502.34 602.69 502.45 602.17 502.45C601.67 502.45 601.13 502.26 600.55 501.89C599.97 501.53 599.29 501.12 598.51 500.69C597.73 500.25 596.83 499.85 595.8 499.48C594.77 499.11 593.59 498.93 592.24 498.93C589.87 498.93 588.08 499.51 586.88 500.67C585.68 501.83 585.08 503.34 585.08 505.22C585.08 506.4 585.41 507.39 586.05 508.16C586.7 508.94 587.56 509.61 588.62 510.18C589.69 510.75 590.9 511.25 592.26 511.7C593.62 512.15 595.01 512.63 596.43 513.14C597.86 513.66 599.25 514.27 600.61 514.96C601.96 515.66 603.18 516.54 604.24 517.59C605.31 518.65 606.17 519.94 606.81 521.47C607.46 523 607.78 524.86 607.78 527.04C607.78 529.42 607.39 531.65 606.62 533.73C605.84 535.81 604.7 537.62 603.2 539.17C601.69 540.71 599.85 541.93 597.68 542.82C595.51 543.72 593.02 544.17 590.23 544.17C588.64 544.17 587.07 544 585.5 543.67C583.93 543.34 582.42 542.88 580.97 542.27C579.52 541.66 578.15 540.94 576.86 540.09C575.57 539.25 574.43 538.3 573.46 537.25L576.54 532.3C576.78 531.91 577.1 531.59 577.51 531.35C577.92 531.12 578.36 531 578.84 531C579.47 531 580.12 531.24 580.79 531.73C581.47 532.22 582.25 532.76 583.15 533.35C584.04 533.94 585.08 534.49 586.27 534.97C587.46 535.46 588.87 535.7 590.5 535.7C592.87 535.7 594.72 535.1 596.04 533.89C597.36 532.67 598.02 530.88 598.02 528.51C598.02 527.16 597.69 526.07 597.05 525.23C596.4 524.38 595.55 523.68 594.5 523.11C593.44 522.54 592.24 522.06 590.88 521.65C589.52 521.24 588.14 520.8 586.73 520.32C585.31 519.85 583.93 519.27 582.57 518.6C581.22 517.93 580.01 517.04 578.96 515.93C577.9 514.83 577.05 513.45 576.41 511.82C575.76 510.19 575.44 508.16 575.44 505.73C575.44 503.81 575.81 501.93 576.54 500.09C577.28 498.26 578.36 496.63 579.79 495.21C581.21 493.79 582.96 492.65 585.03 491.79C587.09 490.93 589.46 490.51 592.12 490.51C595.13 490.51 597.92 490.99 600.49 491.97C603.06 492.94 605.25 494.31 607.07 496.08L604.42 500.98" />
			<path id="path38" class="shp0" d="M632.93 524.83C632.93 527.76 632.62 530.41 632 532.8C631.38 535.18 630.43 537.22 629.16 538.91C627.88 540.59 626.27 541.89 624.33 542.8C622.39 543.71 620.12 544.17 617.51 544.17C616.32 544.17 615.16 544.09 614.03 543.95C612.9 543.8 611.71 543.56 610.47 543.22L611.03 537.05C611.08 536.52 611.29 536.08 611.66 535.72C612.03 535.37 612.55 535.19 613.24 535.19C613.61 535.19 614.04 535.27 614.55 535.43C615.05 535.59 615.68 535.67 616.44 535.67C617.5 535.67 618.41 535.47 619.17 535.09C619.94 534.71 620.57 534.1 621.07 533.25C621.57 532.41 621.95 531.32 622.2 529.99C622.45 528.66 622.57 527.03 622.57 525.11L622.57 491.1L632.93 491.1L632.93 524.83Z" />
			<path id="path40" class="shp0" d="M652.75 543.61L642.31 543.61L642.31 491.1L652.75 491.1L652.75 543.61Z" />
			<path id="path42" class="shp0" d="M558.3 4.94C535.79 3.09 513.2 1.88 490.61 2.41C467.85 2.94 445.03 5.24 422.84 10.41C412.2 12.88 401.59 15.93 391.45 20.02C381.56 24.01 371.87 29.17 364.48 37.02C357.28 44.67 352.29 54.72 351.98 65.34C351.68 75.54 356.34 84.94 363.17 92.27C369.86 99.46 378.43 104.77 387.08 109.26C396.46 114.12 406.34 118.08 416.43 121.19C436.7 127.45 457.94 130.32 479.07 131.49C489.56 132.08 500.08 132.22 510.58 132.1C522.08 131.97 533.73 131.86 545.02 129.41C555.98 127.03 566.38 122.41 576.31 117.27C586.04 112.23 595.95 106.77 603.74 98.91C610.91 91.69 616.42 82.24 618.08 72.12C619.77 61.75 617.78 51.45 613.09 42.11C603.44 22.89 584.17 11.71 564.47 5.05C559.68 3.43 554.81 2.05 549.91 0.78C547.38 0.12 544.37 1.61 543.76 4.27C543.17 6.88 544.54 9.72 547.25 10.42C552.06 11.67 556.84 13.02 561.54 14.6C566.38 16.23 570.54 17.85 574.91 19.97C583.69 24.23 591.24 29.35 597.56 36.71C599.1 38.51 599.86 39.52 601.27 41.65C602.53 43.57 603.68 45.56 604.69 47.63C604.92 48.1 605.14 48.58 605.36 49.06C605.71 49.79 605.38 49.04 605.68 49.8C606.14 50.93 606.55 52.08 606.92 53.25C607.6 55.4 608.11 57.61 608.47 59.84C608.35 59.11 608.55 60.62 608.57 60.83C608.62 61.35 608.66 61.87 608.69 62.39C608.76 63.52 608.77 64.65 608.74 65.78C608.71 66.68 608.59 68.33 608.54 68.79C608.47 69.36 608.14 71.11 607.91 72.09C606.81 76.8 605.35 80.11 602.78 84.21C597.82 92.1 590.1 98.01 581.73 102.91C572.91 108.07 563.62 112.9 554.22 116.3C543.91 120.04 533.77 121.45 522.9 121.84C512.64 122.2 502.35 122.25 492.09 122C471.9 121.52 452.59 119.82 433.11 115.32C423.42 113.07 413.87 110.16 404.64 106.42C400.72 104.83 396.05 102.67 391.87 100.49C387.66 98.3 383.52 95.94 379.61 93.23C377.54 91.8 376.71 91.18 374.87 89.61C373.19 88.17 371.58 86.65 370.07 85.02C369.33 84.21 368.62 83.38 367.94 82.53C368.36 83.06 367.62 82.1 367.51 81.95C367.17 81.47 366.84 81 366.52 80.51C365.94 79.61 365.39 78.69 364.88 77.74C364.65 77.3 364.43 76.86 364.21 76.42C364.11 76.19 364.01 75.97 363.9 75.74C363.69 75.28 364.03 76.14 363.74 75.34C362.99 73.29 362.35 71.18 362.08 69C362.17 69.69 362.05 68.42 362.03 68.23C361.99 67.7 361.97 67.18 361.97 66.65C361.95 65.42 362.01 64.2 362.14 62.98C362.23 62.1 362.09 63.09 362.25 62.23C362.36 61.62 362.48 61.02 362.62 60.42C362.88 59.3 363.19 58.2 363.56 57.11C363.73 56.61 363.91 56.11 364.1 55.61C364.12 55.55 364.45 54.73 364.2 55.32C364.3 55.08 364.42 54.83 364.53 54.59C365.01 53.54 365.54 52.5 366.11 51.49C368.46 47.35 370.98 44.33 374.71 41.05C376.56 39.41 377.84 38.45 379.95 37.04C381.99 35.69 384.11 34.45 386.27 33.31C395.01 28.71 404.62 25.64 414.45 22.88C435.15 17.06 455.93 14.12 477.28 12.93C499.01 11.71 520.81 12.32 542.52 13.76C547.78 14.11 553.04 14.5 558.3 14.94C560.91 15.15 563.41 12.48 563.3 9.94C563.17 7.04 561.1 5.17 558.3 4.94L558.3 4.94" />
			<path id="path44" class="shp0" d="M379.81 150.83C376.01 159.24 374.93 168.52 378.52 177.22C381.44 184.29 386.52 190.15 392.48 194.88C405.39 205.11 421.27 211.64 436.73 216.98C469.23 228.19 503.99 232.35 538.25 232.42C571.84 232.48 605.56 229 636.58 215.32C644.09 212.01 651.34 208.12 658.19 203.59C665.22 198.94 671.46 193.75 675.87 186.45C679.91 179.78 682.33 171.89 682.31 164.06C682.28 156.2 679.8 148.47 675.89 141.7C670.19 131.83 661.73 124.14 652.04 118.33C642.99 112.9 633.85 107.47 624.33 102.87C622.23 101.86 620.09 100.9 617.91 100.08C615.46 99.15 612.32 101.1 611.76 103.57C611.11 106.41 612.63 108.73 615.25 109.72C615.64 109.87 616.02 110.02 616.41 110.17C617.34 110.53 615.27 109.66 616.21 110.09C616.39 110.17 616.56 110.25 616.74 110.32C617.8 110.8 618.85 111.29 619.89 111.8C622.21 112.94 624.49 114.14 626.77 115.36C631.57 117.95 636.32 120.67 641.03 123.43C644.15 125.26 647.26 127.11 650.35 128.99C651.33 129.59 652.25 130.23 653.17 130.93C652.55 130.45 653.95 131.55 653.87 131.48C654.15 131.71 654.42 131.94 654.7 132.17C655.39 132.75 656.07 133.34 656.74 133.94C658.19 135.27 659.58 136.65 660.91 138.1C663.41 140.85 665.01 142.95 667 146.31C668.97 149.65 669.95 151.82 670.96 155.23C671.42 156.81 671.76 158.4 672.05 160.03C672.07 160.18 672.17 161.01 672.07 160.15C672.12 160.64 672.17 161.13 672.21 161.61C672.28 162.51 672.31 163.41 672.3 164.31C672.3 165.13 672.27 165.95 672.2 166.77C672.17 167.18 672.13 167.59 672.09 168C672.19 167.11 672.06 168.18 672.02 168.39C671.74 170.13 671.33 171.84 670.81 173.52C669.79 176.83 668.65 179.26 666.55 182.51C664.72 185.33 662.66 187.68 659.77 190.18C658.47 191.29 657.6 191.9 655.96 193.04C654.25 194.23 652.52 195.39 650.76 196.5C647.41 198.61 643.97 200.58 640.45 202.41C626.92 209.45 612.26 214.29 596.99 217.48C589.26 219.1 582.32 220.13 574.83 220.87C566.91 221.65 558.94 222.02 550.98 222.25C518.17 223.17 485.84 220.61 454.28 211.93C439.07 207.75 424.67 202.51 410.96 195.08C407.69 193.31 404.5 191.37 401.47 189.22C399.92 188.12 399.47 187.78 397.95 186.49C396.53 185.29 395.17 184.02 393.89 182.67C391.47 180.13 390.16 178.45 388.46 175.08C388.31 174.79 388.18 174.51 388.04 174.23C387.38 172.87 388.33 175.1 387.81 173.69C387.54 172.95 387.27 172.21 387.05 171.46C386.5 169.55 386.3 168.3 386.25 166.48C386.15 162.79 386.93 159.23 388.45 155.88C389.56 153.42 389.15 150.5 386.65 149.04C384.51 147.78 380.93 148.36 379.81 150.83L379.81 150.83" />
			<path id="path46" class="shp0" d="M376.77 170.95C376.77 179.56 376.77 188.17 376.77 196.78C376.77 202.1 376.77 207.42 376.77 212.75C376.77 214.1 376.74 215.46 376.77 216.82C376.85 219.92 378.19 223.07 379.51 225.83C383.77 234.78 391.95 241.52 400.16 246.7C409.2 252.4 419.19 256.72 429.18 260.47C449.7 268.17 471.31 272.51 493.04 275.06C515.09 277.66 537.34 278.25 559.53 278C564.97 277.94 570.09 277.67 575.46 276.85C581.39 275.95 587.28 274.78 593.14 273.47C608.91 269.95 624.56 265.42 639.47 259.15C646.87 256.04 654.17 252.57 660.85 248.09C669.45 242.34 675.94 234.63 679.63 224.92C683.06 215.89 682.07 206.06 682.13 196.59C682.18 186.14 682.24 175.7 682.29 165.25C682.3 164.59 682.3 163.93 682.31 163.27C682.32 160.65 679.99 158.15 677.31 158.27C674.58 158.39 672.32 160.46 672.31 163.27C672.26 171.14 672.22 179.02 672.18 186.9C672.15 192.67 672.11 198.45 672.08 204.22C672.07 207.59 671.91 211 672.03 214.37C672.03 214.48 672.01 214.61 672.03 214.72C672.13 215.24 672.26 213.35 672.1 214.25C671.68 216.57 671.19 218.84 670.42 221.07C670.25 221.55 670.08 222.03 669.9 222.5C669.86 222.6 669.47 223.57 669.67 223.09C669.85 222.67 669.51 223.43 669.51 223.43C669 224.51 668.48 225.59 667.89 226.64C667.34 227.61 666.75 228.57 666.12 229.5C665.78 230 665.43 230.5 665.07 230.99C665.08 230.96 664.56 231.64 664.82 231.31C665.02 231.06 664.22 232.03 664.22 232.02C661.28 235.5 658.59 237.64 655.01 239.99C651.91 242.01 648.68 243.82 645.38 245.5C643.68 246.37 641.95 247.2 640.21 248C639.35 248.39 638.5 248.77 637.63 249.15C637.17 249.35 636.7 249.55 636.23 249.76C635.7 249.98 636.34 249.71 636.41 249.68C636.14 249.79 635.87 249.91 635.6 250.02C631.82 251.58 627.99 253.02 624.12 254.37C616.52 257.01 608.79 259.29 601 261.3C594.31 263.02 587.57 264.55 580.78 265.84C578.17 266.33 575.55 266.79 572.92 267.19C572.4 267.27 571.88 267.35 571.36 267.42C571.1 267.46 570.83 267.49 570.57 267.53C571.26 267.42 571.74 267.38 570.83 267.49C570.01 267.59 569.19 267.69 568.36 267.77C565.34 268.04 562.27 267.97 559.24 268C553.81 268.06 548.39 268.07 542.96 268.01C532.09 267.89 521.22 267.5 510.37 266.7C504.97 266.31 499.58 265.81 494.21 265.2C488.89 264.59 484.39 263.97 478.97 263.08C468.49 261.35 458.09 259.09 447.88 256.13C437.9 253.24 428.15 249.71 419.09 245.49C414.58 243.38 410.13 241.11 405.89 238.49C401.61 235.84 398.65 233.72 395.12 230.27C391.81 227.03 389.84 224.53 387.85 220.14C388.18 220.87 387.73 219.83 387.64 219.59C387.45 219.08 387.28 218.55 387.12 218.03C386.99 217.58 386.92 217.09 386.75 216.66C386.46 215.9 386.71 217.49 386.77 217.25C386.84 217.01 386.77 216.67 386.77 216.42C386.77 212.48 386.77 208.53 386.77 204.58C386.77 194.08 386.77 183.58 386.77 173.07C386.77 172.36 386.77 171.66 386.77 170.95C386.77 168.33 384.47 165.83 381.77 165.95C379.07 166.07 376.77 168.15 376.77 170.95L376.77 170.95" />
			<path id="path48" class="shp0" d="M353.8 65.47C355.74 88.79 357.68 112.12 359.62 135.44C359.83 138.04 361.76 140.57 364.62 140.44C367.14 140.33 369.85 138.23 369.62 135.44C367.68 112.12 365.74 88.79 363.8 65.47C363.59 62.87 361.66 60.34 358.8 60.47C356.28 60.58 353.57 62.68 353.8 65.47L353.8 65.47" />
			<path id="path50" class="shp0" d="M360.49 134.63C362.47 142.05 367.67 147.72 373.63 152.28C379.71 156.93 386.52 160.47 393.57 163.41C407.54 169.25 422.54 172.19 437.46 174.39C470.16 179.2 503.4 179.53 536.04 174.05C544.91 172.56 553.7 170.64 562.36 168.24C570.72 165.93 578.93 162.87 585.47 156.99C587.47 155.18 587.31 151.76 585.47 149.92C583.47 147.92 580.41 148.11 578.4 149.92C577.18 151.02 576.56 151.5 575.01 152.48C573.45 153.47 571.81 154.29 570.13 155.09C569.59 155.35 569.53 155.37 568.76 155.67C567.89 156.01 567.01 156.33 566.13 156.63C564.45 157.21 562.75 157.73 561.05 158.22C553.67 160.33 546.18 162.05 538.64 163.47C523.56 166.31 508.31 167.77 492.8 168.08C477.26 168.39 461.7 167.51 446.28 165.59C432.25 163.83 417.47 161.29 403.8 156.64C396.37 154.11 389.41 150.93 382.64 146.46C379.52 144.4 377.35 142.78 374.65 139.88C374.42 139.62 374.19 139.37 373.96 139.11C373.97 139.12 372.99 137.92 373.45 138.51C372.93 137.84 372.45 137.13 372.01 136.4C371.57 135.67 371.17 134.93 370.82 134.15C371.14 134.86 370.72 133.87 370.66 133.69C370.46 133.13 370.29 132.55 370.14 131.97C369.44 129.37 366.57 127.77 363.99 128.48C361.36 129.21 359.8 132.01 360.49 134.63L360.49 134.63" />
			<path id="path52" class="shp0" d="M375.98 100.45C376.27 116.19 376.32 131.94 376.12 147.69C376.09 150.31 378.44 152.81 381.12 152.69C383.86 152.57 386.09 150.49 386.12 147.69C386.32 131.94 386.27 116.19 385.98 100.45C385.93 97.83 383.71 95.33 380.98 95.45C378.31 95.57 375.93 97.65 375.98 100.45L375.98 100.45Z" />
			<path id="path54" class="shp0" d="M398.71 117.33C398.81 117.36 395.83 114.09 396.53 115.37C396.37 115.08 396.53 114.5 396.46 115.15C396.37 116.02 396.46 116.94 396.46 117.81C396.46 119.7 396.45 121.58 396.45 123.47C396.45 127.13 396.45 130.79 396.45 134.45C396.44 141.78 396.44 149.1 396.44 156.42C396.43 159.04 398.74 161.54 401.44 161.42C404.15 161.3 406.43 159.22 406.44 156.42C406.44 147.99 406.45 139.56 406.45 131.13C406.45 127.02 406.45 122.92 406.46 118.81C406.46 114.28 406.58 109.36 401.37 107.69C398.87 106.89 395.8 108.62 395.21 111.18C394.59 113.91 396.04 116.48 398.71 117.33L398.71 117.33" />
			<path id="path56" class="shp0" d="M423.51 124.77C423.51 138.56 423.52 152.36 423.52 166.16C423.52 168.77 425.82 171.28 428.52 171.16C431.23 171.04 433.52 168.96 433.52 166.16C433.52 152.36 433.51 138.56 433.51 124.77C433.51 122.15 431.21 119.65 428.51 119.77C425.8 119.89 423.51 121.96 423.51 124.77L423.51 124.77Z" />
			<path id="path58" class="shp0" d="M449.62 127.12C449.03 140.83 449.23 154.57 450.25 168.25C450.44 170.85 452.41 173.38 455.25 173.25C457.79 173.14 460.46 171.05 460.25 168.25C459.23 154.57 459.03 140.83 459.62 127.12C459.74 124.51 457.24 122.01 454.62 122.12C451.81 122.25 449.74 124.32 449.62 127.12L449.62 127.12Z" />
			<path id="path60" class="shp0" d="M474.01 131.57C473.56 143.83 474.14 156.11 475.74 168.28C476.08 170.86 477.8 173.41 480.74 173.28C483.16 173.17 486.11 171.06 485.74 168.28C484.14 156.11 483.56 143.83 484.01 131.57C484.11 128.95 481.64 126.45 479.01 126.57C476.22 126.69 474.11 128.76 474.01 131.57L474.01 131.57Z" />
			<path id="path62" class="shp0" d="M511.71 129.43C511.71 142.37 511.71 155.31 511.71 168.25C511.71 170.87 514.01 173.37 516.71 173.25C519.42 173.13 521.71 171.06 521.71 168.25C521.71 155.31 521.71 142.37 521.71 129.43C521.71 126.81 519.41 124.31 516.71 124.43C514 124.55 511.71 126.62 511.71 129.43L511.71 129.43Z" />
			<path id="path64" class="shp0" d="M544.02 124.9C543.45 136.37 543.91 147.85 545.38 159.23C545.72 161.81 547.44 164.36 550.38 164.23C552.8 164.12 555.74 162.01 555.38 159.23C553.91 147.85 553.45 136.37 554.02 124.9C554.15 122.29 551.63 119.79 549.02 119.9C546.2 120.03 544.16 122.1 544.02 124.9L544.02 124.9Z" />
			<path id="path66" class="shp0" d="M573.92 114.9C573.92 125.82 573.92 136.75 573.92 147.67C573.92 150.29 576.22 152.79 578.92 152.67C581.63 152.55 583.92 150.47 583.92 147.67C583.92 136.75 583.92 125.82 583.92 114.9C583.92 112.28 581.62 109.78 578.92 109.9C576.21 110.02 573.92 112.09 573.92 114.9L573.92 114.9" />
			<path id="path68" class="shp0" d="M595.33 100.44C595.72 109.52 596.1 118.6 596.49 127.68C596.6 130.29 598.71 132.81 601.49 132.68C604.1 132.57 606.61 130.48 606.49 127.68C606.1 118.6 605.72 109.52 605.33 100.44C605.22 97.83 603.11 95.32 600.33 95.44C597.72 95.56 595.21 97.64 595.33 100.44L595.33 100.44Z" />
			<path id="path70" class="shp0" d="M605.03 87.68C605.03 93.42 605.03 99.16 605.03 104.9C605.03 107.51 607.33 110.02 610.03 109.9C612.74 109.78 615.03 107.7 615.03 104.9C615.03 99.16 615.03 93.42 615.03 87.68C615.03 85.06 612.73 82.56 610.03 82.68C607.32 82.8 605.03 84.87 605.03 87.68L605.03 87.68Z" />
			<path id="path72" class="shp0" d="M403.11 204.06C401.89 216.51 401.6 229.04 402.24 241.55C402.38 244.15 404.45 246.67 407.24 246.55C409.84 246.43 412.39 244.34 412.24 241.55C411.6 229.04 411.89 216.51 413.11 204.06C413.37 201.44 410.63 198.94 408.11 199.06C405.18 199.19 403.39 201.26 403.11 204.06L403.11 204.06Z" />
			<path id="path74" class="shp0" d="M424.76 217.21C424.76 228.44 424.76 239.67 424.76 250.9C424.76 253.51 427.07 256.02 429.76 255.9C432.47 255.78 434.76 253.7 434.76 250.9C434.76 239.67 434.76 228.44 434.76 217.21C434.76 214.59 432.47 212.09 429.76 212.21C427.06 212.33 424.76 214.4 424.76 217.21L424.76 217.21Z" />
			<path id="path76" class="shp0" d="M446.42 221.5C447.02 233.64 447.14 245.79 446.78 257.94C446.7 260.56 449.13 263.06 451.78 262.94C454.55 262.82 456.69 260.74 456.78 257.94C457.14 245.79 457.02 233.64 456.42 221.5C456.29 218.89 454.21 216.37 451.42 216.5C448.82 216.62 446.28 218.7 446.42 221.5L446.42 221.5Z" />
			<path id="path78" class="shp0" d="M465.88 226.55C465.88 238.4 465.88 250.25 465.88 262.11C465.88 264.72 468.18 267.23 470.88 267.11C473.59 266.98 475.88 264.91 475.88 262.11C475.88 250.25 475.88 238.4 475.88 226.55C475.88 223.94 473.58 221.43 470.88 221.55C468.17 221.67 465.88 223.75 465.88 226.55L465.88 226.55Z" />
			<path id="path80" class="shp0" d="M489.59 227.81C490.03 239.9 489.58 252.01 488.27 264.04C487.98 266.65 490.77 269.15 493.27 269.04C496.22 268.91 497.96 266.83 498.27 264.04C499.58 252.01 500.03 239.9 499.59 227.81C499.5 225.19 497.36 222.68 494.59 222.81C491.96 222.92 489.49 225.01 489.59 227.81L489.59 227.81Z" />
			<path id="path82" class="shp0" d="M519.62 232.8C519.62 244.89 519.62 256.97 519.62 269.05C519.62 271.67 521.92 274.17 524.62 274.05C527.33 273.93 529.62 271.85 529.62 269.05C529.62 256.97 529.62 244.89 529.62 232.8C529.62 230.19 527.32 227.68 524.62 227.8C521.91 227.92 519.62 230 519.62 232.8L519.62 232.8Z" />
			<path id="path84" class="shp0" d="M560.87 234.05C560.87 246.97 560.87 259.88 560.87 272.8C560.87 275.41 563.17 277.92 565.87 277.8C568.58 277.68 570.87 275.6 570.87 272.8C570.87 259.88 570.87 246.97 570.87 234.05C570.87 231.44 568.57 228.93 565.87 229.05C563.16 229.17 560.87 231.25 560.87 234.05L560.87 234.05Z" />
			<path id="path86" class="shp0" d="M587.87 227.17C587.24 239.68 587.57 252.21 588.86 264.68C589.12 267.27 590.96 269.81 593.86 269.68C596.33 269.57 599.14 267.46 598.86 264.68C597.57 252.21 597.24 239.68 597.87 227.17C598.01 224.55 595.48 222.05 592.87 222.17C590.05 222.29 588.02 224.36 587.87 227.17L587.87 227.17Z" />
			<path id="path88" class="shp0" d="M539.92 230.24C539.29 242.75 539.61 255.29 540.9 267.75C541.16 270.35 543.01 272.88 545.9 272.75C548.38 272.64 551.18 270.54 550.9 267.75C549.61 255.29 549.29 242.75 549.92 230.24C550.05 227.63 547.52 225.13 544.92 225.24C542.09 225.37 540.06 227.44 539.92 230.24L539.92 230.24Z" />
			<path id="path90" class="shp0" d="M386.33 191.52C385.7 204.03 386.03 216.56 387.31 229.03C387.58 231.62 389.42 234.16 392.31 234.03C394.79 233.92 397.6 231.81 397.31 229.03C396.03 216.56 395.7 204.03 396.33 191.52C396.46 188.9 393.94 186.4 391.33 186.52C388.51 186.64 386.47 188.71 386.33 191.52L386.33 191.52Z" />
			<path id="path92" class="shp0" d="M616.99 222.8C616.5 233.21 616.02 243.62 615.54 254.04C615.42 256.65 617.92 259.15 620.54 259.04C623.35 258.91 625.41 256.84 625.54 254.04C626.02 243.62 626.5 233.21 626.99 222.8C627.11 220.18 624.6 217.68 621.99 217.8C619.17 217.92 617.11 220 616.99 222.8L616.99 222.8Z" />
			<path id="path94" class="shp0" d="M635.69 211.56C636.42 224.04 637.16 236.52 637.89 249C638.04 251.6 640.08 254.12 642.89 254C645.47 253.88 648.06 251.79 647.89 249C647.16 236.52 646.42 224.04 645.69 211.56C645.54 208.96 643.5 206.44 640.69 206.56C638.11 206.68 635.53 208.77 635.69 211.56L635.69 211.56Z" />
			<path id="path96" class="shp0" d="M660.86 195.31C660.86 208.22 660.86 221.14 660.86 234.05C660.86 236.67 663.16 239.17 665.86 239.05C668.57 238.93 670.86 236.86 670.86 234.05C670.86 221.14 670.86 208.22 670.86 195.31C670.86 192.69 668.56 190.19 665.86 190.31C663.15 190.43 660.86 192.5 660.86 195.31L660.86 195.31Z" />
			<path id="path98" class="shp0" d="M609.12 63.49C608.9 71.04 608.68 78.59 608.45 86.13C608.35 89.85 608.26 93.57 608.12 97.29C608.06 98.98 607.98 100.67 607.85 102.36C607.78 103.16 607.71 103.96 607.62 104.76C607.58 105.1 607.54 105.44 607.5 105.78C607.62 104.88 607.39 106.47 607.39 106.49C606.93 109.35 606.28 112.19 605.46 114.98C605.07 116.29 604.65 117.59 604.19 118.88C603.95 119.52 603.71 120.16 603.46 120.8C603.33 121.12 603.21 121.43 603.08 121.75C603.38 121.01 602.77 122.45 602.77 122.44C601.63 125.02 600.32 127.53 598.87 129.95C598.13 131.2 597.34 132.43 596.52 133.63C596.13 134.19 595.74 134.75 595.34 135.3C595.14 135.58 594.93 135.85 594.73 136.13C594.26 136.75 594.7 136.18 594.41 136.54C592.39 139.08 590.21 141.49 587.85 143.73C586.68 144.85 585.46 145.93 584.21 146.96C583.46 147.58 583.18 147.81 582.8 148.08C582.11 148.59 581.42 149.09 580.72 149.58C578.5 151.12 577.48 153.96 578.92 156.42C580.21 158.61 583.54 159.76 585.76 158.22C596.17 150.98 604.74 141.21 610.32 129.81C613.1 124.13 615.27 118.12 616.53 111.92C617.98 104.73 618.12 97.43 618.34 90.13C618.6 81.25 618.86 72.37 619.12 63.49C619.2 60.88 616.76 58.38 614.12 58.49C611.35 58.62 609.2 60.69 609.12 63.49L609.12 63.49" />
			<path id="path100" class="shp0" d="M254.67 98.92C231.83 96.21 208.92 93.62 185.92 92.81C166.25 92.11 146.59 92.99 127.08 95.56C115.82 97.04 104.64 98.95 93.51 101.2C82.19 103.49 70.92 106.17 59.95 109.84C48.99 113.5 38.25 118.11 28.41 124.2C18.95 130.06 8.81 137.45 3.65 147.61C0.87 153.09 -0.19 158.97 0.81 165.04C1.76 170.81 4.86 176.11 8.7 180.42C16.74 189.44 28.74 193.39 40.04 196.52C61.64 202.49 83.84 206.41 106.19 208.14C128.5 209.87 150.93 209.22 173.08 206.01C195.02 202.83 216.45 196.85 236.75 187.93C246.68 183.57 256.28 178.46 265.42 172.62C275.5 166.17 285.63 159.22 290.25 147.73C294.36 137.52 293.37 125.39 287.71 115.98C285.69 112.61 283.16 109.77 279.96 107.5C276.97 105.38 273.39 104.06 269.92 102.96C265.33 101.5 260.64 100.36 256 99.1C253.48 98.41 250.45 99.95 249.85 102.59C249.25 105.23 250.64 108.01 253.34 108.74C257.92 109.99 262.55 111.11 267.07 112.54C267.9 112.81 268.73 113.08 269.55 113.37C269.93 113.51 270.31 113.66 270.69 113.81C270.9 113.89 271.11 113.98 271.32 114.06C270.85 113.87 270.53 113.71 271.18 114.02C272.53 114.67 273.76 115.43 275.03 116.22C275.73 116.66 274.24 115.53 275.07 116.26C275.33 116.49 275.6 116.71 275.86 116.95C276.45 117.51 277 118.11 277.54 118.73C277.64 118.85 277.73 118.98 277.84 119.1C278.27 119.58 277.32 118.29 277.65 118.86C277.84 119.2 278.11 119.5 278.32 119.83C278.82 120.58 279.29 121.36 279.73 122.15C280.96 124.38 281.44 125.65 282.09 128.41C282.23 128.98 282.35 129.56 282.45 130.14C282.51 130.47 282.57 130.8 282.61 131.13C282.6 131.02 282.53 130.46 282.59 131.05C282.71 132.31 282.78 133.57 282.76 134.83C282.69 139.36 281.55 143.74 279.22 147.71C277.88 150.01 276.82 151.28 274.81 153.26C272.9 155.15 270.9 156.76 268.98 158.15C260.35 164.42 251.1 169.88 241.57 174.66C239.27 175.81 236.95 176.92 234.61 177.99C233.48 178.51 232.35 179.02 231.21 179.51C230.64 179.76 230.07 180.01 229.5 180.25C228.69 180.6 230.04 180.03 229.23 180.37C228.82 180.54 228.41 180.71 228 180.88C223.16 182.86 218.25 184.68 213.29 186.33C203.33 189.63 193.15 192.27 182.85 194.27C180.31 194.76 177.75 195.21 175.2 195.63C173.96 195.83 172.73 196.03 171.49 196.21C170.78 196.32 170.07 196.42 169.36 196.52C169.1 196.56 168.83 196.59 168.56 196.63C168.08 196.7 168.84 196.6 168.03 196.7C162.78 197.38 157.51 197.92 152.22 198.31C141.6 199.09 130.94 199.28 120.3 198.92C98.69 198.21 78.67 195.49 57.62 190.65C52.44 189.46 47.29 188.15 42.18 186.73C39.4 185.96 36.63 185.15 33.9 184.22C31.22 183.31 29.19 182.53 26.85 181.39C24.47 180.23 21.64 178.56 19.85 177.2C19.39 176.86 18.11 175.73 17.4 175.05C16.47 174.14 15.58 173.18 14.76 172.16C15.17 172.66 14.63 171.99 14.59 171.93C14.39 171.65 14.19 171.36 14 171.08C13.71 170.65 13.43 170.21 13.16 169.76C12.81 169.17 12.48 168.57 12.17 167.95C12.05 167.72 11.95 167.49 11.84 167.26C11.63 166.83 11.92 167.56 11.64 166.8C11.24 165.68 10.88 164.55 10.64 163.38C10.57 163.05 10.51 162.72 10.45 162.38C10.47 162.49 10.53 163.04 10.47 162.45C10.39 161.68 10.35 160.92 10.36 160.15C10.37 159.63 10.4 159.12 10.44 158.6C10.52 157.57 10.49 158.18 10.46 158.41C10.51 158.08 10.58 157.74 10.65 157.41C10.91 156.17 11.28 154.96 11.74 153.78C11.95 153.25 11.77 153.71 11.73 153.81C11.87 153.5 12.01 153.19 12.16 152.89C12.43 152.35 12.71 151.83 13.01 151.31C13.66 150.19 14.37 149.11 15.14 148.07C14.76 148.59 15.28 147.9 15.32 147.84C15.54 147.57 15.76 147.3 15.99 147.03C16.39 146.56 16.8 146.1 17.21 145.65C18.11 144.68 19.04 143.74 20.01 142.84C21.85 141.12 23.97 139.39 25.63 138.15C30.02 134.89 34.65 131.97 39.46 129.36C44.15 126.82 49.16 124.51 53.66 122.73C74.08 114.66 96.01 110.38 117.63 106.95C120.21 106.54 122.79 106.16 125.37 105.79C125.88 105.72 126.38 105.65 126.89 105.59C126.1 105.69 126.95 105.58 127.08 105.56C127.41 105.52 127.75 105.47 128.08 105.43C129.33 105.27 130.58 105.11 131.82 104.97C136.61 104.4 141.4 103.92 146.2 103.55C155.55 102.83 164.92 102.51 174.3 102.57C195.08 102.68 215.8 104.57 236.44 106.83C242.52 107.5 248.6 108.2 254.67 108.92C257.28 109.23 259.78 106.4 259.67 103.92C259.54 100.95 257.47 99.25 254.67 98.92" />
			<path id="path102" class="shp0" d="M2.51 176.52C4.23 193.32 6.47 210.07 9.21 226.74C9.65 229.41 12.95 230.89 15.36 230.23C18.19 229.45 19.29 226.75 18.85 224.08C16.25 208.25 14.15 192.49 12.51 176.52C12.24 173.93 10.4 171.39 7.51 171.52C5.03 171.64 2.22 173.74 2.51 176.52L2.51 176.52" />
			<path id="path104" class="shp0" d="M283.74 135.44C283.74 150.76 282.77 166.03 282.76 181.35C282.76 183.97 285.06 186.47 287.76 186.35C290.47 186.23 292.76 184.15 292.76 181.35C292.77 166.03 293.74 150.76 293.74 135.44C293.75 132.83 291.44 130.32 288.74 130.44C286.03 130.56 283.75 132.64 283.74 135.44L283.74 135.44Z" />
			<path id="path106" class="shp0" d="M9.88 227.24C15.46 237.61 28.55 240.45 39.08 242.94C48.98 245.28 59.03 246.9 69.13 248.08C90.71 250.61 112.55 250.91 134.24 249.66C156.31 248.38 178.37 245.5 199.98 240.8C219.15 236.62 238.13 230.97 255.97 222.72C263.12 219.41 270.08 215.63 276.52 211.08C279.58 208.91 283.01 206.63 285.53 203.82C289.17 199.74 291.16 194.05 292.15 188.75C292.61 186.34 292.98 183.81 292.76 181.35C292.53 178.75 290.63 176.22 287.76 176.35C285.25 176.46 282.51 178.56 282.76 181.35C282.85 182.28 282.84 183.21 282.77 184.14C282.75 184.4 282.72 184.66 282.7 184.93C282.61 186.22 282.87 184.22 282.69 185.03C282.56 185.67 282.47 186.32 282.34 186.96C282.08 188.15 281.78 189.33 281.41 190.49C281.23 191.07 281.04 191.64 280.83 192.22C280.72 192.5 280.61 192.78 280.51 193.06C280 194.4 280.95 192.24 280.32 193.48C279.83 194.46 279.36 195.43 278.75 196.34C278.61 196.54 278.47 196.74 278.33 196.94C278.96 196 278.66 196.57 278.45 196.75C278.07 197.08 277.73 197.47 277.34 197.81C276.76 198.33 276.16 198.84 275.56 199.34C275.25 199.59 274.94 199.84 274.63 200.09C274.31 200.34 273.14 201.46 274.22 200.42C272.98 201.61 271.33 202.56 269.91 203.52C268.43 204.53 266.92 205.5 265.38 206.43C262.03 208.48 258.57 210.36 255.04 212.11C253.23 213.01 251.41 213.87 249.57 214.7C248.6 215.14 247.62 215.57 246.64 216C246.47 216.07 245.05 216.67 245.66 216.42C246.29 216.15 245.52 216.47 245.37 216.54C245.07 216.66 244.77 216.79 244.47 216.91C240.29 218.62 236.06 220.2 231.78 221.67C222.63 224.8 213.31 227.42 203.91 229.66C193.84 232.05 183.67 234 173.44 235.57C172.12 235.77 170.8 235.97 169.48 236.16C168.85 236.25 168.23 236.34 167.61 236.43C167.37 236.46 165.37 236.73 166.35 236.6C163.68 236.95 161.01 237.28 158.33 237.59C152.94 238.2 147.54 238.72 142.13 239.13C120.98 240.74 99.67 240.88 78.53 239.04C75.99 238.82 73.44 238.57 70.9 238.28C69.72 238.15 68.54 238.01 67.36 237.87C66.77 237.8 66.19 237.72 65.6 237.65C65.31 237.61 65.02 237.57 64.73 237.53C65.9 237.68 64.44 237.49 64.31 237.47C59.47 236.8 54.66 236 49.87 235.06C45.36 234.17 40.87 233.14 36.42 231.96C33.98 231.31 31.54 230.64 29.15 229.81C28.54 229.6 27.93 229.37 27.32 229.14C27.21 229.1 26.28 228.71 26.79 228.93C27.3 229.15 26.39 228.74 26.28 228.69C25.05 228.13 23.86 227.49 22.72 226.75C22.57 226.65 21.14 225.58 21.85 226.16C21.31 225.72 20.8 225.25 20.32 224.75C20.1 224.53 19.9 224.3 19.7 224.07C19.17 223.49 20.08 224.64 19.62 223.99C19.21 223.42 18.85 222.82 18.52 222.2C17.24 219.82 13.95 219.07 11.68 220.4C9.27 221.81 8.6 224.86 9.88 227.24L9.88 227.24" />
			<path id="path108" class="shp0" d="M23.67 187.66C23.31 201.73 23.24 215.81 23.47 229.89C23.51 232.5 25.74 235.01 28.47 234.89C31.14 234.77 33.52 232.69 33.47 229.89C33.24 215.81 33.31 201.73 33.67 187.66C33.74 185.04 31.32 182.54 28.67 182.66C25.9 182.78 23.74 184.86 23.67 187.66L23.67 187.66Z" />
			<path id="path110" class="shp0" d="M44.53 193.78C44.53 207.85 44.53 221.92 44.53 236C44.53 238.61 46.83 241.12 49.53 241C52.24 240.88 54.53 238.8 54.53 236C54.53 221.92 54.53 207.85 54.53 193.78C54.53 191.16 52.23 188.66 49.53 188.78C46.82 188.9 44.53 190.98 44.53 193.78L44.53 193.78Z" />
			<path id="path112" class="shp0" d="M62.25 203.67C62.39 203.98 62.49 204.31 62.55 204.64C62.47 204.16 62.46 204.23 62.52 204.85C62.52 205.5 62.58 206.18 62.61 206.84C62.69 208.39 62.76 209.93 62.83 211.48C62.98 214.58 63.13 217.67 63.27 220.77C63.57 226.96 63.86 233.15 64.15 239.34C64.27 241.95 66.36 244.47 69.15 244.34C71.75 244.22 74.28 242.14 74.15 239.34C73.85 232.93 73.55 226.52 73.24 220.1C73.09 217.01 72.95 213.91 72.8 210.82C72.66 207.73 72.99 203.93 71.9 201.01C70.95 198.49 68.52 196.76 65.75 197.52C63.32 198.19 61.3 201.13 62.25 203.67L62.25 203.67Z" />
			<path id="path114" class="shp0" d="M86.79 202.67C86.59 215.63 86.64 228.6 86.94 241.56C87 244.17 89.2 246.68 91.94 246.56C94.6 246.44 97.01 244.36 96.94 241.56C96.64 228.6 96.59 215.63 96.79 202.67C96.83 200.05 94.47 197.55 91.79 197.67C89.05 197.79 86.84 199.86 86.79 202.67L86.79 202.67Z" />
			<path id="path116" class="shp0" d="M108.69 204.34C109.11 217.51 109.92 230.66 111.11 243.78C111.34 246.38 113.24 248.91 116.11 248.78C118.61 248.67 121.36 246.57 121.11 243.78C119.92 230.66 119.11 217.51 118.69 204.34C118.61 201.73 116.45 199.22 113.69 199.34C111.05 199.46 108.6 201.54 108.69 204.34L108.69 204.34Z" />
			<path id="path118" class="shp0" d="M131.57 205.45C131.68 218.17 132.78 230.85 134.74 243.43C135.16 246.1 138.5 247.58 140.89 246.92C143.74 246.14 144.81 243.45 144.39 240.77C142.58 229.16 141.67 217.27 141.57 205.45C141.55 202.83 139.29 200.32 136.57 200.45C133.88 200.57 131.55 202.64 131.57 205.45L131.57 205.45" />
			<path id="path120" class="shp0" d="M150.44 204.9C151.09 217.24 152.38 229.54 154.22 241.76C154.63 244.43 157.99 245.91 160.37 245.25C163.23 244.47 164.27 241.78 163.86 239.1C162.17 227.87 161.04 216.36 160.44 204.9C160.3 202.29 158.24 199.77 155.44 199.9C152.85 200.01 150.29 202.1 150.44 204.9L150.44 204.9Z" />
			<path id="path122" class="shp0" d="M170.05 204.49C171.97 215.33 173.65 226.25 175.02 237.11C175.35 239.7 177.09 242.25 180.02 242.11C182.45 242.01 185.37 239.89 185.02 237.11C183.53 225.31 181.77 213.55 179.7 201.83C179.23 199.17 175.98 197.67 173.55 198.34C170.74 199.11 169.58 201.82 170.05 204.49L170.05 204.49Z" />
			<path id="path124" class="shp0" d="M196.19 197.11C195.55 208.92 196.88 220.84 200.06 232.22C200.79 234.82 203.6 236.43 206.21 235.71C208.82 235 210.44 232.17 209.71 229.56C206.72 218.88 205.58 208.25 206.19 197.11C206.34 194.5 203.79 192 201.19 192.11C198.36 192.24 196.35 194.31 196.19 197.11L196.19 197.11" />
			<path id="path126" class="shp0" d="M218.3 190.22C217.22 196.3 218 202.21 219.41 208.17C220.06 210.92 220.81 213.64 221.42 216.4C222.08 219.33 222.38 221.07 222.47 223.92C222.55 226.53 224.71 229.04 227.47 228.92C230.11 228.8 232.56 226.72 232.47 223.92C232.29 218.2 230.82 212.68 229.45 207.16C229.14 205.89 228.83 204.61 228.56 203.33C228.41 202.6 228.26 201.88 228.13 201.15C228.11 201.01 227.87 199.55 227.98 200.29C227.8 199.03 227.72 197.75 227.71 196.47C227.7 195.74 227.72 195.01 227.77 194.29C227.8 193.92 227.83 193.56 227.87 193.19C227.82 193.61 227.85 193.51 227.95 192.88C228.4 190.32 227.25 187.37 224.45 186.73C222.01 186.18 218.79 187.47 218.3 190.22L218.3 190.22" />
			<path id="path128" class="shp0" d="M236.31 181.78C238.17 194.11 240.54 206.35 243.4 218.48C244.02 221.11 247.02 222.67 249.55 221.97C252.24 221.23 253.67 218.46 253.05 215.82C250.18 203.69 247.81 191.45 245.95 179.13C245.55 176.45 242.18 174.98 239.8 175.63C236.94 176.42 235.9 179.1 236.31 181.78L236.31 181.78Z" />
			<path id="path130" class="shp0" d="M257.45 171.57C256.69 185.09 257.01 198.64 258.37 212.11C258.64 214.71 260.49 217.24 263.37 217.11C265.86 217 268.66 214.9 268.37 212.11C267.01 198.64 266.69 185.09 267.45 171.57C267.6 168.95 265.05 166.45 262.45 166.57C259.62 166.69 257.61 168.77 257.45 171.57L257.45 171.57Z" />
			<path id="path132" class="shp0" d="M271.61 162.67C271.47 176.12 272.49 189.53 274.5 202.83C274.9 205.5 278.27 206.98 280.65 206.32C283.51 205.54 284.55 202.85 284.14 200.17C282.29 187.91 281.48 175.2 281.61 162.67C281.64 160.05 279.29 157.55 276.61 157.67C273.88 157.79 271.64 159.87 271.61 162.67L271.61 162.67" />
			<path id="path134" class="shp0" d="M98.06 141.87C114.24 137.31 130.56 134.63 147.27 133.83C146.43 130.73 145.59 127.62 144.75 124.51C128.72 136.31 113.33 148.97 98.71 162.48C96.08 164.91 97.23 170.15 100.91 170.84C106.44 171.88 111.76 170.97 117.18 169.74C122.38 168.57 127.58 167.38 132.78 166.2C143.19 163.84 153.59 161.49 163.99 159.13C166.62 158.53 168.17 155.49 167.48 152.98C166.74 150.27 163.97 148.89 161.33 149.48C151.36 151.75 141.39 154.01 131.43 156.27C126.44 157.39 121.46 158.53 116.47 159.66C112.18 160.63 107.62 161.96 103.57 161.2C104.31 163.98 105.04 166.77 105.78 169.55C119.78 156.61 134.48 144.42 149.8 133.15C151.61 131.81 152.73 129.8 152.09 127.5C151.53 125.46 149.45 123.73 147.27 123.83C129.74 124.66 112.29 127.46 95.4 132.23C92.8 132.97 91.19 135.77 91.91 138.38C92.62 140.98 95.45 142.61 98.06 141.87L98.06 141.87" />
			<path id="path136" class="shp0" d="M160.38 124.18C162.84 130.56 165.31 136.95 167.77 143.33C168.93 146.36 169.81 150.03 171.69 152.69C173.99 155.92 177.92 156.82 181.61 155.59C184.47 154.63 186.66 153.12 189.37 152.24C192.53 151.22 195.79 150.46 199.01 149.62C205.52 147.93 212.03 146.23 218.55 144.53C221.16 143.85 222.75 140.96 222.04 138.38C221.31 135.74 218.51 134.21 215.89 134.89C210.01 136.42 204.12 137.96 198.24 139.49C192.45 141 186.45 142.21 181.05 144.88C180.57 145.12 180.11 145.38 179.63 145.62C179.33 145.77 179.02 145.92 178.71 146.06C179.11 145.88 179.03 145.89 178.48 146.1C177.47 146.38 178.49 146.15 178.86 146.26C179.78 146.52 180.39 148.02 179.63 146.5C180.13 147.5 179.32 145.64 179.31 145.62C179 144.79 178.68 143.97 178.36 143.14C177.81 141.7 177.25 140.26 176.69 138.82C174.47 133.05 172.25 127.29 170.03 121.52C169.06 119 166.66 117.26 163.88 118.03C161.47 118.69 159.41 121.64 160.38 124.18L160.38 124.18" />
			<path id="path138" class="shp0" d="M162.87 148.25C169.87 141.17 176.9 134.13 183.96 127.12C185.82 125.27 185.95 121.87 183.96 120.05C181.96 118.21 178.87 118.08 176.89 120.05C169.83 127.06 162.8 134.1 155.8 141.18C153.96 143.04 153.81 146.41 155.8 148.25C157.79 150.07 160.91 150.23 162.87 148.25L162.87 148.25" />
			<path id="path140" class="shp0" d="M436.99 62.73C453.16 58.16 469.48 55.48 486.2 54.68C485.36 51.58 484.52 48.47 483.68 45.37C467.64 57.17 452.25 69.82 437.64 83.33C435.01 85.76 436.16 91 439.84 91.69C445.37 92.73 450.69 91.82 456.11 90.59C461.31 89.42 466.51 88.23 471.71 87.06C482.11 84.7 492.51 82.34 502.92 79.98C505.55 79.38 507.1 76.35 506.41 73.83C505.66 71.12 502.9 69.74 500.26 70.34C490.29 72.6 480.32 74.86 470.35 77.12C465.37 78.25 460.39 79.38 455.4 80.51C451.11 81.48 446.55 82.81 442.5 82.05C443.24 84.83 443.97 87.62 444.71 90.41C458.71 77.46 473.41 65.27 488.73 54C490.54 52.67 491.65 50.66 491.02 48.36C490.46 46.31 488.38 44.58 486.2 44.68C468.67 45.52 451.22 48.32 434.33 53.08C431.73 53.82 430.12 56.62 430.84 59.23C431.55 61.83 434.38 63.46 436.99 62.73L436.99 62.73" />
			<path id="path142" class="shp0" d="M499.31 45.03C501.77 51.41 504.23 57.8 506.69 64.18C507.86 67.21 508.74 70.89 510.62 73.54C512.92 76.77 516.85 77.67 520.54 76.44C523.4 75.48 525.59 73.97 528.29 73.09C531.46 72.07 534.71 71.31 537.93 70.47C544.45 68.78 550.96 67.08 557.48 65.39C560.09 64.71 561.68 61.81 560.97 59.24C560.24 56.59 557.44 55.06 554.82 55.75C548.93 57.28 543.05 58.81 537.17 60.34C531.37 61.85 525.38 63.06 519.98 65.74C519.5 65.97 519.04 66.23 518.56 66.47C518.25 66.63 517.95 66.77 517.64 66.92C518.04 66.73 517.96 66.75 517.41 66.95C516.39 67.23 517.42 67.01 517.78 67.11C518.7 67.37 519.32 68.87 518.56 67.35C519.06 68.35 518.25 66.5 518.24 66.47C517.92 65.64 517.61 64.82 517.29 64C516.73 62.56 516.18 61.11 515.62 59.67C513.4 53.91 511.18 48.14 508.95 42.37C507.98 39.85 505.59 38.11 502.8 38.88C500.4 39.54 498.33 42.5 499.31 45.03L499.31 45.03" />
			<path id="path144" class="shp0" d="M501.8 69.1C508.8 62.03 515.83 54.98 522.89 47.97C524.75 46.12 524.87 42.72 522.89 40.9C520.89 39.06 517.8 38.93 515.82 40.9C508.76 47.91 501.73 54.95 494.73 62.03C492.89 63.89 492.73 67.27 494.73 69.1C496.72 70.92 499.83 71.09 501.8 69.1L501.8 69.1Z" />
		</g>
	</g>
</svg>