<svg xmlns="http://www.w3.org/2000/svg" viewBox="0 0 653 674" width="653" height="674">
	<style>
		tspan { white-space:pre }
		.shp0 { fill: #eb1d27 } 
	</style>
	<g id="g10">
		<g id="g12">
			<path id="path14" fill-rule="evenodd" class="shp0" d="M101.43 654.38L101.43 672.61L91.03 672.61L91.03 620.1L107.92 620.1C111.32 620.1 114.24 620.52 116.69 621.36C119.15 622.21 121.18 623.37 122.79 624.86C124.39 626.35 125.58 628.13 126.34 630.18C127.11 632.24 127.49 634.49 127.49 636.94C127.49 639.53 127.09 641.89 126.29 644.02C125.48 646.16 124.27 647.99 122.65 649.52C121.03 651.05 118.99 652.24 116.54 653.1C114.09 653.95 111.21 654.38 107.92 654.38C107.92 654.38 101.43 654.38 101.43 654.38ZM101.43 646.32L107.92 646.32C111.08 646.32 113.4 645.48 114.88 643.81C116.35 642.13 117.09 639.84 117.09 636.94C117.09 634.23 116.34 632.07 114.84 630.48C113.33 628.88 111.03 628.09 107.92 628.09L101.43 628.09L101.43 646.32Z" />
			<path id="path16" fill-rule="evenodd" class="shp0" d="M144.69 652.41L144.69 672.61L134.25 672.61L134.25 620.1L150.07 620.1C153.58 620.1 156.58 620.47 159.09 621.23C161.59 621.98 163.64 623.03 165.24 624.37C166.83 625.71 168 627.32 168.74 629.19C169.47 631.07 169.84 633.12 169.84 635.36C169.84 637.08 169.61 638.7 169.13 640.25C168.66 641.79 167.97 643.2 167.06 644.48C166.15 645.76 165.03 646.89 163.71 647.88C162.39 648.87 160.88 649.67 159.17 650.27C159.83 650.64 160.44 651.08 161.03 651.6C161.61 652.11 162.15 652.74 162.65 653.47L174.39 672.61L165.02 672.61C163.36 672.61 162.08 671.92 161.18 670.52L151.61 654.15C151.22 653.51 150.78 653.07 150.29 652.8C149.8 652.54 149.11 652.41 148.21 652.41L144.69 652.41ZM144.69 645.01L149.99 645.01C151.68 645.01 153.14 644.79 154.36 644.34C155.59 643.89 156.6 643.27 157.39 642.48C158.18 641.69 158.76 640.75 159.15 639.65C159.53 638.56 159.72 637.37 159.72 636.07C159.72 633.52 158.93 631.55 157.35 630.16C155.77 628.78 153.34 628.09 150.07 628.09L144.69 628.09L144.69 645.01Z" />
			<path id="path18" class="shp0" d="M212.71 620.1L212.71 623.93C212.71 625.07 212.38 626.11 211.72 627.06L189.1 664.35L212.08 664.35L212.08 672.61L176.53 672.61L176.53 668.58C176.53 667.53 176.83 666.58 177.44 665.73L200.06 628.36L178.27 628.36L178.27 620.1L212.71 620.1Z" />
			<path id="path20" class="shp0" d="M250.59 620.1L250.59 628.36L229 628.36L229 642.24L245.81 642.24L245.81 650.19L229 650.19L229 664.35L250.63 664.35L250.59 672.61L218.56 672.61L218.56 620.1L250.59 620.1Z" />
			<path id="path22" class="shp0" d="M267.6 641.89L269.26 641.89C270.84 641.89 271.96 641.36 272.62 640.31L282.94 622.23C283.52 621.44 284.16 620.89 284.86 620.57C285.56 620.26 286.41 620.1 287.41 620.1L296.46 620.1L282.94 641.73C281.96 643.13 280.92 644.11 279.82 644.69C280.61 644.99 281.32 645.41 281.95 645.96C282.58 646.51 283.19 647.21 283.77 648.06L297.53 672.61L288.32 672.61C287.16 672.61 286.29 672.44 285.73 672.08C285.16 671.72 284.68 671.26 284.28 670.68L273.81 651.54C273.41 650.9 272.94 650.44 272.4 650.15C271.86 649.86 271.12 649.72 270.17 649.72L267.6 649.72L267.6 672.61L257.2 672.61L257.2 620.1L267.6 620.1L267.6 641.89Z" />
			<path id="path24" fill-rule="evenodd" class="shp0" d="M346.73 672.61L338.74 672.61C337.81 672.61 337.08 672.4 336.52 671.96C335.97 671.53 335.56 670.98 335.3 670.32L331.97 660L312.64 660L309.36 670.28C309.14 670.86 308.74 671.39 308.15 671.88C307.56 672.37 306.83 672.61 305.96 672.61L297.85 672.61L316.99 620.1L327.59 620.1L346.73 672.61ZM314.97 652.72L329.6 652.72L324.26 636.11C323.95 635.3 323.62 634.34 323.28 633.25C322.93 632.15 322.59 630.96 322.25 629.67C321.93 630.96 321.6 632.16 321.26 633.27C320.92 634.37 320.6 635.34 320.31 636.15L314.97 652.72Z" />
			<path id="path26" class="shp0" d="M373.22 610.89C373.22 611.67 373.06 612.43 372.73 613.16C372.4 613.88 371.95 614.52 371.4 615.06C370.85 615.6 370.19 616.03 369.44 616.34C368.69 616.66 367.89 616.82 367.05 616.82C366.29 616.82 365.55 616.66 364.84 616.34C364.13 616.03 363.5 615.6 362.96 615.06C362.42 614.52 361.99 613.88 361.67 613.16C361.36 612.43 361.2 611.67 361.2 610.89C361.2 610.07 361.36 609.3 361.67 608.57C361.99 607.85 362.42 607.21 362.96 606.65C363.5 606.1 364.13 605.67 364.84 605.35C365.55 605.03 366.29 604.87 367.05 604.87C367.89 604.87 368.69 605.03 369.44 605.35C370.19 605.67 370.85 606.1 371.4 606.65C371.95 607.21 372.4 607.85 372.73 608.57C373.06 609.3 373.22 610.07 373.22 610.89ZM384.29 620.1L384.29 623.93C384.29 625.07 383.96 626.11 383.31 627.06L360.69 664.35L383.66 664.35L383.66 672.61L348.11 672.61L348.11 668.58C348.11 667.53 348.41 666.58 349.02 665.73L371.64 628.36L349.85 628.36L349.85 620.1L384.29 620.1" />
			<path id="path28" class="shp0" d="M413.12 665.5L423.28 665.5L423.28 636.07C423.28 634.86 423.32 633.6 423.4 632.28L416.56 638.17C416.11 638.54 415.67 638.76 415.22 638.84C414.77 638.92 414.35 638.92 413.95 638.84C413.56 638.76 413.21 638.63 412.9 638.43C412.6 638.23 412.37 638.03 412.21 637.81L409.21 633.7L424.98 620.02L432.81 620.02L432.81 665.5L441.79 665.5L441.79 672.61L413.12 672.61L413.12 665.5" />
			<path id="path30" fill-rule="evenodd" class="shp0" d="M500.83 665.22C500.14 666.91 499.23 668.35 498.08 669.55C496.93 670.75 495.61 671.67 494.11 672.32C492.61 672.96 491.02 673.29 489.36 673.29C487.57 673.29 485.92 672.96 484.42 672.32C482.92 671.67 481.61 670.75 480.51 669.55C479.4 668.35 478.53 666.91 477.91 665.22C477.29 663.53 476.99 661.66 476.99 659.6C476.99 657.47 477.29 655.54 477.91 653.83C478.53 652.12 479.4 650.65 480.51 649.44C481.61 648.23 482.92 647.3 484.42 646.65C485.92 646.01 487.57 645.68 489.36 645.68C491.18 645.68 492.86 646.01 494.38 646.65C495.91 647.3 497.23 648.23 498.34 649.44C499.45 650.65 500.31 652.12 500.93 653.83C501.55 655.54 501.86 657.47 501.86 659.6C501.86 661.66 501.52 663.53 500.83 665.22ZM461.25 669.77C460.56 670.87 459.82 671.62 459.01 672.02C458.21 672.42 457.28 672.61 456.22 672.61L451.95 672.61L485.61 620.61C486.26 619.56 487.01 618.75 487.84 618.18C488.67 617.61 489.68 617.33 490.87 617.33L495.18 617.33L461.25 669.77ZM470.7 636.31C470.01 638 469.1 639.44 467.95 640.62C466.8 641.81 465.48 642.72 463.97 643.37C462.47 644.02 460.9 644.34 459.27 644.34C457.48 644.34 455.82 644.02 454.31 643.37C452.79 642.72 451.48 641.81 450.37 640.62C449.26 639.44 448.4 638 447.78 636.31C447.16 634.63 446.85 632.75 446.85 630.7C446.85 628.56 447.16 626.64 447.78 624.92C448.4 623.21 449.26 621.75 450.37 620.53C451.48 619.32 452.79 618.39 454.31 617.75C455.82 617.1 457.48 616.78 459.27 616.78C461.06 616.78 462.72 617.1 464.25 617.75C465.78 618.39 467.1 619.32 468.21 620.53C469.31 621.75 470.18 623.21 470.8 624.92C471.42 626.64 471.73 628.56 471.73 630.7C471.73 632.75 471.38 634.63 470.7 636.31ZM494.11 659.6C494.11 658.21 493.99 657.03 493.75 656.08C493.51 655.13 493.18 654.37 492.74 653.79C492.31 653.21 491.8 652.8 491.22 652.54C490.64 652.29 490.02 652.17 489.36 652.17C488.7 652.17 488.1 652.29 487.54 652.54C486.99 652.8 486.51 653.21 486.1 653.79C485.69 654.37 485.37 655.13 485.13 656.08C484.89 657.03 484.78 658.21 484.78 659.6C484.78 660.97 484.89 662.12 485.13 663.04C485.37 663.97 485.69 664.7 486.1 665.26C486.51 665.81 486.99 666.21 487.54 666.44C488.1 666.68 488.7 666.8 489.36 666.8C490.02 666.8 490.64 666.68 491.22 666.44C491.8 666.21 492.31 665.81 492.74 665.26C493.18 664.7 493.51 663.97 493.75 663.04C493.99 662.12 494.11 660.97 494.11 659.6ZM463.97 630.7C463.97 629.27 463.86 628.09 463.62 627.14C463.38 626.19 463.05 625.42 462.63 624.84C462.21 624.26 461.71 623.85 461.13 623.6C460.55 623.35 459.93 623.22 459.27 623.22C458.58 623.22 457.97 623.35 457.41 623.6C456.86 623.85 456.37 624.26 455.95 624.84C455.53 625.42 455.2 626.19 454.98 627.14C454.75 628.09 454.64 629.27 454.64 630.7C454.64 632.07 454.75 633.21 454.98 634.14C455.2 635.06 455.53 635.8 455.95 636.35C456.37 636.91 456.86 637.3 457.41 637.54C457.97 637.77 458.58 637.89 459.27 637.89C459.93 637.89 460.55 637.77 461.13 637.54C461.71 637.3 462.21 636.91 462.63 636.35C463.05 635.8 463.38 635.06 463.62 634.14C463.86 633.21 463.97 632.07 463.97 630.7Z" />
			<path id="path32" class="shp0" d="M20.01 133.52C49.39 128.59 77.98 119.84 105.23 107.85C132.31 95.93 157.81 80.66 181.21 62.55C194.31 52.41 206.7 41.37 218.26 29.49C220.14 27.56 220.19 24.35 218.26 22.42C216.37 20.53 213.08 20.48 211.19 22.42C190.76 43.43 168.56 61.13 143.7 76.41C118.72 91.76 92.82 103.63 65.11 112.38C49.48 117.32 33.52 121.16 17.35 123.88C14.69 124.32 13.2 127.61 13.86 130.03C14.64 132.85 17.34 133.97 20.01 133.52L20.01 133.52" />
			<path id="path34" class="shp0" d="M208.4 32.13C201.36 79.64 195.6 127.33 191.19 175.15C186.79 222.96 183.89 270.88 181.74 318.84C180.53 345.8 179.53 372.76 178.52 399.72C178.42 402.42 180.89 404.72 183.52 404.72C186.31 404.72 188.42 402.43 188.52 399.72C190.3 351.87 192.09 304.02 195.01 256.22C197.91 208.68 202.07 161.22 207.58 113.9C210.65 87.48 214.14 61.1 218.04 34.79C218.44 32.12 217.37 29.41 214.55 28.64C212.19 27.99 208.8 29.44 208.4 32.13L208.4 32.13" />
			<path id="path36" class="shp0" d="M17.06 133.86C34.67 138.23 53.59 137.13 70.47 130.41C68.36 128.8 66.25 127.19 64.14 125.58C63.22 161.74 62.3 197.9 61.38 234.06C60.46 270.22 59.54 306.37 58.63 342.53C58.11 362.94 57.59 383.35 57.07 403.76C57 406.37 59.42 408.88 62.07 408.76C64.83 408.63 67 406.56 67.07 403.76C67.99 367.6 68.91 331.44 69.83 295.28C70.75 259.13 71.66 222.97 72.58 186.81C73.1 166.4 73.62 145.99 74.14 125.58C74.21 122.61 70.84 119.56 67.81 120.76C52.33 126.93 35.63 128.17 19.71 124.22C17.18 123.59 14.17 125.03 13.56 127.71C12.97 130.3 14.34 133.19 17.06 133.86L17.06 133.86" />
			<path id="path38" class="shp0" d="M6.47 413.19C35.24 404.55 65.11 398.28 94.67 394.77C124.76 391.2 155.17 390.21 185.44 391.83C202.37 392.73 219.33 394.46 235.86 397C238.43 397.39 241.36 396.35 242.01 393.51C242.55 391.12 241.28 387.78 238.52 387.36C207.9 382.66 176.92 380.54 145.94 381.2C115.1 381.85 84.29 385.2 54.01 391.12C37.08 394.43 20.33 398.59 3.81 403.54C1.22 404.32 -0.41 407.05 0.31 409.69C1.02 412.26 3.87 413.96 6.47 413.19L6.47 413.19" />
			<path id="path40" class="shp0" d="M612.58 228.87C598.28 216.21 577.25 214.04 558.94 215.95C549 216.99 539.3 219.42 530.37 223.99C522.34 228.09 515.25 234.05 509.57 241.03C498.08 255.16 491.28 272.74 487.58 290.44C483.49 310.02 483.22 330.79 489.24 350.01C494.56 366.99 504.8 381.94 518.97 392.74C532.75 403.26 550.07 408.73 567.41 406.83C586.93 404.7 605.69 395.59 620.66 383.03C627.6 377.21 633.71 370.3 638.45 362.57C643.43 354.45 646.77 345.32 648.82 336.05C650.97 326.35 651.87 316.38 652.23 306.47C652.61 296.07 652.77 285.57 651.25 275.25C648.6 257.32 638.18 241.35 622.68 231.89C619.09 229.69 615.24 227.94 611.28 226.54C608.81 225.66 605.7 227.53 605.13 230.03C604.49 232.83 605.98 235.25 608.62 236.18C609.55 236.51 610.47 236.85 611.38 237.23C610.48 236.85 611.96 237.5 611.99 237.51C612.43 237.72 612.88 237.93 613.32 238.15C615.09 239.02 616.8 239.98 618.46 241.04C619.29 241.57 620.11 242.12 620.91 242.69C621.31 242.97 621.71 243.27 622.1 243.56C621.51 243.12 622.17 243.61 622.26 243.69C623.92 245.03 625.52 246.44 627.03 247.95C629.92 250.84 631.65 252.97 633.68 256.1C634.75 257.75 635.73 259.45 636.62 261.21C637.67 263.29 638 264.05 638.66 265.88C641.91 274.83 642.44 283.88 642.46 293.39C642.48 302.69 642.22 312.04 641.19 321.29C640.27 329.52 638.29 338.87 635.05 347.12C632.22 354.35 627.51 361.78 622.36 367.5C616.68 373.84 610.79 378.62 603.84 383.01C596.14 387.87 588.19 391.68 579.57 394.24C570.81 396.84 562.44 397.84 553.25 396.81C551.67 396.63 554.22 396.99 552.66 396.72C552.18 396.64 551.7 396.57 551.22 396.49C550.43 396.34 549.64 396.18 548.85 396.01C546.89 395.57 544.95 395.04 543.04 394.41C542.2 394.13 541.36 393.84 540.53 393.53C540.08 393.36 539.63 393.18 539.18 393C537.71 392.44 540.04 393.4 538.59 392.76C536.83 391.97 535.08 391.13 533.38 390.21C526.39 386.4 521.42 382.47 515.94 376.68C514.59 375.25 513.29 373.77 512.05 372.24C511.74 371.86 511.43 371.47 511.12 371.09C511.26 371.26 511.6 371.72 511.01 370.93C510.32 370 509.64 369.08 508.99 368.13C506.76 364.89 504.77 361.49 503.04 357.95C495.34 342.17 493.45 324.05 495.17 306.37C496.77 289.81 501.81 272.13 510.12 257.76C514.2 250.7 518.52 245.07 524.86 239.62C530.68 234.62 538.48 230.64 546.31 228.42C555.08 225.92 563.34 225.19 572.63 225.48C576.94 225.61 580.46 225.92 584.21 226.6C586.25 226.98 588.26 227.44 590.25 228C591.2 228.27 592.13 228.56 593.06 228.88C593.57 229.05 594.07 229.23 594.57 229.42C594.75 229.49 596.39 230.17 595.83 229.92C599.48 231.53 602.96 233.69 605.51 235.95C607.53 237.74 610.59 237.94 612.58 235.95C614.41 234.12 614.61 230.67 612.58 228.87L612.58 228.87Z" />
			<path id="path42" class="shp0" d="M597.47 2.43C579.34 27.9 562.98 54.57 547.49 81.7C532.04 108.76 517.43 136.28 502.61 163.69C487.01 192.54 471.15 221.25 455.1 249.85C439.09 278.37 422.91 306.8 406.63 335.16C390.27 363.65 373.83 392.09 357.37 420.52C355.32 424.05 353.27 427.59 351.22 431.13C347.99 436.71 356.63 441.75 359.86 436.18C376.32 407.75 392.78 379.32 409.15 350.85C425.45 322.49 441.67 294.09 457.72 265.59C473.84 236.97 489.78 208.25 505.47 179.39C520.42 151.89 535.04 124.21 550.37 96.91C565.67 69.67 581.7 42.79 599.41 17.04C601.62 13.83 603.85 10.65 606.11 7.48C607.67 5.27 606.49 1.91 604.31 0.63C601.8 -0.83 599.04 0.22 597.47 2.43L597.47 2.43Z" />
			<path id="path44" class="shp0" d="M388.85 74.82C372.45 69.73 354.15 71.55 339.07 79.76C331.4 83.94 324.83 89.77 319.77 96.88C314.73 103.96 311.21 112.18 308.18 120.28C296.17 152.31 296.31 190.66 317.12 219.16C322.13 226.03 328.04 232.19 335.15 236.91C342.77 241.97 351.35 244.32 360.39 245.13C377.43 246.67 396.34 245.7 411.07 236.06C424.62 227.19 434.17 213.09 440.22 198.29C445.97 184.21 448.29 168.56 447.13 153.41C444.84 123.39 428.4 91.98 399.73 79.56C396.23 78.04 392.67 76.78 388.95 75.93C386.41 75.34 383.41 76.71 382.8 79.42C382.22 81.97 383.56 84.94 386.29 85.57C387.93 85.95 389.56 86.39 391.17 86.91C391.97 87.17 392.76 87.45 393.54 87.75C394.02 87.93 394.48 88.11 394.95 88.31C394.19 87.99 395.52 88.56 395.61 88.6C398.75 90.01 401.76 91.71 404.62 93.63C405.32 94.1 406.01 94.59 406.69 95.09C407.03 95.33 407.37 95.59 407.71 95.84C407.15 95.42 407.83 95.94 407.9 95.99C409.35 97.16 410.77 98.37 412.14 99.65C414.76 102.08 417.2 104.71 419.45 107.49C419.67 107.75 419.88 108.02 420.09 108.29C421.13 109.59 419.57 107.56 420.56 108.9C421.01 109.51 421.47 110.13 421.91 110.76C422.95 112.21 423.93 113.71 424.87 115.23C426.75 118.29 428.43 121.46 429.92 124.73C430.06 125.05 430.2 125.36 430.34 125.67C430.33 125.66 430.98 127.21 430.64 126.37C430.96 127.16 431.28 127.95 431.58 128.75C432.21 130.43 432.8 132.13 433.33 133.85C434.38 137.19 435.23 140.6 435.89 144.05C436.05 144.89 436.2 145.73 436.34 146.58C436.41 147 436.47 147.42 436.53 147.85C436.56 148.05 436.72 149.13 436.61 148.3C436.85 150.17 437.04 152.04 437.17 153.92C437.41 157.34 437.47 160.78 437.35 164.2C437.1 171.47 436.29 177.03 434.4 184.2C433.48 187.67 432.37 191.09 431.05 194.44C430.36 196.2 430.21 196.56 429.33 198.43C428.57 200.06 427.77 201.67 426.91 203.25C423.35 209.82 419.52 215.24 414.42 220.42C409.38 225.54 403.54 229.68 396.86 232.05C389.2 234.77 382.02 235.53 373.97 235.63C365.75 235.72 357.54 235.55 349.8 233.05C346.54 232 343.42 230.41 340.2 228.27C337.29 226.34 334.97 224.36 332.3 221.69C321.79 211.18 315.17 197.59 311.98 182.95C310.37 175.53 309.77 168.34 310.03 160.33C310.3 152.05 311.48 144.45 313.57 136.35C315.62 128.45 318.39 120.75 321.79 113.53C325.14 106.41 328.97 100.14 334.72 94.94C345.67 85.06 361.03 80.75 375.93 82.26C377.31 82.4 378.89 82.64 380.74 83.03C382.58 83.42 384.4 83.9 386.2 84.46C388.69 85.23 391.76 83.54 392.35 80.97C392.96 78.25 391.53 75.65 388.85 74.82L388.85 74.82" />
			<path id="path46" class="shp0" d="M368.78 76.75C359.2 118.13 356.14 161.04 359.93 203.36C361.01 215.43 362.63 227.46 364.77 239.39C365.25 242.05 368.49 243.55 370.92 242.88C373.72 242.11 374.89 239.4 374.41 236.73C367.2 196.51 366.35 154.29 372.03 113.83C373.65 102.27 375.79 90.78 378.42 79.41C379.01 76.86 377.64 73.87 374.93 73.26C372.38 72.67 369.41 74.02 368.78 76.75L368.78 76.75" />
			<path id="path48" class="shp0" d="M574.63 219.37C566.63 242.65 561.13 266.68 557.92 291.08C554.76 315.22 554.01 339.67 555.72 363.96C556.71 377.92 558.5 391.84 561.06 405.61C561.55 408.27 564.76 409.77 567.21 409.1C569.99 408.33 571.19 405.62 570.7 402.95C566.38 379.67 564.46 355.86 564.89 331.93C565.32 307.89 568.06 284.55 573.24 261.16C576.18 247.92 579.87 234.85 584.27 222.03C585.12 219.55 583.3 216.45 580.78 215.88C578 215.25 575.54 216.72 574.63 219.37L574.63 219.37" />
		</g>
	</g>
</svg>